<svg width="100" height="30" viewBox="0 0 100 30" fill="none" xmlns="http://www.w3.org/2000/svg">
  <path fill-rule="evenodd" clip-rule="evenodd"
        d="M20.2229 10.8002C24.1677 10.8002 27.366 14.0237 27.366 18.0001C27.366 21.9766 24.1677 25.2001 20.2229 25.2001C16.2784 25.2001 13.0802 21.9766 13.0802 18.0001C13.0802 14.0237 16.2784 10.8002 20.2229 10.8002ZM51.1906 5.99993H55.9525V30H51.1906V28.7155C49.7897 29.5323 48.1632 30 46.4288 30C41.169 30 36.9048 25.702 36.9048 20.4001V5.99993H41.6666V20.4001C41.6666 23.0511 43.7986 25.2001 46.4288 25.2001C49.0583 25.2001 51.1906 23.0511 51.1906 20.4001V5.99993ZM27.366 30H32.1278V18.0001V5.99993H27.366V8.39954C25.3762 6.89297 22.903 5.99993 20.2229 5.99993C13.6481 5.99993 8.31833 11.3724 8.31833 18.0001C8.31833 24.6275 13.6481 30 20.2229 30C22.903 30 25.3762 29.1073 27.366 27.6004V30ZM73.688 12.2915C72.8208 11.3724 71.5957 10.8002 70.2379 10.8002C67.608 10.8002 65.4761 12.9492 65.4761 15.6002V30H60.7143V15.6002V15.5998C60.7143 10.2983 64.9785 5.99993 70.2379 5.99993C72.4735 5.99993 74.5286 6.77675 76.1538 8.0762C75.1256 9.3318 74.2889 10.7517 73.688 12.2915ZM88.0951 10.8002C92.0403 10.8002 95.2382 14.0237 95.2382 18.0001C95.2382 21.9766 92.0403 25.2001 88.0951 25.2001C84.1503 25.2001 80.9524 21.9766 80.9524 18.0001C80.9524 14.0237 84.1503 10.8002 88.0951 10.8002ZM88.0951 5.99993C94.6702 5.99993 100 11.3724 100 18.0001C100 24.6275 94.6702 30 88.0951 30C81.5204 30 76.1905 24.6275 76.1905 18.0001C76.1905 11.3724 81.5204 5.99993 88.0951 5.99993ZM80.9524 2.39997H80.9584H95.2322H95.2382V0H95.2322H80.9584H80.9524V2.39997ZM0 30H4.76182V5.99993H0V30Z"
        fill="black"/>
</svg>
