<svg width="40" height="37" viewBox="0 0 40 37" fill="none" xmlns="http://www.w3.org/2000/svg">
  <path fill-rule="evenodd" clip-rule="evenodd"
        d="M25.2711 13.0539C30.1522 13.0539 34.1086 16.95 34.1086 21.7562C34.1086 26.5623 30.1522 30.4585 25.2711 30.4585C20.3905 30.4585 16.4341 26.5623 16.4341 21.7562C16.4341 16.95 20.3905 13.0539 25.2711 13.0539ZM25.2711 7.25191C33.4059 7.25191 40 13.7455 40 21.7562C40 29.7665 33.4059 36.26 25.2711 36.26C17.1368 36.26 10.5427 29.7665 10.5427 21.7562C10.5427 13.7455 17.1368 7.25191 25.2711 7.25191ZM16.4341 2.90077H16.4415H34.1012H34.1086V0H34.1012H16.4415H16.4341V2.90077ZM0 36.26H5.89137V7.25191H0V36.26Z"
        fill="black"/>
</svg>
