<svg width="20" height="20" viewBox="0 0 20 20" fill="none" xmlns="http://www.w3.org/2000/svg">
<path d="M14.0834 13.2537V14.167V14.1675C14.0834 14.1785 14.0856 14.1893 14.0898 14.1994C14.094 14.2096 14.1001 14.2188 14.1079 14.2265C14.1156 14.2343 14.1248 14.2404 14.135 14.2446C14.1451 14.2488 14.1559 14.251 14.1669 14.251C14.1779 14.251 14.1888 14.2488 14.1989 14.2446C14.209 14.2404 14.2182 14.2343 14.226 14.2265C14.2337 14.2188 14.2399 14.2096 14.2441 14.1994C14.2482 14.1895 14.2503 14.1788 14.2504 14.168C14.2504 14.1676 14.2504 14.1673 14.2504 14.1669L14.0834 13.2537ZM14.0834 13.2537C14.1932 13.544 14.2503 13.8533 14.2504 14.1669L14.0834 13.2537ZM12.6556 11.7806C12.8057 11.8428 12.9488 11.9187 13.0834 12.0069V12.2105C12.6741 11.9141 12.1791 11.7514 11.6674 11.751H11.6669C11.189 11.751 10.7218 11.8927 10.3244 12.1582C9.92699 12.4238 9.61726 12.8012 9.43436 13.2427C9.25146 13.6843 9.20361 14.1702 9.29685 14.6389C9.39009 15.1077 9.62024 15.5382 9.95819 15.8762C10.2961 16.2142 10.7267 16.4443 11.1955 16.5375C11.6642 16.6308 12.1501 16.5829 12.5917 16.4C13.0332 16.2171 13.4106 15.9074 13.6762 15.51C13.7418 15.4118 13.7998 15.3094 13.85 15.2036C13.9042 15.2202 13.9597 15.2325 14.0158 15.2404C13.8888 15.5178 13.7125 15.7733 13.4926 15.9932C13.0082 16.4776 12.3514 16.7501 11.6663 16.751C11.1556 16.7509 10.6563 16.5993 10.2316 16.3156C9.80675 16.0317 9.47561 15.6282 9.28007 15.1561C9.08453 14.6841 9.03337 14.1646 9.13306 13.6635C9.23274 13.1623 9.4788 12.702 9.84011 12.3407C10.2014 11.9794 10.6617 11.7333 11.1629 11.6336C11.6641 11.5339 12.1835 11.5851 12.6556 11.7806ZM14.0834 11.5213L14.0834 3.33414C14.0834 3.32316 14.0856 3.3123 14.0898 3.30218C14.094 3.29206 14.1001 3.28285 14.1079 3.27509C14.1156 3.26734 14.1248 3.26119 14.135 3.257C14.1451 3.2528 14.1559 3.25064 14.1669 3.25064H17.5002C17.5224 3.25064 17.5436 3.25944 17.5593 3.2751C17.5749 3.29076 17.5837 3.312 17.5837 3.33414C17.5837 3.35629 17.5749 3.37753 17.5593 3.39318C17.5436 3.40884 17.5224 3.41764 17.5002 3.41764H14.7504H14.2504V3.91764L14.2504 11.6841C14.1965 11.628 14.1408 11.5737 14.0834 11.5213ZM10.8926 7.44176L11.234 7.1004L10.8926 7.44177C10.9083 7.45742 10.9171 7.47866 10.9171 7.50081C10.9171 7.52296 10.9083 7.54419 10.8926 7.55985L11.2462 7.9134L10.8926 7.55985C10.877 7.57551 10.8557 7.58431 10.8336 7.58431H2.50025C2.4781 7.58431 2.45686 7.57551 2.4412 7.55985C2.42555 7.54419 2.41675 7.52295 2.41675 7.50081C2.41675 7.47866 2.42555 7.45742 2.4412 7.44176C2.45686 7.4261 2.4781 7.41731 2.50025 7.41731H10.8336C10.8557 7.41731 10.877 7.4261 10.8926 7.44176ZM10.8336 4.25097H2.50025C2.4781 4.25097 2.45686 4.24218 2.4412 4.22652C2.42555 4.21086 2.41675 4.18962 2.41675 4.16747C2.41675 4.14533 2.42555 4.12409 2.4412 4.10843C2.45686 4.09277 2.4781 4.08397 2.50025 4.08397H10.8336C10.8557 4.08397 10.877 4.09277 10.8926 4.10843C10.9083 4.12409 10.9171 4.14533 10.9171 4.16747C10.9171 4.18962 10.9083 4.21086 10.8926 4.22652C10.877 4.24218 10.8557 4.25097 10.8336 4.25097ZM7.50025 10.9176H2.50025C2.4781 10.9176 2.45686 10.9088 2.4412 10.8932C2.42555 10.8775 2.41675 10.8563 2.41675 10.8341C2.41675 10.812 2.42555 10.7908 2.4412 10.7751L2.08765 10.4215L2.44121 10.7751C2.45686 10.7594 2.4781 10.7506 2.50025 10.7506H7.50025C7.5224 10.7506 7.54363 10.7594 7.55929 10.7751L7.91284 10.4215L7.55929 10.7751C7.57495 10.7908 7.58375 10.812 7.58375 10.8341C7.58375 10.8563 7.57495 10.8775 7.55929 10.8932C7.54363 10.9088 7.52239 10.9176 7.50025 10.9176Z" fill="#2B6DBA" stroke="#2B6DBA"/>
</svg>
