<svg width="24" height="24" viewBox="0 0 24 24" fill="none" xmlns="http://www.w3.org/2000/svg">
<path d="M7.52078 21.48C4.25078 19.94 1.91078 16.76 1.55078 13H0.0507812C0.560781 19.16 5.71078 24 12.0008 24L12.6608 23.97L8.85078 20.16L7.52078 21.48ZM8.41078 14.96C8.22078 14.96 8.04078 14.93 7.89078 14.88C7.73078 14.82 7.60078 14.75 7.49078 14.64C7.38078 14.54 7.29078 14.42 7.23078 14.27C7.17078 14.13 7.14078 13.97 7.14078 13.8H5.84078C5.84078 14.16 5.91078 14.48 6.05078 14.75C6.19078 15.02 6.38078 15.25 6.61078 15.44C6.85078 15.62 7.12078 15.76 7.43078 15.85C7.73078 15.95 8.05078 16 8.39078 16C8.76078 16 9.11078 15.95 9.42078 15.85C9.74078 15.75 10.0208 15.6 10.2508 15.41C10.4808 15.22 10.6708 14.98 10.8008 14.69C10.9308 14.4 11.0008 14.08 11.0008 13.72C11.0008 13.53 10.9808 13.34 10.9308 13.16C10.8808 12.98 10.8108 12.81 10.7008 12.65C10.6008 12.49 10.4608 12.35 10.3008 12.22C10.1308 12.09 9.93078 11.99 9.69078 11.91C9.89078 11.82 10.0608 11.71 10.2108 11.58C10.3608 11.45 10.4808 11.31 10.5808 11.16C10.6808 11.01 10.7508 10.86 10.8008 10.7C10.8508 10.54 10.8708 10.38 10.8708 10.22C10.8708 9.86 10.8108 9.54 10.6908 9.26C10.5708 8.98 10.4008 8.75 10.1808 8.57C9.98078 8.38 9.71078 8.24 9.41078 8.14C9.10078 8.05 8.76078 8 8.39078 8C8.03078 8 7.70078 8.05 7.39078 8.16C7.09078 8.27 6.82078 8.42 6.60078 8.61C6.39078 8.8 6.22078 9.02 6.09078 9.28C5.97078 9.54 5.91078 9.82 5.91078 10.13H7.21078C7.21078 9.96 7.24078 9.81 7.30078 9.68C7.36078 9.55 7.44078 9.43 7.55078 9.34C7.66078 9.25 7.78078 9.17 7.93078 9.12C8.08078 9.07 8.23078 9.04 8.41078 9.04C8.81078 9.04 9.11078 9.14 9.30078 9.35C9.49078 9.55 9.59078 9.84 9.59078 10.21C9.59078 10.39 9.56078 10.55 9.51078 10.7C9.46078 10.85 9.37078 10.97 9.26078 11.07C9.15078 11.17 9.01078 11.25 8.85078 11.31C8.69078 11.37 8.49078 11.4 8.27078 11.4H7.50078V12.43H8.27078C8.49078 12.43 8.69078 12.45 8.87078 12.5C9.05078 12.55 9.20078 12.63 9.32078 12.73C9.44078 12.84 9.54078 12.97 9.61078 13.13C9.68078 13.29 9.71078 13.48 9.71078 13.7C9.71078 14.11 9.59078 14.42 9.36078 14.63C9.13078 14.86 8.81078 14.96 8.41078 14.96ZM16.9608 9.04C16.6408 8.71 16.2608 8.45 15.8208 8.27C15.3908 8.09 14.9008 8 14.3608 8H12.0008V16H14.3008C14.8508 16 15.3608 15.91 15.8108 15.73C16.2608 15.55 16.6508 15.3 16.9708 14.97C17.2908 14.64 17.5408 14.24 17.7108 13.78C17.8808 13.31 17.9708 12.79 17.9708 12.21V11.81C17.9708 11.23 17.8808 10.71 17.7108 10.24C17.5308 9.77 17.2808 9.37 16.9608 9.04ZM16.5708 12.2C16.5708 12.62 16.5208 12.99 16.4308 13.33C16.3308 13.66 16.1908 13.95 16.0008 14.18C15.8108 14.41 15.5708 14.59 15.2908 14.71C15.0008 14.83 14.6708 14.89 14.3008 14.89H13.3908V9.12H14.3608C15.0808 9.12 15.6308 9.35 16.0008 9.81C16.3808 10.27 16.5708 10.93 16.5708 11.8V12.2ZM12.0008 0L11.3408 0.03L15.1508 3.84L16.4808 2.51C19.7508 4.06 22.0908 7.23 22.4408 10.99H23.9408C23.4408 4.84 18.2908 0 12.0008 0Z" fill="#848B96"/>
</svg>
