<svg width="24" height="24" viewBox="0 0 24 24" fill="none" xmlns="http://www.w3.org/2000/svg">
<path d="M17 6.53906C18.1046 6.53906 19 5.64363 19 4.53906C19 3.43449 18.1046 2.53906 17 2.53906C15.8954 2.53906 15 3.43449 15 4.53906C15 5.64363 15.8954 6.53906 17 6.53906Z" fill="#848B96"/>
<path d="M14 17H12C12 18.65 10.65 20 9 20C7.35 20 6 18.65 6 17C6 15.35 7.35 14 9 14V12C6.24 12 4 14.24 4 17C4 19.76 6.24 22 9 22C11.76 22 14 19.76 14 17ZM17 13.5H15.14L16.81 9.83C17.42 8.5 16.44 7 14.96 7H9.76C8.95 7 8.22 7.47 7.89 8.2L7.22 10L9.14 10.53L9.79 9H12L10.17 13.1C9.57 14.43 10.56 16 12.02 16H17V21H19V15.5C19 14.4 18.1 13.5 17 13.5Z" fill="#848B96"/>
</svg>
