<svg width="24" height="24" viewBox="0 0 24 24" fill="none" xmlns="http://www.w3.org/2000/svg">
  <path
    d="M12.0006 6.98926L4.46829 13.1989C4.46829 13.2076 4.46609 13.2205 4.46169 13.2381C4.45737 13.2555 4.45508 13.2682 4.45508 13.2772V19.5651C4.45508 19.7921 4.53808 19.9889 4.70404 20.1546C4.86996 20.3203 5.06643 20.4038 5.2935 20.4038H10.3237V15.3733H13.6776V20.4039H18.7078C18.9348 20.4039 19.1315 20.3207 19.2972 20.1546C19.4632 19.9891 19.5465 19.7922 19.5465 19.5651V13.2772C19.5465 13.2423 19.5417 13.216 19.5333 13.1989L12.0006 6.98926Z"
    fill="#848B96"/>
  <path
    d="M22.4157 11.7843L19.547 9.40009V4.05528C19.547 3.9331 19.5077 3.83261 19.4289 3.75397C19.3507 3.67542 19.2502 3.63614 19.1278 3.63614H16.6126C16.4903 3.63614 16.3898 3.67542 16.3112 3.75397C16.2327 3.83261 16.1934 3.93314 16.1934 4.05528V6.60975L12.9971 3.93727C12.7179 3.7102 12.386 3.59668 12.0017 3.59668C11.6174 3.59668 11.2856 3.7102 11.0061 3.93727L1.58697 11.7843C1.49966 11.854 1.4518 11.9479 1.4429 12.0658C1.43404 12.1837 1.46456 12.2866 1.53453 12.3738L2.34671 13.3433C2.41668 13.4218 2.50826 13.4699 2.62183 13.4874C2.72667 13.4962 2.83151 13.4656 2.93636 13.3958L12.0014 5.83684L21.0666 13.3957C21.1366 13.4566 21.2282 13.4871 21.3417 13.4871H21.3811C21.4945 13.4698 21.5859 13.4214 21.6562 13.3431L22.4685 12.3738C22.5383 12.2863 22.5689 12.1836 22.5598 12.0656C22.5509 11.948 22.5028 11.8542 22.4157 11.7843Z"
    fill="#848B96"/>
</svg>
