<svg width="24" height="24" viewBox="0 0 24 24" fill="none" xmlns="http://www.w3.org/2000/svg">
<path d="M19.9997 21V18H22.9997V16H19.9997V13H17.9997V16H14.9997V18H17.9997V21H19.9997ZM15.0297 21.5H5.65974C4.93974 21.5 4.27974 21.12 3.92974 20.5L1.56974 16.4C1.20974 15.78 1.21974 15.02 1.57974 14.4L7.91974 3.49C8.27974 2.88 8.93974 2.5 9.64974 2.5H14.3497C15.0597 2.5 15.7197 2.88 16.0797 3.49L20.5597 11.2C20.0597 11.07 19.5397 11 18.9997 11C18.7197 11 18.4397 11.02 18.1597 11.06L14.3497 4.5H9.64974L3.30974 15.41L5.65974 19.5H13.5497C13.8997 20.27 14.3997 20.95 15.0297 21.5ZM13.3397 15C13.1197 15.63 12.9997 16.3 12.9997 17H7.24974L6.51974 15.73L11.0997 7.75H12.8997L15.4297 12.17C14.8697 12.59 14.3797 13.1 13.9897 13.68L11.9897 10.19L9.24974 15H13.3397Z" fill="#848B96"/>
</svg>
