<svg width="24" height="24" viewBox="0 0 24 24" fill="none" xmlns="http://www.w3.org/2000/svg">
  <path
    d="M22 5.71937L17.4 1.85938L16.11 3.38938L20.71 7.24937L22 5.71937ZM7.88 3.38938L6.6 1.85938L2 5.70937L3.29 7.23937L7.88 3.38938ZM12 3.99937C7.03 3.99937 3 8.02938 3 12.9994C3 17.9694 7.02 21.9994 12 21.9994C16.97 21.9994 21 17.9694 21 12.9994C21 8.02938 16.97 3.99937 12 3.99937ZM12 19.9994C8.13 19.9994 5 16.8694 5 12.9994C5 9.12938 8.13 5.99937 12 5.99937C15.87 5.99937 19 9.12938 19 12.9994C19 16.8694 15.87 19.9994 12 19.9994ZM10.54 14.5294L8.41 12.3994L7.35 13.4594L10.53 16.6394L16.53 10.6394L15.47 9.57937L10.54 14.5294Z"
    fill="#848B96"/>
</svg>
