<svg width="24" height="24" viewBox="0 0 24 24" fill="none" xmlns="http://www.w3.org/2000/svg">
<path d="M12.0004 5.99937C15.8704 5.99937 19.0004 9.12938 19.0004 12.9994C19.0004 13.8394 18.8404 14.6494 18.5704 15.3994L20.0904 16.9194C20.6704 15.7294 21.0004 14.4094 21.0004 12.9994C21.0004 8.02938 16.9704 3.99937 12.0004 3.99937C10.5904 3.99937 9.27039 4.32937 8.08039 4.90937L9.60039 6.42937C10.3504 6.15937 11.1604 5.99937 12.0004 5.99937ZM22.0004 5.71937L17.4004 1.85938L16.1104 3.38938L20.7104 7.24937L22.0004 5.71937ZM2.92039 2.28937L1.65039 3.56937L2.98039 4.89937L1.87039 5.82937L3.29039 7.24937L4.40039 6.30937L5.20039 7.10938C3.83039 8.68937 3.00039 10.7494 3.00039 12.9994C3.00039 17.9694 7.02039 21.9994 12.0004 21.9994C14.2504 21.9994 16.3104 21.1694 17.8904 19.7994L20.0904 21.9994L21.3604 20.7294L3.89039 3.26937L2.92039 2.28937ZM16.4704 18.3894C15.2604 19.3894 13.7004 19.9994 12.0004 19.9994C8.13039 19.9994 5.00039 16.8694 5.00039 12.9994C5.00039 11.2994 5.61039 9.73937 6.61039 8.52937L16.4704 18.3894ZM8.02039 3.27937L6.60039 1.85938L5.74039 2.56937L7.16039 3.98938L8.02039 3.27937Z" fill="#848B96"/>
</svg>
