<svg width="24" height="24" viewBox="0 0 24 24" fill="none" xmlns="http://www.w3.org/2000/svg">
  <path
    d="M17.6 9.47973L19.44 6.29973C19.6 5.98973 19.48 5.60973 19.18 5.44973C18.89 5.29973 18.53 5.38973 18.35 5.66973L16.47 8.90973C13.61 7.69973 10.39 7.69973 7.53 8.90973L5.65 5.66973C5.46 5.37973 5.07 5.28973 4.78 5.46973C4.5 5.64973 4.41 6.00973 4.56 6.29973L6.4 9.47973C3.3 11.2497 1.28 14.4397 1 17.9997H23C22.72 14.4397 20.7 11.2497 17.6 9.47973ZM7 15.2497C6.31 15.2497 5.75 14.6897 5.75 13.9997C5.75 13.3097 6.31 12.7497 7 12.7497C7.69 12.7497 8.25 13.3097 8.25 13.9997C8.25 14.6897 7.69 15.2497 7 15.2497ZM17 15.2497C16.31 15.2497 15.75 14.6897 15.75 13.9997C15.75 13.3097 16.31 12.7497 17 12.7497C17.69 12.7497 18.25 13.3097 18.25 13.9997C18.25 14.6897 17.69 15.2497 17 15.2497Z"
    fill="#848B96"/>
</svg>
