<svg width="25" height="24" viewBox="0 0 25 24" fill="none" xmlns="http://www.w3.org/2000/svg">
  <path
    d="M15.7645 18.5321V19.0914H4.95446V4.18336H15.7645V8.44977C15.902 8.38721 16.0576 8.35596 16.2169 8.35596H17.0275V2.26556C17.0275 1.52208 16.3761 0.882812 15.5835 0.882812H5.13179C4.33923 0.882812 3.69141 1.5047 3.69141 2.26556V21.7353C3.69141 22.5066 4.34645 23.1181 5.13179 23.1181H15.5835C16.387 23.1181 17.0275 22.4858 17.0275 21.7353V18.671H16.3073C16.1083 18.671 15.9237 18.6224 15.7645 18.5321ZM9.43842 2.18566H11.2769C11.4796 2.18566 11.6388 2.34201 11.6388 2.53309C11.6388 2.72417 11.4796 2.88052 11.2769 2.88052H9.43842C9.23938 2.88052 9.07652 2.72417 9.07652 2.53309C9.07652 2.34201 9.23938 2.18566 9.43842 2.18566ZM11.5556 21.5825H9.15977C8.96071 21.5825 8.79786 21.4296 8.79786 21.235C8.79786 21.044 8.9607 20.8876 9.15977 20.8876H11.5556C11.7582 20.8876 11.9175 21.044 11.9175 21.235C11.9175 21.4296 11.7582 21.5825 11.5556 21.5825Z"
    fill="#848B96"/>
  <path
    d="M12.5916 9.63654C12.7324 9.77067 12.9618 9.77145 13.1034 9.63416L14.6159 8.16862C14.7556 8.03325 14.7556 7.81509 14.6159 7.67971L13.1034 6.21418C12.9627 6.07779 12.7337 6.0771 12.5916 6.2118C12.4496 6.34684 12.4485 6.56686 12.5892 6.70309L13.8493 7.92417L12.5892 9.14525C12.4485 9.28147 12.4496 9.5015 12.5916 9.63654Z"
    fill="#848B96"/>
  <path
    d="M8.12497 6.21218C7.98307 6.07681 7.7537 6.07783 7.61322 6.21456L6.10093 7.6801C5.96115 7.81547 5.96115 8.03363 6.10093 8.16901L7.61322 9.63454C7.75378 9.77084 7.98279 9.77204 8.12497 9.63692C8.26704 9.50188 8.26811 9.28186 8.12745 9.14563L6.8675 7.92455L8.12745 6.70347C8.2681 6.56724 8.26704 6.34722 8.12497 6.21218Z"
    fill="#848B96"/>
  <path
    d="M10.9409 5.23034L8.81671 10.362C8.74285 10.5403 8.83367 10.7423 9.0194 10.8131C9.2041 10.8839 9.41513 10.7977 9.48927 10.6185L11.6135 5.48684C11.6874 5.30854 11.5965 5.1065 11.4108 5.03576C11.2244 4.964 11.0146 5.05205 10.9409 5.23034Z"
    fill="#848B96"/>
  <path
    d="M20.9731 12.7211L20.1783 12.6349C20.0919 12.3033 19.9512 11.9903 19.7722 11.7079V11.7048L20.2422 11.0687C20.3493 10.9238 20.3319 10.7259 20.201 10.6002L19.6317 10.0537C19.4951 9.92251 19.2775 9.91087 19.1265 10.0266L18.5029 10.5047C18.2056 10.3359 17.8794 10.207 17.5309 10.1272L17.3955 9.3538C17.3648 9.17833 17.2065 9.0498 17.0212 9.0498H16.214C16.0208 9.0498 15.8584 9.1891 15.8368 9.37342L15.7469 10.1394C15.4015 10.2254 15.0754 10.3574 14.7813 10.5293L14.1159 10.0755C13.9648 9.97246 13.7582 9.9893 13.6273 10.1153L13.0602 10.6614C12.9241 10.7925 12.9119 11.0007 13.032 11.1456L13.5311 11.7478C13.3521 12.0333 13.2178 12.3463 13.1347 12.6809L12.3321 12.8108C12.1494 12.8403 12.0156 12.9922 12.0156 13.1701V13.9423C12.0156 14.1277 12.1606 14.2835 12.3525 14.3044L13.1443 14.3906C13.2338 14.722 13.3713 15.0351 13.5535 15.3206V15.3236L13.0842 15.9566C12.9767 16.1015 12.994 16.2997 13.1251 16.4255L13.6944 16.9721C13.8309 17.1031 14.0481 17.1149 14.1991 16.9996L14.826 16.5207C15.1234 16.6895 15.4495 16.8184 15.7948 16.8982L15.9302 17.6716C15.9609 17.8471 16.1192 17.9756 16.3045 17.9756H17.1118C17.305 17.9756 17.4673 17.8363 17.489 17.652L17.5789 16.886C17.9242 16.8031 18.2503 16.6711 18.5445 16.4962L19.2098 16.9499C19.361 17.0529 19.5676 17.0361 19.6984 16.9101L20.2656 16.3639C20.4017 16.2328 20.4139 16.0247 20.294 15.8798L19.7978 15.2807C19.9736 14.9921 20.1079 14.6791 20.1911 14.3445L20.9936 14.2146C21.1763 14.1851 21.3101 14.0332 21.3101 13.8553V13.0832C21.3101 12.8978 21.165 12.7419 20.9731 12.7211ZM16.6645 15.0106C15.8044 15.0106 15.1042 14.3414 15.1042 13.5127C15.1042 12.687 15.8044 12.0148 16.6645 12.0148C17.5245 12.0148 18.2215 12.687 18.2215 13.5127C18.2215 14.3414 17.5245 15.0106 16.6645 15.0106Z"
    fill="#848B96"/>
</svg>
