<svg width="25" height="24" viewBox="0 0 25 24" fill="none" xmlns="http://www.w3.org/2000/svg">
  <path
    d="M18.2988 3.95605C15.4551 3.95605 13.1426 6.17666 13.1426 8.90605C13.1426 11.6354 15.4551 13.856 18.2988 13.856C21.1426 13.856 23.498 11.6354 23.498 8.90605C23.498 6.17666 21.1426 3.95605 18.2988 3.95605ZM17.6543 11.0185L15.4538 8.90605L16.3652 8.0311L17.6543 9.26859L20.2324 6.7936L21.1438 7.66855L17.6543 11.0185Z"
    fill="#848B96"/>
  <path d="M1.5 15.0938H15.7227V17.5688H1.5V15.0938Z" fill="#848B96"/>
  <path d="M2.78711 18.8057H14.4317V21.2807H2.78711V18.8057Z" fill="#848B96"/>
  <path
    d="M10.5664 13.8563V12.2846C10.5664 10.3691 11.075 8.75094 11.4451 7.56963C11.683 6.81195 11.8555 6.2651 11.8555 5.8125C11.8555 4.10669 10.4103 2.71875 8.63281 2.71875C6.85532 2.71875 5.41016 4.10669 5.41016 5.8125C5.41016 6.37928 5.63548 6.9654 5.89734 7.64338C6.25484 8.57089 6.69922 9.72502 6.69922 11.2266V13.8563H10.5664Z"
    fill="#848B96"/>
</svg>
