<svg width="24" height="24" viewBox="0 0 24 24" fill="none" xmlns="http://www.w3.org/2000/svg">
  <path fill-rule="evenodd" clip-rule="evenodd"
        d="M18.894 9.65541H19.0437C19.6657 9.65541 20.2621 9.90247 20.7019 10.3422C21.1417 10.782 21.3887 11.3785 21.3887 12.0004C21.3887 12.6223 21.1417 13.2188 20.7019 13.6586C20.2621 14.0983 19.6657 14.3454 19.0437 14.3454H18.894C18.4213 15.7217 17.5505 16.9267 16.392 17.8074C15.1275 18.7636 13.5854 19.2811 12 19.2811C10.4146 19.2811 8.87257 18.7636 7.60806 17.8074C6.44958 16.9267 5.57877 15.7217 5.10606 14.3454H4.95632C4.33439 14.3454 3.73793 14.0983 3.29816 13.6586C2.85839 13.2188 2.61133 12.6223 2.61133 12.0004C2.61133 11.3785 2.85839 10.782 3.29816 10.3422C3.73793 9.90247 4.33439 9.65541 4.95632 9.65541H5.10606C5.57876 8.27907 6.44958 7.07413 7.60806 6.19341C8.87258 5.23715 10.4146 4.71973 12 4.71973C13.5854 4.71973 15.1275 5.23715 16.392 6.19341C17.5505 7.07413 18.4213 8.27907 18.894 9.65541ZM18.6201 13.5954H19.0437H19.0437C19.4668 13.5954 19.8725 13.4274 20.1716 13.1282C20.4707 12.8291 20.6387 12.4234 20.6387 12.0004C20.6387 11.5774 20.4707 11.1717 20.1716 10.8726C19.8725 10.5735 19.4668 10.4054 19.0437 10.4054H18.6201C18.5393 10.4054 18.4607 10.3793 18.3959 10.331C18.3311 10.2827 18.2837 10.2147 18.2606 10.1372C17.86 8.80452 17.0472 7.63311 15.9391 6.79124C15.2621 6.27644 14.4904 5.90004 13.668 5.68352C13.8278 5.9416 13.9256 6.23325 13.9536 6.53551C13.9816 6.83778 13.9391 7.14243 13.8294 7.42548C13.7197 7.70853 13.5458 7.96226 13.3214 8.16671C13.097 8.37117 12.8283 8.52076 12.5362 8.60373C12.2442 8.6867 11.937 8.70077 11.6386 8.64485C11.3402 8.58893 11.0589 8.46454 10.8168 8.28145C10.5746 8.09837 10.3783 7.8616 10.2432 7.58977C10.108 7.31793 10.0378 7.01845 10.0381 6.71489C10.0381 6.61543 10.0776 6.52005 10.1479 6.44973C10.2183 6.3794 10.3136 6.33989 10.4131 6.33989C10.5125 6.33989 10.6079 6.3794 10.6783 6.44973C10.7486 6.52005 10.7881 6.61543 10.7881 6.71489C10.7881 6.95458 10.8592 7.18889 10.9923 7.38819C11.1255 7.58748 11.3148 7.74282 11.5362 7.83454C11.7577 7.92627 12.0013 7.95027 12.2364 7.90351C12.4715 7.85675 12.6875 7.74133 12.8569 7.57185C13.0264 7.40236 13.1419 7.18642 13.1886 6.95134C13.2354 6.71625 13.2114 6.47258 13.1197 6.25113C13.0279 6.02968 12.8726 5.84041 12.6733 5.70724C12.474 5.57407 12.2397 5.50299 12 5.50298C11.9483 5.503 11.8972 5.49228 11.8499 5.47151C10.479 5.49859 9.1521 5.96074 8.06097 6.7912C6.95286 7.63307 6.14011 8.80449 5.73947 10.1372C5.71644 10.2147 5.66901 10.2826 5.60423 10.3309C5.53945 10.3793 5.4608 10.4054 5.37999 10.4054H4.95632C4.53331 10.4054 4.12761 10.5734 3.82849 10.8725C3.52937 11.1717 3.36133 11.5774 3.36133 12.0004C3.36133 12.4234 3.52937 12.8291 3.82849 13.1282C4.12761 13.4273 4.53331 13.5954 4.95632 13.5954H5.37999C5.4608 13.5954 5.53946 13.6215 5.60423 13.6698C5.66901 13.7181 5.71644 13.7861 5.73947 13.8636C6.14012 15.1963 6.95287 16.3677 8.06097 17.2096C9.19514 18.0671 10.5782 18.5311 12 18.5311C13.4219 18.5311 14.8049 18.0671 15.9391 17.2096C17.0472 16.3677 17.8599 15.1963 18.2606 13.8636C18.2837 13.7861 18.3311 13.7182 18.3959 13.6698C18.4606 13.6215 18.5393 13.5954 18.6201 13.5954ZM12 11.8332C13.5774 11.8255 15.1449 12.0831 16.6369 12.5951C16.7234 12.6252 16.7959 12.686 16.8407 12.7658C16.8855 12.8457 16.8995 12.9392 16.8801 13.0287C16.6376 14.1427 16.0213 15.1402 15.1335 15.8555C14.2458 16.5707 13.14 16.9608 12 16.9608C10.8599 16.9608 9.75417 16.5707 8.86641 15.8555C7.97866 15.1402 7.36234 14.1427 7.11984 13.0287C7.10044 12.9392 7.11447 12.8457 7.15928 12.7658C7.2041 12.6859 7.27659 12.6252 7.36309 12.5951C8.8551 12.0831 10.4226 11.8255 12 11.8332ZM13.5319 14.0546V12.6656H13.5318C12.5135 12.5557 11.4864 12.5557 10.4681 12.6656V14.0546C10.4681 14.1541 10.5076 14.2495 10.5779 14.3198C10.6483 14.3901 10.7436 14.4296 10.8431 14.4296H13.1569C13.2563 14.4296 13.3517 14.3901 13.422 14.3198C13.4923 14.2495 13.5319 14.1541 13.5319 14.0546Z"
        fill="#848B96"/>
</svg>
