<svg width="24" height="24" viewBox="0 0 24 24" fill="none" xmlns="http://www.w3.org/2000/svg">
<path d="M11.1309 10.5566C11.7004 10.5566 12.1621 10.0949 12.1621 9.52539C12.1621 8.95585 11.7004 8.49414 11.1309 8.49414C10.5613 8.49414 10.0996 8.95585 10.0996 9.52539C10.0996 10.0949 10.5613 10.5566 11.1309 10.5566Z" fill="#848B96"/>
<path d="M14.8462 8.09492L15.1911 7.8958L14.5723 6.82408L14.2249 7.02464C13.991 7.15978 13.6964 7.12736 13.4972 6.94474C13.1107 6.59007 12.6684 6.33288 12.1828 6.1803C11.9249 6.09928 11.7495 5.86028 11.7495 5.59001V5.19434H10.512V5.59001C10.512 5.86028 10.3365 6.09928 10.0787 6.18034C9.593 6.33292 9.15071 6.59011 8.76416 6.94478C8.56505 7.1274 8.27052 7.15982 8.03647 7.02468L7.68906 6.82413L7.07031 7.89584L7.41516 8.09496C7.64897 8.22993 7.7683 8.50094 7.70993 8.76453C7.65322 9.02073 7.62446 9.27681 7.62446 9.52559C7.62446 9.77437 7.65322 10.0305 7.70993 10.2867C7.7683 10.5503 7.64897 10.8213 7.41516 10.9562L7.07031 11.1553L7.68906 12.2271L8.03647 12.0265C8.2704 11.8914 8.56505 11.9237 8.76416 12.1064C9.15076 12.4611 9.59304 12.7183 10.0786 12.8709C10.3365 12.9519 10.512 13.1909 10.512 13.4612V13.8569H11.7495V13.4612C11.7495 13.1909 11.9249 12.9519 12.1828 12.8708C12.6684 12.7183 13.1106 12.4611 13.4972 12.1064C13.6963 11.9237 13.9909 11.8914 14.2249 12.0265L14.5723 12.227L15.1911 11.1553L14.8462 10.9562C14.6124 10.8212 14.4931 10.5502 14.5515 10.2865C14.6082 10.0304 14.637 9.77437 14.637 9.52555C14.637 9.27673 14.6082 9.02069 14.5515 8.76457C14.4931 8.50098 14.6124 8.22993 14.8462 8.09492ZM11.1308 11.7943C9.87977 11.7943 8.86201 10.7766 8.86201 9.52559C8.86201 8.2746 9.87977 7.25684 11.1308 7.25684C12.3817 7.25684 13.3995 8.2746 13.3995 9.52559C13.3995 10.7766 12.3817 11.7943 11.1308 11.7943Z" fill="#848B96"/>
<path d="M21.1984 14.7413L19.6313 11.6072L19.6314 10.0173C19.6315 5.28047 15.7915 1.44043 11.0547 1.44043H11.0541C8.82779 1.44043 6.73452 2.3075 5.16021 3.88173C3.58574 5.45616 2.71871 7.54951 2.71875 9.7761V9.80812C2.71883 12.3091 3.76765 14.6816 5.60633 16.3629V21.9417C5.60633 22.2834 5.88337 22.5604 6.22508 22.5604H14.4751C14.8168 22.5604 15.0938 22.2834 15.0938 21.9417V20.0029H16.9501C17.9753 20.0029 18.8063 19.1719 18.8063 18.1467V15.8782H20.4957C20.9296 15.8782 21.2813 15.5264 21.2813 15.0926C21.2813 14.9706 21.253 14.8504 21.1984 14.7413ZM15.8744 9.52543C15.8744 9.71518 15.8623 9.90724 15.8383 10.0999L16.3456 10.3929C16.4878 10.4749 16.5915 10.6101 16.6339 10.7686C16.6764 10.9271 16.6542 11.096 16.5721 11.2381L15.3346 13.3815C15.2526 13.5236 15.1174 13.6273 14.9589 13.6698C14.8005 13.7123 14.6315 13.6901 14.4894 13.608L13.9798 13.3138C13.6709 13.548 13.339 13.7411 12.9869 13.8913V14.4754C12.9869 14.8171 12.7099 15.0942 12.3682 15.0942H9.8932C9.55148 15.0942 9.27445 14.8171 9.27445 14.4754V13.8913C8.92242 13.7411 8.59048 13.5481 8.28152 13.3138L7.77196 13.608C7.62989 13.6901 7.46102 13.7123 7.30245 13.6699C7.14393 13.6274 7.00879 13.5237 6.92675 13.3816L5.68925 11.2381C5.6072 11.096 5.58497 10.9271 5.62741 10.7686C5.6699 10.6101 5.7736 10.475 5.91571 10.3929L6.42312 10.1C6.39908 9.90728 6.38695 9.71518 6.38695 9.52547C6.38695 9.33576 6.39908 9.1437 6.42312 8.95098L5.91571 8.65802C5.7736 8.57598 5.6699 8.44084 5.62741 8.28232C5.58497 8.1238 5.6072 7.95492 5.68925 7.81281L6.92675 5.66938C7.00879 5.52727 7.14397 5.42357 7.30245 5.38108C7.46081 5.33855 7.62981 5.36083 7.77196 5.44292L8.28152 5.73711C8.59048 5.50281 8.92238 5.3098 9.27445 5.15961V4.57543C9.27445 4.23371 9.55148 3.95668 9.8932 3.95668H12.3682C12.7099 3.95668 12.9869 4.23371 12.9869 4.57543V5.15957C13.339 5.30976 13.6709 5.50281 13.9798 5.73707L14.4894 5.44288C14.6315 5.36083 14.8005 5.3386 14.9589 5.38104C15.1174 5.42349 15.2526 5.52719 15.3346 5.66934L16.5721 7.81277C16.6542 7.95488 16.6764 8.1238 16.6339 8.28228C16.5915 8.4408 16.4878 8.57594 16.3456 8.65798L15.8383 8.95094C15.8623 9.14362 15.8744 9.33568 15.8744 9.52543Z" fill="#848B96"/>
</svg>
