<svg width="22" height="24" viewBox="0 0 22 24" fill="none" xmlns="http://www.w3.org/2000/svg">
  <path d="M10.0002 24C11.8113 24 13.3263 22.7089 13.6742 21H6.32617C6.67426 22.7089 8.18927 24 10.0002 24Z"
        fill="#A996FF"/>
  <path
    d="M17.0126 11.999C17.0086 11.999 17.0045 11.9999 17.0005 11.9999C13.1416 11.9999 10.0006 8.85986 10.0006 5C10.0006 3.9389 10.2446 2.93585 10.6696 2.03387C10.4495 2.013 10.2265 2 10.0006 2C6.13466 2 3.00062 5.13385 3.00062 8.99994V11.7879C3.00062 13.7669 2.13362 15.6349 0.612561 16.9209C0.105542 17.3539 -0.119494 18.0439 0.0625123 18.717C0.274548 19.4999 1.04854 20 1.86061 20H18.1356C18.9876 20 19.7907 19.4479 19.9635 18.613C20.0975 17.967 19.8676 17.3219 19.3666 16.9009C17.9125 15.682 17.0715 13.8909 17.0126 11.999V11.999Z"
    fill="#A996FF"/>
  <path
    d="M22.0009 5.00006C22.0009 7.76147 19.7625 9.99994 17.0009 9.99994C14.2394 9.99994 12.001 7.76147 12.001 5.00006C12.001 2.23865 14.2394 0 17.0009 0C19.7625 0 22.0009 2.23865 22.0009 5.00006Z"
    fill="#A996FF"/>
</svg>
