<svg width="24" height="24" viewBox="0 0 24 24" fill="none" xmlns="http://www.w3.org/2000/svg">
  <path
    d="M10.9844 24C8.91748 24 7.23438 22.318 7.23438 20.25C7.23438 19.836 7.57037 19.5 7.98438 19.5C8.39838 19.5 8.73438 19.836 8.73438 20.25C8.73438 21.4911 9.74438 22.5 10.9844 22.5C12.2244 22.5 13.2344 21.4911 13.2344 20.25C13.2344 19.836 13.5704 19.5 13.9844 19.5C14.3984 19.5 14.7344 19.836 14.7344 20.25C14.7344 22.318 13.0515 24 10.9844 24V24Z"
    fill="#8A8A98"/>
  <path
    d="M19.2343 21H2.73431C1.76935 21 0.984375 20.215 0.984375 19.2501C0.984375 18.7379 1.2074 18.2531 1.59631 17.92C1.6214 17.898 1.64832 17.8781 1.67633 17.8599C3.14429 16.5789 3.98438 14.736 3.98438 12.7899V9.99994C3.98438 6.14008 7.12537 3 10.9843 3C11.1443 3 11.3174 3.00293 11.4774 3.03003C11.8863 3.09796 12.1624 3.48505 12.0943 3.89301C12.0264 4.30096 11.6323 4.57709 11.2313 4.50897C11.1513 4.49597 11.0634 4.5 10.9843 4.5C7.95245 4.5 5.48438 6.96698 5.48438 9.99994V12.7899C5.48438 15.206 4.42529 17.4921 2.58142 19.0609C2.56641 19.073 2.55341 19.084 2.53729 19.095C2.51038 19.129 2.48438 19.181 2.48438 19.2501C2.48438 19.3859 2.59845 19.5 2.73431 19.5H19.2343C19.3704 19.5 19.4844 19.3859 19.4844 19.2501C19.4844 19.1799 19.4584 19.129 19.4304 19.095C19.4154 19.084 19.4024 19.073 19.3874 19.0609C17.5424 17.491 16.4844 15.206 16.4844 12.7899V11.7001C16.4844 11.2861 16.8204 10.9501 17.2344 10.9501C17.6484 10.9501 17.9844 11.2861 17.9844 11.7001V12.7899C17.9844 14.7371 18.8254 16.5809 20.2954 17.863C20.3223 17.881 20.3483 17.9 20.3723 17.9211C20.7614 18.2531 20.9844 18.7379 20.9844 19.2501C20.9844 20.215 20.1995 21 19.2343 21V21Z"
    fill="#8A8A98"/>
  <path
    d="M17.9844 9.99994C15.2274 9.99994 12.9844 7.75708 12.9844 5.00006C12.9844 2.24304 15.2274 0 17.9844 0C20.7415 0 22.9843 2.24304 22.9843 5.00006C22.9843 7.75708 20.7415 9.99994 17.9844 9.99994V9.99994ZM17.9844 1.5C16.0543 1.5 14.4844 3.06995 14.4844 5.00006C14.4844 6.92999 16.0543 8.49994 17.9844 8.49994C19.9144 8.49994 21.4843 6.92999 21.4843 5.00006C21.4843 3.06995 19.9144 1.5 17.9844 1.5V1.5Z"
    fill="#8A8A98"/>
</svg>
