<svg width="26" height="26" viewBox="0 0 26 26" fill="none" xmlns="http://www.w3.org/2000/svg">
  <path
    d="M19.25 2.75H24.25C24.5815 2.75 24.8995 2.8817 25.1339 3.11612C25.3683 3.35054 25.5 3.66848 25.5 4V24C25.5 24.3315 25.3683 24.6495 25.1339 24.8839C24.8995 25.1183 24.5815 25.25 24.25 25.25H1.75C1.41848 25.25 1.10054 25.1183 0.866116 24.8839C0.631696 24.6495 0.5 24.3315 0.5 24V4C0.5 3.66848 0.631696 3.35054 0.866116 3.11612C1.10054 2.8817 1.41848 2.75 1.75 2.75H6.75V0.25H9.25V2.75H16.75V0.25H19.25V2.75ZM3 10.25V22.75H23V10.25H3ZM5.5 15.25H11.75V20.25H5.5V15.25Z"
    fill="#459FF2"/>
</svg>
