<svg width="24" height="24" viewBox="0 0 24 24" fill="none" xmlns="http://www.w3.org/2000/svg">
<path d="M16.5 9C16.08 9 15.67 9.04 15.26 9.11L1.01 3L1 10L10 12L1 14L1.01 21L9.08 17.54C9.59 21.19 12.71 24 16.5 24C20.64 24 24 20.64 24 16.5C24 12.36 20.64 9 16.5 9ZM16.5 22C13.47 22 11 19.53 11 16.5C11 13.47 13.47 11 16.5 11C19.53 11 22 13.47 22 16.5C22 19.53 19.53 22 16.5 22Z" fill="#848B96"/>
<path d="M18.2693 14.0293L16.4993 15.7893L14.7293 14.0293L14.0293 14.7293L15.7893 16.4993L14.0293 18.2693L14.7293 18.9693L16.4993 17.2093L18.2693 18.9693L18.9693 18.2693L17.2093 16.4993L18.9693 14.7293L18.2693 14.0293Z" fill="#848B96"/>
</svg>
