<svg width="24" height="24" viewBox="0 0 24 24" fill="none" xmlns="http://www.w3.org/2000/svg">
  <path
    d="M4.52877 14.9346C4.55578 14.9886 4.59394 15.0362 4.64073 15.0743C4.68751 15.1124 4.74186 15.1401 4.80017 15.1556C4.85847 15.1711 4.91941 15.174 4.97894 15.1642C5.03847 15.1544 5.09524 15.1321 5.14548 15.0987L11.8046 10.6592C11.8625 10.6206 11.9304 10.6 12 10.6C12.0695 10.6 12.1375 10.6206 12.1953 10.6592L18.8545 15.0987C18.901 15.1326 18.954 15.1567 19.0101 15.1695C19.0663 15.1824 19.1245 15.1837 19.1812 15.1734C19.2378 15.1631 19.2918 15.1414 19.3399 15.1096C19.3879 15.0779 19.429 15.0367 19.4607 14.9885C19.4923 14.9404 19.5139 14.8863 19.524 14.8296C19.5342 14.7729 19.5327 14.7148 19.5197 14.6586C19.5067 14.6025 19.4824 14.5496 19.4484 14.5032C19.4143 14.4567 19.3712 14.4176 19.3216 14.3883L12.352 9.84188V7.08008H11.648V9.84188L4.67837 14.3883C4.59074 14.4451 4.52707 14.5322 4.49949 14.633C4.4719 14.7337 4.48232 14.8411 4.52877 14.9346Z"
    fill="#848B96"/>
  <path
    d="M12.3516 2.34766V6.36821C12.7683 6.15065 13.2298 6.03287 13.6998 6.02413C14.1698 6.01539 14.6353 6.11595 15.0598 6.31787C14.6022 3.86865 13.1182 2.76372 12.3516 2.34766Z"
    fill="#848B96"/>
  <path
    d="M10.2397 6.0236C10.7303 6.0205 11.214 6.13889 11.6477 6.36821V2.34766C10.8811 2.76372 9.39705 3.86865 8.93945 6.31787C9.34528 6.12335 9.78971 6.02277 10.2397 6.0236Z"
    fill="#848B96"/>
  <path
    d="M5.59766 6.23237C5.95476 6.09327 6.33484 6.02258 6.71807 6.02399C7.24132 6.02138 7.75576 6.15871 8.20809 6.42175C8.41016 4.80135 9.22543 3.31996 10.4862 2.28223C9.39808 2.45825 8.37471 2.91525 7.51733 3.60805C6.65995 4.30085 5.99825 5.20544 5.59766 6.23237Z"
    fill="#848B96"/>
  <path
    d="M19.7439 21.5122C19.7439 21.4188 19.7068 21.3293 19.6408 21.2633C19.5748 21.1972 19.4852 21.1602 19.3919 21.1602H4.60786C4.5145 21.1602 4.42497 21.1972 4.35896 21.2633C4.29295 21.3293 4.25586 21.4188 4.25586 21.5122V21.8641H19.7439V21.5122Z"
    fill="#848B96"/>
  <path
    d="M18.4005 6.23237C18 5.20566 17.3386 4.30122 16.4816 3.60845C15.6245 2.91567 14.6015 2.45853 13.5137 2.28223C14.7745 3.31996 15.5897 4.80135 15.7918 6.42175C16.2436 6.15901 16.7574 6.0217 17.2801 6.02399C17.6633 6.02258 18.0434 6.09327 18.4005 6.23237Z"
    fill="#848B96"/>
  <path
    d="M6.01562 15.3649V20.4566H17.9836V15.3649L11.9996 11.375L6.01562 15.3649ZM12.3516 13.4166V13.8186C12.653 13.8964 12.9201 14.0719 13.1111 14.3176C13.3022 14.5633 13.4065 14.8654 13.4076 15.1766C13.4076 15.27 13.3705 15.3595 13.3045 15.4255C13.2385 15.4915 13.149 15.5286 13.0556 15.5286C12.9623 15.5286 12.8727 15.4915 12.8067 15.4255C12.7407 15.3595 12.7036 15.27 12.7036 15.1766C12.7036 15.0374 12.6623 14.9013 12.585 14.7855C12.5076 14.6697 12.3977 14.5795 12.269 14.5262C12.1404 14.4729 11.9988 14.459 11.8623 14.4861C11.7257 14.5133 11.6003 14.5803 11.5018 14.6788C11.4034 14.7773 11.3363 14.9027 11.3092 15.0393C11.282 15.1758 11.2959 15.3174 11.3492 15.446C11.4025 15.5747 11.4927 15.6846 11.6085 15.762C11.7243 15.8393 11.8604 15.8806 11.9996 15.8806C12.3419 15.8802 12.6725 16.0047 12.9295 16.2307C13.1865 16.4568 13.3521 16.7689 13.3953 17.1084C13.4385 17.4479 13.3563 17.7915 13.1642 18.0748C12.972 18.358 12.6831 18.5613 12.3516 18.6466V19.0486C12.3516 19.142 12.3145 19.2315 12.2485 19.2975C12.1825 19.3635 12.093 19.4006 11.9996 19.4006C11.9063 19.4006 11.8167 19.3635 11.7507 19.2975C11.6847 19.2315 11.6476 19.142 11.6476 19.0486V18.6466C11.3463 18.5688 11.0792 18.3933 10.8881 18.1476C10.6971 17.9019 10.5928 17.5999 10.5916 17.2886C10.5916 17.1953 10.6287 17.1057 10.6947 17.0397C10.7607 16.9737 10.8503 16.9366 10.9436 16.9366C11.037 16.9366 11.1265 16.9737 11.1925 17.0397C11.2585 17.1057 11.2956 17.1953 11.2956 17.2886C11.2956 17.4278 11.3369 17.564 11.4143 17.6797C11.4916 17.7955 11.6016 17.8857 11.7302 17.939C11.8589 17.9923 12.0004 18.0062 12.137 17.9791C12.2735 17.9519 12.399 17.8849 12.4974 17.7864C12.5959 17.688 12.6629 17.5625 12.6901 17.426C12.7173 17.2894 12.7033 17.1478 12.65 17.0192C12.5968 16.8906 12.5065 16.7806 12.3907 16.7033C12.275 16.6259 12.1389 16.5846 11.9996 16.5846C11.6574 16.585 11.3267 16.4605 11.0697 16.2345C10.8128 16.0084 10.6471 15.6963 10.6039 15.3568C10.5607 15.0173 10.6429 14.6737 10.8351 14.3905C11.0272 14.1072 11.3162 13.9039 11.6476 13.8186V13.4166C11.6476 13.3232 11.6847 13.2337 11.7507 13.1677C11.8167 13.1017 11.9063 13.0646 11.9996 13.0646C12.093 13.0646 12.1825 13.1017 12.2485 13.1677C12.3145 13.2337 12.3516 13.3232 12.3516 13.4166Z"
    fill="#848B96"/>
  <path
    d="M16.2231 10.248C16.1297 10.248 16.0402 10.2851 15.9742 10.3511C15.9082 10.4172 15.8711 10.5067 15.8711 10.6V11.297L16.9271 11.9859V10.6C16.9271 10.5067 16.89 10.4172 16.824 10.3511C16.758 10.2851 16.6684 10.248 16.5751 10.248H16.2231Z"
    fill="#848B96"/>
</svg>
