<svg width="24" height="24" viewBox="0 0 24 24" fill="none" xmlns="http://www.w3.org/2000/svg">
  <path
    d="M9.79444 2.21968C10.672 2.21968 11.1782 1.94658 11.2473 1.83006C11.1782 1.71353 10.672 1.44043 9.79444 1.44043C8.89138 1.44043 8.38159 1.7281 8.33789 1.84098V1.84462C8.38159 1.93202 8.89138 2.21968 9.79444 2.21968Z"
    fill="#848B96"/>
  <path
    d="M19.13 7.09894C19.2611 7.14628 19.618 6.90231 19.8146 6.36338C19.9092 6.12795 19.9418 5.87218 19.9093 5.62054C19.8838 5.48217 19.8292 5.38021 19.7709 5.35836C19.759 5.35517 19.7467 5.35394 19.7345 5.35472C19.6455 5.36607 19.5626 5.40563 19.4978 5.46761C19.3089 5.63808 19.1661 5.85352 19.0827 6.09392C18.886 6.63284 18.9989 7.0516 19.13 7.09894Z"
    fill="#848B96"/>
  <path
    d="M9.82718 6.49416C10.1772 6.52751 10.5213 6.6071 10.8504 6.73085C11.1573 5.52758 11.2922 4.28689 11.251 3.04578V2.68164C10.7875 2.86476 10.2926 2.95508 9.79441 2.94746C9.29881 2.95591 8.80638 2.86683 8.34514 2.68528C8.35243 3.03485 8.35243 3.34073 8.33786 3.59927C8.30145 4.12363 8.1303 5.40175 7.28186 5.97709C6.61659 6.41604 6.14787 7.09627 5.97461 7.87425C6.46409 7.3693 7.06707 6.98853 7.73339 6.76363C8.40457 6.52738 9.11807 6.43556 9.82718 6.49416Z"
    fill="#848B96"/>
  <path
    d="M15.2342 7.83836C15.1212 7.9063 15.0183 7.98964 14.9283 8.08597C14.8585 8.17404 14.753 8.22617 14.6406 8.22799C14.5601 8.22827 14.4818 8.20132 14.4185 8.15152C14.2622 8.03135 14.2299 7.8086 14.3457 7.64901C14.5127 7.44919 14.7167 7.2835 14.9465 7.16106C15.5582 6.80785 16.607 6.50561 18.2638 6.86247C18.2053 6.17176 18.4529 5.49019 18.9411 4.99808C18.8282 4.95439 18.7117 4.90705 18.5988 4.87063C14.9501 3.67262 12.5395 5.95212 11.6037 7.09916C13.4972 8.27168 14.2037 10.675 14.2328 10.7842C14.2762 10.973 14.1644 11.1627 13.9782 11.216C13.792 11.2693 13.5967 11.1676 13.5336 10.9845C13.5264 10.959 12.7872 8.45739 10.8973 7.53977C10.5395 7.36657 10.1534 7.25925 9.75753 7.22297C9.15056 7.17189 8.53968 7.25136 7.96597 7.45601C7.07312 7.76552 6.32445 8.39114 5.86125 9.2148C5.84702 9.27296 5.81674 9.32595 5.77386 9.36774C5.36398 10.1546 5.12686 11.0199 5.07836 11.9058C4.88987 15.5855 6.94446 19.0141 10.2782 20.5832C11.1141 21.0184 11.9943 21.3627 12.9037 21.6101C14.1709 21.9305 15.1978 21.8686 15.9661 21.4207C16.6361 21.0311 17.1568 20.3392 17.561 19.3014C18.0536 18.0507 18.3734 16.7386 18.5114 15.4015C18.7335 13.1839 18.3949 11.1884 17.5319 9.62992C17.2187 9.0655 16.3739 7.78738 15.2342 7.83836ZM8.42479 8.83719C7.35422 9.19477 6.64597 10.38 6.53127 12.0077C6.51768 12.1987 6.35856 12.3465 6.16713 12.346H6.14128C6.04487 12.3392 5.95513 12.2944 5.89182 12.2214C5.82851 12.1483 5.79681 12.0532 5.80372 11.9568C5.94027 10.0268 6.8335 8.60159 8.19319 8.14715C8.38425 8.0835 8.59072 8.18678 8.65437 8.37783C8.71802 8.56888 8.61475 8.77536 8.42369 8.83901L8.42479 8.83719Z"
    fill="#848B96"/>
  <path
    d="M22.0003 11.5728C21.8217 10.5322 21.5082 9.51921 21.0678 8.5596C20.983 8.37709 20.7663 8.29786 20.5838 8.38262C20.4013 8.46739 20.3221 8.68406 20.4068 8.86656C20.821 9.76846 21.1155 10.7206 21.283 11.6988C21.5071 13.0183 21.5487 14.3623 21.4068 15.6931C21.2448 17.294 20.8641 18.8652 20.2754 20.3628C20.1049 20.8046 19.9007 21.2328 19.6647 21.6434C19.5976 21.756 19.5961 21.896 19.6608 22.01C19.7256 22.124 19.8467 22.1943 19.9778 22.1942C20.1088 22.1941 20.2298 22.1235 20.2943 22.0094C20.5492 21.5664 20.7697 21.1046 20.9538 20.6279C21.5666 19.0685 21.9629 17.4325 22.1314 15.7655C22.2802 14.3686 22.2361 12.9578 22.0003 11.5728Z"
    fill="#848B96"/>
  <path
    d="M2.25835 10.9257C2.28952 10.7269 2.15363 10.5405 1.95484 10.5093C1.75604 10.4782 1.56962 10.614 1.53844 10.8128C0.98459 14.3519 2.29221 19.334 6.46414 22.4878C6.56822 22.5662 6.70621 22.5831 6.82612 22.5322C6.94604 22.4812 7.02967 22.3702 7.04552 22.2409C7.06136 22.1115 7.00701 21.9836 6.90293 21.9052C2.97206 18.9346 1.73763 14.2499 2.25835 10.9257Z"
    fill="#848B96"/>
  <path
    d="M20.5188 11.5657C20.3885 10.8999 20.1952 10.2481 19.9416 9.61897C19.8941 9.49651 19.7842 9.40917 19.6541 9.39044C19.5241 9.37172 19.3941 9.42449 19.3138 9.52855C19.2336 9.63261 19.2157 9.77181 19.2669 9.8928C19.5032 10.4798 19.6832 11.088 19.8044 11.7091C20.0488 12.9735 20.1011 14.2675 19.9595 15.5475C19.8092 17.0163 19.4593 18.4577 18.9195 19.8319C18.8722 19.9531 18.8931 20.0904 18.9743 20.192C19.0556 20.2936 19.1849 20.3441 19.3135 20.3245C19.4421 20.3049 19.5505 20.2182 19.5979 20.097C20.1618 18.6612 20.5272 17.1552 20.6841 15.6207C20.833 14.2684 20.7772 12.9014 20.5188 11.5657Z"
    fill="#848B96"/>
  <path
    d="M3.62432 11.8021C3.63748 11.6021 3.48656 11.4291 3.28664 11.415C3.08672 11.4009 2.91296 11.5509 2.89786 11.7508C2.70105 15.3257 4.22169 18.78 6.99114 21.0491C7.1469 21.1765 7.37644 21.1535 7.50384 20.9977C7.63125 20.842 7.60826 20.6124 7.4525 20.485C4.8645 18.367 3.44234 15.1414 3.62432 11.8021Z"
    fill="#848B96"/>
</svg>
