<svg width="25" height="24" viewBox="0 0 25 24" fill="none" xmlns="http://www.w3.org/2000/svg">
<path d="M8.42461 8.57136H6.13893C5.50866 8.57136 4.99609 8.05851 4.99609 7.42852V5.14284C4.99609 4.51285 5.50866 4 6.13893 4H8.42461C9.05489 4 9.56746 4.51285 9.56746 5.14284V7.42852C9.56746 8.05851 9.05489 8.57136 8.42461 8.57136ZM6.13893 5.14284V7.42852H8.42547L8.42461 5.14284H6.13893ZM20.9959 6.28568C20.9959 5.96983 20.74 5.71426 20.4244 5.71426H11.2817C10.9661 5.71426 10.7103 5.96983 10.7103 6.28568C10.7103 6.60153 10.9661 6.8571 11.2817 6.8571H20.4244C20.74 6.8571 20.9959 6.60153 20.9959 6.28568ZM8.42461 14.2856H6.13893C5.50866 14.2856 4.99609 13.7727 4.99609 13.1427V10.857C4.99609 10.2271 5.50866 9.7142 6.13893 9.7142H8.42461C9.05489 9.7142 9.56746 10.2271 9.56746 10.857V13.1427C9.56746 13.7727 9.05489 14.2856 8.42461 14.2856ZM6.13893 10.857V13.1427H8.42547L8.42461 10.857H6.13893ZM20.9959 11.9999C20.9959 11.684 20.74 11.4285 20.4244 11.4285H11.2817C10.9661 11.4285 10.7103 11.684 10.7103 11.9999C10.7103 12.3157 10.9661 12.5713 11.2817 12.5713H20.4244C20.74 12.5713 20.9959 12.3157 20.9959 11.9999ZM8.42461 19.9998H6.13893C5.50866 19.9998 4.99609 19.4869 4.99609 18.8569V16.5712C4.99609 15.9413 5.50866 15.4284 6.13893 15.4284H8.42461C9.05489 15.4284 9.56746 15.9413 9.56746 16.5712V18.8569C9.56746 19.4869 9.05489 19.9998 8.42461 19.9998ZM6.13893 16.5712V18.8569H8.42547L8.42461 16.5712H6.13893ZM20.9959 17.7141C20.9959 17.3982 20.74 17.1427 20.4244 17.1427H11.2817C10.9661 17.1427 10.7103 17.3982 10.7103 17.7141C10.7103 18.0299 10.9661 18.2855 11.2817 18.2855H20.4244C20.74 18.2855 20.9959 18.0299 20.9959 17.7141Z" fill="#848B96"/>
</svg>
