<svg width="25" height="24" viewBox="0 0 25 24" fill="none" xmlns="http://www.w3.org/2000/svg">
  <path
    d="M6.99609 3C6.59827 3 6.21674 3.15804 5.93543 3.43934C5.65413 3.72064 5.49609 4.10218 5.49609 4.5V19.5C5.49609 19.8978 5.65413 20.2794 5.93543 20.5607C6.21674 20.842 6.59827 21 6.99609 21H18.9961C19.3939 21 19.7754 20.842 20.0568 20.5607C20.3381 20.2794 20.4961 19.8978 20.4961 19.5V9C20.4943 8.86762 20.4425 8.74082 20.3511 8.645L14.8511 3.145C14.754 3.05564 14.628 3.00418 14.4961 3H6.99609ZM12.9961 17.5C12.9961 17.6326 12.9434 17.7598 12.8496 17.8536C12.7559 17.9473 12.6287 18 12.4961 18C12.3635 18 12.2363 17.9473 12.1425 17.8536C12.0488 17.7598 11.9961 17.6326 11.9961 17.5V17C11.9961 16.8674 12.0488 16.7402 12.1425 16.6464C12.2363 16.5527 12.3635 16.5 12.4961 16.5C12.6287 16.5 12.7559 16.5527 12.8496 16.6464C12.9434 16.7402 12.9961 16.8674 12.9961 17V17.5ZM12.9961 15C12.9961 15.1326 12.9434 15.2598 12.8496 15.3536C12.7559 15.4473 12.6287 15.5 12.4961 15.5C12.3635 15.5 12.2363 15.4473 12.1425 15.3536C12.0488 15.2598 11.9961 15.1326 11.9961 15V11C11.9961 10.8674 12.0488 10.7402 12.1425 10.6464C12.2363 10.5527 12.3635 10.5 12.4961 10.5C12.6287 10.5 12.7559 10.5527 12.8496 10.6464C12.9434 10.7402 12.9961 10.8674 12.9961 11V15ZM14.9961 4.705L18.7911 8.5H15.4961C15.3635 8.5 15.2363 8.44732 15.1425 8.35355C15.0488 8.25979 14.9961 8.13261 14.9961 8V4.705Z"
    fill="#848B96"/>
</svg>
