<svg width="24" height="24" viewBox="0 0 24 24" fill="none" xmlns="http://www.w3.org/2000/svg">
  <path
    d="M11.9999 5.84863C11.2881 5.84863 10.617 6.54388 10.1118 7.04911L3.83789 13.326V20.5213C3.83789 21.3086 4.47734 21.948 5.2661 21.948H18.7368C19.5241 21.948 20.1635 21.3086 20.1635 20.5213V13.326L13.8881 7.04911C13.3844 6.54388 12.7118 5.84863 11.9999 5.84863ZM16.3539 16.4659H13.4659V19.354H10.534V16.4659H7.64444V13.5356H10.534V10.646H13.4659V13.5356H16.3539V16.4659Z"
    fill="#848B96"/>
  <path
    d="M22.2217 10.409L15.1063 3.29808C13.4458 1.63762 10.5562 1.63762 8.89275 3.29808L1.78187 10.409C1.32792 10.8629 1.32792 11.5959 1.78187 12.0513C2.21923 12.4887 2.98386 12.4887 3.42122 12.0513L10.5336 4.93743C11.3178 4.1532 12.6842 4.1532 13.4669 4.93743L20.5793 12.0513C20.798 12.27 21.0906 12.3892 21.3983 12.3892C21.7074 12.3892 22 12.27 22.2217 12.0513C22.6741 11.5959 22.6741 10.8629 22.2217 10.409Z"
    fill="#848B96"/>
</svg>
