<svg width="24" height="24" viewBox="0 0 24 24" fill="none" xmlns="http://www.w3.org/2000/svg">
<path d="M20.2555 1.44043C18.9848 1.44043 17.9515 2.47377 17.9515 3.74443C17.9515 4.14187 18.0524 4.51589 18.2302 4.84267L14.4559 8.617C13.9356 8.21188 13.2843 7.96843 12.5755 7.96843C11.8666 7.96843 11.2153 8.21188 10.6946 8.61662L7.74972 5.67173C7.88489 5.44325 7.96745 5.18059 7.96745 4.89643C7.96745 4.04933 7.27856 3.36043 6.43145 3.36043C5.58435 3.36043 4.89545 4.04933 4.89545 4.89643C4.89545 5.74353 5.58435 6.43243 6.43145 6.43243C6.71561 6.43243 6.97827 6.34987 7.20675 6.2147L10.1516 9.1596C9.74691 9.6803 9.50345 10.3316 9.50345 11.0404C9.50345 11.7493 9.74691 12.4006 10.1516 12.9209L5.28867 17.7842C4.87932 17.4129 4.33827 17.1844 3.74345 17.1844C2.4728 17.1844 1.43945 18.2178 1.43945 19.4884C1.43945 20.7591 2.4728 21.7924 3.74345 21.7924C5.01411 21.7924 6.04745 20.7591 6.04745 19.4884C6.04745 19.091 5.94646 18.717 5.76867 18.3902L10.695 13.4639C11.1197 13.7941 11.632 14.0153 12.1918 14.0855V17.987C11.104 18.1705 10.2718 19.1167 10.2718 20.2564C10.2718 21.5271 11.3052 22.5604 12.5758 22.5604C13.8465 22.5604 14.8798 21.5271 14.8798 20.2564C14.8798 19.1171 14.0477 18.1709 12.9598 17.987V14.0855C13.5197 14.0153 14.032 13.7941 14.4567 13.4639L17.4016 16.4087C17.266 16.6376 17.1835 16.9003 17.1835 17.1844C17.1835 18.0315 17.8723 18.7204 18.7195 18.7204C19.5666 18.7204 20.2555 18.0315 20.2555 17.1844C20.2555 16.3373 19.5666 15.6484 18.7195 15.6484C18.4353 15.6484 18.1726 15.731 17.9442 15.8662L14.9993 12.9213C15.404 12.4006 15.6475 11.7493 15.6475 11.0404C15.6475 10.3316 15.404 9.6803 14.9993 9.15998L18.7106 5.44862C19.1196 5.81995 19.6606 6.04843 20.2555 6.04843C21.5261 6.04843 22.5595 5.01509 22.5595 3.74443C22.5595 2.47377 21.5261 1.44043 20.2555 1.44043Z" fill="#848B96"/>
</svg>
