<svg width="25" height="24" viewBox="0 0 25 24" fill="none" xmlns="http://www.w3.org/2000/svg">
  <path
    d="M18.7701 15.8639H21.1793C21.8332 15.8617 22.3627 15.3649 22.3627 14.7527C22.3627 14.1391 21.8332 13.6416 21.1793 13.6416H16.1419C15.4873 13.6416 14.9578 14.1391 14.957 14.7527C14.9578 14.7669 14.9622 14.7833 14.9622 14.7982C14.9622 14.8183 14.957 14.8406 14.957 14.8622V19.8319C14.957 20.4753 15.453 20.9981 16.0667 20.9981C16.6789 20.9966 17.1778 20.4753 17.1778 19.8319V17.41L21.6597 21.8933C22.0931 22.3275 22.7954 22.3275 23.2296 21.8933C23.6615 21.4599 23.6615 20.7568 23.2296 20.3234L18.7701 15.8639Z"
    fill="#848B96"/>
  <path
    d="M11.0319 14.7527C11.0304 14.1391 10.5016 13.6416 9.84624 13.6416H4.81033C4.15719 13.6416 3.62396 14.1391 3.62396 14.7527C3.62396 15.3649 4.15719 15.8617 4.81033 15.8639H7.21955L2.75783 20.3219C2.32812 20.7553 2.32812 21.4584 2.75783 21.8918C3.19276 22.326 3.89505 22.326 4.32774 21.8918L8.81031 17.4085V19.8304C8.81031 20.4738 9.30928 20.9951 9.92071 20.9966C10.5359 20.9966 11.0311 20.4738 11.0311 19.8304V14.8607C11.0311 14.8391 11.0252 14.8168 11.0252 14.7967C11.0259 14.7833 11.0304 14.7669 11.0319 14.7527Z"
    fill="#848B96"/>
  <path
    d="M14.957 9.24366C14.9578 9.85732 15.4873 10.3541 16.1419 10.3541H21.1793C21.8332 10.3541 22.3627 9.85732 22.3627 9.24366C22.3627 8.63148 21.8332 8.13623 21.1793 8.13474H18.7701L23.2303 3.676C23.6623 3.24108 23.6623 2.53804 23.2303 2.10535C22.7961 1.67191 22.0938 1.67191 21.6604 2.10535L17.1786 6.58867V4.16678C17.1786 3.5211 16.6796 2.99904 16.0674 2.99904C15.4538 2.99904 14.9578 3.5211 14.9578 4.16678V9.13492C14.9578 9.15727 14.963 9.17737 14.963 9.19972C14.9622 9.21461 14.9578 9.22653 14.957 9.24366Z"
    fill="#848B96"/>
  <path
    d="M9.92267 2.9988C9.31124 2.9988 8.81226 3.52086 8.81226 4.16655V6.58769L4.32969 2.10437C3.897 1.67094 3.19471 1.67094 2.75979 2.10437C2.33007 2.53707 2.33007 3.2401 2.75979 3.67503L7.22151 8.13377H4.81154C4.15915 8.136 3.62591 8.63125 3.62591 9.24342C3.62591 9.85709 4.15915 10.3538 4.81228 10.3538H9.84745C10.5028 10.3538 11.0316 9.85709 11.0331 9.24342C11.0316 9.2263 11.0271 9.21438 11.0271 9.19874C11.0271 9.1764 11.0331 9.15629 11.0331 9.13395V4.16655C11.0331 3.52086 10.5378 2.9988 9.92267 2.9988Z"
    fill="#848B96"/>
</svg>
