<svg width="20" height="21" viewBox="0 0 20 21" fill="none" xmlns="http://www.w3.org/2000/svg">
  <path fill-rule="evenodd" clip-rule="evenodd"
        d="M12.5 5.5H13.75V4.25H12.5V5.5ZM15 4.25C15 3.5625 14.4375 3 13.75 3H12.5C11.8125 3 11.25 3.5625 11.25 4.25H1.875V5.5H11.25C11.25 6.1875 11.8125 6.75 12.5 6.75H13.75C14.4375 6.75 15 6.1875 15 5.5H18.125V4.25H15Z"
        fill="#8A8A98"/>
  <path fill-rule="evenodd" clip-rule="evenodd"
        d="M12.5 16.75H13.75V15.5H12.5V16.75ZM13.75 14.25H12.5C11.8125 14.25 11.25 14.8125 11.25 15.5H1.875V16.75H11.25C11.25 17.4375 11.8125 18 12.5 18H13.75C14.4375 18 15 17.4375 15 16.75H18.125V15.5H15C15 14.8125 14.4375 14.25 13.75 14.25Z"
        fill="#8A8A98"/>
  <path fill-rule="evenodd" clip-rule="evenodd"
        d="M5.625 11.125H6.875V9.875H5.625V11.125ZM6.875 8.625H5.625C4.9375 8.625 4.375 9.1875 4.375 9.875H1.875V11.125H4.375C4.375 11.8125 4.9375 12.375 5.625 12.375H6.875C7.5625 12.375 8.125 11.8125 8.125 11.125H18.125V9.875H8.125C8.125 9.1875 7.5625 8.625 6.875 8.625Z"
        fill="#8A8A98"/>
</svg>
