<svg width="24" height="24" viewBox="0 0 24 24" fill="none" xmlns="http://www.w3.org/2000/svg">
<path d="M16.9908 2.09961H3.2957C2.27188 2.09961 1.43945 2.93245 1.43945 3.95586V13.8559C1.43945 14.8798 2.27188 15.7122 3.2957 15.7122C4.59467 15.7122 4.76915 15.7122 4.76915 15.7122H5.15195V18.806C5.15195 19.3579 5.82103 19.6306 6.20795 19.2436C7.9355 17.5157 6.72234 18.7293 9.55791 15.8937C9.67423 15.7774 9.83098 15.7122 9.99557 15.7122H16.9908C18.0142 15.7122 18.847 14.8798 18.847 13.8559C18.847 8.07842 18.847 9.7474 18.847 3.95586C18.8471 2.93245 18.0142 2.09961 16.9908 2.09961ZM4.53324 5.81211H13.2783C13.6203 5.81211 13.8971 6.0889 13.8971 6.43086C13.8971 6.77282 13.6203 7.04961 13.2783 7.04961H4.53324C4.19128 7.04961 3.91449 6.77282 3.91449 6.43086C3.91449 6.0889 4.19128 5.81211 4.53324 5.81211ZM10.8033 11.9997H4.53324C4.19128 11.9997 3.91449 11.7229 3.91449 11.3809C3.91449 11.039 4.19128 10.7622 4.53324 10.7622H10.8033C11.1452 10.7622 11.422 11.039 11.422 11.3809C11.422 11.7229 11.1452 11.9997 10.8033 11.9997ZM15.7533 9.52465H4.53324C4.19128 9.52465 3.91449 9.24786 3.91449 8.9059C3.91449 8.56394 4.19128 8.28715 4.53324 8.28715H15.7533C16.0953 8.28715 16.3721 8.56394 16.3721 8.9059C16.3721 9.24786 16.0953 9.52465 15.7533 9.52465Z" fill="#848B96"/>
<path d="M20.7026 4.57422H20.0921V13.8556C20.0921 15.5614 18.696 16.9493 16.9901 16.9493H10.3337L9.01367 18.1786H14.2589L17.7901 21.7181C18.1781 22.106 18.8464 21.8338 18.8464 21.2806V18.1786H20.7026C21.7262 18.1786 22.5589 17.3542 22.5589 16.3306V6.43051C22.5589 5.40689 21.7263 4.57422 20.7026 4.57422Z" fill="#848B96"/>
</svg>
