<svg width="24" height="24" viewBox="0 0 24 24" fill="none" xmlns="http://www.w3.org/2000/svg">
  <path d="M7.66797 22.5606H16.3305V12.5781H7.66797V22.5606ZM11.3805 15.0944H12.618V20.0444H11.3805V15.0944Z"
        fill="#848B96"/>
  <path
    d="M15.039 6.2973C16.7654 5.94377 17.5672 4.58091 17.5672 3.29668V1.44043H6.42969V3.29668C6.42969 4.58091 7.23148 5.94377 8.95786 6.2973C9.17426 7.55043 10.1393 8.54993 11.3797 8.80275V10.1029H8.90469V11.3404H15.0922V10.1029H12.6172V8.80275C13.8576 8.55009 14.8226 7.55043 15.039 6.2973ZM15.0922 2.67793H16.3297V3.29668C16.3297 3.98713 15.9837 4.70933 15.0922 5.00791V2.67793ZM8.90469 5.00292C8.01233 4.69499 7.66719 3.95555 7.66719 3.29668V2.67793H8.90469V5.00292Z"
    fill="#848B96"/>
  <path d="M1.43945 15.0938H6.4307V22.56H1.43945V15.0938Z" fill="#848B96"/>
  <path d="M17.5684 16.332H22.5596V22.5608H17.5684V16.332Z" fill="#848B96"/>
</svg>
