<svg width="15" height="15" viewBox="0 0 15 15" fill="none" xmlns="http://www.w3.org/2000/svg">
<path fill-rule="evenodd" clip-rule="evenodd" d="M2.03808 6.68207C2.29838 6.77672 2.5843 6.64164 2.67823 6.38344C3.19769 4.95545 4.29783 3.89137 5.59761 3.37181C5.92724 4.0939 6.65561 4.59723 7.49979 4.59723C8.65235 4.59723 9.59006 3.65954 9.59006 2.50696C9.59006 1.3544 8.65238 0.416687 7.49979 0.416687C6.39247 0.416687 5.48401 1.28232 5.41433 2.37235C3.77709 2.96486 2.38394 4.27022 1.73945 6.04192C1.64512 6.30118 1.77885 6.58776 2.03808 6.68207ZM9.48703 12.8674C7.64282 13.6426 5.50519 13.2694 4.02744 11.9099C5.27574 10.5876 4.34646 8.3862 2.50824 8.3862C1.35565 8.3862 0.417969 9.32388 0.417969 10.4765C0.417969 11.8948 1.81006 12.9068 3.16062 12.4619C4.93372 14.2403 7.59681 14.7456 9.87413 13.7883C10.1284 13.6814 10.2479 13.3886 10.141 13.1343C10.0342 12.88 9.74139 12.7605 9.48703 12.8674ZM11.6049 3.58577C13.004 4.84802 13.7846 6.72979 13.6032 8.70584C14.1921 9.07595 14.5846 9.73109 14.5846 10.4765C14.5846 11.6291 13.6469 12.5668 12.4943 12.5668C11.3417 12.5668 10.404 11.6291 10.404 10.4765C10.404 9.28455 11.4097 8.3158 12.6241 8.39066C12.6995 6.83234 12.0648 5.34616 10.9357 4.3275C10.7309 4.14269 10.7147 3.82687 10.8994 3.62205C11.0843 3.41723 11.4001 3.40103 11.6049 3.58577Z" fill="#848B96"/>
</svg>
