<svg width="24" height="24" viewBox="0 0 24 24" fill="none" xmlns="http://www.w3.org/2000/svg">
  <path
    d="M14.469 7.87242C14.414 7.89266 14.359 7.9151 14.304 7.93314C14.377 8.19274 14.8764 9.84362 16.1225 11.0879C16.2954 11.26 16.2954 11.5381 16.1234 11.7101C16.0376 11.7963 15.9245 11.8395 15.8119 11.8395C15.6992 11.8395 15.5861 11.7963 15.5012 11.711C14.7554 10.9669 14.2516 10.1107 13.9295 9.41946C13.7606 9.8533 13.5234 10.3294 13.1939 10.7487C13.0438 10.9401 12.7671 10.974 12.577 10.8231C12.3856 10.673 12.3521 10.3963 12.5022 10.2057C13.0548 9.50218 13.3017 8.57246 13.3914 8.1571C12.962 8.23058 12.5378 8.26314 12.1295 8.26314C11.0445 8.26314 10.0817 8.05018 9.46706 7.87286C7.10426 9.78862 4.23986 14.4038 4.2579 18.2608C4.26758 20.3319 5.39178 22.5605 7.8373 22.5605H16.1009H16.1137C18.0664 22.5015 19.7609 20.4894 19.7402 18.2547C19.7054 14.3923 16.823 9.78334 14.469 7.87242ZM11.9993 15.8853C13.1072 15.8853 14.0083 16.6522 14.0083 17.5955C14.0083 18.41 13.3355 19.0898 12.4393 19.2609V19.7797C12.4393 20.023 12.2426 20.2197 11.9993 20.2197C11.7559 20.2197 11.5593 20.023 11.5593 19.7797V19.2609C10.6625 19.0893 9.98934 18.4087 9.98934 17.5955C9.98934 17.3522 10.1865 17.1555 10.4293 17.1555C10.6722 17.1555 10.8693 17.3522 10.8693 17.5955C10.8693 18.0452 11.3868 18.4254 11.9993 18.4254C12.6113 18.4254 13.1283 18.0461 13.1283 17.5955C13.1283 17.1459 12.6117 16.7653 11.9993 16.7653C10.8909 16.7653 9.98934 15.9983 9.98934 15.0545C9.98934 14.2405 10.6625 13.5603 11.5593 13.3896V12.9346C11.5593 12.6913 11.7564 12.4946 11.9993 12.4946C12.2421 12.4946 12.4393 12.6913 12.4393 12.9346V13.3896C13.3355 13.5612 14.0083 14.2414 14.0083 15.0545C14.0083 15.2983 13.8116 15.4945 13.5683 15.4945C13.325 15.4945 13.1283 15.2983 13.1283 15.0545C13.1283 14.6242 12.6522 14.2207 11.9966 14.2207C11.341 14.2207 10.8689 14.6247 10.8689 15.0545C10.8693 15.5051 11.3868 15.8853 11.9993 15.8853ZM9.28094 6.88946C8.1871 5.74018 7.13682 4.0937 7.15398 3.18598C7.17334 2.77722 7.24154 2.34998 7.60322 2.1841C7.98646 2.00854 8.3389 2.2831 8.64866 2.52422C8.85194 2.68262 9.1595 2.91846 9.31438 2.8881C9.40458 2.86742 9.52338 2.72706 9.8745 2.21798C10.2261 1.70846 10.6537 1.40794 11.0933 1.44094C11.6275 1.4801 11.9038 1.98742 12.1713 2.47846C12.3807 2.83882 12.5655 3.16442 12.8278 3.4227C12.8977 3.3633 13.0108 3.22602 13.09 3.12922C13.5221 2.60298 14.3269 1.62222 16.0213 2.30026C16.1889 2.3667 16.2981 2.52906 16.2981 2.70902C16.2981 3.91638 15.4273 5.71334 14.4901 6.9141C12.3988 7.8403 9.94578 7.1187 9.28094 6.88946Z"
    fill="#848B96"/>
</svg>
