<svg width="24" height="24" viewBox="0 0 24 24" fill="none" xmlns="http://www.w3.org/2000/svg">
  <path
    d="M18.5996 19.2587H18.5666C18.4086 19.2509 18.2587 19.1867 18.1441 19.0776C18.0295 18.9686 17.9579 18.8221 17.9422 18.6647L17.1159 10.3949L16.6104 13.4269C16.5875 13.5644 16.5217 13.6912 16.4224 13.789C16.3231 13.8868 16.1953 13.9506 16.0575 13.9713C15.9197 13.9921 15.7788 13.9686 15.6551 13.9044C15.5314 13.8401 15.4312 13.7384 15.3689 13.6137L14.4588 11.7928L13.7862 12.4653C13.6625 12.5891 13.4946 12.6586 13.3196 12.6587H11.2208L10.0064 18.7307C9.97332 18.8845 9.88711 19.0217 9.76291 19.1183C9.63871 19.2148 9.48447 19.2645 9.32727 19.2587C9.16929 19.2509 9.01935 19.1867 8.90476 19.0776C8.79017 18.9686 8.71854 18.8221 8.70291 18.6647L7.87593 10.3949L7.37037 13.4269C7.34751 13.5644 7.28171 13.6912 7.18239 13.789C7.08307 13.8868 6.95533 13.9506 6.8175 13.9713C6.67966 13.9921 6.5388 13.9686 6.4151 13.9044C6.2914 13.8401 6.19121 13.7384 6.12891 13.6137L5.21877 11.7928L4.54623 12.4653C4.42248 12.5891 4.25464 12.6586 4.07961 12.6587H2.75961C2.58457 12.6587 2.41669 12.5891 2.29292 12.4654C2.16914 12.3416 2.09961 12.1737 2.09961 11.9987C2.09961 11.8236 2.16914 11.6558 2.29292 11.532C2.41669 11.4082 2.58457 11.3387 2.75961 11.3387H3.80637L4.93299 10.2121C5.00695 10.1383 5.09735 10.0832 5.19676 10.0512C5.29617 10.0192 5.40176 10.0112 5.50484 10.028C5.60793 10.0447 5.70556 10.0857 5.78973 10.1476C5.87389 10.2094 5.94218 10.2903 5.98899 10.3837L6.40083 11.2087L7.38885 5.29044C7.41245 5.13012 7.49421 4.98408 7.61854 4.88016C7.74288 4.77624 7.90111 4.72169 8.06307 4.72691C8.22504 4.73212 8.37942 4.79675 8.49681 4.90846C8.61419 5.02018 8.68638 5.17117 8.69961 5.33268L9.57741 14.1443L10.0328 11.8693C10.0627 11.7198 10.1435 11.5852 10.2614 11.4884C10.3793 11.3917 10.5271 11.3388 10.6796 11.3387H13.0464L14.173 10.2121C14.2465 10.1375 14.3369 10.0818 14.4365 10.0496C14.5361 10.0174 14.642 10.0098 14.7452 10.0273C14.8485 10.0439 14.9464 10.085 15.0308 10.1469C15.1151 10.2089 15.1835 10.29 15.2303 10.3837L15.6428 11.2087L16.6288 5.29044C16.6545 5.13633 16.7339 4.99631 16.8531 4.89527C16.9722 4.79424 17.1234 4.73875 17.2796 4.73868H17.3014C17.4618 4.74318 17.6151 4.80597 17.7325 4.9153C17.85 5.02462 17.9236 5.17301 17.9396 5.33268L18.8174 14.1443L19.2728 11.8693C19.3027 11.7198 19.3835 11.5852 19.5014 11.4884C19.6193 11.3917 19.7671 11.3388 19.9196 11.3387H21.2396C21.4147 11.3387 21.5825 11.4082 21.7063 11.532C21.8301 11.6558 21.8996 11.8236 21.8996 11.9987C21.8996 12.1737 21.8301 12.3416 21.7063 12.4654C21.5825 12.5891 21.4147 12.6587 21.2396 12.6587H20.4601L19.2464 18.7307C19.216 18.8798 19.135 19.0137 19.0171 19.11C18.8992 19.2062 18.7518 19.2587 18.5996 19.2587Z"
    fill="#848B96"/>
</svg>
