<svg width="24" height="24" viewBox="0 0 24 24" fill="none" xmlns="http://www.w3.org/2000/svg">
<path fill-rule="evenodd" clip-rule="evenodd" d="M11.6801 4.23643V2C10.1027 2.12057 8.66525 2.74941 7.53125 3.72229L9.1116 5.30267C9.83239 4.7257 10.7153 4.34356 11.6801 4.23643ZM8.33984 9.21574C8.33984 10.2646 8.76392 11.2677 9.50992 11.9989H14.9626C15.7086 11.2677 16.1327 10.2646 16.1327 9.21574C16.1327 7.06726 14.3847 5.31934 12.2362 5.31934C10.0878 5.31934 8.33984 7.06726 8.33984 9.21574ZM16.5037 14.039C16.5037 13.5275 16.0876 13.1113 15.576 13.1113H8.89647C8.38492 13.1113 7.96875 13.5275 7.96875 14.039V14.2246H16.5037V14.039ZM6.22254 15.0029C5.74544 14.5076 5.33646 13.9628 5 13.3809V17.3795C5 18.5049 5.91558 19.4204 7.04097 19.4204H9.09189L9.6283 15.3439H7.02435C6.72184 15.3439 6.43239 15.2208 6.22254 15.0029ZM17.4477 15.3429C17.7502 15.3429 18.0397 15.2198 18.2495 15.002C18.7266 14.5066 19.1355 13.9618 19.472 13.3799V17.3785C19.472 18.5039 18.5564 19.4195 17.431 19.4195H15.3801L14.8438 15.3429H17.4477ZM17.2144 9.77148H19.4509C19.3296 11.3612 18.6907 12.8552 17.6171 14.0478V14.039C17.6171 13.171 17.0722 12.4282 16.3066 12.1337C16.8045 11.4393 17.1185 10.626 17.2144 9.77148ZM19.4511 8.65862H17.2147C17.1075 7.6938 16.7254 6.81087 16.1484 6.09011L17.7288 4.50977C18.7017 5.64377 19.3305 7.08113 19.4511 8.65862ZM16.9418 3.72229C15.8078 2.74941 14.3704 2.12057 12.793 2V4.23643C13.7578 4.34356 14.6407 4.72574 15.3615 5.30267L16.9418 3.72229ZM5.02148 9.77148H7.25806C7.35387 10.6259 7.66789 11.4392 8.16574 12.1337C7.40022 12.4282 6.85532 13.171 6.85532 14.039V14.0478C5.78173 12.8553 5.14279 11.3612 5.02148 9.77148ZM8.32415 6.09011L6.74381 4.50977C5.77089 5.64377 5.14205 7.08113 5.02148 8.65862H7.25787C7.36504 7.6938 7.74722 6.81087 8.32415 6.09011ZM10.7542 15.3438H13.7187L14.3802 20.3709C14.4241 20.7042 14.1646 21.0001 13.8283 21.0001H10.6446C10.3083 21.0001 10.0489 20.7042 10.0927 20.3709L10.7542 15.3438Z" fill="#848B96"/>
</svg>
