<svg width="25" height="24" viewBox="0 0 25 24" fill="none" xmlns="http://www.w3.org/2000/svg">
  <path
    d="M5.66977 5.34506C6.60921 5.34506 7.37078 4.61395 7.37078 3.71208C7.37078 2.81021 6.60921 2.0791 5.66977 2.0791C4.73032 2.0791 3.96875 2.81021 3.96875 3.71208C3.96875 4.61395 4.73032 5.34506 5.66977 5.34506Z"
    fill="#848B96"/>
  <path
    d="M10.5097 7.63773C10.7943 7.63769 11.0606 7.49562 11.2103 7.2599L12.2119 5.6826L11.5441 4.63093C11.4202 4.43574 11.3584 4.22104 11.3528 4.00781L10.07 6.02811L7.83471 5.86772C7.81433 5.86627 7.79395 5.86553 7.77353 5.86553C7.26125 5.86553 4.01907 5.86553 3.47257 5.86553C2.39019 5.86553 1.50533 6.69779 1.5 7.72473V13.5133C1.5 13.9484 1.86747 14.3012 2.32076 14.3012C2.77404 14.3012 3.14152 13.9484 3.14152 13.5133L3.14147 7.72869C3.14229 7.57833 3.30008 7.44138 3.47257 7.44138H3.49742V20.9738C3.49742 21.496 3.93841 21.9193 4.48233 21.9193C5.02625 21.9193 5.46724 21.496 5.46724 20.9738V13.4163H5.89241V20.9738C5.89241 21.496 6.3334 21.9193 6.87732 21.9193C7.42123 21.9193 7.8624 21.496 7.8624 20.9738C7.8624 20.9738 7.8624 11.2624 7.8624 7.44997C10.5964 7.6454 10.4518 7.63773 10.5097 7.63773Z"
    fill="#848B96"/>
  <path
    d="M19.3299 5.34506C20.2694 5.34506 21.0309 4.61395 21.0309 3.71208C21.0309 2.81021 20.2694 2.0791 19.3299 2.0791C18.3905 2.0791 17.6289 2.81021 17.6289 3.71208C17.6289 4.61395 18.3905 5.34506 19.3299 5.34506Z"
    fill="#848B96"/>
  <path
    d="M23.4995 7.72033C23.4941 6.69735 22.6093 5.84619 21.527 5.84619H17.2767C17.2767 5.84619 15.6754 5.9724 14.9295 6.02771L13.3654 3.56442C13.1295 3.19287 12.6245 3.07532 12.2374 3.30175C11.8504 3.52826 11.7279 4.01307 11.9638 4.38462L13.7892 7.25946C13.9499 7.51239 14.2444 7.65718 14.5513 7.63506L17.1371 7.44949V20.9733C17.1371 21.4955 17.5783 21.9188 18.1222 21.9188C18.6661 21.9188 19.1071 21.4955 19.1071 20.9733V13.4159H19.5324V20.9734C19.5324 21.4956 19.9734 21.9189 20.5173 21.9189C21.0612 21.9189 21.5045 21.4956 21.5045 20.9734C21.5045 20.9485 21.5056 8.27399 21.5045 7.44095C21.677 7.44095 21.8574 7.57789 21.8581 7.72429V13.5128C21.8581 13.948 22.2256 14.3007 22.6789 14.3007C23.1322 14.3007 23.4996 13.948 23.4996 13.5128L23.4995 7.72033Z"
    fill="#848B96"/>
</svg>
