<svg width="22" height="18" viewBox="0 0 22 18" fill="none" xmlns="http://www.w3.org/2000/svg">
  <path
    d="M20.75 0.75H1.25C1.05117 0.750258 0.860551 0.829358 0.719955 0.969955C0.579359 1.11055 0.500258 1.30117 0.5 1.5V16.5C0.500258 16.6988 0.579359 16.8894 0.719955 17.03C0.860551 17.1706 1.05117 17.2497 1.25 17.25H20.75C20.9488 17.2497 21.1394 17.1706 21.28 17.03C21.4206 16.8894 21.4997 16.6988 21.5 16.5V1.5C21.4997 1.30117 21.4206 1.11055 21.28 0.969955C21.1394 0.829358 20.9488 0.750258 20.75 0.75ZM1.25 1.5H20.75V3.75H1.25V1.5ZM1.25 16.5V4.5H20.75L20.7506 16.5H1.25ZM20 2.625C20 2.69917 19.978 2.77167 19.9368 2.83334C19.8956 2.89501 19.837 2.94307 19.7685 2.97145C19.7 2.99984 19.6246 3.00726 19.5518 2.99279C19.4791 2.97833 19.4123 2.94261 19.3598 2.89016C19.3074 2.83772 19.2717 2.7709 19.2572 2.69816C19.2427 2.62542 19.2502 2.55002 19.2785 2.48149C19.3069 2.41297 19.355 2.3544 19.4167 2.3132C19.4783 2.27199 19.5508 2.25 19.625 2.25C19.7245 2.25 19.8198 2.28951 19.8902 2.35984C19.9605 2.43016 20 2.52554 20 2.625ZM6.875 2.625C6.87503 2.67425 6.86535 2.72303 6.84651 2.76854C6.82768 2.81405 6.80006 2.8554 6.76523 2.89023C6.7304 2.92506 6.68905 2.95268 6.64354 2.97151C6.59803 2.99035 6.54925 3.00003 6.5 3H2.375C2.27554 3 2.18016 2.96049 2.10984 2.89016C2.03951 2.81984 2 2.72446 2 2.625C2 2.52554 2.03951 2.43016 2.10984 2.35984C2.18016 2.28951 2.27554 2.25 2.375 2.25H6.5C6.54925 2.24997 6.59803 2.25965 6.64354 2.27849C6.68905 2.29732 6.7304 2.32494 6.76523 2.35977C6.80006 2.3946 6.82768 2.43595 6.84651 2.48146C6.86535 2.52697 6.87503 2.57575 6.875 2.625ZM11 6H2.75C2.70075 5.99997 2.65197 6.00965 2.60646 6.02849C2.56095 6.04732 2.5196 6.07494 2.48477 6.10977C2.44994 6.1446 2.42232 6.18595 2.40349 6.23146C2.38465 6.27697 2.37497 6.32575 2.375 6.375V13.875C2.37497 13.9243 2.38465 13.973 2.40349 14.0185C2.42232 14.0641 2.44994 14.1054 2.48477 14.1402C2.5196 14.1751 2.56095 14.2027 2.60646 14.2215C2.65197 14.2404 2.70075 14.25 2.75 14.25H11C11.0493 14.25 11.098 14.2404 11.1435 14.2215C11.1891 14.2027 11.2304 14.1751 11.2652 14.1402C11.3001 14.1054 11.3277 14.0641 11.3465 14.0185C11.3654 13.973 11.375 13.9243 11.375 13.875V6.375C11.375 6.32575 11.3654 6.27697 11.3465 6.23146C11.3277 6.18595 11.3001 6.1446 11.2652 6.10977C11.2304 6.07494 11.1891 6.04732 11.1435 6.02849C11.098 6.00965 11.0493 5.99997 11 6ZM10.625 6.75V12.4243L8.95801 11.313C8.89899 11.2735 8.82992 11.2516 8.75891 11.2499C8.68789 11.2482 8.61786 11.2668 8.55702 11.3035L6.93327 12.2778L5.26513 10.6099C5.19892 10.5437 5.11039 10.5047 5.0169 10.5004C4.92341 10.4961 4.83169 10.527 4.75974 10.5868L3.125 11.9491V6.75H10.625ZM3.125 12.9259L4.97694 11.3822L7.09471 13.5H3.125V12.9259ZM8.15529 13.5L7.47972 12.8244L8.73939 12.0685L10.625 13.3257V13.5H8.15529ZM7.625 10.125C7.8475 10.125 8.06501 10.059 8.25002 9.9354C8.43502 9.81179 8.57922 9.63608 8.66436 9.43052C8.74951 9.22495 8.77179 8.99875 8.72838 8.78052C8.68498 8.56229 8.57783 8.36184 8.4205 8.2045C8.26316 8.04717 8.06271 7.94002 7.84448 7.89662C7.62625 7.85321 7.40005 7.87549 7.19448 7.96064C6.98891 8.04578 6.81321 8.18998 6.6896 8.37498C6.56598 8.55999 6.5 8.7775 6.5 9C6.50033 9.29827 6.61896 9.58423 6.82987 9.79513C7.04077 10.006 7.32673 10.1247 7.625 10.125ZM7.625 8.625C7.69917 8.625 7.77167 8.64699 7.83334 8.6882C7.89501 8.7294 7.94307 8.78797 7.97145 8.85649C7.99984 8.92502 8.00726 9.00042 7.99279 9.07316C7.97832 9.1459 7.94261 9.21272 7.89017 9.26517C7.83772 9.31761 7.7709 9.35332 7.69816 9.36779C7.62542 9.38226 7.55002 9.37484 7.48149 9.34645C7.41297 9.31807 7.3544 9.27001 7.3132 9.20834C7.27199 9.14667 7.25 9.07417 7.25 9C7.25007 8.90057 7.2896 8.80522 7.35991 8.73491C7.43022 8.6646 7.52557 8.62507 7.625 8.625ZM13.25 10.125H15.5C15.5493 10.125 15.598 10.1154 15.6435 10.0965C15.6891 10.0777 15.7304 10.0501 15.7652 10.0152C15.8001 9.9804 15.8277 9.93905 15.8465 9.89354C15.8654 9.84803 15.875 9.79925 15.875 9.75V6.375C15.875 6.32575 15.8654 6.27697 15.8465 6.23146C15.8277 6.18595 15.8001 6.1446 15.7652 6.10977C15.7304 6.07494 15.6891 6.04732 15.6435 6.02849C15.598 6.00965 15.5493 5.99997 15.5 6H13.25C13.2007 5.99997 13.152 6.00965 13.1065 6.02849C13.0609 6.04732 13.0196 6.07494 12.9848 6.10977C12.9499 6.1446 12.9223 6.18595 12.9035 6.23146C12.8846 6.27697 12.875 6.32575 12.875 6.375V9.75C12.875 9.79925 12.8846 9.84803 12.9035 9.89354C12.9223 9.93905 12.9499 9.9804 12.9848 10.0152C13.0196 10.0501 13.0609 10.0777 13.1065 10.0965C13.152 10.1154 13.2007 10.125 13.25 10.125ZM13.625 6.75H15.125V9.375H13.625V6.75ZM19.25 10.875H13.25C13.2007 10.875 13.152 10.8846 13.1065 10.9035C13.0609 10.9223 13.0196 10.9499 12.9848 10.9848C12.9499 11.0196 12.9223 11.0609 12.9035 11.1065C12.8846 11.152 12.875 11.2007 12.875 11.25V13.875C12.875 13.9243 12.8846 13.973 12.9035 14.0185C12.9223 14.0641 12.9499 14.1054 12.9848 14.1402C13.0196 14.1751 13.0609 14.2027 13.1065 14.2215C13.152 14.2404 13.2007 14.25 13.25 14.25H19.25C19.2993 14.25 19.348 14.2404 19.3935 14.2215C19.4391 14.2027 19.4804 14.1751 19.5152 14.1402C19.5501 14.1054 19.5777 14.0641 19.5965 14.0185C19.6154 13.973 19.625 13.9243 19.625 13.875V11.25C19.625 11.2007 19.6154 11.152 19.5965 11.1065C19.5777 11.0609 19.5501 11.0196 19.5152 10.9848C19.4804 10.9499 19.4391 10.9223 19.3935 10.9035C19.348 10.8846 19.2993 10.875 19.25 10.875ZM18.875 13.5H13.625V11.625H18.875V13.5ZM16.625 6.75C16.625 6.70075 16.6346 6.65197 16.6535 6.60646C16.6723 6.56095 16.6999 6.5196 16.7348 6.48477C16.7696 6.44994 16.8109 6.42232 16.8565 6.40349C16.902 6.38465 16.9507 6.37497 17 6.375H17.75C17.8495 6.375 17.9448 6.41451 18.0152 6.48483C18.0855 6.55516 18.125 6.65054 18.125 6.75C18.125 6.84946 18.0855 6.94484 18.0152 7.01517C17.9448 7.08549 17.8495 7.125 17.75 7.125H17C16.9507 7.12503 16.902 7.11535 16.8565 7.09651C16.8109 7.07768 16.7696 7.05006 16.7348 7.01523C16.6999 6.9804 16.6723 6.93905 16.6535 6.89354C16.6346 6.84803 16.625 6.79925 16.625 6.75ZM19.625 8.25C19.625 8.29925 19.6154 8.34803 19.5965 8.39354C19.5777 8.43905 19.5501 8.4804 19.5152 8.51523C19.4804 8.55006 19.4391 8.57768 19.3935 8.59651C19.348 8.61535 19.2993 8.62503 19.25 8.625H17C16.9005 8.625 16.8052 8.58549 16.7348 8.51517C16.6645 8.44484 16.625 8.34946 16.625 8.25C16.625 8.15054 16.6645 8.05516 16.7348 7.98483C16.8052 7.91451 16.9005 7.875 17 7.875H19.25C19.2993 7.87497 19.348 7.88465 19.3935 7.90349C19.4391 7.92232 19.4804 7.94994 19.5152 7.98477C19.5501 8.0196 19.5777 8.06095 19.5965 8.10646C19.6154 8.15197 19.625 8.20075 19.625 8.25ZM19.625 9.75C19.625 9.79925 19.6154 9.84803 19.5965 9.89354C19.5777 9.93905 19.5501 9.9804 19.5152 10.0152C19.4804 10.0501 19.4391 10.0777 19.3935 10.0965C19.348 10.1154 19.2993 10.125 19.25 10.125H17C16.9005 10.125 16.8052 10.0855 16.7348 10.0152C16.6645 9.94484 16.625 9.84946 16.625 9.75C16.625 9.65054 16.6645 9.55516 16.7348 9.48483C16.8052 9.41451 16.9005 9.375 17 9.375H19.25C19.2993 9.37497 19.348 9.38465 19.3935 9.40348C19.4391 9.42232 19.4804 9.44994 19.5152 9.48477C19.5501 9.5196 19.5777 9.56095 19.5965 9.60646C19.6154 9.65197 19.625 9.70075 19.625 9.75Z"
    fill="#8A8A98"/>
</svg>
