<svg width="22" height="18" viewBox="0 0 22 18" fill="none" xmlns="http://www.w3.org/2000/svg">
<path d="M10.3906 13.418C10.457 13.4712 10.5396 13.5001 10.6246 13.5H8.15525L7.47969 12.8244L8.71921 12.0806L10.3906 13.418ZM10.6246 13.5H10.625H10.6246ZM4.97694 11.3822L3.125 12.9259V13.5H7.09471L4.97694 11.3822ZM15.125 6.75H13.625V9.375H15.125V6.75ZM3.125 11.9491V6.75H10.625V12.6446L8.98438 11.3321C8.92448 11.2844 8.85147 11.2561 8.77509 11.251C8.69871 11.2459 8.62258 11.2642 8.55688 11.3035L6.93313 12.2778L5.26513 10.6099C5.19892 10.5437 5.11039 10.5047 5.0169 10.5004C4.92341 10.4961 4.83169 10.527 4.75974 10.5868L3.125 11.9491ZM6.5 9C6.5 9.2225 6.56598 9.44001 6.6896 9.62502C6.81321 9.81002 6.98891 9.95422 7.19448 10.0394C7.40005 10.1245 7.62625 10.1468 7.84448 10.1034C8.06271 10.06 8.26316 9.95283 8.4205 9.79549C8.57783 9.63816 8.68498 9.43771 8.72838 9.21948C8.77179 9.00125 8.74951 8.77505 8.66436 8.56948C8.57922 8.36391 8.43502 8.18821 8.25002 8.0646C8.06501 7.94098 7.8475 7.875 7.625 7.875C7.32673 7.87533 7.04077 7.99396 6.82987 8.20487C6.61896 8.41577 6.50033 8.70173 6.5 9ZM21.5 4.5V16.5C21.4997 16.6988 21.4206 16.8894 21.28 17.03C21.1394 17.1706 20.9488 17.2497 20.75 17.25H1.25C1.05117 17.2497 0.860551 17.1706 0.719955 17.03C0.579359 16.8894 0.500258 16.6988 0.5 16.5V4.5H21.5ZM16.625 6.75C16.625 6.79925 16.6346 6.84803 16.6535 6.89354C16.6723 6.93905 16.6999 6.9804 16.7348 7.01523C16.7696 7.05006 16.8109 7.07768 16.8565 7.09651C16.902 7.11535 16.9507 7.12503 17 7.125H17.75C17.8495 7.125 17.9448 7.08549 18.0152 7.01517C18.0855 6.94484 18.125 6.84946 18.125 6.75C18.125 6.65054 18.0855 6.55516 18.0152 6.48483C17.9448 6.41451 17.8495 6.375 17.75 6.375H17C16.9507 6.37497 16.902 6.38465 16.8565 6.40349C16.8109 6.42232 16.7696 6.44994 16.7348 6.48477C16.6999 6.5196 16.6723 6.56095 16.6535 6.60646C16.6346 6.65197 16.625 6.70075 16.625 6.75ZM12.875 9.75C12.875 9.79925 12.8846 9.84803 12.9035 9.89354C12.9223 9.93905 12.9499 9.9804 12.9848 10.0152C13.0196 10.0501 13.0609 10.0777 13.1065 10.0965C13.152 10.1154 13.2007 10.125 13.25 10.125H15.5C15.5493 10.125 15.598 10.1154 15.6435 10.0965C15.6891 10.0777 15.7304 10.0501 15.7652 10.0152C15.8001 9.9804 15.8277 9.93905 15.8465 9.89354C15.8654 9.84803 15.875 9.79925 15.875 9.75V6.375C15.875 6.32575 15.8654 6.27697 15.8465 6.23146C15.8277 6.18595 15.8001 6.1446 15.7652 6.10977C15.7304 6.07494 15.6891 6.04732 15.6435 6.02849C15.598 6.00965 15.5493 5.99997 15.5 6H13.25C13.2007 5.99997 13.152 6.00965 13.1065 6.02849C13.0609 6.04732 13.0196 6.07494 12.9848 6.10977C12.9499 6.1446 12.9223 6.18595 12.9035 6.23146C12.8846 6.27697 12.875 6.32575 12.875 6.375V9.75ZM11.375 6.375C11.375 6.32575 11.3654 6.27697 11.3465 6.23146C11.3277 6.18595 11.3001 6.1446 11.2652 6.10977C11.2304 6.07494 11.1891 6.04732 11.1435 6.02849C11.098 6.00965 11.0493 5.99997 11 6H2.75C2.70075 5.99997 2.65197 6.00965 2.60646 6.02849C2.56095 6.04732 2.5196 6.07494 2.48477 6.10977C2.44994 6.1446 2.42232 6.18595 2.40349 6.23146C2.38465 6.27697 2.37497 6.32575 2.375 6.375V13.875C2.37497 13.9243 2.38465 13.973 2.40349 14.0185C2.42232 14.0641 2.44994 14.1054 2.48477 14.1402C2.5196 14.1751 2.56095 14.2027 2.60646 14.2215C2.65197 14.2404 2.70075 14.25 2.75 14.25H11C11.0493 14.25 11.098 14.2404 11.1435 14.2215C11.1891 14.2027 11.2304 14.1751 11.2652 14.1402C11.3001 14.1054 11.3277 14.0641 11.3465 14.0185C11.3654 13.973 11.375 13.9243 11.375 13.875V6.375ZM19.625 11.25C19.625 11.2007 19.6154 11.152 19.5965 11.1065C19.5777 11.0609 19.5501 11.0196 19.5152 10.9848C19.4804 10.9499 19.4391 10.9223 19.3935 10.9035C19.348 10.8846 19.2993 10.875 19.25 10.875H13.25C13.2007 10.875 13.152 10.8846 13.1065 10.9035C13.0609 10.9223 13.0196 10.9499 12.9848 10.9848C12.9499 11.0196 12.9223 11.0609 12.9035 11.1065C12.8846 11.152 12.875 11.2007 12.875 11.25V13.875C12.875 13.9243 12.8846 13.973 12.9035 14.0185C12.9223 14.0641 12.9499 14.1054 12.9848 14.1402C13.0196 14.1751 13.0609 14.2027 13.1065 14.2215C13.152 14.2404 13.2007 14.25 13.25 14.25H19.25C19.2993 14.25 19.348 14.2404 19.3935 14.2215C19.4391 14.2027 19.4804 14.1751 19.5152 14.1402C19.5501 14.1054 19.5777 14.0641 19.5965 14.0185C19.6154 13.973 19.625 13.9243 19.625 13.875V11.25ZM19.625 9.75C19.625 9.70075 19.6154 9.65197 19.5965 9.60646C19.5777 9.56095 19.5501 9.5196 19.5152 9.48477C19.4804 9.44994 19.4391 9.42232 19.3935 9.40348C19.348 9.38465 19.2993 9.37497 19.25 9.375H17C16.9005 9.375 16.8052 9.41451 16.7348 9.48483C16.6645 9.55516 16.625 9.65054 16.625 9.75C16.625 9.84946 16.6645 9.94484 16.7348 10.0152C16.8052 10.0855 16.9005 10.125 17 10.125H19.25C19.2993 10.125 19.348 10.1154 19.3935 10.0965C19.4391 10.0777 19.4804 10.0501 19.5152 10.0152C19.5501 9.9804 19.5777 9.93905 19.5965 9.89354C19.6154 9.84803 19.625 9.79925 19.625 9.75ZM19.625 8.25C19.625 8.20075 19.6154 8.15197 19.5965 8.10646C19.5777 8.06095 19.5501 8.0196 19.5152 7.98477C19.4804 7.94994 19.4391 7.92232 19.3935 7.90349C19.348 7.88465 19.2993 7.87497 19.25 7.875H17C16.9005 7.875 16.8052 7.91451 16.7348 7.98483C16.6645 8.05516 16.625 8.15054 16.625 8.25C16.625 8.34946 16.6645 8.44484 16.7348 8.51517C16.8052 8.58549 16.9005 8.625 17 8.625H19.25C19.2993 8.62503 19.348 8.61535 19.3935 8.59651C19.4391 8.57768 19.4804 8.55006 19.5152 8.51523C19.5501 8.4804 19.5777 8.43905 19.5965 8.39354C19.6154 8.34803 19.625 8.29925 19.625 8.25ZM13.625 13.5H18.875V11.625H13.625V13.5ZM0.5 3.75V1.5C0.500258 1.30117 0.579359 1.11055 0.719955 0.969955C0.860551 0.829358 1.05117 0.750258 1.25 0.75H20.75C20.9488 0.750258 21.1394 0.829358 21.28 0.969955C21.4206 1.11055 21.4997 1.30117 21.5 1.5V3.75H0.5ZM19.25 2.25C19.25 2.32417 19.272 2.39667 19.3132 2.45834C19.3544 2.52001 19.413 2.56807 19.4815 2.59645C19.55 2.62484 19.6254 2.63226 19.6982 2.61779C19.7709 2.60333 19.8377 2.56761 19.8902 2.51516C19.9426 2.46272 19.9783 2.3959 19.9928 2.32316C20.0073 2.25042 19.9998 2.17502 19.9715 2.10649C19.9431 2.03797 19.895 1.9794 19.8333 1.9382C19.7717 1.89699 19.6992 1.875 19.625 1.875C19.5255 1.875 19.4302 1.91451 19.3598 1.98484C19.2895 2.05516 19.25 2.15054 19.25 2.25ZM2 2.25C1.99997 2.29925 2.00965 2.34803 2.02849 2.39354C2.04732 2.43905 2.07494 2.4804 2.10977 2.51523C2.1446 2.55006 2.18595 2.57768 2.23146 2.59651C2.27697 2.61535 2.32575 2.62503 2.375 2.625H6.5C6.59946 2.625 6.69484 2.58549 6.76517 2.51516C6.83549 2.44484 6.875 2.34946 6.875 2.25C6.875 2.15054 6.83549 2.05516 6.76517 1.98484C6.69484 1.91451 6.59946 1.875 6.5 1.875H2.375C2.32575 1.87497 2.27697 1.88465 2.23146 1.90349C2.18595 1.92232 2.1446 1.94994 2.10977 1.98477C2.07494 2.0196 2.04732 2.06095 2.02849 2.10646C2.00965 2.15197 1.99997 2.20075 2 2.25ZM7.625 9.375C7.69917 9.375 7.77167 9.35301 7.83334 9.3118C7.89501 9.2706 7.94307 9.21203 7.97145 9.14351C7.99984 9.07498 8.00726 8.99958 7.99279 8.92684C7.97832 8.8541 7.94261 8.78728 7.89017 8.73483C7.83772 8.68239 7.7709 8.64668 7.69816 8.63221C7.62542 8.61774 7.55002 8.62516 7.48149 8.65355C7.41297 8.68193 7.3544 8.72999 7.3132 8.79166C7.27199 8.85333 7.25 8.92583 7.25 9C7.25007 9.09943 7.2896 9.19478 7.35991 9.26509C7.43022 9.3354 7.52557 9.37493 7.625 9.375Z" fill="#A996FF"/>
</svg>
