<svg width="24" height="24" viewBox="0 0 24 24" fill="none" xmlns="http://www.w3.org/2000/svg">
  <path fill-rule="evenodd" clip-rule="evenodd"
        d="M14.1819 3.27245C14.5837 3.37291 14.8281 3.78011 14.7276 4.18196L10.7276 20.182C10.6271 20.5838 10.2199 20.8281 9.8181 20.7277C9.41625 20.6272 9.17193 20.22 9.27239 19.8182L13.2724 3.81815C13.3729 3.41631 13.7801 3.17199 14.1819 3.27245ZM7.53033 7.46973C7.82322 7.76262 7.82322 8.23749 7.53033 8.53039L4.06066 12.0001L7.53033 15.4697C7.82322 15.7626 7.82322 16.2375 7.53033 16.5304C7.23744 16.8233 6.76256 16.8233 6.46967 16.5304L2.46967 12.5304C2.17678 12.2375 2.17678 11.7626 2.46967 11.4697L6.46967 7.46973C6.76256 7.17683 7.23744 7.17683 7.53033 7.46973ZM16.4697 7.46973C16.7626 7.17683 17.2374 7.17683 17.5303 7.46973L21.5303 11.4697C21.8232 11.7626 21.8232 12.2375 21.5303 12.5304L17.5303 16.5304C17.2374 16.8233 16.7626 16.8233 16.4697 16.5304C16.1768 16.2375 16.1768 15.7626 16.4697 15.4697L19.9393 12.0001L16.4697 8.53039C16.1768 8.23749 16.1768 7.76262 16.4697 7.46973Z"
        fill="#8A8A98"/>
</svg>
