<svg width="24" height="24" viewBox="0 0 24 24" fill="none" xmlns="http://www.w3.org/2000/svg">
<path d="M16.5002 12.001C13.9801 12.001 12 13.981 12 16.5012C12 19.0213 13.9801 21.0014 16.5002 21.0014C19.0203 21.0014 21.0004 19.0213 21.0004 16.5012C21.0004 13.9811 19.0203 12.001 16.5002 12.001ZM16.5002 19.2013C14.9701 19.2013 13.8001 18.0313 13.8001 16.5012C13.8001 14.9711 14.9701 13.8011 16.5002 13.8011C18.0303 13.8011 19.2003 14.9711 19.2003 16.5012C19.2003 18.0313 18.0303 19.2013 16.5002 19.2013Z" fill="#848B96"/>
<path d="M18.3007 4.80009V3H16.5006V4.80009H7.5002V3H5.70011V4.80009H3V21.0008H11.1003V19.2007H4.80009V8.40023H19.2007V11.1003H21.0008V4.80009H18.3007Z" fill="#848B96"/>
<path d="M8.3997 11.1006H6.59961V12.9007H8.3997V11.1006Z" fill="#848B96"/>
<path d="M11.9993 11.1006H10.1992V12.9007H11.9993V11.1006Z" fill="#848B96"/>
<path d="M8.3997 14.7012H6.59961V16.5013H8.3997V14.7012Z" fill="#848B96"/>
<path d="M17.3997 14.7012H15.5996V15.6012V17.4013H17.3997H18.2997V15.6012H17.3997V14.7012Z" fill="#848B96"/>
</svg>
