<svg width="24" height="24" viewBox="0 0 24 24" fill="none" xmlns="http://www.w3.org/2000/svg">
  <path fill-rule="evenodd" clip-rule="evenodd"
        d="M20.1988 14.411L22.557 18.4954C22.5826 18.5398 22.5993 18.5889 22.606 18.6399C22.6127 18.6908 22.6093 18.7425 22.596 18.7921C22.5827 18.8417 22.5598 18.8882 22.5285 18.929C22.4972 18.9697 22.4582 19.0039 22.4138 19.0296L21.2331 19.7114C21.1432 19.7632 21.0365 19.7773 20.9363 19.7504C20.8361 19.7236 20.7507 19.658 20.6988 19.5682L18.3407 15.4837C18.2888 15.3939 18.2747 15.2871 18.3016 15.1869C18.3284 15.0867 18.394 15.0013 18.4838 14.9494L18.513 14.9326L17.9543 13.9649C16.7385 14.4765 15.3735 14.5055 14.137 14.046C12.9006 13.5866 11.8857 12.6732 11.299 11.4918C10.7123 10.3104 10.5979 8.9498 10.979 7.68701C11.3602 6.42422 12.2083 5.35416 13.3506 4.69466C14.493 4.03516 15.8437 3.8358 17.1279 4.13716C18.4121 4.43852 19.5331 5.21796 20.2628 6.31679C20.9926 7.41562 21.2761 8.75125 21.0557 10.0518C20.8353 11.3523 20.1276 12.5199 19.0766 13.317L19.6353 14.2846L19.6645 14.2677C19.7544 14.2159 19.8611 14.2018 19.9613 14.2287C20.0615 14.2556 20.1469 14.3211 20.1988 14.411ZM15.696 13.0792C16.4636 13.1295 17.2289 12.951 17.8951 12.5664C18.7861 12.0484 19.4359 11.199 19.7027 10.2035C19.9694 9.208 19.8314 8.14741 19.3187 7.25338C18.934 6.58718 18.3605 6.04999 17.6706 5.70975C16.9806 5.36951 16.2053 5.2415 15.4426 5.3419C14.68 5.44231 13.9642 5.76662 13.3858 6.27383C12.8075 6.78103 12.3925 7.44836 12.1934 8.19141C11.9943 8.93445 12.02 9.71985 12.2673 10.4483C12.5146 11.1767 12.9723 11.8155 13.5826 12.2838C14.1929 12.7521 14.9284 13.0288 15.696 13.0792ZM12.7648 14.6955C13.7316 15.2532 14.8279 15.5475 15.944 15.5489C16.3375 15.5491 16.7302 15.5127 17.1169 15.4401C17.1265 15.511 17.1409 15.5811 17.1602 15.65C16.7979 17.0749 16.3783 18.5009 15.9655 19.8064C15.3584 21.7256 12.6415 21.7346 12.0343 19.8155C11.7791 19.009 11.5213 18.1563 11.276 17.2863C11.2352 17.1379 11.1467 17.0069 11.0243 16.9136C10.9018 16.8202 10.7521 16.7697 10.5981 16.7697C10.4442 16.7697 10.2945 16.8202 10.172 16.9136C10.0495 17.0069 9.9611 17.1379 9.92028 17.2863C9.67497 18.1563 9.41708 19.009 9.16193 19.8155C8.55473 21.7346 5.83782 21.7255 5.23077 19.8064C4.13924 16.3554 3 12.0618 3 9.17363C3.0002 8.41948 3.18634 7.67702 3.54194 7.01198C3.89753 6.34693 4.41162 5.77983 5.03868 5.36086C5.66574 4.9419 6.38643 4.68401 7.13693 4.61002C7.88744 4.53603 8.64461 4.64823 9.34141 4.93668C9.73943 5.10144 10.1675 5.18118 10.5981 5.1708C10.7468 5.17279 10.8953 5.16428 11.0428 5.14533C9.40479 7.13497 9.07199 10.0103 10.4344 12.3706C10.9944 13.3361 11.7979 14.1378 12.7648 14.6955Z"
        fill="#848B96"/>
</svg>
