<svg width="24" height="24" viewBox="0 0 24 24" fill="none" xmlns="http://www.w3.org/2000/svg">
<path fill-rule="evenodd" clip-rule="evenodd" d="M11.228 15.7501C10.0138 15.7501 9.01477 14.7308 9.00052 13.4768C8.96302 10.0381 10.9483 5.98358 14.0585 3.14708C14.258 2.96558 14.5558 2.95058 14.7718 3.11033C14.9878 3.27008 15.0605 3.56033 14.9458 3.80333C13.5358 6.79058 12.911 10.4813 13.391 12.9871C13.5268 13.6981 13.3475 14.4166 12.899 14.9588C12.4835 15.4613 11.8745 15.7501 11.228 15.7501ZM3.75 8.25097H8.25C8.664 8.25097 9 7.91497 9 7.50098C9 7.08698 8.664 6.75098 8.25 6.75098H3.75C3.336 6.75098 3 7.08698 3 7.50098C3 7.91497 3.336 8.25097 3.75 8.25097ZM15.75 8.25097H20.25C20.664 8.25097 21 7.91497 21 7.50098C21 7.08698 20.664 6.75098 20.25 6.75098H15.75C15.336 6.75098 15 7.08698 15 7.50098C15 7.91497 15.336 8.25097 15.75 8.25097ZM19.2825 10.1852L20.6925 11.2135C20.886 11.3545 21 11.5795 21 11.8187V19.501C21 20.3282 20.3272 21.001 19.5 21.001H4.5C3.67275 21.001 3 20.3282 3 19.501V11.8187C3 11.5795 3.114 11.3545 3.3075 11.2135L4.683 10.2085C5.3895 9.75323 6.23775 9.72548 6.93525 10.1087C7.623 10.4882 8.03025 11.1767 8.02425 11.9515L8.0115 13.5175C8.00475 14.4227 8.382 15.3107 9.0465 15.9535C9.6975 16.5827 10.542 16.9142 11.4262 16.873C12.246 16.8392 13.0208 16.5092 13.608 15.9452C14.2148 15.3505 14.5515 14.5592 14.5515 13.7215V12.466C14.5515 11.827 14.8305 11.227 15.3173 10.8205C15.9008 10.3322 16.8113 9.75098 17.8403 9.75098C18.345 9.75098 18.8437 9.90098 19.2825 10.1852ZM6 14.251C6 13.837 5.664 13.501 5.25 13.501C4.836 13.501 4.5 13.837 4.5 14.251C4.5 14.665 4.836 15.001 5.25 15.001C5.664 15.001 6 14.665 6 14.251ZM4.6875 18.001C4.6875 18.415 5.0235 18.751 5.4375 18.751C5.8515 18.751 6.1875 18.415 6.1875 18.001C6.1875 17.587 5.8515 17.251 5.4375 17.251C5.0235 17.251 4.6875 17.587 4.6875 18.001ZM8.25 18.751C8.25 19.165 8.586 19.501 9 19.501C9.414 19.501 9.75 19.165 9.75 18.751C9.75 18.337 9.414 18.001 9 18.001C8.586 18.001 8.25 18.337 8.25 18.751ZM15 18.001C15 18.415 15.336 18.751 15.75 18.751C16.164 18.751 16.5 18.415 16.5 18.001C16.5 17.587 16.164 17.251 15.75 17.251C15.336 17.251 15 17.587 15 18.001ZM17.25 13.501C17.25 13.915 17.586 14.251 18 14.251C18.414 14.251 18.75 13.915 18.75 13.501C18.75 13.087 18.414 12.751 18 12.751C17.586 12.751 17.25 13.087 17.25 13.501ZM18.75 16.501C18.75 16.915 19.086 17.251 19.5 17.251C19.914 17.251 20.25 16.915 20.25 16.501C20.25 16.087 19.914 15.751 19.5 15.751C19.086 15.751 18.75 16.087 18.75 16.501Z" fill="#848B96"/>
</svg>
