<svg width="25" height="24" viewBox="0 0 25 24" fill="none" xmlns="http://www.w3.org/2000/svg">
<path d="M23.4384 11.0489L23.4027 2.69139C23.4027 2.03346 22.8674 1.5 22.2072 1.5H17.7644C17.1042 1.5 16.5689 2.03346 16.5689 2.69139L16.5332 11.0489C16.5332 11.0489 16.5332 11.0489 16.5332 11.0667V11.6179C16.5332 12.2758 17.1042 12.8626 17.7644 12.8626H19.959H19.9769H19.9947H22.1894C22.8496 12.8626 23.4205 12.2758 23.4205 11.6179L23.4384 11.0489ZM19.9769 10.9955H17.1577L17.1934 3.38488H22.7782L22.8139 10.9955H19.9769Z" fill="#848B96"/>
<path d="M19.2448 15.6894C19.2448 15.885 19.2448 16.0628 19.1199 16.1873C18.995 16.3117 18.8344 16.3117 18.6203 16.3117H11.4831H11.1798H3.73933C3.5609 16.3117 3.40031 16.3117 3.29326 16.1873C3.16836 16.0628 3.16836 15.9028 3.16836 15.7249C3.16836 12.8087 3.16836 9.89247 3.16836 6.95846C3.16836 6.78064 3.16836 6.6206 3.29326 6.49613C3.41816 6.37165 3.5609 6.37165 3.75717 6.37165C7.77181 6.37165 11.8043 6.37165 15.8189 6.37165V4.78906H11.2155C8.57474 4.78906 5.91615 4.78906 3.27541 4.78906C2.3119 4.78906 1.5625 5.55368 1.5625 6.49613C1.5625 10.2125 1.5625 13.929 1.5625 17.6454C1.5625 18.6412 2.3119 19.388 3.3111 19.388C5.54145 19.388 7.75397 19.388 9.98432 19.388L9.57393 21.3618C9.11002 21.3618 8.62826 21.3618 8.14651 21.3618C7.80749 21.3618 7.55769 21.593 7.55769 21.9308C7.55769 22.2509 7.78965 22.4821 8.12866 22.4998C8.16435 22.4998 8.21788 22.4998 8.25356 22.4998H14.3201C14.338 22.4998 14.3558 22.4998 14.3737 22.4998C14.4093 22.4998 14.4629 22.4998 14.4986 22.4821C14.784 22.4287 14.9625 22.2509 14.9803 21.9664C14.9982 21.6819 14.8019 21.4329 14.5164 21.3796C14.445 21.3618 14.3737 21.3618 14.3023 21.3618H13.0533L12.6429 19.388C14.784 19.388 16.9252 19.388 19.0663 19.388C20.0655 19.388 20.8149 18.6412 20.8149 17.6454C20.8149 16.294 20.8149 14.9248 20.8149 13.5733H19.2269V15.6894H19.2448Z" fill="#848B96"/>
</svg>
