<svg width="24" height="24" viewBox="0 0 24 24" fill="none" xmlns="http://www.w3.org/2000/svg">
  <path
    d="M21.6822 3.33318C21.1335 2.43393 20.16 1.89355 19.0793 1.89355C18.6173 1.89355 18.2419 2.26893 18.2419 2.73093C18.2419 3.19293 18.6173 3.5683 19.0793 3.5683C19.5702 3.5683 20.0074 3.80755 20.2508 4.20355C20.4694 4.5583 20.4859 4.97493 20.3085 5.34618L17.5943 9.77231C17.5819 9.78881 17.5737 9.80943 17.5613 9.82593C17.3344 10.2714 16.8807 10.5396 16.3527 10.5396C16.3485 10.5396 16.3485 10.5396 16.3444 10.5396C15.8205 10.5396 15.3709 10.2756 15.1358 9.83831C15.1275 9.82181 15.1152 9.80118 15.1028 9.78468L12.3225 5.36268C12.1369 4.99143 12.1534 4.5748 12.3679 4.2118C12.6113 3.80755 13.0485 3.5683 13.5435 3.5683C14.0055 3.5683 14.3809 3.19293 14.3809 2.73093C14.3809 2.26893 14.0097 1.89355 13.5477 1.89355C12.4587 1.89355 11.4852 2.43805 10.9365 3.34968C10.4127 4.22005 10.3838 5.27605 10.8582 6.17118C10.8664 6.18768 10.8788 6.2083 10.8912 6.2248L13.6755 10.6592C14.0633 11.3769 14.7233 11.8884 15.4988 12.1071V17.9934C15.4988 18.5586 14.6779 19.1897 13.5023 19.1897C12.3267 19.1897 11.5058 18.5586 11.5058 17.9934V11.2656C11.5058 9.65268 9.89291 8.39043 7.83041 8.39043C5.76791 8.39043 4.15503 9.65268 4.15503 11.2656V16.1908C2.84741 16.5538 1.89453 17.7171 1.89453 19.0907C1.89453 20.7531 3.28878 22.1061 5.00066 22.1061C6.71253 22.1061 8.10678 20.7531 8.10678 19.0907C8.10678 17.7047 7.13741 16.5332 5.81741 16.1826V11.2656C5.81741 10.7004 6.63828 10.0693 7.81391 10.0693C8.98953 10.0693 9.81041 10.7004 9.81041 11.2656V18.0388C9.81041 18.0594 9.81041 18.0842 9.81453 18.1048C9.88878 19.6599 11.4769 20.8644 13.4858 20.8644C15.5483 20.8644 17.1612 19.6022 17.1612 17.9893V12.1153C17.9573 11.8967 18.6379 11.3687 19.0298 10.6303L21.7482 6.20006C21.7605 6.18356 21.7688 6.16293 21.7812 6.14643C22.2473 5.24305 22.2102 4.1953 21.6822 3.33318ZM6.43203 19.0907C6.43203 19.8291 5.78853 20.4272 5.00066 20.4272C4.21278 20.4272 3.56928 19.8249 3.56928 19.0907C3.56928 18.3523 4.21278 17.7542 5.00066 17.7542C5.79266 17.7542 6.43203 18.3523 6.43203 19.0907Z"
    fill="#848B96"/>
</svg>
