<svg width="24" height="24" viewBox="0 0 24 24" fill="none" xmlns="http://www.w3.org/2000/svg">
<path d="M17.809 5.29219C17.809 9.76387 17.8097 9.48495 17.8076 9.53185C17.7964 9.78644 17.413 9.77368 17.413 9.51883V7.83055C17.413 6.08388 15.9918 4.66255 14.245 4.66255H9.75705C8.0106 4.66255 6.58905 6.08357 6.58905 7.83055V9.51883C6.58905 9.77363 6.20563 9.78639 6.19445 9.53185C6.19239 9.48495 6.19305 9.77236 6.19305 5.18043C6.19305 4.41263 6.75801 3.77419 7.49413 3.65891C8.12597 2.30415 9.47237 1.44043 10.9824 1.44043H13.9573C16.0846 1.44043 17.809 3.16492 17.809 5.29219ZM14.245 5.36655H9.75705C8.39833 5.36655 7.29305 6.47227 7.29305 7.83055C7.29305 7.84089 7.29278 10.7498 7.29349 10.7601C7.33353 13.3222 9.43013 15.3937 12.001 15.3937C14.5847 15.3937 16.6888 13.302 16.709 10.7227V7.83055C16.709 6.47183 15.6038 5.36655 14.245 5.36655ZM15.741 16.704V18.0104C15.741 18.1617 15.8375 18.2964 15.9811 18.3438C16.7352 18.5929 17.281 19.3039 17.281 20.1404V21.7564C17.281 21.9439 17.1396 22.1076 16.9525 22.1197C16.7475 22.1329 16.577 21.9706 16.577 21.7684V20.1657C16.577 19.5193 16.0712 18.9721 15.425 18.953C14.7536 18.933 14.201 19.4734 14.201 20.1404V21.7564C14.201 21.9439 14.0596 22.1076 13.8725 22.1197C13.6675 22.1329 13.497 21.9706 13.497 21.7684V20.1404C13.497 19.3039 14.0429 18.5929 14.797 18.3438C14.9406 18.2964 15.037 18.1617 15.037 18.0104V16.4945C15.037 16.4104 14.9392 16.3635 14.8734 16.4137C11.9944 18.6084 12.1655 18.5134 12.0013 18.5124C11.8299 18.5114 12.0265 18.6224 9.12838 16.4135C9.06488 16.3651 8.96505 16.4072 8.96505 16.4942V18.4927C8.96505 18.6286 9.04288 18.7532 9.16617 18.8104C9.63798 19.0289 9.95993 19.518 9.93129 20.0774C9.89736 20.7398 9.36325 21.2821 8.70149 21.3255C7.93377 21.3758 7.29305 20.7655 7.29305 20.0084C7.29305 19.4792 7.60624 19.022 8.05697 18.8118C8.18119 18.7539 8.26105 18.6298 8.26105 18.4928V16.6983C8.26105 16.5936 8.17001 16.5107 8.06608 16.5232C6.26626 16.7403 4.87305 18.2704 4.87305 20.129V22.2084C4.87305 22.4028 5.03065 22.5604 5.22505 22.5604H18.777C18.9714 22.5604 19.129 22.4028 19.129 22.2084V20.1128C19.129 18.2609 17.7307 16.7655 15.9379 16.5292C15.8334 16.5154 15.741 16.5986 15.741 16.704ZM12.2144 17.5552L14.0923 16.1238C14.2824 15.9789 14.122 15.6744 13.897 15.7553C12.5746 16.2309 11.2668 16.1907 10.1114 15.7575C9.87796 15.6699 9.71987 15.9791 9.90942 16.1236L11.7877 17.5553C11.9137 17.6513 12.0884 17.6513 12.2144 17.5552ZM7.99705 20.0084C7.99705 20.3481 8.27337 20.6244 8.61305 20.6244C8.95273 20.6244 9.22905 20.3481 9.22905 20.0084C9.22905 19.6688 8.95273 19.3924 8.61305 19.3924C8.27337 19.3924 7.99705 19.6688 7.99705 20.0084Z" fill="#848B96"/>
</svg>
