<svg width="25" height="24" viewBox="0 0 25 24" fill="none" xmlns="http://www.w3.org/2000/svg">
  <path
    d="M12.9961 7V5C12.9961 3.9 12.0961 3 10.9961 3H4.99609C3.89609 3 2.99609 3.9 2.99609 5V19C2.99609 20.1 3.89609 21 4.99609 21H20.9961C22.0961 21 22.9961 20.1 22.9961 19V9C22.9961 7.9 22.0961 7 20.9961 7H12.9961ZM6.99609 19H4.99609V17H6.99609V19ZM6.99609 15H4.99609V13H6.99609V15ZM6.99609 11H4.99609V9H6.99609V11ZM6.99609 7H4.99609V5H6.99609V7ZM10.9961 19H8.99609V17H10.9961V19ZM10.9961 15H8.99609V13H10.9961V15ZM10.9961 11H8.99609V9H10.9961V11ZM10.9961 7H8.99609V5H10.9961V7ZM19.9961 19H12.9961V17H14.9961V15H12.9961V13H14.9961V11H12.9961V9H19.9961C20.5461 9 20.9961 9.45 20.9961 10V18C20.9961 18.55 20.5461 19 19.9961 19ZM18.9961 11H16.9961V13H18.9961V11ZM18.9961 15H16.9961V17H18.9961V15Z"
    fill="#848B96"/>
</svg>
