<svg width="19" height="19" viewBox="0 0 19 19" fill="none" xmlns="http://www.w3.org/2000/svg">
<path d="M13.757 0.999609L6.291 8.46561L6.299 12.7126L10.537 12.7056L18 5.24261V17.9996C18 18.2648 17.8946 18.5192 17.7071 18.7067C17.5196 18.8943 17.2652 18.9996 17 18.9996H1C0.734784 18.9996 0.48043 18.8943 0.292893 18.7067C0.105357 18.5192 0 18.2648 0 17.9996V1.99961C0 1.73439 0.105357 1.48004 0.292893 1.2925C0.48043 1.10497 0.734784 0.999609 1 0.999609H13.757ZM17.485 0.0996094L18.9 1.51561L9.708 10.7076L8.296 10.7106L8.294 9.29361L17.485 0.0996094Z" fill="#459FF2"/>
</svg>
