<svg width="25" height="24" viewBox="0 0 25 24" fill="none" xmlns="http://www.w3.org/2000/svg">
  <path
    d="M14.2417 14.7438C13.7234 15.0755 13.1214 15.2509 12.5007 15.2509C11.88 15.2509 11.2779 15.0755 10.7596 14.7438L2.2227 9.28C2.17533 9.24969 2.12919 9.21809 2.08398 9.18559V18.1386C2.08398 19.1651 2.9517 19.9797 4.00183 19.9797H20.9994C22.0687 19.9797 22.9173 19.1467 22.9173 18.1386V9.18555C22.872 9.21813 22.8258 9.24981 22.7783 9.28016L14.2417 14.7438Z"
    fill="#848B96"/>
  <path
    d="M2.89982 8.30437L11.4367 13.7682C11.7599 13.975 12.1302 14.0784 12.5006 14.0784C12.871 14.0784 13.2414 13.975 13.5646 13.7682L22.1015 8.30437C22.6123 7.97762 22.9173 7.43074 22.9173 6.84051C22.9173 5.82563 22.0573 5 21.0001 5H4.00118C2.94405 5.00004 2.08398 5.82566 2.08398 6.84148C2.08398 7.43074 2.389 7.97762 2.89982 8.30437Z"
    fill="#848B96"/>
</svg>
