<svg width="25" height="24" viewBox="0 0 25 24" fill="none" xmlns="http://www.w3.org/2000/svg">
  <path
    d="M4.95117 21.9415C4.95117 22.2832 5.22821 22.5602 5.56992 22.5602H20.4199C20.7616 22.5602 21.0387 22.2832 21.0387 21.9415V20.0439H4.95117V21.9415Z"
    fill="#848B96"/>
  <path
    d="M12.9961 6.39062C9.58431 6.39062 6.80859 9.16634 6.80859 12.5781V18.8069H19.1836V12.5781C19.1836 9.16634 16.4079 6.39062 12.9961 6.39062Z"
    fill="#848B96"/>
  <path
    d="M12.9547 5.15293C13.2964 5.15293 13.5734 4.87589 13.5734 4.53418V2.05918C13.5734 1.71746 13.2964 1.44043 12.9547 1.44043C12.613 1.44043 12.3359 1.71746 12.3359 2.05918V4.53418C12.3359 4.87589 12.613 5.15293 12.9547 5.15293Z"
    fill="#848B96"/>
  <path
    d="M8.08225 6.02767C8.25364 6.32454 8.63236 6.42449 8.92746 6.25413C9.22343 6.08327 9.32483 5.70484 9.15393 5.40892L7.91642 3.26552C7.74552 2.96956 7.36714 2.8682 7.07121 3.03906C6.77524 3.20992 6.67385 3.58835 6.84474 3.88427L8.08225 6.02767Z"
    fill="#848B96"/>
  <path
    d="M5.99149 9.2214C6.16239 8.92547 6.061 8.54705 5.76503 8.37619L3.6216 7.13869C3.32563 6.96779 2.9472 7.06918 2.77638 7.36515C2.60549 7.66108 2.70688 8.03951 3.00285 8.21036L5.14628 9.44787C5.44093 9.61802 5.81989 9.51865 5.99149 9.2214Z"
    fill="#848B96"/>
  <path
    d="M17.0634 6.25416C17.358 6.42432 17.737 6.32491 17.9086 6.0277L19.1461 3.88431C19.317 3.58838 19.2156 3.20996 18.9196 3.0391C18.6237 2.86816 18.2452 2.96959 18.0744 3.26556L16.8369 5.40895C16.666 5.70488 16.7674 6.08331 17.0634 6.25416Z"
    fill="#848B96"/>
  <path
    d="M23.2161 7.36512C23.0452 7.06915 22.6669 6.96784 22.3709 7.13865L20.2275 8.37616C19.9315 8.54701 19.8301 8.92544 20.001 9.22137C20.1724 9.51825 20.5511 9.61819 20.8462 9.44783L22.9896 8.21033C23.2856 8.03947 23.387 7.66108 23.2161 7.36512Z"
    fill="#848B96"/>
</svg>
