<svg width="24" height="24" viewBox="0 0 24 24" fill="none" xmlns="http://www.w3.org/2000/svg">
  <path fill-rule="evenodd" clip-rule="evenodd"
        d="M11.5 3.75C11.0359 3.75 10.5908 3.93437 10.2626 4.26256C9.93437 4.59075 9.75 5.03587 9.75 5.5V12C9.75 12.4142 9.41421 12.75 9 12.75C8.58579 12.75 8.25 12.4142 8.25 12V5.5C8.25 4.63805 8.59241 3.8114 9.2019 3.2019C9.8114 2.59241 10.638 2.25 11.5 2.25C12.362 2.25 13.1886 2.59241 13.7981 3.2019C14.4076 3.8114 14.75 4.63805 14.75 5.5V6C14.75 6.41421 14.4142 6.75 14 6.75C13.5858 6.75 13.25 6.41421 13.25 6V5.5C13.25 5.03587 13.0656 4.59075 12.7374 4.26256C12.4092 3.93437 11.9641 3.75 11.5 3.75ZM11.25 9C11.25 8.58579 11.5858 8.25 12 8.25H18.5C19.362 8.25 20.1886 8.59241 20.7981 9.2019C21.4076 9.8114 21.75 10.638 21.75 11.5C21.75 12.362 21.4076 13.1886 20.7981 13.7981C20.1886 14.4076 19.362 14.75 18.5 14.75H18C17.5858 14.75 17.25 14.4142 17.25 14C17.25 13.5858 17.5858 13.25 18 13.25H18.5C18.9641 13.25 19.4092 13.0656 19.7374 12.7374C20.0656 12.4092 20.25 11.9641 20.25 11.5C20.25 11.0359 20.0656 10.5908 19.7374 10.2626C19.4092 9.93437 18.9641 9.75 18.5 9.75H12C11.5858 9.75 11.25 9.41421 11.25 9ZM5.5 10.75C5.03587 10.75 4.59075 10.9344 4.26256 11.2626C3.93437 11.5908 3.75 12.0359 3.75 12.5C3.75 12.9641 3.93437 13.4092 4.26256 13.7374C4.59075 14.0656 5.03587 14.25 5.5 14.25H12C12.4142 14.25 12.75 14.5858 12.75 15C12.75 15.4142 12.4142 15.75 12 15.75H5.5C4.63805 15.75 3.8114 15.4076 3.2019 14.7981C2.59241 14.1886 2.25 13.362 2.25 12.5C2.25 11.638 2.59241 10.8114 3.2019 10.2019C3.8114 9.59241 4.63805 9.25 5.5 9.25H6C6.41421 9.25 6.75 9.58579 6.75 10C6.75 10.4142 6.41421 10.75 6 10.75H5.5ZM15 11.25C15.4142 11.25 15.75 11.5858 15.75 12V18.5C15.75 19.362 15.4076 20.1886 14.7981 20.7981C14.1886 21.4076 13.362 21.75 12.5 21.75C11.638 21.75 10.8114 21.4076 10.2019 20.7981C9.59241 20.1886 9.25 19.362 9.25 18.5V18C9.25 17.5858 9.58579 17.25 10 17.25C10.4142 17.25 10.75 17.5858 10.75 18V18.5C10.75 18.9641 10.9344 19.4092 11.2626 19.7374C11.5908 20.0656 12.0359 20.25 12.5 20.25C12.9641 20.25 13.4092 20.0656 13.7374 19.7374C14.0656 19.4092 14.25 18.9641 14.25 18.5V12C14.25 11.5858 14.5858 11.25 15 11.25Z"
        fill="#8A8A98"/>
</svg>
