<svg width="24" height="24" viewBox="0 0 24 24" fill="none" xmlns="http://www.w3.org/2000/svg">
<path d="M12.0008 11.1199C9.97065 11.1199 7.60081 10.6588 7.60081 9.35994C7.60081 8.06106 9.97065 7.59994 12.0008 7.59994C14.031 7.59994 16.4008 8.06106 16.4008 9.35994C16.4008 10.6588 14.031 11.1199 12.0008 11.1199Z" fill="white" fill-opacity="0.6"/>
<path d="M13.4361 22.5599H10.5647C9.76649 22.5599 9.06073 21.9941 8.88649 21.2153L8.54945 19.7219C8.01617 19.4861 7.50401 19.1895 7.02001 18.8358L5.55921 19.2951C4.77689 19.5354 3.93121 19.2045 3.53961 18.5084L2.10961 16.0444C1.71097 15.336 1.84473 14.4657 2.42905 13.9175L3.56425 12.8782C3.53433 12.5816 3.52025 12.2877 3.52025 11.9999C3.52025 11.7122 3.53521 11.4183 3.56425 11.1217L2.43697 10.0903C1.84473 9.53418 1.71185 8.66386 2.10433 7.96602L3.54577 5.4809C3.93297 4.7945 4.78041 4.46362 5.55569 4.70386L7.02001 5.1641C7.50401 4.81034 8.01617 4.51378 8.54945 4.27794L8.88737 2.78282C9.06073 2.00578 9.76649 1.43994 10.5655 1.43994H13.437C14.2351 1.43994 14.9409 2.00578 15.1151 2.78458L15.4522 4.27794C15.9855 4.51378 16.4976 4.80946 16.9816 5.1641L18.4424 4.70474C19.2239 4.46274 20.0695 4.79538 20.462 5.49146L21.892 7.95634C22.2907 8.66474 22.1569 9.53506 21.5726 10.0833L20.4374 11.1226C20.4673 11.4191 20.4814 11.7131 20.4814 12.0008C20.4814 12.2886 20.4664 12.5825 20.4374 12.8791L21.5638 13.9104C21.5664 13.9122 21.5691 13.9148 21.5717 13.9175C22.156 14.4657 22.2889 15.336 21.8964 16.0347L20.455 18.5199C20.0678 19.2063 19.2221 19.538 18.4451 19.2969L16.9799 18.8367C16.4959 19.1904 15.9846 19.487 15.4504 19.7228L15.1125 21.2179C14.9409 21.9941 14.2351 22.5599 13.4361 22.5599ZM7.19513 16.9781C7.39665 16.9781 7.59465 17.0467 7.75393 17.1779C8.32681 17.6487 8.95161 18.0103 9.61073 18.2532C9.89057 18.3562 10.0991 18.5947 10.1651 18.8851L10.6043 20.829L13.4361 20.7999L13.8365 18.8851C13.9025 18.5938 14.1111 18.3562 14.3909 18.2532C15.0509 18.0103 15.6748 17.6487 16.2477 17.1779C16.4774 16.9895 16.788 16.9315 17.0705 17.0186L18.9704 17.6161L20.3538 15.1873L18.9141 13.8691C18.6976 13.6711 18.5947 13.3789 18.6387 13.0903C18.6941 12.7207 18.7223 12.3537 18.7223 11.9999C18.7223 11.6462 18.6941 11.2792 18.6387 10.9096C18.5955 10.6201 18.6985 10.3279 18.9141 10.1308L20.3758 8.79234L18.9335 6.36442L17.0705 6.9813C16.7863 7.0693 16.4765 7.01034 16.2477 6.82202C15.6748 6.35122 15.05 5.98954 14.3909 5.74666C14.1111 5.6437 13.9025 5.40522 13.8365 5.11482L13.3974 3.1709L10.5655 3.19994L10.1651 5.11482C10.0991 5.4061 9.89057 5.6437 9.61073 5.74666C8.95073 5.98954 8.32681 6.35122 7.75393 6.82202C7.52425 7.01122 7.21537 7.07018 6.93113 6.9813L5.03121 6.38378L3.63289 8.83898L5.08753 10.1299C5.30401 10.3279 5.40697 10.6201 5.36297 10.9087C5.30753 11.2792 5.27937 11.6462 5.27937 11.9999C5.27937 12.3537 5.30753 12.7207 5.36297 13.0903C5.40609 13.3798 5.30313 13.6719 5.08753 13.8691L3.62585 15.2075L5.06817 17.6355L6.93113 17.0186C7.01737 16.9913 7.10625 16.9781 7.19513 16.9781Z" fill="white" fill-opacity="0.6"/>
<path d="M12.0008 12.4399C10.0833 12.4399 8.58377 12.1073 7.60081 11.5045V11.9999C7.60081 13.2988 9.97065 13.7599 12.0008 13.7599C14.031 13.7599 16.4008 13.2988 16.4008 11.9999V11.5045C15.417 12.1073 13.9183 12.4399 12.0008 12.4399Z" fill="white" fill-opacity="0.6"/>
<path d="M12.0008 15.0799C10.0833 15.0799 8.58377 14.7473 7.60081 14.1445V14.6399C7.60081 15.9388 9.97065 16.3999 12.0008 16.3999C14.031 16.3999 16.4008 15.9388 16.4008 14.6399V14.1445C15.417 14.7473 13.9183 15.0799 12.0008 15.0799Z" fill="white" fill-opacity="0.6"/>
</svg>
