<svg width="25" height="24" viewBox="0 0 25 24" fill="none" xmlns="http://www.w3.org/2000/svg">
<path d="M19.5261 19.9974L17.0165 19.9974C16.3354 19.9997 15.7838 20.4964 15.7838 21.1086C15.7838 21.7222 16.3354 22.2197 17.0165 22.2197L22.2638 22.2197C22.9457 22.2197 23.4973 21.7222 23.498 21.1086C23.4973 21.0944 23.4926 21.078 23.4926 21.0632C23.4926 21.043 23.498 21.0207 23.498 20.9991L23.498 16.0295C23.498 15.386 22.9814 14.8632 22.3422 14.8632C21.7045 14.8647 21.1847 15.386 21.1847 16.0295L21.1847 18.4514L16.5162 13.9681C16.0647 13.5339 15.3331 13.5339 14.8808 13.9681C14.4309 14.4015 14.4309 15.1045 14.8808 15.538L19.5261 19.9974Z" fill="#848B96"/>
<path d="M1.49863 21.1066C1.50018 21.7203 2.05098 22.2178 2.73365 22.2178L7.9794 22.2178C8.65974 22.2178 9.21519 21.7203 9.21519 21.1066C9.21519 20.4945 8.65974 19.9977 7.97939 19.9955L5.46979 19.9955L10.1174 15.5375C10.565 15.1041 10.565 14.401 10.1174 13.9676C9.66436 13.5334 8.93281 13.5334 8.48209 13.9676L3.81274 18.4509L3.81274 16.029C3.81274 15.3856 3.29298 14.8643 2.65608 14.8628C2.01529 14.8628 1.49941 15.3856 1.49941 16.029L1.49941 20.9986C1.49941 21.0202 1.50561 21.0426 1.50561 21.0627C1.50484 21.0761 1.50018 21.0925 1.49863 21.1066Z" fill="#848B96"/>
<path d="M23.5 2.89111C23.4992 2.27745 22.9477 1.78071 22.2658 1.78071L17.0185 1.7807C16.3373 1.7807 15.7858 2.27745 15.7858 2.89111C15.7858 3.50328 16.3373 3.99853 17.0185 4.00002L19.5281 4.00002L14.882 8.45876C14.4321 8.89369 14.4321 9.59672 14.882 10.0294C15.3343 10.4629 16.0658 10.4629 16.5173 10.0294L21.1859 5.5461L21.1859 7.96798C21.1859 8.61367 21.7057 9.13573 22.3433 9.13573C22.9826 9.13573 23.4992 8.61367 23.4992 7.96798L23.4992 2.99984C23.4992 2.9775 23.4938 2.95739 23.4938 2.93505C23.4946 2.92015 23.4992 2.90824 23.5 2.89111Z" fill="#848B96"/>
<path d="M2.65803 9.13498C3.29493 9.13498 3.8147 8.61292 3.8147 7.96724L3.8147 5.5461L8.48405 10.0294C8.93477 10.4629 9.66632 10.4629 10.1194 10.0294C10.567 9.59672 10.567 8.89369 10.1194 8.45876L5.47174 4.00002L7.98212 4.00002C8.6617 3.99779 9.21715 3.50254 9.21715 2.89036C9.21715 2.2767 8.6617 1.77996 7.98135 1.77996L2.73638 1.77996C2.05371 1.77996 1.50291 2.2767 1.50136 2.89036C1.50291 2.90749 1.50757 2.91941 1.50757 2.93505C1.50757 2.95739 1.50136 2.9775 1.50136 2.99984L1.50136 7.96724C1.50136 8.61292 2.01724 9.13498 2.65803 9.13498Z" fill="#848B96"/>
</svg>
