<svg width="24" height="24" viewBox="0 0 24 24" fill="none" xmlns="http://www.w3.org/2000/svg">
  <path
    d="M19.7806 22.61L18.1506 20.98C18.1006 20.98 18.0506 21 18.0006 21H14.2006C14.2006 18.29 12.0406 18 11.5006 18C10.9606 18 8.80063 18.29 8.80063 21H5.00063C3.90063 21 3.00063 20.1 3.00063 19V15.2C5.71063 15.2 6.00063 13.04 6.00063 12.5C6.00063 11.96 5.70062 9.8 3.01063 9.8V6C3.01063 5.95 3.03062 5.91 3.03062 5.86L1.39062 4.22L2.80062 2.81L21.1806 21.19L19.7806 22.61ZM20.0006 17.17V15C21.3806 15 22.5006 13.88 22.5006 12.5C22.5006 11.12 21.3806 10 20.0006 10V6C20.0006 4.9 19.1006 4 18.0006 4H14.0006C14.0006 2.62 12.8806 1.5 11.5006 1.5C10.1206 1.5 9.00063 2.62 9.00063 4H6.83063L20.0006 17.17Z"
    fill="#848B96"/>
</svg>
