<svg width="24" height="24" viewBox="0 0 24 24" fill="none" xmlns="http://www.w3.org/2000/svg">
  <path
    d="M9.21416 19.442C9.39295 19.0844 9.40788 18.6668 9.25531 18.2964C9.09655 17.9116 8.79103 17.6261 8.41051 17.4993L7.99394 17.3606V13.9224L8.40359 13.7862C8.78848 13.6577 9.09764 13.3689 9.2524 12.9935C9.40679 12.6192 9.3915 12.1968 9.21016 11.8345L9.01862 11.4499L10.907 9.56078V9.45117H1.43945V10.1794H2.25294C2.80279 10.1794 3.26888 10.5909 3.33698 11.1364L3.39961 11.636H4.13225C4.20435 11.636 4.27427 11.6149 4.33399 11.5752L5.05971 11.0912C5.23923 10.9711 5.44861 10.9077 5.66527 10.9077H6.51153C6.63352 10.9077 6.74676 10.8469 6.81449 10.7457L7.32647 9.97772L7.9324 10.3815L7.42042 11.1495C7.21759 11.4539 6.87785 11.636 6.51189 11.636H5.66564C5.59354 11.636 5.52362 11.6571 5.46391 11.6968L4.73818 12.1807C4.55829 12.3009 4.34892 12.3643 4.13225 12.3643H3.49064L3.5682 12.9851C3.58495 13.1166 3.67125 13.2291 3.7947 13.2783L4.92607 13.7309C5.20245 13.8416 5.42421 14.0633 5.53491 14.3397L6.14739 15.8706L5.47119 16.1407L4.85871 14.6099C4.82193 14.5178 4.74801 14.4439 4.65588 14.4071L3.52414 13.9545C3.15491 13.8066 2.89491 13.4702 2.84575 13.0758L2.61453 11.2267C2.59159 11.0446 2.4361 10.9077 2.25294 10.9077H1.43945V21.4677C1.43945 22.07 1.92958 22.5601 2.53187 22.5601H9.81462C10.335 22.5601 10.7741 22.1894 10.8794 21.6942L9.01826 19.8331L9.21416 19.442Z"
    fill="#848B96"/>
  <path
    d="M8.45504 6.46612C8.1579 6.13257 7.99477 5.70289 7.99477 5.25645V5.08203H4.35339V5.25645C4.35339 5.70289 4.19026 6.13257 3.89312 6.46612L1.88672 8.7234H10.4611L8.45504 6.46612Z"
    fill="#848B96"/>
  <path d="M4.35156 1.44043H7.99293V2.89698H4.35156V1.44043Z" fill="#848B96"/>
  <path d="M2.89648 3.62598H9.45097V4.35425H2.89648V3.62598Z" fill="#848B96"/>
  <path
    d="M21.3564 13.27C21.1343 12.7311 21.1438 12.1259 21.3801 11.5953L19.6883 9.90356C19.157 10.1395 18.5526 10.149 18.0133 9.92686C17.4711 9.70328 17.0472 9.26741 16.8378 8.72266H14.4454C14.2364 9.26777 13.8129 9.70328 13.2707 9.9265C12.7315 10.1486 12.1252 10.1392 11.595 9.90319L9.90319 11.595C10.1395 12.1255 10.1493 12.7311 9.9265 13.2704C9.70328 13.8126 9.26741 14.2361 8.72266 14.4451V16.8371C9.26595 17.0432 9.70109 17.4652 9.92358 18.0049C10.1504 18.5555 10.1406 19.1596 9.90319 19.6876L11.5942 21.3786C12.1164 21.1394 12.7143 21.127 13.2474 21.3466C13.7962 21.5727 14.2266 22.0111 14.4436 22.5599H16.8375C17.0461 22.0151 17.47 21.5796 18.0122 21.3561C18.5507 21.1343 19.1563 21.143 19.6876 21.3794L21.3805 19.6865C21.147 19.1476 21.1405 18.5354 21.3655 17.9889C21.5858 17.4536 22.0192 17.037 22.5599 16.8364V14.4451C22.0155 14.2361 21.58 13.8122 21.3564 13.27ZM15.642 20.7396C12.8265 20.7396 10.5441 18.4572 10.5441 15.6416C10.5441 12.8261 12.8265 10.5437 15.642 10.5437C18.4575 10.5437 20.7399 12.8261 20.7399 15.6416C20.7399 18.4572 18.4575 20.7396 15.642 20.7396Z"
    fill="#848B96"/>
  <path
    d="M15.6404 19.2837C16.0426 19.2837 16.3687 18.9576 16.3687 18.5554C16.3687 18.1532 16.0426 17.8271 15.6404 17.8271C15.2382 17.8271 14.9121 18.1532 14.9121 18.5554C14.9121 18.9576 15.2382 19.2837 15.6404 19.2837Z"
    fill="#848B96"/>
  <path
    d="M15.6404 12C15.238 12 14.9121 12.3259 14.9121 12.7283V15.6414C14.9121 16.0438 15.238 16.3697 15.6404 16.3697C16.0428 16.3697 16.3687 16.0438 16.3687 15.6414V12.7283C16.3687 12.3259 16.0428 12 15.6404 12Z"
    fill="#848B96"/>
  <path
    d="M14.9125 5.08181H16.9582L17.6242 6.41383C17.7011 6.56749 17.9501 6.56749 18.0266 6.41383L18.693 5.08181H20.7387C21.7426 5.08181 22.5594 4.26505 22.5594 3.26112C22.5594 2.25719 21.7426 1.44043 20.7387 1.44043H14.9125C13.9086 1.44043 13.0918 2.25719 13.0918 3.26112C13.0918 4.26505 13.9086 5.08181 14.9125 5.08181ZM20.7387 2.53284C21.1411 2.53284 21.467 2.85875 21.467 3.26112C21.467 3.66349 21.1411 3.9894 20.7387 3.9894C20.3363 3.9894 20.0104 3.66349 20.0104 3.26112C20.0104 2.85875 20.3363 2.53284 20.7387 2.53284ZM17.8256 2.53284C18.228 2.53284 18.5539 2.85875 18.5539 3.26112C18.5539 3.66349 18.228 3.9894 17.8256 3.9894C17.4232 3.9894 17.0973 3.66349 17.0973 3.26112C17.0973 2.85875 17.4232 2.53284 17.8256 2.53284ZM14.9125 2.53284C15.3149 2.53284 15.6408 2.85875 15.6408 3.26112C15.6408 3.66349 15.3149 3.9894 14.9125 3.9894C14.5101 3.9894 14.1842 3.66349 14.1842 3.26112C14.1842 2.85875 14.5101 2.53284 14.9125 2.53284Z"
    fill="#848B96"/>
</svg>
