<svg width="24" height="24" viewBox="0 0 24 24" fill="none" xmlns="http://www.w3.org/2000/svg">
  <path
    d="M8.1922 19.2133C7.73589 19.669 7.13001 19.9204 6.4855 19.9204C5.15453 19.9204 4.07173 18.8376 4.07173 17.5066C4.07173 16.8621 4.3231 16.2562 4.7788 15.7999L8.31277 12.266L6.44621 10.3994L2.91224 13.9334C1.95767 14.8879 1.43945 16.157 1.43945 17.5066C1.43945 20.2936 3.69854 22.5604 6.4855 22.5604C7.83515 22.5604 9.10422 22.0344 10.0588 21.0799L13.5889 17.5498L11.7224 15.6832C11.7223 15.6832 8.1922 19.2133 8.1922 19.2133Z"
    fill="#848B96"/>
  <path
    d="M15.6862 11.7194L17.5528 13.586L21.0713 10.0675C22.0258 9.11294 22.5595 7.84383 22.5595 6.49418C22.5595 3.70725 20.2849 1.44043 17.498 1.44043C16.1484 1.44043 14.8793 1.96639 13.9247 2.92092L10.4023 6.4433L12.2689 8.30985L15.7913 4.78747C16.2476 4.33177 16.8535 4.08041 17.498 4.08041C18.8289 4.08041 19.9117 5.16321 19.9117 6.49418C19.9117 7.13873 19.6604 7.74457 19.2047 8.20088C19.2047 8.20092 15.6862 11.7194 15.6862 11.7194Z"
    fill="#848B96"/>
  <path d="M16.3418 18.209L18.2081 16.3427L20.8496 18.9842L18.9833 20.8505L16.3418 18.209Z" fill="#848B96"/>
  <path d="M18.5996 13.3203H22.5596V15.9603H18.5996V13.3203Z" fill="#848B96"/>
  <path d="M2.48438 4.34961L4.35067 2.48332L7.65243 5.78508L5.78614 7.65138L2.48438 4.34961Z" fill="#848B96"/>
  <path d="M1.43945 8.04004H5.39557V10.68H1.43945V8.04004Z" fill="#848B96"/>
</svg>
