<svg width="24" height="24" viewBox="0 0 24 24" fill="none" xmlns="http://www.w3.org/2000/svg">
<path fill-rule="evenodd" clip-rule="evenodd" d="M8.22601 17.0264L5.69425 17.6206C5.37769 17.7478 5.39217 18.2 5.7165 18.3089L8.12673 18.8169L7.29859 20.6385C7.1071 20.9424 7.41836 21.3119 7.75117 21.1738L10.6051 19.7369L13.3998 21.0727C13.7075 21.2218 14.0346 20.9088 13.8986 20.5958L13.056 18.8833L15.6171 18.2781C15.9266 18.2004 15.9983 17.7959 15.7347 17.6174L13.7167 17.3344L10.9584 18.3993C10.0974 18.7346 9.1075 18.4145 8.61217 17.6337L8.22601 17.0264Z" fill="#848B96"/>
<path fill-rule="evenodd" clip-rule="evenodd" d="M7.05576 4.45829C8.01815 5.41291 8.0231 6.96391 7.07024 7.9263C6.1188 8.88481 4.56427 8.89046 3.60541 7.9369C2.64302 6.98405 2.63595 5.43305 3.58916 4.47454C4.54201 3.51038 6.09336 3.50685 7.05576 4.45829Z" fill="#848B96"/>
<path d="M13.2583 3.29119C12.7979 3.29861 12.3983 3.60386 12.268 4.04584L11.0646 7.2948L8.00114 8.45222C7.98454 8.45964 7.96828 8.46671 7.95168 8.47448L5.71598 9.44924C5.60893 9.49729 5.50966 9.56371 5.42345 9.64285L2.33948 12.4943C2.12432 12.6933 2.00101 12.9731 2.00101 13.2674V15.9352C1.9459 17.389 4.15545 17.389 4.10033 15.9352V13.7238L5.90712 12.0552L9.21897 17.2452C9.53553 17.7384 10.1559 17.9408 10.7004 17.7275L16.6729 15.4218L20.1286 17.0131C21.5891 17.8744 22.8218 15.6186 21.3076 14.8551L17.3499 12.9876C17.0312 12.8144 16.656 12.7886 16.3179 12.918L14.5439 13.6041L15.6975 11.2104H19.8742C21.6004 11.3002 21.6004 8.66173 19.8742 8.75217H14.9234C14.4524 8.75429 14.0239 9.0228 13.8175 9.44606L12.0638 13.0833L10.0492 9.92584L12.2902 9.07545C12.5923 8.96168 12.8258 8.71366 12.9216 8.40453L14.2758 4.66376C14.498 3.97765 13.9794 3.27847 13.2583 3.29119Z" fill="#848B96"/>
</svg>
