<svg width="24" height="24" viewBox="0 0 24 24" fill="none" xmlns="http://www.w3.org/2000/svg">
<path d="M12.6595 1.44043C11.202 1.44043 10.0195 2.62131 10.0195 4.08043C10.0195 5.538 11.202 6.72043 12.6595 6.72043C14.1171 6.72043 15.2995 5.538 15.2995 4.08043C15.2995 2.62131 14.1171 1.44043 12.6595 1.44043Z" fill="#848B96"/>
<path d="M20.1387 9.36035C19.1678 9.36035 18.3789 10.1474 18.3789 11.1204C18.3789 12.0914 19.1678 12.8803 20.1387 12.8803C21.11 12.8803 21.8988 12.0914 21.8988 11.1204C21.8988 10.1474 21.11 9.36035 20.1387 9.36035Z" fill="#848B96"/>
<path d="M14.8591 8.48047H10.4593L8.69922 19.0405H10.2391V22.5604H11.9992V19.0405H13.3192V22.5604H15.0793V19.0405H16.6192L14.8591 8.48047Z" fill="#848B96"/>
<path d="M4.96032 1.44043C3.50275 1.44043 2.32031 2.62131 2.32031 4.08043C2.32031 5.538 3.50275 6.72043 4.96032 6.72043C6.41789 6.72043 7.60032 5.538 7.60032 4.08043C7.60032 2.62131 6.41784 1.44043 4.96032 1.44043Z" fill="#848B96"/>
<path d="M1.43945 8.48047L2.53954 17.2804V22.5604H4.29937V19.0405H5.61937V22.5604H7.37945V17.2804L8.47954 8.48047H1.43945Z" fill="#848B96"/>
<path d="M17.7188 13.7607V22.5607H19.4786V19.9207H20.7986V22.5607H22.5587V13.7607H17.7188Z" fill="#848B96"/>
</svg>
