<svg width="25" height="24" viewBox="0 0 25 24" fill="none" xmlns="http://www.w3.org/2000/svg">
  <path fill-rule="evenodd" clip-rule="evenodd"
        d="M20.7672 14.3571C22.2143 15.6732 22.4492 18.6448 22.4881 21.4215C22.4993 22.2913 21.7262 23 20.769 23H5.21364C4.25731 23 3.48498 22.2913 3.49621 21.4215C3.53509 18.6448 3.76921 15.674 5.2171 14.3571C6.35917 13.3184 8.25542 12.2805 9.41045 11.6951C9.89941 11.4469 9.99185 10.8521 9.60828 10.4796C8.40833 9.31521 7.80879 8.33307 7.80879 5.71429C7.80879 3.35714 9.53658 1 12.9913 1C16.4477 1 18.1755 3.35714 18.1755 5.71429C18.1755 8.33307 17.576 9.31521 16.376 10.4796C15.9925 10.8521 16.0849 11.4469 16.5739 11.6951C17.7289 12.2805 19.6252 13.3184 20.7672 14.3571Z"
        fill="#848B96"/>
</svg>
