<svg width="28" height="26" viewBox="0 0 28 26" fill="none" xmlns="http://www.w3.org/2000/svg">
  <path
    d="M26.4994 3.83409H15.666V1.33409C15.666 1.08576 15.556 0.850757 15.3644 0.692423C15.1744 0.53409 14.9194 0.465757 14.6794 0.515757L1.34602 3.01576C0.951016 3.08909 0.666016 3.43242 0.666016 3.83409V22.1674C0.666016 22.5674 0.951016 22.9124 1.34602 22.9858L14.6794 25.4858C14.7294 25.4958 14.781 25.5008 14.8327 25.5008C15.026 25.5008 15.2144 25.4341 15.3644 25.3091C15.556 25.1508 15.666 24.9141 15.666 24.6674V22.1674H26.4994C26.9594 22.1674 27.3327 21.7941 27.3327 21.3341V4.66742C27.3327 4.20742 26.9594 3.83409 26.4994 3.83409ZM12.126 15.7858C12.4293 16.1308 12.3944 16.6574 12.0477 16.9608C11.8893 17.0991 11.6944 17.1674 11.4994 17.1674C11.2677 17.1674 11.0377 17.0708 10.8727 16.8824L8.44935 14.1141L6.32435 16.8474C6.15935 17.0574 5.91268 17.1674 5.66602 17.1674C5.48768 17.1674 5.30768 17.1108 5.15435 16.9924C4.79102 16.7091 4.72602 16.1858 5.00768 15.8224L7.33102 12.8358L5.03935 10.2158C4.73602 9.87076 4.77102 9.34409 5.11768 9.04076C5.46268 8.73742 5.98768 8.77076 6.29435 9.11909L8.37435 11.4958L10.8427 8.32242C11.126 7.96076 11.6494 7.89409 12.0127 8.17742C12.376 8.45909 12.441 8.98242 12.1577 9.34742L9.49102 12.7741L12.126 15.7858ZM25.666 20.5008H15.666V18.8341H18.166C18.626 18.8341 18.9994 18.4608 18.9994 18.0008C18.9994 17.5408 18.626 17.1674 18.166 17.1674H15.666V15.5008H18.166C18.626 15.5008 18.9994 15.1274 18.9994 14.6674C18.9994 14.2074 18.626 13.8341 18.166 13.8341H15.666V12.1674H18.166C18.626 12.1674 18.9994 11.7941 18.9994 11.3341C18.9994 10.8741 18.626 10.5008 18.166 10.5008H15.666V8.83409H18.166C18.626 8.83409 18.9994 8.46076 18.9994 8.00076C18.9994 7.54076 18.626 7.16742 18.166 7.16742H15.666V5.50076H25.666V20.5008Z"
    fill="#1890FF"/>
</svg>
