<svg width="24" height="24" viewBox="0 0 24 24" fill="none" xmlns="http://www.w3.org/2000/svg">
  <path
    d="M12.9217 7.40476V6.13274C12.9217 5.92757 12.7553 5.76122 12.5502 5.76122H11.4356V4.27514C11.4356 3.86462 11.7683 3.5321 12.1786 3.5321C12.589 3.5321 12.9217 3.86462 12.9217 4.27514V4.63541C12.921 5.17473 13.2101 5.67269 13.6789 5.93936C14.1476 6.20585 14.7236 6.19986 15.1865 5.92358C15.6497 5.6473 15.9285 5.14335 15.9165 4.60421L15.8938 3.5243C15.884 3.32149 15.7175 3.16185 15.5145 3.16058C15.3093 3.16475 15.1464 3.33455 15.1508 3.5399L15.1735 4.61945C15.1816 4.89247 15.0418 5.14861 14.8076 5.28902C14.5736 5.42961 14.2817 5.43269 14.0446 5.29718C13.8077 5.16167 13.6624 4.90861 13.6647 4.63541V4.27514C13.6647 3.45428 12.9993 2.78906 12.1786 2.78906C11.358 2.78906 10.6926 3.45428 10.6926 4.27514V5.76122H9.578C9.37283 5.76122 9.20648 5.92757 9.20648 6.13274V7.59578C5.63605 8.71705 3.45609 12.3181 4.11804 16.0016C4.77999 19.685 8.07741 22.3018 11.8149 22.1097C15.5524 21.9176 18.5643 18.9765 18.8451 15.2446C19.1259 11.5127 16.5883 8.15415 12.9217 7.40476ZM9.21573 10.6191C8.36385 11.0093 7.65528 11.656 7.18943 12.4689C7.12339 12.585 7.00022 12.6566 6.86671 12.6566C6.80212 12.6566 6.73881 12.6398 6.68312 12.6075C6.50498 12.5059 6.44294 12.279 6.54453 12.1008C7.08748 11.1517 7.91469 10.3971 8.90934 9.94299C9.09492 9.86354 9.31006 9.9468 9.39369 10.1307C9.47732 10.3145 9.39877 10.5315 9.21682 10.6191H9.21573ZM12.3443 13.8975C12.1607 13.9889 11.9376 13.9143 11.8461 13.7306L11.7228 13.4835C11.6344 13.3044 11.4521 13.1912 11.2524 13.1916H11.0216C10.7637 13.1911 10.5433 13.3781 10.5019 13.633C10.4605 13.8878 10.6102 14.1349 10.8553 14.2162L11.5076 14.4342C12.0391 14.61 12.392 15.1142 12.3753 15.6736C12.3586 16.2331 11.9766 16.7152 11.4356 16.8593V17.6498H10.6926V16.8934C10.2811 16.835 9.92503 16.5776 9.74072 16.2053L9.617 15.9579C9.55659 15.8389 9.56458 15.6966 9.63786 15.5853C9.71133 15.4739 9.83886 15.4104 9.97201 15.4189C10.1052 15.4274 10.2234 15.5067 10.282 15.6264L10.4054 15.8735C10.4941 16.0518 10.6764 16.1643 10.8758 16.1638H11.1063C11.3645 16.1641 11.5849 15.9771 11.6263 15.7222C11.6676 15.4675 11.518 15.2203 11.2729 15.139L10.6205 14.921C10.089 14.7452 9.73619 14.2412 9.75288 13.6816C9.76938 13.1221 10.1516 12.64 10.6926 12.4961V11.7055H11.4356V12.4618C11.8468 12.5202 12.2031 12.7776 12.3874 13.1499L12.5112 13.3973C12.5556 13.4857 12.563 13.5882 12.5318 13.6821C12.5005 13.7759 12.433 13.8536 12.3443 13.8975ZM15.5836 17.2564C15.0403 18.2046 14.2133 18.9587 13.2188 19.4122C13.1707 19.4345 13.1185 19.4458 13.0655 19.4458C12.8907 19.4458 12.7394 19.3239 12.7022 19.1532C12.6652 18.9823 12.7522 18.8087 12.9113 18.7361C13.7632 18.3461 14.4716 17.6992 14.9375 16.8863C15.001 16.7664 15.1245 16.6906 15.2602 16.6884C15.3957 16.6864 15.5218 16.7582 15.5889 16.8762C15.656 16.9939 15.6535 17.139 15.5825 17.2546L15.5836 17.2564Z"
    fill="#848B96"/>
  <path
    d="M15.3367 2.48747C15.3572 2.48747 15.3777 2.48584 15.398 2.48221C15.6004 2.44847 15.7372 2.25709 15.7033 2.05464L15.5816 1.32158C15.5633 1.18733 15.4736 1.07377 15.3472 1.02498C15.2209 0.976178 15.0782 0.999942 14.9744 1.08702C14.8708 1.17409 14.8226 1.31051 14.8489 1.44348L14.9708 2.1769C15.0005 2.35577 15.1553 2.48711 15.3367 2.48747Z"
    fill="#848B96"/>
  <path
    d="M14.1543 3.01902C14.3212 3.13856 14.5534 3.09992 14.6728 2.93303C14.7923 2.76614 14.7537 2.53412 14.5868 2.41457L13.9824 1.98246C13.8155 1.8631 13.5833 1.90156 13.4639 2.06863C13.3446 2.23552 13.383 2.46754 13.5499 2.58691L14.1543 3.01902Z"
    fill="#848B96"/>
  <path
    d="M16.4874 4.23045C16.3681 4.39716 16.4063 4.62918 16.5732 4.74873L17.1777 5.1812C17.3446 5.30056 17.5768 5.2621 17.6961 5.09503C17.8155 4.92814 17.777 4.69612 17.6101 4.57657L17.0057 4.14465C16.8388 4.02528 16.6068 4.06356 16.4874 4.23045Z"
    fill="#848B96"/>
  <path
    d="M16.6808 3.39847C16.7105 3.57789 16.8655 3.70941 17.0472 3.70959C17.0676 3.70959 17.0881 3.70777 17.1082 3.70433L17.8411 3.58278C17.9739 3.56301 18.0854 3.47321 18.1333 3.34804C18.1812 3.22269 18.158 3.08138 18.0724 2.97815C17.9866 2.87493 17.852 2.82577 17.7201 2.84972L16.9866 2.97126C16.7842 3.00482 16.6474 3.19621 16.6808 3.39847Z"
    fill="#848B96"/>
  <path
    d="M16.4433 2.74414C16.5634 2.74432 16.6763 2.68645 16.7461 2.58886L17.1786 1.98441C17.2979 1.81752 17.2595 1.58532 17.0926 1.46595C16.9257 1.34641 16.6935 1.38504 16.5741 1.55194L16.1417 2.15747C16.0608 2.27067 16.0497 2.4196 16.1132 2.54332C16.1769 2.66722 16.3042 2.74505 16.4433 2.74523V2.74414Z"
    fill="#848B96"/>
</svg>
