<svg width="24" height="24" viewBox="0 0 24 24" fill="none" xmlns="http://www.w3.org/2000/svg">
  <path
    d="M17.8093 4.47C17.7293 4.47 17.6493 4.45 17.5793 4.41C15.6593 3.42 13.9993 3 12.0093 3C10.0293 3 8.14925 3.47 6.43925 4.41C6.19925 4.54 5.89925 4.45 5.75925 4.21C5.62925 3.97 5.71925 3.66 5.95925 3.53C7.81925 2.52 9.85925 2 12.0093 2C14.1393 2 15.9993 2.47 18.0393 3.52C18.2893 3.65 18.3793 3.95 18.2493 4.19C18.1593 4.37 17.9893 4.47 17.8093 4.47ZM3.49925 9.72C3.39925 9.72 3.29925 9.69 3.20925 9.63C2.97925 9.47 2.92925 9.16 3.08925 8.93C4.07925 7.53 5.33925 6.43 6.83925 5.66C9.97925 4.04 13.9993 4.03 17.1493 5.65C18.6493 6.42 19.9093 7.51 20.8993 8.9C21.0593 9.12 21.0093 9.44 20.7793 9.6C20.5493 9.76 20.2393 9.71 20.0793 9.48C19.1793 8.22 18.0393 7.23 16.6893 6.54C13.8193 5.07 10.1493 5.07 7.28925 6.55C5.92925 7.25 4.78925 8.25 3.88925 9.51C3.80925 9.65 3.65925 9.72 3.49925 9.72ZM9.74925 21.79C9.61925 21.79 9.48925 21.74 9.39925 21.64C8.52925 20.77 8.05925 20.21 7.38925 19C6.69925 17.77 6.33925 16.27 6.33925 14.66C6.33925 11.69 8.87925 9.27 11.9993 9.27C15.1193 9.27 17.6593 11.69 17.6593 14.66C17.6593 14.94 17.4393 15.16 17.1593 15.16C16.8793 15.16 16.6593 14.94 16.6593 14.66C16.6593 12.24 14.5693 10.27 11.9993 10.27C9.42925 10.27 7.33925 12.24 7.33925 14.66C7.33925 16.1 7.65925 17.43 8.26925 18.51C8.90925 19.66 9.34925 20.15 10.1193 20.93C10.3093 21.13 10.3093 21.44 10.1193 21.64C10.0093 21.74 9.87925 21.79 9.74925 21.79ZM16.9193 19.94C15.7293 19.94 14.6793 19.64 13.8193 19.05C12.3293 18.04 11.4393 16.4 11.4393 14.66C11.4393 14.38 11.6593 14.16 11.9393 14.16C12.2193 14.16 12.4393 14.38 12.4393 14.66C12.4393 16.07 13.1593 17.4 14.3793 18.22C15.0893 18.7 15.9193 18.93 16.9193 18.93C17.1593 18.93 17.5593 18.9 17.9593 18.83C18.2293 18.78 18.4893 18.96 18.5393 19.24C18.5893 19.51 18.4093 19.77 18.1293 19.82C17.5593 19.93 17.0593 19.94 16.9193 19.94ZM14.9093 22C14.8693 22 14.8193 21.99 14.7793 21.98C13.1893 21.54 12.1493 20.95 11.0593 19.88C9.65925 18.49 8.88925 16.64 8.88925 14.66C8.88925 13.04 10.2693 11.72 11.9693 11.72C13.6693 11.72 15.0493 13.04 15.0493 14.66C15.0493 15.73 15.9793 16.6 17.1293 16.6C18.2793 16.6 19.2093 15.73 19.2093 14.66C19.2093 10.89 15.9593 7.83 11.9593 7.83C9.11925 7.83 6.51925 9.41 5.34925 11.86C4.95925 12.67 4.75925 13.62 4.75925 14.66C4.75925 15.44 4.82925 16.67 5.42925 18.27C5.52925 18.53 5.39925 18.82 5.13925 18.91C4.87925 19.01 4.58925 18.87 4.49925 18.62C4.00925 17.31 3.76925 16.01 3.76925 14.66C3.76925 13.46 3.99925 12.37 4.44925 11.42C5.77925 8.63 8.72925 6.82 11.9593 6.82C16.5093 6.82 20.2093 10.33 20.2093 14.65C20.2093 16.27 18.8293 17.59 17.1293 17.59C15.4293 17.59 14.0493 16.27 14.0493 14.65C14.0493 13.58 13.1193 12.71 11.9693 12.71C10.8193 12.71 9.88925 13.58 9.88925 14.65C9.88925 16.36 10.5493 17.96 11.7593 19.16C12.7093 20.1 13.6193 20.62 15.0293 21.01C15.2993 21.08 15.4493 21.36 15.3793 21.62C15.3293 21.85 15.1193 22 14.9093 22Z"
    fill="#848B96"/>
</svg>
