<svg width="25" height="24" viewBox="0 0 25 24" fill="none" xmlns="http://www.w3.org/2000/svg">
<path d="M22.005 4.14065C21.868 4.00448 21.7071 3.93598 21.5203 3.93598C21.4274 3.93598 21.2317 4.01218 20.935 4.16254C20.6371 4.3133 20.3202 4.48109 19.9879 4.66833C19.6543 4.85435 19.2596 5.02295 18.8037 5.17371C18.3485 5.32407 17.9274 5.40026 17.5396 5.40026C17.1809 5.40026 16.8656 5.33218 16.5928 5.1956C15.6895 4.77248 14.9032 4.45677 14.2365 4.24846C13.5694 4.04055 12.8521 3.93598 12.0841 3.93598C10.758 3.93598 9.24753 4.3672 7.55427 5.22802C7.20492 5.40229 6.95445 5.53725 6.79234 5.63614L6.63144 4.45636C6.99498 4.14065 7.22964 3.68066 7.22964 3.16149C7.22964 2.2103 6.45879 1.43945 5.5076 1.43945C4.55641 1.43945 3.78516 2.2103 3.78516 3.16149C3.78516 3.78198 4.11668 4.32141 4.60869 4.62456L6.935 21.6828C7.0043 22.1906 7.43876 22.559 7.93766 22.559C7.98306 22.559 8.02926 22.5554 8.07587 22.5505C8.63029 22.4743 9.01855 21.9641 8.94276 21.4097L8.00778 14.5539C9.70428 13.7122 11.1718 13.2878 12.4063 13.2878C12.9303 13.2878 13.4414 13.3652 13.9395 13.5241C14.438 13.6826 14.853 13.8536 15.1825 14.0396C15.5116 14.2265 15.901 14.3991 16.3497 14.556C16.7983 14.714 17.2413 14.7931 17.6786 14.7931C18.7834 14.7931 20.1058 14.3768 21.6487 13.5448C21.8424 13.4443 21.9839 13.3454 22.0739 13.2489C22.1638 13.1521 22.2084 13.0139 22.2084 12.8351V4.62496C22.2084 4.43894 22.1407 4.27723 22.005 4.14065Z" fill="#848B96"/>
</svg>
