<svg width="25" height="24" viewBox="0 0 25 24" fill="none" xmlns="http://www.w3.org/2000/svg">
<path d="M3.84173 9.87084L4.09434 10.2909C4.162 10.2822 4.22966 10.2779 4.30183 10.2779C4.56797 10.2779 4.8296 10.2779 5.09123 10.2779H5.36188L5.60546 9.87084C5.72274 9.67164 5.57388 9.4248 5.33932 9.4248H4.10787C3.87331 9.42914 3.72445 9.67597 3.84173 9.87084Z" fill="#848B96"/>
<path d="M16.3964 18.5273C18.0067 17.8907 19.5945 17.2455 21.2049 16.6046C21.674 16.466 22.0168 16.1499 22.0259 15.6346C22.0214 15.0889 21.8364 14.6213 21.3177 14.3181C20.9658 14.1059 20.5959 14.1363 20.2215 14.2878C19.2337 14.6732 18.2684 15.063 17.2805 15.4484C17.1858 15.4873 17.0955 15.5263 16.9783 15.5523C16.9377 15.4614 16.8971 15.3747 16.861 15.2838C16.4595 14.3354 16.4911 14.448 16.0806 13.5213C16.0671 13.491 15.9227 13.1619 15.7829 12.8848C15.5348 13.6556 14.998 14.2618 14.5334 14.6256L13.9199 15.1063C14.3575 16.0936 14.7815 17.0982 15.2055 18.0553C15.4491 18.6312 15.7739 18.7828 16.3964 18.5273Z" fill="#848B96"/>
<path d="M5.35434 13.0664H5.06564H4.38902H4.10033C3.72593 13.0664 3.40566 13.2916 3.338 13.6034L3.0042 15.1104C2.82377 15.9505 3.49137 16.7386 4.38451 16.7386H5.06113C5.95428 16.7386 6.62188 15.9505 6.44145 15.1104L6.11667 13.6034C6.049 13.2916 5.72873 13.0664 5.35434 13.0664Z" fill="#848B96"/>
<path d="M10.5543 16.1111C11.3572 15.678 12.1646 15.2277 12.9766 14.773L13.9735 13.9978C14.1268 13.8852 15.7011 12.5905 14.6681 11.0012C13.8562 9.74539 13.0442 8.48957 12.2323 7.23376C12.1917 7.14282 12.124 7.06921 12.0609 6.96961C12.1466 6.95229 12.2188 6.95662 12.2729 6.95229C13.2292 6.95229 14.2035 6.96095 15.1688 6.93929C15.3493 6.93496 15.4305 6.99126 15.5297 7.12983C15.8725 7.65814 16.2199 8.19078 16.5627 8.71908C16.9055 9.24739 17.51 9.40762 18.0016 9.10449C18.579 8.836 18.7008 8.23841 18.358 7.7101C17.8753 6.95229 17.3972 6.1988 16.9145 5.44098C16.7296 5.14651 16.495 5.02959 16.1387 5.0166C14.5644 5.02526 12.963 5.02093 11.3797 5.05124C11.0911 5.06424 10.7663 5.1595 10.5227 5.31107C9.63406 5.83071 8.79053 6.41965 7.91543 6.97394C7.42375 7.27707 7.20272 7.68845 7.20272 8.23408C7.19821 8.97458 7.19821 9.71507 7.1937 10.4599C7.18017 10.5552 7.19821 10.6331 7.19821 10.7587C7.08995 10.7674 6.99523 10.7544 6.91854 10.75C6.03893 10.7544 5.1909 10.75 4.31129 10.7544C3.66624 10.75 3.24673 11.1354 3.24222 11.7027C3.23771 12.27 3.67977 12.6901 4.29775 12.6814C5.6916 12.6771 7.108 12.6814 8.50184 12.6814C8.93939 12.6771 9.16042 12.4649 9.16493 12.0232C9.16944 11.4039 9.15591 10.7587 9.16042 10.1395C9.16944 10.1178 9.16944 10.1178 9.18297 10.0225C9.85509 11.0012 10.5137 11.9496 11.1587 12.9196C11.0775 12.9888 11.0053 13.0322 10.9151 13.0711C10.0896 13.5648 9.25064 14.0844 8.41162 14.5478C8.00114 14.786 7.83875 15.1151 7.82973 15.5611C7.83875 17.4968 7.84777 19.4325 7.83875 21.3552C7.84326 22.074 8.32141 22.533 9.08374 22.559C9.82351 22.5763 10.2926 22.2602 10.428 21.6929C10.4505 21.576 10.4505 21.4548 10.4415 21.3508C10.4325 19.7139 10.428 18.0771 10.4189 16.4402C10.4189 16.3059 10.4099 16.2063 10.5543 16.1111Z" fill="#848B96"/>
<path d="M5.1192 3.73024C5.13724 4.97306 6.20631 5.98638 7.50091 5.96905C8.81807 5.96039 9.86007 4.95574 9.84654 3.70859C9.84654 2.42247 8.79101 1.4438 7.45129 1.43947C6.16571 1.43514 5.11018 2.46144 5.1192 3.73024Z" fill="#848B96"/>
</svg>
