<svg width="24" height="24" viewBox="0 0 24 24" fill="none" xmlns="http://www.w3.org/2000/svg">
<path d="M17.4101 14.1947C17.6626 14.1934 17.9323 14.1924 18.091 14.1924C18.4868 14.1924 18.8211 13.8831 18.8211 13.5171C18.8211 13.151 18.4868 12.8418 18.091 12.8418H17.4062C17.4069 13.1043 17.4088 13.9435 17.4101 14.1947Z" fill="#848B96"/>
<path d="M13.0638 14.9823L12.547 13.6689L12.0254 14.9823H13.0638Z" fill="#848B96"/>
<path d="M17.8611 6.92578V8.85305H6.13891V6.92578H1.5V20.9994H22.5V6.92578H17.8611ZM16.1744 11.6611H18.0914C19.1725 11.6611 20.0519 12.4934 20.0519 13.5164C20.0519 14.5393 19.1725 15.3716 18.0914 15.3716C17.9323 15.3716 17.659 15.3727 17.4048 15.3739V17.3246H16.1744L16.1724 11.6611H16.1744ZM13.073 11.6607L15.3027 17.3265H13.9875L13.5288 16.1607H11.5573L11.0943 17.3265H9.77761L12.0275 11.6617L13.073 11.6607ZM6.90102 11.6611C7.49271 11.6611 8.06377 11.8285 8.55251 12.1451L9.0623 12.4754L8.37348 13.4531L7.86366 13.1228C7.57913 12.9385 7.24629 12.8411 6.90102 12.8411C5.95122 12.8411 5.17849 13.5821 5.17849 14.4929C5.17849 15.4037 5.95122 16.1447 6.90102 16.1447C7.67285 16.1447 8.07349 15.6503 8.22747 15.0829H6.9052V13.903H9.53435V14.4929C9.53435 16.1602 8.45153 17.3247 6.90106 17.3247C5.27278 17.3247 3.94806 16.0544 3.94806 14.4929C3.94802 12.9314 5.27274 11.6611 6.90102 11.6611Z" fill="#848B96"/>
<path d="M7.36719 6.35014V7.67334H16.6284V6.35014C16.6284 5.35708 15.7859 4.54913 14.7503 4.54913H14.4015C14.2364 4.16277 13.9704 3.81767 13.6288 3.55273C13.1691 3.19631 12.5899 3 11.9978 3C11.4058 3 10.8265 3.19631 10.3668 3.55273C10.0252 3.81763 9.75922 4.16277 9.59417 4.54913H9.24534C8.20969 4.54917 7.36719 5.35708 7.36719 6.35014Z" fill="#848B96"/>
</svg>
