<svg width="24" height="24" viewBox="0 0 24 24" fill="none" xmlns="http://www.w3.org/2000/svg">
<path d="M14.3542 3.96193C11.2205 3.96193 8.67095 6.51144 8.67095 9.6452C8.67095 12.7789 11.2205 15.3285 14.3542 15.3285C17.488 15.3285 20.0375 12.7789 20.0375 9.6452C20.0375 6.51144 17.488 3.96193 14.3542 3.96193ZM18.1632 7.34078H16.8079C16.7011 6.78938 16.5553 6.27916 16.374 5.83093C16.3471 5.76413 16.3192 5.69925 16.2908 5.63597C17.0668 6.01227 17.7178 6.6074 18.1632 7.34078ZM18.8072 9.6452C18.8072 10.0156 18.7615 10.3754 18.6758 10.7195H16.9752C17.0042 10.3691 17.0192 10.0096 17.0192 9.6452C17.0192 9.28075 17.0042 8.92143 16.9752 8.57108H18.6758C18.7615 8.91518 18.8072 9.27498 18.8072 9.6452ZM14.3542 14.0983C14.0189 14.0983 13.4655 13.3536 13.1531 11.9498H15.5554C15.2428 13.3536 14.6893 14.0983 14.3542 14.0983ZM12.9663 10.7195C12.9363 10.3845 12.9193 10.0268 12.9193 9.6452C12.9193 9.26377 12.9363 8.90589 12.9663 8.57108H15.742C15.7719 8.90605 15.7889 9.26377 15.7889 9.6452C15.7889 10.0268 15.7719 10.3845 15.742 10.7195H12.9663ZM9.90109 9.6452C9.90109 9.27498 9.94691 8.91518 10.0325 8.57108H11.7331C11.7041 8.92143 11.689 9.28075 11.689 9.6452C11.689 10.0096 11.7041 10.3691 11.7331 10.7195H10.0325C9.94691 10.3754 9.90109 10.0156 9.90109 9.6452ZM14.3542 5.19223C14.6893 5.19223 15.2428 5.93698 15.5554 7.34078H13.1531C13.4655 5.93698 14.0189 5.19223 14.3542 5.19223ZM12.4176 5.63581C12.3893 5.69925 12.3614 5.76413 12.3343 5.83077C12.153 6.27916 12.0072 6.78938 11.9005 7.34062H10.5451C10.9904 6.6074 11.6415 6.01227 12.4176 5.63581ZM10.5451 11.9498H11.9005C12.0072 12.5012 12.153 13.0114 12.3343 13.4596C12.3614 13.5264 12.3893 13.5911 12.4176 13.6546C11.6415 13.2783 10.9904 12.6831 10.5451 11.9498ZM16.2908 13.6546C16.3192 13.5911 16.3471 13.5264 16.374 13.4596C16.5553 13.0114 16.7011 12.5012 16.8079 11.9498H18.1632C17.7178 12.6831 17.0668 13.2783 16.2908 13.6546Z" fill="#8A8A98"/>
<path d="M14.3533 1.50146C9.8627 1.50146 6.20944 5.15489 6.20944 9.64534C6.20944 11.1478 6.6189 12.5563 7.33129 13.7659L2.10089 18.9963C1.71338 19.3838 1.5 19.899 1.5 20.447C1.5 20.9951 1.71338 21.5102 2.10089 21.8978C2.48841 22.2853 3.0036 22.4987 3.55163 22.4987C4.09966 22.4987 4.61485 22.2853 5.00236 21.8978L10.2328 16.6674C11.4424 17.3799 12.8508 17.7894 14.3533 17.7894C18.8438 17.7894 22.4972 14.136 22.4972 9.64534C22.4972 5.15489 18.8438 1.50146 14.3533 1.50146ZM4.13234 21.0277C3.97727 21.183 3.7711 21.2684 3.55163 21.2684C3.33232 21.2684 3.12599 21.183 2.97092 21.0277C2.65069 20.7075 2.65069 20.1864 2.97092 19.8662L8.04592 14.7912C8.39323 15.2162 8.7825 15.6054 9.2075 15.9527L4.13234 21.0277ZM14.3533 16.5591C10.5411 16.5591 7.43974 13.4575 7.43974 9.6455C7.43974 5.83332 10.5411 2.73177 14.3533 2.73177C18.1655 2.73177 21.2669 5.83316 21.2669 9.64534C21.2669 13.4575 18.1655 16.5591 14.3533 16.5591Z" fill="#8A8A98"/>
</svg>
