<svg width="21" height="20" viewBox="0 0 21 20" fill="none" xmlns="http://www.w3.org/2000/svg">
<path d="M2.99609 2V9.11111H10.1072V2H2.99609ZM11.885 2V9.11111H18.9961V2H11.885ZM2.99609 10.8889V18H10.1072V10.8889H2.99609ZM15.4405 10.8889C14.4975 10.8889 13.5932 11.2635 12.9264 11.9303C12.2596 12.5971 11.885 13.5015 11.885 14.4444C11.885 15.3874 12.2596 16.2918 12.9264 16.9586C13.5932 17.6254 14.4975 18 15.4405 18C16.3835 18 17.2879 17.6254 17.9547 16.9586C18.6215 16.2918 18.9961 15.3874 18.9961 14.4444C18.9961 13.5015 18.6215 12.5971 17.9547 11.9303C17.2879 11.2635 16.3835 10.8889 15.4405 10.8889Z" fill="#848B96"/>
</svg>
