<svg width="24" height="24" viewBox="0 0 24 24" fill="none" xmlns="http://www.w3.org/2000/svg">
<path d="M2 12C2 17.52 6.48 22 12 22C17.52 22 22 17.52 22 12C22 6.48 17.52 2 12 2C6.48 2 2 6.48 2 12ZM17.5 16C17.5 17.38 16.38 18.5 15 18.5C13.62 18.5 12.5 17.38 12.5 16C12.5 14.62 13.62 13.5 15 13.5C16.38 13.5 17.5 14.62 17.5 16ZM8 14.5C6.62 14.5 5.5 13.38 5.5 12C5.5 10.62 6.62 9.5 8 9.5C9.38 9.5 10.5 10.62 10.5 12C10.5 13.38 9.38 14.5 8 14.5ZM17.5 8C17.5 9.38 16.38 10.5 15 10.5C13.62 10.5 12.5 9.38 12.5 8C12.5 6.62 13.62 5.5 15 5.5C16.38 5.5 17.5 6.62 17.5 8Z" fill="#848B96"/>
</svg>
