<svg width="26" height="20" viewBox="0 0 26 20" fill="none" xmlns="http://www.w3.org/2000/svg">
<rect x="0.75" y="0.199951" width="24.5" height="19.6" rx="1.75" fill="#1890FF"/>
<rect x="2.58789" y="2.6499" width="15.925" height="2.45" rx="0.4375" fill="white"/>
<path d="M6.21521 8.78943H6.44592V9.92163H6.36902C6.09273 9.92163 5.83354 9.96008 5.59143 10.037C5.35217 10.1139 5.1414 10.2307 4.95911 10.3873C4.77966 10.5411 4.63867 10.7362 4.53613 10.9727C4.43644 11.2091 4.3866 11.4868 4.3866 11.8058V12.8953C4.3866 13.0946 4.40369 13.2684 4.43787 13.4165C4.47205 13.5646 4.52332 13.6871 4.59167 13.7839C4.66003 13.8808 4.74406 13.9534 4.84375 14.0018C4.94629 14.0503 5.06449 14.0745 5.19836 14.0745C5.30945 14.0745 5.41199 14.0488 5.50598 13.9976C5.59998 13.9463 5.68115 13.8737 5.74951 13.7797C5.82072 13.6857 5.87484 13.576 5.91187 13.4507C5.94889 13.3254 5.96741 13.1886 5.96741 13.0405C5.96741 12.881 5.94747 12.7372 5.90759 12.609C5.86772 12.4808 5.81075 12.3726 5.73669 12.2843C5.66549 12.1932 5.57861 12.1248 5.47607 12.0792C5.37638 12.0308 5.26672 12.0066 5.14709 12.0066C4.9648 12.0066 4.80957 12.0479 4.6814 12.1305C4.55607 12.2102 4.46065 12.3128 4.39514 12.4381C4.33248 12.5634 4.30115 12.6902 4.30115 12.8184L3.95508 12.468C3.94938 12.2971 3.98214 12.1205 4.05334 11.9382C4.12455 11.7559 4.23136 11.5865 4.37378 11.4298C4.51619 11.2732 4.69421 11.1464 4.90784 11.0496C5.12146 10.9527 5.36926 10.9043 5.65125 10.9043C5.93608 10.9043 6.18673 10.9584 6.4032 11.0667C6.62252 11.1749 6.80623 11.3258 6.95435 11.5195C7.10531 11.7132 7.21924 11.9397 7.29614 12.1989C7.37305 12.458 7.4115 12.7386 7.4115 13.0405C7.4115 13.3453 7.35738 13.6287 7.24915 13.8907C7.14376 14.1499 6.99422 14.3764 6.80054 14.5701C6.60685 14.7638 6.37756 14.9147 6.11267 15.0229C5.84778 15.1312 5.55583 15.1853 5.23682 15.1853C4.90926 15.1853 4.60592 15.1298 4.32678 15.0187C4.0505 14.9047 3.80839 14.741 3.60046 14.5273C3.39539 14.3109 3.23446 14.0474 3.11768 13.7369C3.00374 13.4265 2.94678 13.0747 2.94678 12.6816V12.1561C2.94678 11.6235 3.03365 11.1493 3.2074 10.7334C3.38399 10.3175 3.62325 9.96578 3.92517 9.6781C4.22994 9.38757 4.57886 9.16683 4.97192 9.01587C5.36499 8.86491 5.77942 8.78943 6.21521 8.78943ZM12.3889 13.989V15.0999H8.0481V14.1599L10.0476 12.0579C10.2242 11.8556 10.3666 11.6748 10.4749 11.5153C10.5831 11.3529 10.6614 11.2062 10.7098 11.0752C10.7611 10.9442 10.7867 10.826 10.7867 10.7206C10.7867 10.5411 10.7597 10.3916 10.7056 10.272C10.6543 10.1495 10.5774 10.0569 10.4749 9.99426C10.3752 9.9316 10.2513 9.90027 10.1031 9.90027C9.95504 9.90027 9.82544 9.94299 9.71436 10.0284C9.60327 10.1139 9.5164 10.2307 9.45374 10.3788C9.39392 10.5269 9.36401 10.6935 9.36401 10.8787H7.91992C7.91992 10.497 8.01249 10.1481 8.19763 9.83191C8.38562 9.51575 8.64624 9.26367 8.97949 9.07568C9.31274 8.88485 9.69869 8.78943 10.1373 8.78943C10.5959 8.78943 10.9804 8.86064 11.2909 9.00305C11.6014 9.14547 11.8349 9.35197 11.9916 9.62256C12.1511 9.8903 12.2308 10.2136 12.2308 10.5924C12.2308 10.8089 12.1967 11.0168 12.1283 11.2162C12.0599 11.4156 11.9617 11.6135 11.8335 11.8101C11.7053 12.0037 11.5487 12.2031 11.3635 12.4082C11.1812 12.6133 10.9733 12.8312 10.7397 13.0619L9.93652 13.989H12.3889Z" fill="white"/>
</svg>
