<svg width="24" height="24" viewBox="0 0 24 24" fill="none" xmlns="http://www.w3.org/2000/svg">
  <path
    d="M9.46589 8.94629C8.6764 9.57597 8.14469 10.4822 7.98047 11.4773H10.3172C10.3919 11.2872 10.4977 11.1127 10.6287 10.9602L9.46589 8.94629Z"
    fill="#848B96"/>
  <path
    d="M11.9994 13.9414C11.8857 13.9414 11.7745 13.9304 11.6666 13.9102L10.5039 15.924C11.4543 16.2988 12.526 16.3061 13.4949 15.924L12.3322 13.9102C12.2242 13.9304 12.1131 13.9414 11.9994 13.9414Z"
    fill="#848B96"/>
  <path
    d="M12.0004 12.7038C12.314 12.7038 12.5691 12.4487 12.5691 12.1351C12.5691 11.8215 12.3139 11.5664 12.0004 11.5664C11.6868 11.5664 11.4316 11.8215 11.4316 12.1351C11.4316 12.4487 11.6868 12.7038 12.0004 12.7038Z"
    fill="#848B96"/>
  <path
    d="M22.5595 13.8618V10.139H19.8575C19.6588 9.30152 19.3242 8.49373 18.872 7.7603L20.7827 5.8496L18.1503 3.21719L16.2396 5.12789C15.5062 4.67567 14.6984 4.34101 13.8609 4.14243V1.44043H10.138V4.14243C9.30055 4.34096 8.49279 4.67567 7.75932 5.12789L5.84862 3.21719L3.21621 5.8496L5.12691 7.7603C4.67469 8.49368 4.34003 9.30152 4.14145 10.139H1.43945V13.8618H4.14141C4.33999 14.6993 4.67465 15.5071 5.12687 16.2406L3.21617 18.1513L5.84858 20.7837L7.75928 18.8729C8.49271 19.3252 9.30051 19.6598 10.138 19.8584V22.5604H13.8608V19.8584C14.6984 19.6598 15.5061 19.3252 16.2395 18.8729L18.1502 20.7837L20.7826 18.1513L18.872 16.2406C19.3242 15.5071 19.6588 14.6993 19.8574 13.8618H22.5595ZM13.7096 12.7151C13.6392 12.9223 13.5325 13.1129 13.3965 13.2787L15.2059 16.4125L14.6743 16.7231C13.0268 17.6855 10.9741 17.6866 9.32456 16.7231L8.79301 16.4125L10.6024 13.2787C10.4664 13.1128 10.3597 12.9223 10.2893 12.7151H6.68476L6.68984 12.0913C6.70518 10.2109 7.72934 8.46126 9.36263 7.5253L9.89777 7.21865L11.7074 10.3531C11.9028 10.3212 12.0959 10.3211 12.2915 10.3531L14.1012 7.21865L14.6363 7.5253C16.2696 8.46122 17.2938 10.2108 17.3091 12.0913L17.3142 12.7151H13.7096Z"
    fill="#848B96"/>
  <path
    d="M14.5319 8.94629L13.3691 10.9602C13.5001 11.1127 13.606 11.2872 13.6806 11.4773H16.0174C15.8531 10.4822 15.3215 9.57593 14.5319 8.94629Z"
    fill="#848B96"/>
</svg>
