<svg width="24" height="24" viewBox="0 0 24 24" fill="none" xmlns="http://www.w3.org/2000/svg">
  <path
    d="M2.6337 14.2373L2 14.3706C2.07152 14.7102 2.16125 15.0457 2.26879 15.3757L2.88438 15.1748C2.78405 14.867 2.70037 14.5541 2.6337 14.2373Z"
    fill="#848B96"/>
  <path
    d="M3.1147 15.7979L2.51562 16.0436C2.65683 16.3875 2.81767 16.7231 2.99736 17.0486L3.56418 16.7355C3.39651 16.4318 3.24644 16.1187 3.1147 15.7979Z"
    fill="#848B96"/>
  <path
    d="M3.94206 17.3623L3.40234 17.7201C4.3409 19.1358 5.63268 20.282 7.14998 21.0455L7.44063 20.4669C6.02416 19.7541 4.81824 18.684 3.94206 17.3623Z"
    fill="#848B96"/>
  <path
    d="M15.5684 20.4656L15.859 21.0443C16.2394 20.853 16.6068 20.6371 16.9589 20.3978L16.5948 19.8623C16.2662 20.0856 15.9233 20.2872 15.5684 20.4656Z"
    fill="#848B96"/>
  <path
    d="M17.4102 19.2378L17.8323 19.7288C18.1926 19.4189 18.53 19.0832 18.8416 18.7243L18.3526 18.2998C18.0616 18.6349 17.7466 18.9484 17.4102 19.2378Z"
    fill="#848B96"/>
  <path
    d="M20.3773 14.2373C20.1175 15.4783 19.5974 16.6501 18.8516 17.6753L19.3759 18.0554C20.1752 16.9565 20.7325 15.7006 21.011 14.3706L20.3773 14.2373Z"
    fill="#848B96"/>
  <path
    d="M3.41075 9.44658H4.05828V12.6842H6.80863L6.94259 12.361L6.10611 10.9959L7.29592 9.80607V9.41398C7.29611 9.08931 7.366 8.76847 7.50084 8.47313C7.63569 8.1778 7.83236 7.91485 8.07757 7.70205L7.22522 7.32322C7.05358 7.24684 6.90776 7.12235 6.80539 6.96483C6.70302 6.80731 6.64849 6.6235 6.64839 6.43564V5.78716L7.07843 5.14212C7.22046 4.92947 7.29616 4.67944 7.29592 4.42373V3.29506C7.29592 2.95159 7.15948 2.62218 6.91661 2.37931C6.67374 2.13644 6.34433 2 6.00086 2C5.65739 2 5.32799 2.13644 5.08512 2.37931C4.84225 2.62218 4.7058 2.95159 4.7058 3.29506V4.42373C4.70557 4.67946 4.78128 4.92951 4.92333 5.14216L5.35333 5.78716V6.43564C5.35324 6.6235 5.2987 6.80732 5.19632 6.96484C5.09395 7.12237 4.94811 7.24685 4.77647 7.32322L3.40079 7.93467C3.11475 8.06199 2.87172 8.26947 2.70112 8.532C2.53051 8.79453 2.43962 9.10088 2.43945 9.41398V12.6842H3.41075V9.44658Z"
    fill="#848B96"/>
  <path
    d="M15.784 7.32322L14.9316 7.70205C15.1768 7.91485 15.3735 8.1778 15.5084 8.47313C15.6432 8.76847 15.7131 9.08931 15.7133 9.41398V10.4536L16.2556 10.9959L15.4191 12.361L15.5531 12.6842H18.9509V9.44658H19.5985V12.6842H20.5698V9.41398C20.5696 9.10088 20.4787 8.79453 20.3081 8.532C20.1375 8.26947 19.8945 8.06199 19.6084 7.93467L18.2327 7.32322C18.0611 7.24684 17.9152 7.12235 17.8129 6.96483C17.7105 6.80731 17.656 6.6235 17.6559 6.43564V5.78716L18.0859 5.14212C18.2279 4.92947 18.3036 4.67944 18.3034 4.42373V3.29506C18.3034 2.95159 18.167 2.62218 17.9241 2.37931C17.6812 2.13644 17.3518 2 17.0083 2C16.6649 2 16.3355 2.13644 16.0926 2.37931C15.8497 2.62218 15.7133 2.95159 15.7133 3.29506V4.42373C15.713 4.67946 15.7888 4.92951 15.9308 5.14216L16.3608 5.78716V6.43564C16.3607 6.6235 16.3062 6.80732 16.2038 6.96484C16.1014 7.12237 15.9556 7.24685 15.784 7.32322Z"
    fill="#848B96"/>
  <path
    d="M15.31 15.4675L16.6857 15.1377V14.1164L15.31 13.7866L14.6958 12.3042L15.4379 11.0931L15.0867 10.7419H15.0669V10.722L14.7157 10.3709L13.5046 11.1131L12.0222 10.4988L11.6924 9.12305H10.6711L10.3413 10.4988L8.8589 11.113L7.64775 10.3708L6.92556 11.093L7.66775 12.3042L7.0535 13.7866L5.67773 14.1164V15.1377L7.05346 15.4675L7.66771 16.9499L6.92552 18.161L7.64771 18.8832L8.8589 18.141L10.3413 18.7553L10.6711 20.131H11.6924L12.0222 18.7553L13.5046 18.1411L14.7157 18.8832L15.4379 18.1611L14.6957 16.9499L15.31 15.4675ZM11.1817 18.1885C10.4773 18.1885 9.78875 17.9796 9.20308 17.5882C8.61741 17.1969 8.16093 16.6407 7.89138 15.9899C7.62182 15.3392 7.55129 14.6231 7.68871 13.9322C7.82613 13.2414 8.16532 12.6068 8.66339 12.1087C9.16146 11.6107 9.79605 11.2715 10.4869 11.1341C11.1777 10.9966 11.8938 11.0672 12.5446 11.3367C13.1953 11.6063 13.7516 12.0628 14.1429 12.6484C14.5342 13.2341 14.7431 13.9227 14.7431 14.627C14.742 15.5713 14.3665 16.4765 13.6988 17.1442C13.0311 17.8118 12.1259 18.1874 11.1817 18.1885Z"
    fill="#848B96"/>
  <path
    d="M7.94336 9.79277L8.91517 10.3883L9.78777 10.0266L10.1598 8.47529H12.2023L12.5742 10.0267L13.4468 10.3883L14.8119 9.55183L15.0662 9.80607V9.41398C15.066 9.10088 14.9751 8.79454 14.8045 8.532C14.6339 8.26947 14.3909 8.06199 14.1048 7.93467L12.7291 7.32322C12.5575 7.24684 12.4117 7.12235 12.3093 6.96483C12.2069 6.80731 12.1524 6.6235 12.1523 6.43564V5.78716L12.5823 5.14212C12.7244 4.92947 12.8001 4.67944 12.7998 4.42373V3.29506C12.7998 2.95159 12.6634 2.62218 12.4205 2.37931C12.1776 2.13644 11.8482 2 11.5048 2C11.1613 2 10.8319 2.13644 10.589 2.37931C10.3462 2.62218 10.2097 2.95159 10.2097 3.29506V4.42373C10.2095 4.67946 10.2852 4.92951 10.4272 5.14216L10.8572 5.78716V6.43564C10.8571 6.62351 10.8026 6.80732 10.7002 6.96484C10.5979 7.12237 10.452 7.24685 10.2804 7.32322L8.90469 7.93467C8.61865 8.06199 8.37563 8.26947 8.20502 8.532C8.03441 8.79454 7.94353 9.10088 7.94336 9.41398V9.79277Z"
    fill="#848B96"/>
  <path
    d="M11.1815 11.7129C10.6051 11.7129 10.0418 11.8838 9.56259 12.204C9.08341 12.5241 8.70993 12.9792 8.48939 13.5117C8.26884 14.0441 8.21114 14.63 8.32357 15.1952C8.436 15.7605 8.71352 16.2797 9.12103 16.6872C9.52855 17.0947 10.0478 17.3722 10.613 17.4847C11.1782 17.5971 11.7641 17.5394 12.2966 17.3188C12.829 17.0983 13.2841 16.7248 13.6043 16.2456C13.9244 15.7665 14.0953 15.2031 14.0953 14.6268C14.0945 13.8542 13.7872 13.1136 13.2409 12.5673C12.6946 12.021 11.954 11.7138 11.1815 11.7129ZM12.1528 15.5981V16.8931H10.2102V15.5981H8.91515V13.6555H10.2102V12.3604H12.1528V13.6555H13.4478V15.5981H12.1528Z"
    fill="#848B96"/>
  <path
    d="M11.5051 13.0078H10.8576V14.3029H9.5625V14.9504H10.8576V16.2455H11.5051V14.9504H12.8001V14.3029H11.5051V13.0078Z"
    fill="#848B96"/>
</svg>
