<svg width="24" height="24" viewBox="0 0 24 24" fill="none" xmlns="http://www.w3.org/2000/svg">
<path d="M19.0968 18.5903C19.0398 18.5452 18.9732 18.5147 18.9025 18.5014C18.8318 18.4882 18.7591 18.4926 18.6904 18.5142L14.2514 19.865C14.2224 19.8745 14.1922 19.8789 14.1618 19.8782H11.6015C11.5464 19.8789 11.4922 19.864 11.4446 19.8352L8.56427 18.1798C8.50285 18.1438 8.45467 18.0878 8.42722 18.0205C8.39976 17.9533 8.39458 17.8785 8.41247 17.8078C8.43036 17.7372 8.47033 17.6747 8.52615 17.63C8.58196 17.5853 8.6505 17.5609 8.72109 17.5607H12.8816V17.0343L12.4048 16.541L7.72896 15.5742H5.90152L4.56055 16.1304V19.8782H5.52067C5.55538 19.8789 5.58984 19.8844 5.62308 19.8948L9.41238 21.2025H14.1074L18.9752 19.4246C19.054 19.3956 19.1238 19.3449 19.177 19.2781C19.2302 19.2112 19.2648 19.1307 19.2773 19.0451C19.2898 18.9595 19.2796 18.872 19.2478 18.7919C19.216 18.7118 19.1639 18.6422 19.0968 18.5903Z" fill="#848B96"/>
<path d="M2.64258 20.8119L3.92274 20.5901V15.1935L2.64258 14.9717V20.8119Z" fill="#848B96"/>
<path d="M11.5978 13.9189C14.0685 13.9189 16.0784 11.0971 16.0784 7.6284V3.91007L11.5978 2.67383L7.11719 3.91007V7.6284C7.11719 11.0971 9.12705 13.9189 11.5978 13.9189ZM8.7174 8.95271V7.6284C8.7174 7.45279 8.78483 7.28437 8.90487 7.16019C9.02491 7.03601 9.18772 6.96625 9.35748 6.96625H10.3176V5.97302C10.3176 5.7974 10.385 5.62898 10.5051 5.5048C10.6251 5.38062 10.7879 5.31086 10.9577 5.31086H12.2379C12.4076 5.31086 12.5704 5.38062 12.6905 5.5048C12.8105 5.62898 12.8779 5.7974 12.8779 5.97302V6.96625H13.8381C14.0078 6.96625 14.1706 7.03601 14.2907 7.16019C14.4107 7.28437 14.4781 7.45279 14.4781 7.6284V8.95271C14.4781 9.12833 14.4107 9.29675 14.2907 9.42093C14.1706 9.5451 14.0078 9.61487 13.8381 9.61487H12.8779V10.6081C12.8779 10.7837 12.8105 10.9521 12.6905 11.0763C12.5704 11.2005 12.4076 11.2703 12.2379 11.2703H10.9577C10.7879 11.2703 10.6251 11.2005 10.5051 11.0763C10.385 10.9521 10.3176 10.7837 10.3176 10.6081V9.61487H9.35748C9.18772 9.61487 9.02491 9.5451 8.90487 9.42093C8.78483 9.29675 8.7174 9.12833 8.7174 8.95271Z" fill="#848B96"/>
<path d="M18.0014 3.98646H18.6415V3.32431H19.2816V2.66215H18.6415V2H18.0014V2.66215H17.3613V3.32431H18.0014V3.98646Z" fill="#848B96"/>
<path d="M21.1995 4.64848H20.5595V3.98633H19.9194V4.64848H19.2793V5.31064H19.9194V5.97279H20.5595V5.31064H21.1995V4.64848Z" fill="#848B96"/>
<path d="M16.082 12.9258V13.588H16.7221V14.2501H17.3622V13.588H18.0023V12.9258H17.3622V12.2637H16.7221V12.9258H16.082Z" fill="#848B96"/>
<path d="M19.2802 10.2764H18.6401V10.9385H18V11.6007H18.6401V12.2628H19.2802V11.6007H19.9202V10.9385H19.2802V10.2764Z" fill="#848B96"/>
<path d="M4.56391 3.98646H5.20399V3.32431H5.84408V2.66215H5.20399V2H4.56391V2.66215H3.92383V3.32431H4.56391V3.98646Z" fill="#848B96"/>
<path d="M2.64008 5.97279H3.28017V5.31064H3.92025V4.64848H3.28017V3.98633H2.64008V4.64848H2V5.31064H2.64008V5.97279Z" fill="#848B96"/>
<path d="M5.84125 12.2637V12.9258H5.20117V13.588H5.84125V14.2501H6.48134V13.588H7.12142V12.9258H6.48134V12.2637H5.84125Z" fill="#848B96"/>
<path d="M4.56142 12.2628V11.6007H5.2015V10.9385H4.56142V10.2764H3.92133V10.9385H3.28125V11.6007H3.92133V12.2628H4.56142Z" fill="#848B96"/>
<path d="M10.9615 9.61451V10.6077H12.2417V9.61451C12.2417 9.43889 12.3091 9.27047 12.4292 9.14629C12.5492 9.02212 12.712 8.95235 12.8818 8.95235H13.8419V7.62804H12.8818C12.712 7.62804 12.5492 7.55828 12.4292 7.4341C12.3091 7.30992 12.2417 7.1415 12.2417 6.96589V5.97266H10.9615V6.96589C10.9615 7.1415 10.8941 7.30992 10.7741 7.4341C10.654 7.55828 10.4912 7.62804 10.3215 7.62804H9.36133V8.95235H10.3215C10.4912 8.95235 10.654 9.02212 10.7741 9.14629C10.8941 9.27047 10.9615 9.43889 10.9615 9.61451Z" fill="#848B96"/>
</svg>
