<svg width="24" height="24" viewBox="0 0 24 24" fill="none" xmlns="http://www.w3.org/2000/svg">
  <path
    d="M15.4426 10.0607C16.2767 10.7682 16.3826 10.8666 16.7497 11.1827C17.0187 10.952 17.2494 10.7421 18.2276 9.92184C20.0229 8.41436 21.32 7.3259 21.32 5.71807C21.32 4.19388 20.2003 3 18.771 3C17.8108 3 17.1737 3.54173 16.7737 4.09348C16.3949 3.54006 15.779 3 14.8161 3C13.3867 3 12.2676 4.19392 12.2676 5.71807C12.2675 7.36666 13.5307 8.43835 15.4426 10.0607Z"
    fill="#848B96"/>
  <path
    d="M6.2678 19.4532C7.76458 18.4364 9.40231 18.0478 11.1847 18.3449L14.0412 18.8362C15.1381 19.0191 16.1435 18.9619 17.0118 18.6763C18.8083 18.0776 20.6066 16.192 21.0832 15.4771C21.746 14.483 22.11 13.3976 22.3386 12.872C22.5557 12.3693 22.5557 12.0151 22.3272 11.8094C22.0643 11.5694 21.6188 11.6951 21.2874 11.878C20.7618 12.175 20.2035 13.032 19.6322 13.8546C18.8895 14.9286 17.6175 15.5685 16.3149 15.5685H12.1787V14.4259H13.8926C16.9318 14.4259 18.2915 13.8546 18.2915 13.2833C18.2915 12.8035 17.3432 12.5863 17.0232 12.5178C15.7778 12.2322 12.9671 12.0951 11.0476 11.2381C10.7014 11.0867 10.309 11.0017 9.89365 10.9982C9.24246 10.9926 8.53475 11.1955 7.85975 11.718C7.8484 11.718 7.8484 11.718 7.83694 11.7294C7.39134 12.0722 6.78196 12.5749 5.95931 13.2947C5.2623 13.9117 4.58822 14.7001 3.41133 15.7056L3 16.0598L5.81077 19.7617L6.2678 19.4532Z"
    fill="#848B96"/>
</svg>
