<svg width="24" height="24" viewBox="0 0 24 24" fill="none" xmlns="http://www.w3.org/2000/svg">
  <path
    d="M10.9545 14.5909H14.0455C14.1479 14.591 14.2461 14.6317 14.3185 14.7042C14.391 14.7766 14.4317 14.8748 14.4318 14.9773V15.3636H10.5682V14.9773C10.5683 14.8748 10.609 14.7766 10.6815 14.7042C10.7539 14.6317 10.8521 14.591 10.9545 14.5909ZM21 11.5C21 13.1811 20.5015 14.8245 19.5675 16.2223C18.6335 17.6202 17.306 18.7096 15.7528 19.353C14.1996 19.9963 12.4906 20.1646 10.8417 19.8367C9.1929 19.5087 7.67834 18.6992 6.4896 17.5104C5.30085 16.3217 4.4913 14.8071 4.16333 13.1583C3.83535 11.5094 4.00368 9.80036 4.64703 8.24719C5.29037 6.69402 6.37984 5.3665 7.77766 4.43251C9.17547 3.49852 10.8189 3 12.5 3C14.7536 3.00255 16.9141 3.8989 18.5076 5.4924C20.1011 7.08591 20.9975 9.24644 21 11.5ZM17.5227 8.02273C17.5224 7.71542 17.4002 7.42079 17.1829 7.2035C16.9656 6.9862 16.6709 6.86397 16.3636 6.86364H8.63637C8.32906 6.86397 8.03443 6.9862 7.81714 7.2035C7.59984 7.42079 7.47761 7.71542 7.47728 8.02273V11.8864C7.47761 12.1937 7.59984 12.4883 7.81714 12.7056C8.03443 12.9229 8.32906 13.0451 8.63637 13.0455H10.9545V13.8182C10.6472 13.8185 10.3526 13.9407 10.1353 14.158C9.91802 14.3753 9.79579 14.67 9.79546 14.9773V15.3636C9.79569 15.5685 9.87718 15.7649 10.022 15.9098C10.1669 16.0546 10.3633 16.1361 10.5682 16.1364H14.4318C14.6367 16.1361 14.8331 16.0546 14.978 15.9098C15.1228 15.7649 15.2043 15.5685 15.2045 15.3636V14.9773C15.2042 14.67 15.082 14.3753 14.8647 14.158C14.6474 13.9407 14.3528 13.8185 14.0455 13.8182V13.0455H16.3636C16.6709 13.0451 16.9656 12.9229 17.1829 12.7056C17.4002 12.4883 17.5224 12.1937 17.5227 11.8864V8.02273ZM11.7273 13.8182H13.2727V13.0455H11.7273V13.8182ZM16.75 8.02273V11.8864C16.7499 11.9888 16.7092 12.087 16.6367 12.1594C16.5643 12.2319 16.4661 12.2726 16.3636 12.2727H8.63637C8.53393 12.2726 8.43571 12.2319 8.36328 12.1594C8.29084 12.087 8.2501 11.9888 8.25 11.8864V8.02273C8.2501 7.92029 8.29084 7.82207 8.36328 7.74964C8.43571 7.6772 8.53393 7.63647 8.63637 7.63636H16.3636C16.4661 7.63647 16.5643 7.6772 16.6367 7.74964C16.7092 7.82207 16.7499 7.92029 16.75 8.02273ZM15.9773 10.3409C15.9773 10.2902 15.9673 10.2399 15.9479 10.193C15.9285 10.1462 15.9 10.1036 15.8641 10.0677C15.8283 10.0318 15.7857 10.0033 15.7388 9.98393C15.6919 9.96452 15.6417 9.95453 15.5909 9.95454H14.2522L13.5942 8.96751C13.5551 8.90888 13.5008 8.86205 13.437 8.83209C13.3733 8.80213 13.3025 8.79017 13.2325 8.79751C13.1624 8.80486 13.0957 8.83122 13.0396 8.87375C12.9834 8.91629 12.9399 8.97337 12.9139 9.03882L12.4574 10.1836L11.6628 8.62038C11.6268 8.54981 11.5701 8.49197 11.5003 8.45469C11.4304 8.41741 11.3508 8.40248 11.2722 8.41192C11.1936 8.42137 11.1197 8.45474 11.0607 8.50751C11.0017 8.56028 10.9603 8.62991 10.9421 8.70698L10.6485 9.95454H9.40909C9.30662 9.95454 9.20835 9.99525 9.13589 10.0677C9.06344 10.1402 9.02273 10.2384 9.02273 10.3409C9.02273 10.4434 9.06344 10.5417 9.13589 10.6141C9.20835 10.6866 9.30662 10.7273 9.40909 10.7273H10.9545C11.0416 10.7272 11.1262 10.6978 11.1944 10.6438C11.2627 10.5897 11.3107 10.5142 11.3307 10.4294L11.4526 9.91191L12.1555 11.2949C12.1879 11.3585 12.2372 11.4119 12.298 11.4492C12.3588 11.4865 12.4287 11.5062 12.5 11.5062L12.5177 11.5058C12.5919 11.5024 12.6636 11.4777 12.7241 11.4346C12.7845 11.3915 12.8313 11.3318 12.8588 11.2628L13.3591 10.0081L13.724 10.5552C13.7593 10.6081 13.8071 10.6515 13.8632 10.6815C13.9192 10.7115 13.9819 10.7273 14.0455 10.7273H15.5909C15.6417 10.7273 15.6919 10.7173 15.7388 10.6979C15.7857 10.6785 15.8283 10.65 15.8641 10.6141C15.9 10.5783 15.9285 10.5357 15.9479 10.4888C15.9673 10.4419 15.9773 10.3916 15.9773 10.3409Z"
    fill="#848B96"/>
</svg>
