<svg width="24" height="24" viewBox="0 0 24 24" fill="none" xmlns="http://www.w3.org/2000/svg">
  <path
    d="M6.95898 16.416H1.95898C1.61382 16.416 1.33398 16.6958 1.33398 17.041V22.041C1.33398 22.3862 1.61382 22.666 1.95898 22.666H6.95898C7.30415 22.666 7.58398 22.3862 7.58398 22.041V17.041C7.58398 16.6958 7.30415 16.416 6.95898 16.416Z"
    fill="#848B96"/>
  <path
    d="M5.08398 15.1667V13.4583H11.3757V15.1667H12.6257V13.4583H18.9173V15.1667H20.1673V12.8333C20.1673 12.4882 19.8875 12.2083 19.5423 12.2083H12.6257V10.5H11.3757V12.2083H4.45898C4.11382 12.2083 3.83398 12.4882 3.83398 12.8333V15.1667H5.08398Z"
    fill="#848B96"/>
  <path
    d="M8.66797 9.24967H15.3346C15.6798 9.24967 15.9596 8.96984 15.9596 8.62467V1.95801C15.9596 1.61284 15.6798 1.33301 15.3346 1.33301H8.66797C8.3228 1.33301 8.04297 1.61284 8.04297 1.95801V8.62467C8.04297 8.96984 8.3228 9.24967 8.66797 9.24967Z"
    fill="#848B96"/>
  <path
    d="M14.5 16.416H9.5C9.15483 16.416 8.875 16.6958 8.875 17.041V22.041C8.875 22.3862 9.15483 22.666 9.5 22.666H14.5C14.8452 22.666 15.125 22.3862 15.125 22.041V17.041C15.125 16.6958 14.8452 16.416 14.5 16.416Z"
    fill="#848B96"/>
  <path
    d="M22.043 16.416H17.043C16.6978 16.416 16.418 16.6958 16.418 17.041V22.041C16.418 22.3862 16.6978 22.666 17.043 22.666H22.043C22.3881 22.666 22.668 22.3862 22.668 22.041V17.041C22.668 16.6958 22.3881 16.416 22.043 16.416Z"
    fill="#848B96"/>
</svg>
