<svg width="24" height="24" viewBox="0 0 24 24" fill="none" xmlns="http://www.w3.org/2000/svg">
  <path
    d="M6.95898 16.4141H1.95898C1.61382 16.4141 1.33398 16.6939 1.33398 17.0391V22.0391C1.33398 22.3842 1.61382 22.6641 1.95898 22.6641H6.95898C7.30415 22.6641 7.58398 22.3842 7.58398 22.0391V17.0391C7.58398 16.6939 7.30415 16.4141 6.95898 16.4141Z"
    fill="#848B96"/>
  <path
    d="M5.08398 15.1667V13.4583H11.3757V15.1667H12.6257V13.4583H18.9173V15.1667H20.1673V12.8333C20.1673 12.4882 19.8875 12.2083 19.5423 12.2083H12.6257V10.5H11.3757V12.2083H4.45898C4.11382 12.2083 3.83398 12.4882 3.83398 12.8333V15.1667H5.08398Z"
    fill="#848B96"/>
  <path
    d="M8.66797 9.2487H15.3346C15.6798 9.2487 15.9596 8.96886 15.9596 8.6237V1.95703C15.9596 1.61186 15.6798 1.33203 15.3346 1.33203H8.66797C8.3228 1.33203 8.04297 1.61186 8.04297 1.95703V8.6237C8.04297 8.96886 8.3228 9.2487 8.66797 9.2487Z"
    fill="#848B96"/>
  <path
    d="M22.043 16.4141H17.043C16.6978 16.4141 16.418 16.6939 16.418 17.0391V22.0391C16.418 22.3842 16.6978 22.6641 17.043 22.6641H22.043C22.3881 22.6641 22.668 22.3842 22.668 22.0391V17.0391C22.668 16.6939 22.3881 16.4141 22.043 16.4141Z"
    fill="#848B96"/>
</svg>
