<svg width="24" height="24" viewBox="0 0 24 24" fill="none" xmlns="http://www.w3.org/2000/svg">
<path d="M21.75 12V19.5C21.75 19.6989 21.671 19.8897 21.5303 20.0303C21.3897 20.171 21.1989 20.25 21 20.25H19.5V11.25H21C21.1989 11.25 21.3897 11.329 21.5303 11.4697C21.671 11.6103 21.75 11.8011 21.75 12ZM18 4.5V20.25H13.5C13.3011 20.25 13.1103 20.171 12.9697 20.0303C12.829 19.8897 12.75 19.6989 12.75 19.5V16.5H11.25V19.5C11.25 19.6989 11.171 19.8897 11.0303 20.0303C10.8897 20.171 10.6989 20.25 10.5 20.25H6V4.5C6 4.30109 6.07902 4.11032 6.21967 3.96967C6.36032 3.82902 6.55109 3.75 6.75 3.75H17.25C17.4489 3.75 17.6397 3.82902 17.7803 3.96967C17.921 4.11032 18 4.30109 18 4.5ZM14.25 9H12.75V7.5C12.75 7.30109 12.671 7.11032 12.5303 6.96967C12.3897 6.82902 12.1989 6.75 12 6.75C11.8011 6.75 11.6103 6.82902 11.4697 6.96967C11.329 7.11032 11.25 7.30109 11.25 7.5V9H9.75C9.55109 9 9.36032 9.07902 9.21967 9.21967C9.07902 9.36032 9 9.55109 9 9.75C9 9.94891 9.07902 10.1397 9.21967 10.2803C9.36032 10.421 9.55109 10.5 9.75 10.5H11.25V12C11.25 12.1989 11.329 12.3897 11.4697 12.5303C11.6103 12.671 11.8011 12.75 12 12.75C12.1989 12.75 12.3897 12.671 12.5303 12.5303C12.671 12.3897 12.75 12.1989 12.75 12V10.5H14.25C14.4489 10.5 14.6397 10.421 14.7803 10.2803C14.921 10.1397 15 9.94891 15 9.75C15 9.55109 14.921 9.36032 14.7803 9.21967C14.6397 9.07902 14.4489 9 14.25 9ZM4.5 11.25H3C2.80109 11.25 2.61032 11.329 2.46967 11.4697C2.32902 11.6103 2.25 11.8011 2.25 12V19.5C2.25 19.6989 2.32902 19.8897 2.46967 20.0303C2.61032 20.171 2.80109 20.25 3 20.25H4.5V11.25Z" fill="#848B96"/>
</svg>
