<svg width="24" height="24" viewBox="0 0 24 24" fill="none" xmlns="http://www.w3.org/2000/svg">
<path fill-rule="evenodd" clip-rule="evenodd" d="M15.4008 5.16596H17.061C17.3522 5.16596 17.5883 5.40207 17.5883 5.6933V20.9999H13.9719V16.9489C13.9719 16.6577 13.7358 16.4216 13.4446 16.4216H10.5559C10.2646 16.4216 10.0285 16.6577 10.0285 16.9489V20.9999H6.41211V5.6933C6.41211 5.40207 6.64822 5.16596 6.93945 5.16596H8.67433V3.52734C8.67433 3.23611 8.91043 3 9.20167 3H14.8735C15.1647 3 15.4008 3.23611 15.4008 3.52734V5.16596ZM9.04441 14.5992H9.61232C9.90356 14.5992 10.1397 14.3631 10.1397 14.0719C10.1397 13.7806 9.90356 13.5445 9.61232 13.5445H9.04441C8.75318 13.5445 8.51707 13.7806 8.51707 14.0719C8.51707 14.3631 8.75318 14.5992 9.04441 14.5992ZM9.04441 12.4898H9.61232C9.90356 12.4898 10.1397 12.2537 10.1397 11.9625C10.1397 11.6713 9.90356 11.4352 9.61232 11.4352H9.04441C8.75318 11.4352 8.51707 11.6713 8.51707 11.9625C8.51707 12.2537 8.75318 12.4898 9.04441 12.4898ZM9.04441 10.3805H9.61232C9.90356 10.3805 10.1397 10.1444 10.1397 9.85313C10.1397 9.5619 9.90356 9.32579 9.61232 9.32579H9.04441C8.75318 9.32579 8.51707 9.5619 8.51707 9.85313C8.51707 10.1444 8.75318 10.3805 9.04441 10.3805ZM11.1889 14.0719C11.1889 14.3631 11.425 14.5992 11.7163 14.5992H12.2842C12.5754 14.5992 12.8115 14.3631 12.8115 14.0719C12.8115 13.7806 12.5754 13.5445 12.2842 13.5445H11.7163C11.425 13.5445 11.1889 13.7806 11.1889 14.0719ZM11.7163 12.4898H12.2842C12.5754 12.4898 12.8115 12.2537 12.8115 11.9625C12.8115 11.6713 12.5754 11.4352 12.2842 11.4352H11.7163C11.425 11.4352 11.1889 11.6713 11.1889 11.9625C11.1889 12.2537 11.425 12.4898 11.7163 12.4898ZM11.7163 10.3805H12.2842C12.5754 10.3805 12.8115 10.1444 12.8115 9.85313C12.8115 9.5619 12.5754 9.32579 12.2842 9.32579H11.7163C11.425 9.32579 11.1889 9.5619 11.1889 9.85313C11.1889 10.1444 11.425 10.3805 11.7163 10.3805ZM12.5276 7.22684H13.063C13.3543 7.22684 13.5904 6.99073 13.5904 6.6995C13.5904 6.40827 13.3543 6.17216 13.063 6.17216H12.5276V5.6367C12.5276 5.34547 12.2915 5.10936 12.0002 5.10936C11.709 5.10936 11.4729 5.34547 11.4729 5.6367V6.17216H10.9374C10.6462 6.17216 10.4101 6.40827 10.4101 6.6995C10.4101 6.99073 10.6462 7.22684 10.9374 7.22684H11.4729V7.7623C11.4729 8.05353 11.709 8.28964 12.0002 8.28964C12.2915 8.28964 12.5276 8.05353 12.5276 7.7623V7.22684ZM14.3881 14.5992H14.956C15.2473 14.5992 15.4834 14.3631 15.4834 14.0719C15.4834 13.7806 15.2473 13.5445 14.956 13.5445H14.3881C14.0969 13.5445 13.8608 13.7806 13.8608 14.0719C13.8608 14.3631 14.0969 14.5992 14.3881 14.5992ZM14.3881 12.4898H14.956C15.2473 12.4898 15.4834 12.2537 15.4834 11.9625C15.4834 11.6713 15.2473 11.4352 14.956 11.4352H14.3881C14.0969 11.4352 13.8608 11.6713 13.8608 11.9625C13.8608 12.2537 14.0969 12.4898 14.3881 12.4898ZM14.3881 10.3805H14.956C15.2473 10.3805 15.4834 10.1444 15.4834 9.85313C15.4834 9.5619 15.2473 9.32579 14.956 9.32579H14.3881C14.0969 9.32579 13.8608 9.5619 13.8608 9.85313C13.8608 10.1444 14.0969 10.3805 14.3881 10.3805ZM3.52734 9.55273H5.35714V20.9998H3V10.0801C3 9.78884 3.23611 9.55273 3.52734 9.55273ZM18.6426 9.55273H20.4724C20.7636 9.55273 20.9997 9.78884 20.9997 10.0801V20.9998H18.6426V9.55273ZM12.918 17.4756V20.9992H11.084V17.4756H12.918Z" fill="#848B96"/>
</svg>
