<svg width="24" height="24" viewBox="0 0 24 24" fill="none" xmlns="http://www.w3.org/2000/svg">
<path fill-rule="evenodd" clip-rule="evenodd" d="M12 3C16.9706 3 21 7.02943 21 12C21 16.9706 16.9706 21 12 21C7.02943 21 3 16.9706 3 12C3 7.02943 7.02943 3 12 3ZM12.938 14.3362C12.7516 14.15 12.5142 14.0232 12.2558 13.9719C11.9973 13.9206 11.7295 13.9471 11.4861 14.048C11.2427 14.1489 11.0347 14.3196 10.8884 14.5387C10.742 14.7578 10.6639 15.0154 10.6639 15.2788C10.6639 15.5423 10.742 15.7999 10.8884 16.019C11.0347 16.238 11.2427 16.4088 11.4861 16.5097C11.7295 16.6106 11.9973 16.6371 12.2558 16.5858C12.5142 16.5345 12.7516 16.4077 12.938 16.2215C13.1875 15.9712 13.3276 15.6322 13.3276 15.2788C13.3276 14.9255 13.1875 14.5865 12.938 14.3362ZM14.0087 13.326C14.0414 13.3596 14.0804 13.3865 14.1234 13.405C14.1665 13.4235 14.2127 13.4334 14.2596 13.434C14.3065 13.4347 14.353 13.4261 14.3965 13.4088C14.4401 13.3914 14.4798 13.3657 14.5134 13.333C14.547 13.3003 14.5738 13.2614 14.5924 13.2183C14.6109 13.1753 14.6208 13.129 14.6214 13.0821C14.6221 13.0353 14.6135 12.9887 14.5961 12.9452C14.5788 12.9017 14.5531 12.8619 14.5204 12.8284C14.5088 12.8158 14.4962 12.8032 14.4835 12.7907C13.8231 12.1317 12.9282 11.7616 11.9952 11.7616C11.0622 11.7616 10.1673 12.1317 9.50686 12.7907C9.49842 12.7996 9.48897 12.8087 9.48053 12.8176C9.4142 12.8852 9.37742 12.9764 9.3783 13.071C9.37918 13.1657 9.41763 13.2562 9.4852 13.3225C9.55277 13.3888 9.64393 13.4256 9.73861 13.4247C9.83329 13.4239 9.92375 13.3854 9.99008 13.3178C9.99746 13.3104 10.0048 13.303 10.0122 13.2956C10.5388 12.7705 11.2521 12.4756 11.9957 12.4756C12.7394 12.4756 13.4527 12.7705 13.9792 13.2956C13.9887 13.3057 13.9982 13.3157 14.0087 13.326ZM15.5553 11.7815C15.5882 11.815 15.6273 11.8417 15.6704 11.86C15.7135 11.8783 15.7599 11.888 15.8067 11.8885C15.8536 11.8889 15.9001 11.8801 15.9436 11.8626C15.9871 11.845 16.0267 11.8191 16.0601 11.7863C16.0936 11.7534 16.1203 11.7143 16.1386 11.6712C16.157 11.628 16.1666 11.5817 16.1671 11.5348C16.1675 11.488 16.1587 11.4415 16.1412 11.398C16.1236 11.3545 16.0977 11.3149 16.0649 11.2814C16.0533 11.2691 16.0406 11.2571 16.0291 11.245C14.9592 10.1752 13.5081 9.57426 11.9952 9.5743C10.4822 9.57434 9.03116 10.1754 7.96132 11.2452L7.93604 11.2715C7.90302 11.3048 7.87689 11.3444 7.85917 11.3878C7.84145 11.4313 7.83248 11.4779 7.83277 11.5248C7.83306 11.5718 7.84261 11.6182 7.86087 11.6614C7.87913 11.7047 7.90574 11.7439 7.93918 11.7769C7.97262 11.8098 8.01223 11.8358 8.05575 11.8535C8.09926 11.8711 8.14582 11.88 8.19277 11.8796C8.23971 11.8792 8.28612 11.8695 8.32933 11.8511C8.37254 11.8328 8.4117 11.8061 8.44458 11.7726L8.46666 11.75C8.9301 11.2866 9.4803 10.919 10.0858 10.6682C10.6914 10.4174 11.3404 10.2883 11.9958 10.2883C12.6512 10.2883 13.3002 10.4175 13.9057 10.6683C14.5112 10.9191 15.0614 11.2868 15.5248 11.7503C15.5353 11.7606 15.5448 11.771 15.5553 11.7815ZM17.0703 10.2046L17.1019 10.2368C17.1349 10.2702 17.1741 10.2968 17.2173 10.315C17.2606 10.3333 17.3069 10.3428 17.3539 10.3431C17.4008 10.3434 17.4473 10.3345 17.4907 10.3168C17.5342 10.2992 17.5738 10.2731 17.6071 10.2401C17.6405 10.2072 17.6671 10.168 17.6853 10.1248C17.7036 10.0815 17.7131 10.0351 17.7134 9.98824C17.7137 9.94132 17.7048 9.89481 17.6871 9.85135C17.6695 9.80789 17.6434 9.76834 17.6104 9.73495C17.5978 9.72307 17.5862 9.71126 17.5747 9.6998C16.8425 8.96637 15.9729 8.3845 15.0156 7.98749C14.0583 7.59049 13.0321 7.38612 11.9958 7.38611C10.9595 7.38609 9.93329 7.59041 8.976 7.98738C8.0187 8.38435 7.14908 8.96618 6.41687 9.69959L6.39054 9.72518C6.35753 9.7585 6.3314 9.79799 6.31366 9.84141C6.29591 9.88482 6.28689 9.93131 6.28711 9.97821C6.28733 10.0251 6.29678 10.0715 6.31493 10.1148C6.33308 10.158 6.35958 10.1973 6.39289 10.2303C6.42621 10.2633 6.46571 10.2894 6.50912 10.3071C6.55254 10.3249 6.59903 10.3339 6.64593 10.3337C6.69283 10.3335 6.73923 10.324 6.78248 10.3059C6.82572 10.2877 6.86497 10.2612 6.89798 10.2279L6.92115 10.2047C8.26708 8.859 10.0924 8.10298 11.9957 8.10298C13.899 8.10298 15.7244 8.859 17.0703 10.2047L17.0703 10.2046Z" fill="#848B96"/>
<path opacity="0.4" fill-rule="evenodd" clip-rule="evenodd" d="M12.938 14.3368C12.7516 14.1506 12.5142 14.0238 12.2558 13.9725C11.9973 13.9212 11.7295 13.9477 11.4861 14.0486C11.2427 14.1495 11.0347 14.3203 10.8884 14.5393C10.742 14.7584 10.6639 15.016 10.6639 15.2795C10.6639 15.5429 10.742 15.8005 10.8884 16.0196C11.0347 16.2387 11.2427 16.4094 11.4861 16.5103C11.7295 16.6112 11.9973 16.6377 12.2558 16.5864C12.5142 16.5351 12.7516 16.4083 12.938 16.2221C13.1875 15.9718 13.3276 15.6329 13.3276 15.2795C13.3276 14.9261 13.1875 14.5871 12.938 14.3368ZM14.0087 13.3266C14.0414 13.3602 14.0804 13.3871 14.1234 13.4056C14.1665 13.4241 14.2127 13.434 14.2596 13.4347C14.3065 13.4353 14.353 13.4267 14.3966 13.4094C14.4401 13.3921 14.4798 13.3663 14.5134 13.3336C14.547 13.301 14.5738 13.262 14.5924 13.2189C14.6109 13.1759 14.6208 13.1296 14.6214 13.0827C14.6221 13.0359 14.6135 12.9894 14.5961 12.9458C14.5788 12.9023 14.5531 12.8626 14.5204 12.829C14.5088 12.8165 14.4962 12.8038 14.4835 12.7913C13.8231 12.1323 12.9282 11.7622 11.9952 11.7622C11.0622 11.7622 10.1673 12.1323 9.50686 12.7913C9.49843 12.8002 9.48897 12.8093 9.48053 12.8182C9.4142 12.8858 9.37743 12.977 9.37831 13.0717C9.37918 13.1663 9.41764 13.2568 9.48521 13.3231C9.55278 13.3895 9.64393 13.4262 9.73861 13.4253C9.8333 13.4245 9.92375 13.386 9.99009 13.3184C9.99747 13.3111 10.0049 13.3036 10.0122 13.2962C10.5388 12.7711 11.2521 12.4762 11.9957 12.4762C12.7394 12.4762 13.4527 12.7711 13.9792 13.2962C13.9887 13.3063 13.9982 13.3163 14.0087 13.3266ZM15.5553 11.7822C15.5882 11.8156 15.6273 11.8423 15.6704 11.8606C15.7135 11.879 15.7599 11.8886 15.8068 11.8891C15.8536 11.8895 15.9001 11.8807 15.9436 11.8632C15.9871 11.8456 16.0267 11.8197 16.0601 11.7869C16.0936 11.754 16.1203 11.7149 16.1386 11.6718C16.157 11.6287 16.1666 11.5823 16.1671 11.5354C16.1675 11.4886 16.1587 11.4421 16.1412 11.3986C16.1236 11.3551 16.0977 11.3155 16.0649 11.2821C16.0533 11.2698 16.0407 11.2577 16.0291 11.2456C14.9592 10.1758 13.5081 9.57487 11.9952 9.57491C10.4822 9.57495 9.03117 10.176 7.96132 11.2458L7.93605 11.2721C7.90302 11.3054 7.8769 11.345 7.85918 11.3885C7.84146 11.4319 7.83248 11.4785 7.83278 11.5254C7.83307 11.5724 7.84262 11.6188 7.86088 11.662C7.87914 11.7053 7.90575 11.7445 7.93919 11.7775C7.97263 11.8104 8.01224 11.8365 8.05575 11.8541C8.09927 11.8717 8.14583 11.8806 8.19277 11.8802C8.23972 11.8798 8.28612 11.8701 8.32933 11.8518C8.37254 11.8334 8.41171 11.8067 8.44458 11.7732L8.46666 11.7507C8.93011 11.2872 9.4803 10.9196 10.0858 10.6688C10.6914 10.418 11.3404 10.2889 11.9958 10.2889C12.6512 10.2889 13.3002 10.4181 13.9057 10.6689C14.5112 10.9198 15.0614 11.2874 15.5248 11.7509C15.5353 11.7612 15.5448 11.7716 15.5553 11.7822ZM17.0703 10.2052L17.1019 10.2375C17.1349 10.2708 17.1741 10.2974 17.2173 10.3157C17.2606 10.3339 17.307 10.3434 17.3539 10.3437C17.4008 10.344 17.4473 10.3351 17.4907 10.3174C17.5342 10.2998 17.5738 10.2737 17.6071 10.2408C17.6405 10.2078 17.6671 10.1686 17.6853 10.1254C17.7036 10.0822 17.7131 10.0358 17.7134 9.98885C17.7137 9.94194 17.7048 9.89542 17.6871 9.85197C17.6695 9.80851 17.6434 9.76896 17.6104 9.73557C17.5978 9.72368 17.5862 9.71187 17.5747 9.70041C16.8425 8.96698 15.9729 8.38512 15.0156 7.98811C14.0583 7.5911 13.0322 7.38674 11.9958 7.38672C10.9595 7.3867 9.9333 7.59102 8.976 7.98799C8.01871 8.38497 7.14908 8.9668 6.41687 9.7002L6.39054 9.72579C6.35753 9.75911 6.33141 9.79861 6.31366 9.84202C6.29592 9.88544 6.28689 9.93192 6.28711 9.97883C6.28733 10.0257 6.29679 10.0721 6.31494 10.1154C6.33309 10.1586 6.35958 10.1979 6.3929 10.2309C6.42622 10.2639 6.46571 10.29 6.50913 10.3078C6.55254 10.3255 6.59903 10.3345 6.64593 10.3343C6.69283 10.3341 6.73923 10.3246 6.78248 10.3065C6.82573 10.2883 6.86498 10.2618 6.89799 10.2285L6.92116 10.2054C8.26709 8.85961 10.0924 8.10359 11.9957 8.10359C13.8991 8.10359 15.7244 8.85947 17.0703 10.2052Z" fill="#848B96"/>
</svg>
