<svg width="24" height="24" viewBox="0 0 24 24" fill="none" xmlns="http://www.w3.org/2000/svg">
<path d="M10.6805 5.08594C7.59563 5.08594 5.08594 7.59563 5.08594 10.6805C5.08594 13.7653 7.59563 16.275 10.6805 16.275C11.2843 16.275 11.8657 16.1779 12.4108 16C12.9552 14.3892 14.3593 12.9648 16.0008 12.4105C16.1785 11.8654 16.275 11.284 16.275 10.6804C16.275 7.59563 13.7653 5.08594 10.6805 5.08594ZM11.2992 13.7634V14.5949H10.0617V13.7648C9.1729 13.6357 8.4879 12.8689 8.4879 11.9449H9.7254C9.7254 12.2768 9.9953 12.5467 10.3271 12.5467H11.0217C11.3656 12.5467 11.6455 12.2669 11.6455 11.923C11.6455 11.5791 11.3657 11.2993 11.0217 11.2993H10.3392C9.31298 11.2993 8.478 10.4643 8.478 9.43805C8.478 8.50605 9.16659 7.732 10.0617 7.59761V6.76609H11.2992V7.60012C12.1871 7.74116 12.868 8.51191 12.868 9.43884H11.6305C11.6305 9.09448 11.3504 8.81431 11.006 8.81431H10.3392C9.9953 8.81431 9.71546 9.09411 9.71546 9.43805C9.71546 9.78196 9.99526 10.0618 10.3392 10.0618H11.0217C12.0479 10.0618 12.8829 10.8967 12.8829 11.923C12.8829 12.8549 12.1943 13.629 11.2992 13.7634Z" fill="#848B96"/>
<path d="M13.3203 17.9403C13.3203 20.4919 15.3888 22.5603 17.9403 22.5603C20.4919 22.5603 22.5603 20.4919 22.5603 17.9403C22.5603 15.3888 20.4919 13.3203 17.9403 13.3203C15.3888 13.3203 13.3203 15.3888 13.3203 17.9403ZM18.5591 20.7943H17.3216V19.5568H18.5591V20.7943ZM18.5591 18.7675H17.3216V15.0863H18.5591V18.7675Z" fill="#848B96"/>
<path d="M12.082 17.9404C12.082 17.7458 12.0914 17.5526 12.1101 17.3613C11.6486 17.46 11.17 17.5125 10.6795 17.5125C6.91226 17.5125 3.84742 14.4476 3.84742 10.6804C3.84742 6.91323 6.91226 3.8484 10.6795 3.8484C14.4466 3.8484 17.5115 6.91323 17.5115 10.6804C17.5115 11.171 17.4593 11.6496 17.3604 12.111C17.5516 12.0924 17.7448 12.0829 17.9395 12.0829C18.5689 12.0829 19.1832 12.1817 19.7647 12.3717C19.8662 11.8234 19.9195 11.2581 19.9195 10.6804C19.9195 5.57731 15.7826 1.44043 10.6795 1.44043C5.57633 1.44043 1.43945 5.57731 1.43945 10.6804C1.43945 15.7835 5.57633 19.9204 10.6795 19.9204C11.2572 19.9204 11.8224 19.8671 12.3707 19.7657C12.1807 19.1842 12.082 18.5699 12.082 17.9404Z" fill="#848B96"/>
</svg>
