<svg width="24" height="24" viewBox="0 0 24 24" fill="none" xmlns="http://www.w3.org/2000/svg">
<path opacity="0.4" d="M9.93743 3H4.31245C3.58873 3 3 3.58873 3 4.31245V7.68744C3 8.4113 3.58873 9.00003 4.31245 9.00003H9.93743C10.6613 9.00003 11.25 8.4113 11.25 7.68744V4.31245C11.25 3.58873 10.6613 3 9.93743 3Z" fill="#848B96"/>
<path d="M9.93743 10.5H4.31245C3.58873 10.5 3 11.0887 3 11.8126V19.6876C3 20.4113 3.58873 21 4.31245 21H9.93743C10.6613 21 11.25 20.4113 11.25 19.6876V11.8126C11.25 11.0887 10.6613 10.5 9.93743 10.5Z" fill="#848B96"/>
<path opacity="0.4" d="M19.6876 15H14.0626C13.3387 15 12.75 15.5887 12.75 16.3126V19.6876C12.75 20.4113 13.3387 21 14.0626 21H19.6876C20.4113 21 21 20.4113 21 19.6876V16.3126C21 15.5887 20.4113 15 19.6876 15Z" fill="#848B96"/>
<path d="M19.6876 3H14.0626C13.3387 3 12.75 3.58873 12.75 4.31245V12.1874C12.75 12.9113 13.3387 13.5 14.0626 13.5H19.6876C20.4113 13.5 21 12.9113 21 12.1874V4.31245C21 3.58873 20.4113 3 19.6876 3V3Z" fill="#848B96"/>
</svg>
