<svg width="24" height="24" viewBox="0 0 24 24" fill="none" xmlns="http://www.w3.org/2000/svg">
  <path
    d="M19.9177 3.6001H4.0823C3.39766 3.60084 2.74127 3.87314 2.25716 4.35725C1.77304 4.84137 1.50074 5.49776 1.5 6.1824V17.8178C1.50074 18.5024 1.77304 19.1588 2.25716 19.6429C2.74127 20.1271 3.39766 20.3994 4.0823 20.4001H19.9177C20.6023 20.3994 21.2587 20.1271 21.7428 19.6429C22.227 19.1588 22.4993 18.5024 22.5 17.8178V6.1824C22.4993 5.49776 22.227 4.84137 21.7428 4.35725C21.2587 3.87314 20.6023 3.60084 19.9177 3.6001ZM21.1 17.8178C21.0996 18.1312 20.9749 18.4318 20.7533 18.6534C20.5317 18.875 20.2312 18.9997 19.9177 19.0001H4.0823C3.76885 18.9997 3.46834 18.875 3.2467 18.6534C3.02505 18.4318 2.90037 18.1312 2.9 17.8178V6.1824C2.90037 5.86895 3.02505 5.56844 3.2467 5.34679C3.46834 5.12515 3.76885 5.00047 4.0823 5.0001H19.9177C20.2312 5.00047 20.5317 5.12515 20.7533 5.34679C20.9749 5.56844 21.0996 5.86895 21.1 6.1824V17.8178Z"
    fill="#8A8A98"/>
  <path
    d="M8.5 12.0001C9.05379 12.0001 9.59514 11.8359 10.0556 11.5282C10.5161 11.2205 10.8749 10.7832 11.0869 10.2716C11.2988 9.75998 11.3542 9.19699 11.2462 8.65385C11.1382 8.1107 10.8715 7.61179 10.4799 7.2202C10.0883 6.82861 9.5894 6.56194 9.04625 6.4539C8.50311 6.34586 7.94012 6.40131 7.42849 6.61324C6.91685 6.82516 6.47955 7.18405 6.17189 7.6445C5.86422 8.10496 5.7 8.64631 5.7 9.2001C5.7 9.94271 5.995 10.6549 6.5201 11.18C7.0452 11.7051 7.75739 12.0001 8.5 12.0001ZM8.5 7.8001C8.77689 7.8001 9.04757 7.88221 9.2778 8.03604C9.50803 8.18988 9.68747 8.40853 9.79343 8.66434C9.89939 8.92016 9.92712 9.20165 9.8731 9.47323C9.81908 9.7448 9.68574 9.99426 9.48995 10.19C9.29416 10.3858 9.0447 10.5192 8.77313 10.5732C8.50155 10.6272 8.22006 10.5995 7.96424 10.4935C7.70843 10.3876 7.48978 10.2081 7.33594 9.9779C7.18211 9.74767 7.1 9.47699 7.1 9.2001C7.1 8.8288 7.2475 8.4727 7.51005 8.21015C7.7726 7.9476 8.1287 7.8001 8.5 7.8001Z"
    fill="#8A8A98"/>
  <path
    d="M8.5 12.7001C7.38643 12.7012 6.31879 13.1441 5.53138 13.9315C4.74397 14.7189 4.30111 15.7865 4.3 16.9001C4.3 17.0857 4.37375 17.2638 4.50503 17.3951C4.6363 17.5263 4.81435 17.6001 5 17.6001C5.18565 17.6001 5.3637 17.5263 5.49497 17.3951C5.62625 17.2638 5.7 17.0857 5.7 16.9001C5.7 16.1575 5.995 15.4453 6.5201 14.9202C7.0452 14.3951 7.75739 14.1001 8.5 14.1001C9.24261 14.1001 9.9548 14.3951 10.4799 14.9202C11.005 15.4453 11.3 16.1575 11.3 16.9001C11.3 17.0857 11.3737 17.2638 11.505 17.3951C11.6363 17.5263 11.8143 17.6001 12 17.6001C12.1857 17.6001 12.3637 17.5263 12.495 17.3951C12.6263 17.2638 12.7 17.0857 12.7 16.9001C12.6989 15.7865 12.256 14.7189 11.4686 13.9315C10.6812 13.1441 9.61357 12.7012 8.5 12.7001Z"
    fill="#8A8A98"/>
  <path
    d="M19 11.3001H14.8C14.6143 11.3001 14.4363 11.3738 14.305 11.5051C14.1737 11.6364 14.1 11.8144 14.1 12.0001C14.1 12.1857 14.1737 12.3638 14.305 12.4951C14.4363 12.6263 14.6143 12.7001 14.8 12.7001H19C19.1856 12.7001 19.3637 12.6263 19.495 12.4951C19.6262 12.3638 19.7 12.1857 19.7 12.0001C19.7 11.8144 19.6262 11.6364 19.495 11.5051C19.3637 11.3738 19.1856 11.3001 19 11.3001Z"
    fill="#8A8A98"/>
  <path
    d="M19 14.8001H14.8C14.6143 14.8001 14.4363 14.8738 14.305 15.0051C14.1737 15.1364 14.1 15.3144 14.1 15.5001C14.1 15.6857 14.1737 15.8638 14.305 15.9951C14.4363 16.1263 14.6143 16.2001 14.8 16.2001H19C19.1856 16.2001 19.3637 16.1263 19.495 15.9951C19.6262 15.8638 19.7 15.6857 19.7 15.5001C19.7 15.3144 19.6262 15.1364 19.495 15.0051C19.3637 14.8738 19.1856 14.8001 19 14.8001Z"
    fill="#8A8A98"/>
  <path
    d="M19 7.8001H14.8C14.6143 7.8001 14.4363 7.87385 14.305 8.00512C14.1737 8.1364 14.1 8.31445 14.1 8.5001C14.1 8.68575 14.1737 8.8638 14.305 8.99507C14.4363 9.12635 14.6143 9.2001 14.8 9.2001H19C19.1856 9.2001 19.3637 9.12635 19.495 8.99507C19.6262 8.8638 19.7 8.68575 19.7 8.5001C19.7 8.31445 19.6262 8.1364 19.495 8.00512C19.3637 7.87385 19.1856 7.8001 19 7.8001Z"
    fill="#8A8A98"/>
</svg>
