<svg width="24" height="24" viewBox="0 0 24 24" fill="none" xmlns="http://www.w3.org/2000/svg">
  <path fill-rule="evenodd" clip-rule="evenodd"
        d="M6 4.75C4.75736 4.75 3.75 5.75736 3.75 7V17C3.75 18.2426 4.75736 19.25 6 19.25H18C19.2426 19.25 20.25 18.2426 20.25 17V7C20.25 5.75736 19.2426 4.75 18 4.75H6ZM2.25 7C2.25 4.92893 3.92893 3.25 6 3.25H18C20.0711 3.25 21.75 4.92893 21.75 7V17C21.75 19.0711 20.0711 20.75 18 20.75H6C3.92893 20.75 2.25 19.0711 2.25 17V7ZM9 8.75C8.30964 8.75 7.75 9.30964 7.75 10C7.75 10.6904 8.30964 11.25 9 11.25C9.69036 11.25 10.25 10.6904 10.25 10C10.25 9.30964 9.69036 8.75 9 8.75ZM6.25 10C6.25 8.48122 7.48122 7.25 9 7.25C10.5188 7.25 11.75 8.48122 11.75 10C11.75 11.5188 10.5188 12.75 9 12.75C7.48122 12.75 6.25 11.5188 6.25 10ZM14.25 8C14.25 7.58579 14.5858 7.25 15 7.25H17C17.4142 7.25 17.75 7.58579 17.75 8C17.75 8.41421 17.4142 8.75 17 8.75H15C14.5858 8.75 14.25 8.41421 14.25 8ZM14.25 12C14.25 11.5858 14.5858 11.25 15 11.25H17C17.4142 11.25 17.75 11.5858 17.75 12C17.75 12.4142 17.4142 12.75 17 12.75H15C14.5858 12.75 14.25 12.4142 14.25 12ZM6.25 16C6.25 15.5858 6.58579 15.25 7 15.25H17C17.4142 15.25 17.75 15.5858 17.75 16C17.75 16.4142 17.4142 16.75 17 16.75H7C6.58579 16.75 6.25 16.4142 6.25 16Z"
        fill="#8A8A98"/>
</svg>
