<svg width="24" height="24" viewBox="0 0 24 24" fill="none" xmlns="http://www.w3.org/2000/svg">
  <path
    d="M7.10616 8.04142H4.73947C4.56443 8.04142 4.39655 8.11096 4.27278 8.23473C4.149 8.3585 4.07947 8.52638 4.07947 8.70142C4.07947 8.87646 4.149 9.04434 4.27278 9.16811C4.39655 9.29189 4.56443 9.36142 4.73947 9.36142H8.69947C8.87451 9.36142 9.04238 9.29189 9.16616 9.16811C9.28993 9.04434 9.35947 8.87646 9.35947 8.70142V4.74142C9.35947 4.56638 9.28993 4.3985 9.16616 4.27473C9.04238 4.15096 8.87451 4.08142 8.69947 4.08142C8.52443 4.08142 8.35655 4.15096 8.23278 4.27473C8.109 4.3985 8.03947 4.56638 8.03947 4.74142V7.10812L3.88609 2.9548C3.76161 2.83458 3.59489 2.76805 3.42184 2.76956C3.24879 2.77106 3.08326 2.84047 2.96089 2.96284C2.83852 3.08521 2.76911 3.25075 2.7676 3.4238C2.7661 3.59685 2.83262 3.76356 2.95285 3.88804L7.10616 8.04142Z"
    fill="#848B96"/>
  <path
    d="M8.70006 14.6406H4.74006C4.56502 14.6406 4.39715 14.7102 4.27337 14.8339C4.1496 14.9577 4.08006 15.1256 4.08006 15.3006C4.08006 15.4757 4.1496 15.6435 4.27337 15.7673C4.39715 15.8911 4.56502 15.9606 4.74006 15.9606H7.10676L2.95344 20.114C2.89041 20.1749 2.84013 20.2477 2.80554 20.3282C2.77095 20.4088 2.75274 20.4954 2.75198 20.583C2.75122 20.6706 2.76792 20.7575 2.8011 20.8387C2.83429 20.9198 2.88329 20.9935 2.94526 21.0554C3.00723 21.1174 3.08092 21.1664 3.16203 21.1996C3.24315 21.2328 3.33005 21.2495 3.41769 21.2487C3.50532 21.2479 3.59193 21.2297 3.67245 21.1952C3.75297 21.1606 3.8258 21.1103 3.88668 21.0472L8.04006 16.8939V19.2606C8.04006 19.4357 8.1096 19.6035 8.23337 19.7273C8.35715 19.8511 8.52502 19.9206 8.70006 19.9206C8.87511 19.9206 9.04298 19.8511 9.16675 19.7273C9.29053 19.6035 9.36006 19.4357 9.36006 19.2606V15.3006C9.36006 15.1256 9.29053 14.9577 9.16675 14.8339C9.04298 14.7102 8.87511 14.6406 8.70006 14.6406Z"
    fill="#848B96"/>
  <path
    d="M15.3006 9.36006H19.2606C19.4357 9.36006 19.6035 9.29053 19.7273 9.16675C19.8511 9.04298 19.9206 8.87511 19.9206 8.70006C19.9206 8.52502 19.8511 8.35715 19.7273 8.23337C19.6035 8.1096 19.4357 8.04006 19.2606 8.04006H16.8939L21.0472 3.88668C21.1103 3.8258 21.1606 3.75297 21.1952 3.67245C21.2297 3.59193 21.2479 3.50532 21.2487 3.41769C21.2495 3.33005 21.2328 3.24315 21.1996 3.16203C21.1664 3.08092 21.1174 3.00723 21.0554 2.94526C20.9935 2.88329 20.9198 2.83429 20.8387 2.8011C20.7575 2.76792 20.6706 2.75122 20.583 2.75198C20.4954 2.75274 20.4088 2.77095 20.3282 2.80554C20.2477 2.84013 20.1749 2.89041 20.114 2.95344L15.9606 7.10676V4.74006C15.9606 4.56502 15.8911 4.39715 15.7673 4.27337C15.6435 4.1496 15.4757 4.08006 15.3006 4.08006C15.1256 4.08006 14.9577 4.1496 14.8339 4.27337C14.7102 4.39715 14.6406 4.56502 14.6406 4.74006V8.70006C14.6406 8.87511 14.7102 9.04298 14.8339 9.16675C14.9577 9.29053 15.1256 9.36006 15.3006 9.36006Z"
    fill="#848B96"/>
  <path
    d="M16.8939 15.9606H19.2606C19.4357 15.9606 19.6035 15.8911 19.7273 15.7673C19.8511 15.6435 19.9206 15.4757 19.9206 15.3006C19.9206 15.1256 19.8511 14.9577 19.7273 14.8339C19.6035 14.7102 19.4357 14.6406 19.2606 14.6406H15.3006C15.1256 14.6406 14.9577 14.7102 14.8339 14.8339C14.7102 14.9577 14.6406 15.1256 14.6406 15.3006V19.2606C14.6406 19.4357 14.7102 19.6035 14.8339 19.7273C14.9577 19.8511 15.1256 19.9206 15.3006 19.9206C15.4757 19.9206 15.6435 19.8511 15.7673 19.7273C15.8911 19.6035 15.9606 19.4357 15.9606 19.2606V16.8939L20.114 21.0472C20.2385 21.1675 20.4052 21.234 20.5782 21.2325C20.7513 21.231 20.9168 21.1616 21.0392 21.0392C21.1616 20.9168 21.231 20.7513 21.2325 20.5782C21.234 20.4052 21.1675 20.2385 21.0472 20.114L16.8939 15.9606Z"
    fill="#848B96"/>
  <path
    d="M12.0013 14.6394C13.4593 14.6394 14.6413 13.4574 14.6413 11.9994C14.6413 10.5413 13.4593 9.35938 12.0013 9.35938C10.5433 9.35938 9.36133 10.5413 9.36133 11.9994C9.36133 13.4574 10.5433 14.6394 12.0013 14.6394Z"
    fill="#848B96"/>
</svg>
