<svg width="24" height="24" viewBox="0 0 24 24" fill="none" xmlns="http://www.w3.org/2000/svg">
  <path
    d="M21.7846 19.0425L13.4139 3.81774C13.2012 3.4313 12.8094 3.2002 12.3663 3.2002C11.9233 3.2002 11.5315 3.4313 11.3187 3.81774L2.94805 19.0425C2.74527 19.4136 2.75214 19.8513 2.96718 20.214C3.18375 20.5813 3.56865 20.8002 3.99638 20.8002H20.7362C21.164 20.8002 21.5489 20.5813 21.7655 20.214C21.9805 19.8513 21.9874 19.4136 21.7846 19.0425ZM12.1773 9.33801C12.2416 9.32729 12.3051 9.32194 12.3679 9.32194C12.9188 9.32194 13.4047 9.71604 13.4981 10.2708C13.5203 10.3971 13.518 10.5256 13.4981 10.645L12.7436 15.1269C12.7122 15.3121 12.55 15.4437 12.3671 15.4437C12.3464 15.4437 12.3242 15.4421 12.3035 15.4383C12.1375 15.4108 12.015 15.2822 11.989 15.1269L11.2346 10.645C11.1297 10.0259 11.5529 9.44054 12.1773 9.33801ZM12.3663 18.5045C11.7335 18.5045 11.2185 17.9896 11.2185 17.3567C11.2185 16.7238 11.7335 16.2089 12.3663 16.2089C12.9992 16.2089 13.5142 16.7239 13.5142 17.3567C13.5142 17.9895 12.9991 18.5045 12.3663 18.5045Z"
    fill="#848B96"/>
</svg>
