<svg width="24" height="24" viewBox="0 0 24 24" fill="none" xmlns="http://www.w3.org/2000/svg">
<path d="M8.53895 10.8403H6.87158L4.59789 8.46552C4.09263 7.93499 3.36 7.63184 2.62737 7.63184H0V15.2866H4.97684C5.12842 16.4992 6.13895 17.4087 7.4021 17.4087C8.66526 17.4087 9.65053 16.4739 9.8021 15.2866H10.4337C10.9137 15.2866 11.2926 14.9076 11.2926 14.4529V13.6192C11.2926 12.0782 10.0547 10.8403 8.53895 10.8403ZM1.44 10.8403V8.97078H2.62737C3.00632 8.97078 3.36 9.12236 3.61263 9.40026L5.0021 10.8403H1.44ZM7.4021 16.0697C6.79579 16.0697 6.31579 15.5897 6.31579 14.9834C6.31579 14.3771 6.79579 13.8971 7.4021 13.8971C8.00842 13.8971 8.48842 14.3771 8.48842 14.9834C8.48842 15.5645 8.00842 16.0697 7.4021 16.0697Z" fill="#848B96"/>
<path d="M21.3723 7.60645C20.6397 7.60645 19.9323 7.9096 19.4018 8.44013L17.1281 10.8149H15.4607C13.9449 10.8149 12.707 12.0528 12.707 13.5685V14.4022C12.707 14.857 13.086 15.2359 13.566 15.2359H14.1976C14.3491 16.4485 15.3597 17.358 16.5976 17.358C17.8355 17.358 18.846 16.4233 19.0228 15.2359H23.9997V7.60645H21.3723ZM16.5976 16.0696C15.9912 16.0696 15.5112 15.5896 15.5112 14.9833C15.5112 14.377 15.9912 13.897 16.5976 13.897C17.2039 13.897 17.6839 14.377 17.6839 14.9833C17.6839 15.5643 17.2039 16.0696 16.5976 16.0696ZM22.5597 10.8401H18.9976L20.387 9.40013C20.6397 9.1475 20.9933 8.97066 21.3723 8.97066H22.5597V10.8401Z" fill="#848B96"/>
<path d="M11.999 7C11.6706 7 11.418 7.25263 11.418 7.58105V8.86947C11.418 9.19789 11.6706 9.45053 11.999 9.45053C12.3274 9.45053 12.5801 9.19789 12.5801 8.86947V7.58105C12.5801 7.25263 12.3274 7 11.999 7Z" fill="#848B96"/>
<path d="M9.24677 9.75322C9.34782 9.93006 9.54993 10.0311 9.75204 10.0311C9.85309 10.0311 9.95414 10.0059 10.0299 9.95533C10.3078 9.80375 10.4089 9.45006 10.232 9.17217L9.57519 8.06059C9.42362 7.7827 9.06993 7.68164 8.79204 7.85849C8.51414 8.01006 8.41309 8.36375 8.58993 8.64164L9.24677 9.75322Z" fill="#848B96"/>
<path d="M13.9697 9.95582C14.0707 10.0063 14.1718 10.0316 14.2475 10.0316C14.4497 10.0316 14.6518 9.93056 14.7528 9.75372L15.4097 8.64214C15.5612 8.36424 15.4854 8.01056 15.2075 7.85898C14.9297 7.7074 14.576 7.78319 14.4244 8.06108L13.7423 9.17266C13.5907 9.45056 13.6918 9.80424 13.9697 9.95582Z" fill="#848B96"/>
</svg>
