<svg width="31" height="29" viewBox="0 0 31 29" fill="none" xmlns="http://www.w3.org/2000/svg">
  <path
    d="M0.666504 0.500001H29.3735C29.505 0.49978 29.6342 0.53412 29.7482 0.599579C29.8622 0.665037 29.957 0.759314 30.0231 0.872959C30.0892 0.986605 30.1242 1.11563 30.1248 1.24709C30.1253 1.37856 30.0912 1.50785 30.026 1.622L24.6665 11L30.026 20.378C30.0912 20.4922 30.1253 20.6214 30.1248 20.7529C30.1242 20.8844 30.0892 21.0134 30.0231 21.127C29.957 21.2407 29.8622 21.335 29.7482 21.4004C29.6342 21.4659 29.505 21.5002 29.3735 21.5H3.6665V29H0.666504V0.500001Z"
    fill="#459FF2"/>
</svg>
