<svg width="24" height="24" viewBox="0 0 24 24" fill="none" xmlns="http://www.w3.org/2000/svg">
<path d="M24 9.37911H0V4.55151C0 4.32299 0.185297 4.1377 0.413812 4.1377H23.5862C23.8147 4.1377 24 4.32299 24 4.55151L24 9.37911Z" fill="#FAB446"/>
<path d="M23.5861 19.8614H0.413812C0.185297 19.8614 0 19.6761 0 19.4476V14.6201H24V19.4476C24 19.6762 23.8147 19.8614 23.5861 19.8614Z" fill="#73AF00"/>
<path d="M24 9.37911H0V14.6201H24V9.37911Z" fill="#F5F5F5"/>
<path d="M12.0004 14.2231C10.7739 14.2231 9.77626 13.2254 9.77626 11.999C9.77626 10.7726 10.7739 9.77491 12.0004 9.77491C13.2268 9.77491 14.2245 10.7726 14.2245 11.999C14.2245 13.2254 13.2268 14.2231 12.0004 14.2231ZM12.0004 10.1887C11.002 10.1887 10.19 11.0007 10.19 11.999C10.19 12.9974 11.002 13.8094 12.0004 13.8094C12.9987 13.8094 13.8107 12.9974 13.8107 11.999C13.8107 11.0007 12.9987 10.1887 12.0004 10.1887Z" fill="#41479B"/>
<path d="M12 12.2512C12.1392 12.2512 12.2521 12.1384 12.2521 11.9991C12.2521 11.8598 12.1392 11.7469 12 11.7469C11.8607 11.7469 11.7478 11.8598 11.7478 11.9991C11.7478 12.1384 11.8607 12.2512 12 12.2512Z" fill="#41479B"/>
<path d="M12.0007 12.0365L11.3599 12.1012L9.98348 12.0365V11.9608L11.3599 11.8961L12.0007 11.9608V12.0365Z" fill="#41479B"/>
<path d="M12.0007 12.0365L12.6408 12.1012L14.0172 12.0365V11.9608L12.6408 11.8961L12.0007 11.9608V12.0365Z" fill="#41479B"/>
<path d="M11.9626 11.9989L11.8979 11.3581L11.9626 9.98164H12.0383L12.103 11.3581L12.0383 11.9989H11.9626Z" fill="#41479B"/>
<path d="M11.9626 11.9989L11.8979 12.6394L11.9626 14.0159H12.0383L12.103 12.6394L12.0383 11.9989H11.9626Z" fill="#41479B"/>
<path d="M11.9733 12.0254L11.4744 11.6181L10.5469 10.599L10.6003 10.5455L11.6194 11.4731L12.0267 11.9719L11.9733 12.0254Z" fill="#41479B"/>
<path d="M11.9733 12.0254L12.381 12.5246L13.4 13.4522L13.4535 13.3987L12.526 12.3796L12.0267 11.9719L11.9733 12.0254Z" fill="#41479B"/>
<path d="M11.9737 11.9719L12.381 11.4731L13.4 10.5455L13.4535 10.599L12.526 11.6181L12.0271 12.0254L11.9737 11.9719Z" fill="#41479B"/>
<path d="M11.9737 11.9719L11.4744 12.3796L10.5469 13.3987L10.6003 13.4522L11.6194 12.5246L12.0271 12.0254L11.9737 11.9719Z" fill="#41479B"/>
<path d="M12.0149 12.0336L11.4476 12.3386L10.1513 12.8056L10.1223 12.7357L11.3692 12.1492L11.986 11.9637L12.0149 12.0336Z" fill="#41479B"/>
<path d="M12.0149 12.0336L12.6317 11.8489L13.8786 11.2624L13.8496 11.1925L12.5533 11.6595L11.986 11.9637L12.0149 12.0336Z" fill="#41479B"/>
<path d="M11.9653 12.0136L11.6603 11.4463L11.1934 10.1499L11.2633 10.1209L11.8498 11.3679L12.0353 11.9846L11.9653 12.0136Z" fill="#41479B"/>
<path d="M11.9653 12.0136L12.1505 12.6299L12.737 13.8768L12.8069 13.8478L12.3399 12.5515L12.0353 11.9846L11.9653 12.0136Z" fill="#41479B"/>
<path d="M11.986 12.0344L11.3692 11.8489L10.1223 11.2624L10.1513 11.1925L11.4476 11.6595L12.0149 11.9645L11.986 12.0344Z" fill="#41479B"/>
<path d="M11.986 12.0344L12.5533 12.3386L13.8496 12.8056L13.8786 12.7357L12.6317 12.1492L12.0149 11.9645L11.986 12.0344Z" fill="#41479B"/>
<path d="M11.965 11.9846L12.1505 11.3679L12.737 10.1209L12.8069 10.1499L12.3399 11.4463L12.035 12.0136L11.965 11.9846Z" fill="#41479B"/>
<path d="M11.965 11.9846L11.6603 12.5515L11.1934 13.8478L11.2633 13.8768L11.8498 12.6299L12.035 12.0136L11.965 11.9846Z" fill="#41479B"/>
<path d="M12 12.3397C12.1878 12.3397 12.3401 12.1874 12.3401 11.9996C12.3401 11.8117 12.1878 11.6594 12 11.6594C11.8121 11.6594 11.6598 11.8117 11.6598 11.9996C11.6598 12.1874 11.8121 12.3397 12 12.3397Z" fill="#F5F5F5"/>
<path d="M11.9992 12.2037C12.1119 12.2037 12.2032 12.1124 12.2032 11.9998C12.2032 11.8871 12.1119 11.7958 11.9992 11.7958C11.8866 11.7958 11.7953 11.8871 11.7953 11.9998C11.7953 12.1124 11.8866 12.2037 11.9992 12.2037Z" fill="#41479B"/>
</svg>
