<svg width="24" height="24" viewBox="0 0 24 24" fill="none" xmlns="http://www.w3.org/2000/svg">
<path d="M3.00976 3L3.00977 21C3.00977 22.1 3.90977 23 5.00977 23L8.99977 23L8.99977 21L4.98977 21L4.98976 3L19.0198 3L19.0198 21L14.9998 21L14.9998 23L19.0098 23C20.1098 23 20.9898 22.1 20.9898 21L20.9898 3C20.9898 1.9 20.1098 0.999999 19.0098 0.999999L5.00976 1C3.89976 1 3.00976 1.9 3.00976 3ZM15.9998 13L11.9998 9L7.99976 13L10.9998 13L10.9998 23L12.9998 23L12.9998 13L15.9998 13Z" fill="#848B96"/>
</svg>
