<svg width="24" height="24" viewBox="0 0 24 24" fill="none" xmlns="http://www.w3.org/2000/svg">
  <path
    d="M18.3629 3.52529C17.1993 2.65435 15.5434 2.89101 14.6719 4.05303C13.7996 5.21611 14.0363 6.87249 15.1992 7.7448C15.3859 7.88509 15.5283 8.06651 15.6176 8.27219H15.1641C14.2917 8.27219 13.582 7.56243 13.582 6.69001H12.5273C12.5273 7.5517 12.9428 8.31808 13.5839 8.79959C12.9428 9.28107 12.5273 10.0475 12.5273 10.9092V13.6544C12.3551 13.6291 12.1789 13.6165 12 13.6165C11.8211 13.6165 11.6449 13.6291 11.4727 13.6544V10.9092C11.4727 10.0475 11.0572 9.28107 10.4161 8.79959C11.0572 8.31811 11.4727 7.5517 11.4727 6.69001H10.418C10.418 7.56243 9.70827 8.27219 8.83594 8.27219H8.38242C8.47172 8.06651 8.6141 7.88509 8.80113 7.7448C9.96375 6.87249 10.2004 5.21611 9.32812 4.05268C8.4566 2.89101 6.80074 2.65435 5.63637 3.52564C3.96082 4.7826 3 6.70478 3 8.79959C3 10.8944 3.96082 12.8166 5.63637 14.0735L5.63672 14.0739C6.80145 14.9462 8.45695 14.7068 9.32812 13.5461C10.2004 12.3831 9.96375 10.7267 8.80078 9.85438C8.6141 9.71409 8.47172 9.53267 8.38242 9.32698H8.83594C9.70827 9.32698 10.418 10.0368 10.418 10.9092V13.9733C9.17168 14.5665 8.30859 15.8386 8.30859 17.3082C8.30859 19.344 9.96445 21 12 21C14.0355 21 15.6914 19.344 15.6914 17.3082C15.6914 15.8386 14.8283 14.5665 13.582 13.9733V10.9092C13.582 10.0368 14.2917 9.32702 15.1641 9.32702H15.6176C15.5283 9.5327 15.3859 9.71413 15.1989 9.85441C14.0363 10.7267 13.7996 12.3831 14.6719 13.5465C15.5423 14.7061 17.1979 14.9469 18.3633 14.0739L18.3636 14.0736C20.0392 12.8166 21 10.8944 21 8.79962C21 6.70481 20.0392 4.7826 18.3629 3.52529ZM13.582 17.8356H12.5273V18.8904H11.4727V17.8356H10.418V16.7808H11.4727V15.726H12.5273V16.7808H13.582V17.8356Z"
    fill="#848B96"/>
</svg>
