<svg width="24" height="24" viewBox="0 0 24 24" fill="none" xmlns="http://www.w3.org/2000/svg">
<path d="M14.6385 3.20043H9.35852C8.87276 3.20043 8.47852 2.80619 8.47852 2.32043C8.47852 1.83467 8.87276 1.44043 9.35852 1.44043H14.6385C15.1243 1.44043 15.5185 1.83467 15.5185 2.32043C15.5185 2.80619 15.1243 3.20043 14.6385 3.20043Z" fill="#848B96"/>
<path d="M16.7674 22.5609H8.0149C5.26314 22.5609 3.32978 21.0886 3.2057 18.8965C3.1573 18.0403 3.38082 17.2131 3.85338 16.5056L8.8949 9.17694C9.19762 8.7343 9.35866 8.21686 9.35866 7.68006V2.76086C9.35866 2.2751 9.7529 1.88086 10.2387 1.88086C10.7244 1.88086 11.1187 2.2751 11.1187 2.76086V7.68006C11.1187 8.57502 10.8503 9.43742 10.3434 10.174L5.30978 17.4921C5.0581 17.8696 4.93578 18.3237 4.96218 18.7962C5.0317 20.0141 6.22938 20.8009 8.0149 20.8009H16.7683C17.9554 20.8009 18.9727 19.9024 19.0351 18.7971C19.0624 18.3245 18.9401 17.8705 18.6805 17.4824L13.6539 10.174C13.1471 9.43742 12.8787 8.57502 12.8787 7.68006V2.76086C12.8787 2.2751 13.2729 1.88086 13.7587 1.88086C14.2444 1.88086 14.6387 2.2751 14.6387 2.76086V7.68006C14.6387 8.21686 14.7997 8.7343 15.1033 9.17606L20.1369 16.4941C20.6165 17.2122 20.84 18.0394 20.7916 18.8957C20.6755 20.9513 18.9075 22.5609 16.7674 22.5609Z" fill="#848B96"/>
<path d="M16.2632 19.0408H7.73427C7.17459 19.0408 6.71875 18.6035 6.71875 18.0667C6.71875 17.8563 6.78739 17.6566 6.91763 17.4876C6.92907 17.4727 6.94139 17.4577 6.95459 17.4436L9.44235 14.1999C9.56027 14.0468 9.73891 13.9527 9.93251 13.943C10.0918 13.9351 10.2458 13.8981 10.3672 13.8391L10.9163 13.5655C11.5763 13.2434 12.4229 13.2425 13.0785 13.5628L13.6382 13.8418C13.7535 13.8972 13.9075 13.9342 14.0667 13.943C14.2595 13.9527 14.439 14.0468 14.5569 14.1999L17.0447 17.4427C17.0579 17.4568 17.0702 17.4718 17.0816 17.4867C17.2101 17.6557 17.2787 17.8563 17.2787 18.0667C17.2787 18.6035 16.8229 19.0408 16.2632 19.0408Z" fill="#848B96"/>
</svg>
