<svg width="24" height="24" viewBox="0 0 24 24" fill="none" xmlns="http://www.w3.org/2000/svg">
  <path fill-rule="evenodd" clip-rule="evenodd"
        d="M17.7305 9.40406L19.7723 12.457H14.1094C12.6553 12.457 11.4727 13.64 11.4727 15.0938V21H3V20.0902C3 18.8393 3.8898 17.7523 5.11605 17.5051L5.13961 17.5009L9.27891 16.8632C9.04652 14.9261 8.33742 13.7743 7.16355 12.0049C6.53285 11.0546 6.19922 9.94652 6.19922 8.80078C6.19922 5.60227 8.80148 3 12 3C14.9493 3 17.3332 5.21098 17.7252 7.94895L17.7305 7.98621V9.40406ZM18.8688 17.5048L18.8804 17.5072C20.1084 17.7526 21 18.84 21 20.0926V21H12.5273V15.0938C12.5273 14.2215 13.2371 13.5117 14.1094 13.5117H17.8008V14.0742C17.8008 14.9464 17.091 15.6562 16.2188 15.6562H14.6367V16.8558L18.8688 17.5048Z"
        fill="#848B96"/>
</svg>
