<svg width="25" height="24" viewBox="0 0 25 24" fill="none" xmlns="http://www.w3.org/2000/svg">
  <path
    d="M1.63197 4.65031C1.74928 4.18156 2.35754 4.01527 2.71442 4.35791L5.08885 6.63861H6.91299V4.88743L4.5417 2.61218C4.18649 2.27119 4.35769 1.68788 4.84353 1.57365C5.96483 1.31004 7.78424 1.3494 9.19091 2.69935C10.4216 3.88083 10.817 5.64438 10.2386 7.20579L17.4947 14.1717C19.1212 13.6165 20.9582 13.996 22.1889 15.1775C23.5598 16.4935 23.6405 18.2582 23.3667 19.3526C23.2494 19.8213 22.6411 19.9876 22.2842 19.645L19.9098 17.3643H18.0856V19.1154L20.4563 21.3901C20.8116 21.7311 20.6402 22.3146 20.1543 22.4286C19.0335 22.6918 17.2147 22.6537 15.8078 21.3035C14.5771 20.122 14.1817 18.3584 14.7601 16.797L7.50394 9.83111C5.87747 10.3864 4.04086 10.0068 2.80973 8.82537C1.43885 7.50941 1.35811 5.74471 1.63197 4.65031Z"
    fill="#848B96"/>
  <path
    d="M12.4993 16.3766L7.00027 21.6553C5.89977 22.7118 4.19466 22.8434 2.94419 22.0489L7.91212 17.2801C8.16351 17.0383 8.16351 16.6464 7.91212 16.4047C7.66031 16.1634 7.25208 16.1634 7.00027 16.4047L2.03276 21.1739C1.20513 19.9735 1.34178 18.3366 2.44271 17.2801L7.94134 12.001L12.4993 16.3766Z"
    fill="#848B96"/>
  <path
    d="M23.4318 3.21096L21.6085 6.71125C21.514 6.89318 21.3326 7.01859 21.1229 7.04746L18.1454 7.45545L15.2337 10.2507L14.3223 9.37576L17.2336 6.58089L17.659 3.72208C17.6891 3.52077 17.8197 3.34669 18.0092 3.25593L21.6554 1.50558C21.9033 1.38677 22.2033 1.43339 22.3992 1.6215L23.3111 2.49688C23.507 2.68499 23.5556 2.97294 23.4318 3.21096Z"
    fill="#848B96"/>
</svg>
