<svg width="48" height="48" viewBox="0 0 48 48" fill="none" xmlns="http://www.w3.org/2000/svg">
<path d="M24.0008 23.1199C21.9707 23.1199 19.6008 22.6588 19.6008 21.3599C19.6008 20.0611 21.9707 19.5999 24.0008 19.5999C26.031 19.5999 28.4008 20.0611 28.4008 21.3599C28.4008 22.6588 26.031 23.1199 24.0008 23.1199Z" fill="#8A8A98"/>
<path d="M25.4361 34.5599H22.5647C21.7665 34.5599 21.0607 33.9941 20.8865 33.2153L20.5495 31.7219C20.0162 31.4861 19.504 31.1895 19.02 30.8358L17.5592 31.2951C16.7769 31.5354 15.9312 31.2045 15.5396 30.5084L14.1096 28.0444C13.711 27.336 13.8447 26.4657 14.4291 25.9175L15.5643 24.8782C15.5343 24.5816 15.5203 24.2877 15.5203 23.9999C15.5203 23.7122 15.5352 23.4183 15.5643 23.1217L14.437 22.0903C13.8447 21.5342 13.7119 20.6639 14.1043 19.966L15.5458 17.4809C15.933 16.7945 16.7804 16.4636 17.5557 16.7039L19.02 17.1641C19.504 16.8103 20.0162 16.5138 20.5495 16.2779L20.8874 14.7828C21.0607 14.0058 21.7665 13.4399 22.5655 13.4399H25.437C26.2351 13.4399 26.9409 14.0058 27.1151 14.7846L27.4522 16.2779C27.9855 16.5138 28.4976 16.8095 28.9816 17.1641L30.4424 16.7047C31.2239 16.4627 32.0695 16.7954 32.462 17.4915L33.892 19.9563C34.2907 20.6647 34.1569 21.5351 33.5726 22.0833L32.4374 23.1226C32.4673 23.4191 32.4814 23.7131 32.4814 24.0008C32.4814 24.2886 32.4664 24.5825 32.4374 24.8791L33.5638 25.9104C33.5664 25.9122 33.5691 25.9148 33.5717 25.9175C34.156 26.4657 34.2889 27.336 33.8964 28.0347L32.455 30.5199C32.0678 31.2063 31.2221 31.538 30.4451 31.2969L28.9799 30.8367C28.4959 31.1904 27.9846 31.487 27.4504 31.7228L27.1125 33.2179C26.9409 33.9941 26.2351 34.5599 25.4361 34.5599ZM19.1951 28.9781C19.3967 28.9781 19.5947 29.0467 19.7539 29.1779C20.3268 29.6487 20.9516 30.0103 21.6107 30.2532C21.8906 30.3562 22.0991 30.5947 22.1651 30.8851L22.6043 32.829L25.4361 32.7999L25.8365 30.8851C25.9025 30.5938 26.1111 30.3562 26.3909 30.2532C27.0509 30.0103 27.6748 29.6487 28.2477 29.1779C28.4774 28.9895 28.788 28.9315 29.0705 29.0186L30.9704 29.6161L32.3538 27.1873L30.9141 25.8691C30.6976 25.6711 30.5947 25.3789 30.6387 25.0903C30.6941 24.7207 30.7223 24.3537 30.7223 23.9999C30.7223 23.6462 30.6941 23.2792 30.6387 22.9096C30.5955 22.6201 30.6985 22.3279 30.9141 22.1308L32.3758 20.7923L30.9335 18.3644L29.0705 18.9813C28.7863 19.0693 28.4765 19.0103 28.2477 18.822C27.6748 18.3512 27.05 17.9895 26.3909 17.7467C26.1111 17.6437 25.9025 17.4052 25.8365 17.1148L25.3974 15.1709L22.5655 15.1999L22.1651 17.1148C22.0991 17.4061 21.8906 17.6437 21.6107 17.7467C20.9507 17.9895 20.3268 18.3512 19.7539 18.822C19.5243 19.0112 19.2154 19.0702 18.9311 18.9813L17.0312 18.3838L15.6329 20.839L17.0875 22.1299C17.304 22.3279 17.407 22.6201 17.363 22.9087C17.3075 23.2792 17.2794 23.6462 17.2794 23.9999C17.2794 24.3537 17.3075 24.7207 17.363 25.0903C17.4061 25.3798 17.3031 25.6719 17.0875 25.8691L15.6259 27.2075L17.0682 29.6355L18.9311 29.0186C19.0174 28.9913 19.1063 28.9781 19.1951 28.9781Z" fill="#8A8A98"/>
<path d="M24.0008 24.4399C22.0833 24.4399 20.5838 24.1073 19.6008 23.5045V23.9999C19.6008 25.2988 21.9707 25.7599 24.0008 25.7599C26.031 25.7599 28.4008 25.2988 28.4008 23.9999V23.5045C27.417 24.1073 25.9183 24.4399 24.0008 24.4399Z" fill="#8A8A98"/>
<path d="M24.0008 27.0799C22.0833 27.0799 20.5838 26.7473 19.6008 26.1445V26.6399C19.6008 27.9388 21.9707 28.3999 24.0008 28.3999C26.031 28.3999 28.4008 27.9388 28.4008 26.6399V26.1445C27.417 26.7473 25.9183 27.0799 24.0008 27.0799Z" fill="#8A8A98"/>
</svg>
