<svg width="24" height="24" viewBox="0 0 24 24" fill="none" xmlns="http://www.w3.org/2000/svg">
<path d="M16.9815 6.10037C16.9815 9.69974 16.982 9.47523 16.9804 9.51298C16.9717 9.7179 16.6759 9.70763 16.6759 9.5025V8.14356C16.6759 6.73763 15.5793 5.59356 14.2315 5.59356H10.7685C9.42095 5.59356 8.32407 6.73738 8.32407 8.14356V9.5025C8.32407 9.7076 8.02823 9.71787 8.0196 9.51298C8.01801 9.47523 8.01852 9.70657 8.01852 6.01042C8.01852 5.3924 8.45444 4.8785 9.02244 4.78571C9.50997 3.69523 10.5489 3 11.714 3H14.0094C15.6509 3 16.9815 4.38809 16.9815 6.10037ZM14.2315 6.16023H10.7685C9.72012 6.16023 8.86728 7.05025 8.86728 8.14356C8.86728 8.15189 8.86708 10.4933 8.86762 10.5016C8.89852 12.5639 10.5163 14.2313 12.5 14.2313C14.4936 14.2313 16.1171 12.5476 16.1327 10.4715V8.14356C16.1327 7.0499 15.2799 6.16023 14.2315 6.16023ZM15.3858 15.286V16.3376C15.3858 16.4593 15.4603 16.5678 15.571 16.6059C16.1529 16.8064 16.5741 17.3788 16.5741 18.0521V19.3528C16.5741 19.5037 16.4649 19.6355 16.3205 19.6452C16.1624 19.6559 16.0309 19.5252 16.0309 19.3625V18.0724C16.0309 17.5521 15.6405 17.1117 15.1419 17.0963C14.6239 17.0802 14.1975 17.5152 14.1975 18.0521V19.3528C14.1975 19.5037 14.0884 19.6355 13.944 19.6452C13.7858 19.6559 13.6543 19.5252 13.6543 19.3625V18.0521C13.6543 17.3788 14.0755 16.8064 14.6574 16.6059C14.7682 16.5678 14.8426 16.4593 14.8426 16.3376V15.1174C14.8426 15.0497 14.7671 15.0119 14.7163 15.0523C12.4948 16.8189 12.6269 16.7425 12.5002 16.7417C12.3679 16.7409 12.5197 16.8302 10.2834 15.0521C10.2344 15.0132 10.1574 15.0471 10.1574 15.1172V16.7258C10.1574 16.8352 10.2175 16.9355 10.3126 16.9815C10.6766 17.1574 10.9251 17.551 10.903 18.0014C10.8768 18.5345 10.4647 18.9711 9.95404 19.006C9.36167 19.0465 8.86728 18.5552 8.86728 17.9458C8.86728 17.5198 9.10894 17.1518 9.45673 16.9826C9.55258 16.936 9.6142 16.8362 9.6142 16.7258V15.2814C9.6142 15.1971 9.54395 15.1305 9.46376 15.1405C8.07501 15.3152 7 16.5468 7 18.0429V19.7167C7 19.8731 7.12161 20 7.2716 20H17.7284C17.8784 20 18 19.8731 18 19.7167V18.0298C18 16.5392 16.921 15.3355 15.5377 15.1453C15.457 15.1342 15.3858 15.2011 15.3858 15.286ZM12.6647 15.9712L14.1136 14.819C14.2603 14.7024 14.1365 14.4573 13.9629 14.5224C12.9425 14.9052 11.9334 14.8729 11.0419 14.5241C10.8618 14.4537 10.7398 14.7026 10.8861 14.8189L12.3354 15.9712C12.4326 16.0485 12.5674 16.0485 12.6647 15.9712ZM9.41049 17.9458C9.41049 18.2192 9.6237 18.4417 9.8858 18.4417C10.1479 18.4417 10.3611 18.2192 10.3611 17.9458C10.3611 17.6724 10.1479 17.45 9.8858 17.45C9.6237 17.45 9.41049 17.6724 9.41049 17.9458Z" fill="#848B96"/>
</svg>
