<svg width="24" height="24" viewBox="0 0 24 24" fill="none" xmlns="http://www.w3.org/2000/svg">
<path d="M14.7811 13.6588C14.7904 13.7249 14.7956 13.7922 14.7956 13.8607V15.0865C16.5634 14.1289 17.7667 12.2568 17.7667 10.1089C17.7667 6.98975 15.2291 4.45215 12.1099 4.45215C8.99079 4.45215 6.45312 6.98975 6.45312 10.1089C6.45312 12.2568 7.65647 14.1288 9.42426 15.0865V13.8607C9.42426 13.7921 9.4294 13.7248 9.43869 13.6588C8.36245 12.8469 7.66525 11.5579 7.66525 10.1089C7.66525 7.65809 9.65913 5.66427 12.1099 5.66427C14.5607 5.66427 16.5546 7.65809 16.5546 10.1089C16.5546 11.5579 15.8575 12.8469 14.7811 13.6588Z" fill="#848B96"/>
<path d="M13.3516 13.2852H10.8663C10.5475 13.2852 10.2891 13.5436 10.2891 13.8624V17.8835C10.2891 18.2023 10.5475 18.4607 10.8663 18.4607H10.9738V21.4237C10.9738 21.7424 11.2322 22.0009 11.551 22.0009H12.6668C12.9856 22.0009 13.244 21.7424 13.244 21.4237V18.4607H13.3516C13.6704 18.4607 13.9288 18.2023 13.9288 17.8835V13.8624C13.9288 13.5436 13.6705 13.2852 13.3516 13.2852Z" fill="#848B96"/>
<path opacity="0.4" d="M12.1093 12.41C13.395 12.41 14.4373 11.3677 14.4373 10.0819C14.4373 8.7962 13.395 7.75391 12.1093 7.75391C10.8235 7.75391 9.78125 8.7962 9.78125 10.0819C9.78125 11.3677 10.8235 12.41 12.1093 12.41Z" fill="#848B96"/>
</svg>
