<svg width="25" height="24" viewBox="0 0 25 24" fill="none" xmlns="http://www.w3.org/2000/svg">
<path d="M22.0022 7.90674H20.1039C19.9494 7.49381 19.53 7.2254 19.0665 7.2254H18.5147C17.1682 7.20475 15.888 6.62663 15.0492 5.63558C14.4311 4.91294 13.482 4.5 12.5108 4.5C11.5396 4.5 10.5904 4.91294 9.97236 5.63558C9.13358 6.62663 7.85334 7.2254 6.50688 7.2254H5.95505C5.49152 7.2254 5.07213 7.49381 4.91761 7.90674H3.01933C2.20262 7.90674 1.5625 8.52615 1.5625 9.26944V10.9625C1.5625 12.7588 3.2842 14.4105 5.35908 14.6789C6.39651 17.3011 8.93492 19.1593 11.8927 19.469C12.29 19.5103 12.6874 19.5103 13.1067 19.469C16.0866 19.1593 18.625 17.3217 19.6404 14.6789C21.7153 14.4105 23.437 12.7588 23.437 10.9625V9.2488C23.459 8.50551 22.7968 7.90674 22.0022 7.90674ZM2.29091 10.9625V9.2488C2.29091 8.87715 2.62201 8.56745 3.01933 8.56745H4.8514V11.9948C4.8514 12.6555 4.93969 13.3162 5.11627 13.9563C3.65945 13.6259 2.29091 12.4697 2.29091 10.9625ZM7.41188 10.5702C7.43395 10.3844 7.63261 10.2605 7.83127 10.2811C10.9436 10.7354 14.1 10.7354 17.2123 10.2811C17.3448 10.2605 17.4772 10.3018 17.5655 10.405C17.6538 10.5083 17.6759 10.6321 17.6317 10.7354C17.5876 10.8593 17.4772 10.9212 17.3448 10.9418C15.7555 11.169 14.1442 11.2928 12.5549 11.2928C10.9436 11.2928 9.33224 11.169 7.76505 10.9418C7.52224 10.9418 7.3898 10.756 7.41188 10.5702ZM7.41188 12.573C7.4781 12.3871 7.67675 12.2839 7.87541 12.3458C10.8994 13.2337 14.1221 13.2337 17.1461 12.3458C17.2786 12.3045 17.411 12.3458 17.4993 12.4284C17.5876 12.511 17.6317 12.6349 17.6097 12.7588C17.5876 12.8827 17.4772 12.9652 17.3669 13.0065C15.7997 13.4608 14.1663 13.7085 12.5108 13.7085C10.8553 13.7085 9.22187 13.4814 7.65468 13.0065C7.45602 12.9446 7.36773 12.7588 7.41188 12.573ZM17.6317 15.0919C17.6097 15.2158 17.5214 15.319 17.411 15.3809C14.3208 16.7849 10.7008 16.7849 7.61054 15.3809C7.4781 15.3396 7.3898 15.2158 7.3898 15.0919C7.36773 14.968 7.43395 14.8441 7.54432 14.7822C7.65468 14.7202 7.80919 14.6996 7.91956 14.7615C10.8111 16.0829 14.1883 16.0829 17.102 14.7615C17.2123 14.6996 17.3669 14.6996 17.4772 14.7822C17.5876 14.8441 17.6538 14.968 17.6317 15.0919ZM22.7306 10.9625C22.7306 12.4491 21.3621 13.6053 19.9053 13.9357C20.0818 13.2956 20.1701 12.6349 20.1701 11.9742V8.58809H22.0022C22.3995 8.58809 22.7306 8.8978 22.7306 9.26944V10.9625Z" fill="#848B96"/>
</svg>
