<svg width="22" height="22" viewBox="0 0 22 22" fill="none" xmlns="http://www.w3.org/2000/svg">
<path d="M21.3555 0H0.644531C0.288578 0 0 0.288578 0 0.644531V21.3555C0 21.7114 0.288578 22 0.644531 22H21.3555C21.7114 22 22 21.7114 22 21.3555V0.644531C22 0.288578 21.7114 0 21.3555 0ZM20.7109 1.28906V5.15625H1.28906V1.28906H20.7109ZM1.28906 20.7109V6.44531H20.7109V20.7109H1.28906Z" fill="#8A8A98"/>
<path d="M18.7773 3.86719C19.1333 3.86719 19.4219 3.57862 19.4219 3.22266C19.4219 2.86669 19.1333 2.57812 18.7773 2.57812C18.4214 2.57812 18.1328 2.86669 18.1328 3.22266C18.1328 3.57862 18.4214 3.86719 18.7773 3.86719Z" fill="#8A8A98"/>
<path d="M16.1992 3.86719C16.5552 3.86719 16.8438 3.57862 16.8438 3.22266C16.8438 2.86669 16.5552 2.57812 16.1992 2.57812C15.8433 2.57812 15.5547 2.86669 15.5547 3.22266C15.5547 3.57862 15.8433 3.86719 16.1992 3.86719Z" fill="#8A8A98"/>
<path d="M13.6211 3.86719C13.9771 3.86719 14.2656 3.57862 14.2656 3.22266C14.2656 2.86669 13.9771 2.57812 13.6211 2.57812C13.2651 2.57812 12.9766 2.86669 12.9766 3.22266C12.9766 3.57862 13.2651 3.86719 13.6211 3.86719Z" fill="#8A8A98"/>
<path d="M16.6669 11.7941L15.3778 9.56136C15.1999 9.25328 14.8056 9.14753 14.4974 9.32547L13.545 9.87534C13.3497 9.74029 13.1452 9.62148 12.9323 9.51955V8.37891C12.9323 8.02295 12.6437 7.73438 12.2878 7.73438H9.70963C9.35368 7.73438 9.0651 8.02295 9.0651 8.37891V9.51955C8.85223 9.62148 8.64766 9.74029 8.45241 9.87534L7.50009 9.32547C7.19205 9.14766 6.79768 9.25298 6.61962 9.56136L5.33056 11.7941C5.15267 12.1022 5.2582 12.4966 5.56646 12.6745L6.50412 13.2159C6.49261 13.3406 6.48698 13.4608 6.48698 13.5781C6.48698 13.6955 6.49265 13.8157 6.50412 13.9404L5.56646 14.4817C5.41843 14.5672 5.31041 14.7079 5.26615 14.8731C5.22193 15.0382 5.24509 15.2141 5.33056 15.3621L6.61962 17.5949C6.79747 17.9029 7.19179 18.0088 7.50009 17.8308L8.45241 17.2809C8.64766 17.4159 8.85223 17.5347 9.0651 17.6366V18.7773C9.0651 19.1333 9.35368 19.4219 9.70963 19.4219H12.2878C12.6437 19.4219 12.9323 19.1333 12.9323 18.7773V17.6367C13.1452 17.5348 13.3497 17.416 13.545 17.2809L14.4974 17.8308C14.8054 18.0087 15.1998 17.9031 15.3778 17.5949L16.6669 15.3621C16.8448 15.0541 16.7392 14.6596 16.431 14.4817L15.4933 13.9403C15.5048 13.8157 15.5104 13.6954 15.5104 13.5781C15.5104 13.4608 15.5047 13.3406 15.4933 13.2159L16.431 12.6746C16.7391 12.4967 16.8449 12.1023 16.6669 11.7941ZM14.1611 12.9922C14.2022 13.2144 14.2214 13.4005 14.2214 13.5781C14.2214 13.7557 14.2022 13.9419 14.1611 14.164C14.1114 14.4325 14.2362 14.703 14.4726 14.8396L15.2283 15.2758L14.5837 16.3921L13.8167 15.9493C13.5803 15.8128 13.2837 15.84 13.0761 16.0172C12.7751 16.274 12.4371 16.4703 12.0713 16.6007C11.8146 16.6922 11.6432 16.9353 11.6432 17.2078V18.1328H10.3542V17.2077C10.3542 16.9352 10.1828 16.6921 9.92607 16.6006C9.56019 16.4702 9.22215 16.2739 8.92129 16.0172C8.71366 15.84 8.41705 15.8128 8.18063 15.9493L7.41368 16.3921L6.76915 15.2758L7.5248 14.8396C7.76122 14.7031 7.88595 14.4325 7.83628 14.1641C7.79516 13.9419 7.77604 13.7557 7.77604 13.5781C7.77604 13.4005 7.79516 13.2144 7.83628 12.9922C7.88595 12.7238 7.76122 12.4532 7.5248 12.3167L6.76915 11.8805L7.41368 10.7641L8.18063 11.207C8.41692 11.3435 8.71366 11.3163 8.92129 11.1391C9.22228 10.8823 9.56032 10.686 9.92607 10.5556C10.1828 10.4641 10.3542 10.221 10.3542 9.94851V9.02344H11.6432V9.94847C11.6432 10.221 11.8146 10.4641 12.0713 10.5556C12.4371 10.6859 12.7751 10.8823 13.0761 11.1391C13.2837 11.3163 13.5804 11.3434 13.8167 11.207L14.5837 10.7641L15.2283 11.8804L14.4726 12.3167C14.2362 12.4532 14.1114 12.7238 14.1611 12.9922Z" fill="#8A8A98"/>
<path d="M11 11.6445C9.93382 11.6445 9.06641 12.5119 9.06641 13.5781C9.06641 14.6443 9.93382 15.5117 11 15.5117C12.0662 15.5117 12.9336 14.6443 12.9336 13.5781C12.9336 12.5119 12.0662 11.6445 11 11.6445ZM11 14.2227C10.6446 14.2227 10.3555 13.9335 10.3555 13.5781C10.3555 13.2227 10.6446 12.9336 11 12.9336C11.3554 12.9336 11.6445 13.2227 11.6445 13.5781C11.6445 13.9335 11.3554 14.2227 11 14.2227Z" fill="#8A8A98"/>
</svg>
