<svg width="24" height="24" viewBox="0 0 24 24" fill="none" xmlns="http://www.w3.org/2000/svg">
  <path fill-rule="evenodd" clip-rule="evenodd"
        d="M18.668 6.02267L18.668 17.9767C18.668 18.3576 18.3592 18.6663 17.9783 18.6663L15.6795 18.6663C15.2986 18.6663 14.9898 18.3576 14.9898 17.9767L14.9898 6.02267C14.9898 5.64178 15.2986 5.33301 15.6795 5.33301L17.9783 5.33301C18.3592 5.33301 18.668 5.64178 18.668 6.02267V6.02267Z"
        fill="#CDCDCD"/>
  <path fill-rule="evenodd" clip-rule="evenodd"
        d="M9.01172 6.02267L9.01172 17.9767C9.01172 18.3576 8.70294 18.6664 8.32206 18.6664L6.0232 18.6664C5.64234 18.6664 5.33357 18.3576 5.33357 17.9767L5.33357 6.02267C5.33357 5.64178 5.64234 5.33301 6.02323 5.33301L8.32208 5.33301C8.70297 5.33301 9.01172 5.64178 9.01172 6.02267Z"
        fill="#848B96"/>
  <path fill-rule="evenodd" clip-rule="evenodd"
        d="M13.4486 12.2964C13.3615 12.3867 13.3627 12.53 13.4514 12.6187C13.5401 12.7074 13.6835 12.7086 13.7737 12.6215L14.2335 12.1618C14.3232 12.072 14.3232 11.9265 14.2335 11.8367L13.7737 11.3769C13.6835 11.2898 13.5401 11.2911 13.4514 11.3798C13.3628 11.4685 13.3615 11.6118 13.4486 11.702L13.516 11.7694L12.2319 11.7694L12.2319 11.5395C12.2319 11.4125 12.1289 11.3096 12.002 11.3096C11.875 11.3096 11.7721 11.4125 11.7721 11.5395L11.7721 11.7694L10.4879 11.7694L10.5553 11.702C10.6424 11.6118 10.6412 11.4684 10.5525 11.3798C10.4638 11.2911 10.3204 11.2898 10.2302 11.3769L9.77044 11.8367C9.6807 11.9265 9.6807 12.072 9.77044 12.1618L10.2302 12.6215C10.3204 12.7086 10.4638 12.7074 10.5525 12.6187C10.6411 12.53 10.6424 12.3867 10.5553 12.2964L10.4879 12.2291L11.7721 12.2291L11.7721 12.459C11.7721 12.586 11.875 12.6889 12.002 12.6889C12.1289 12.6889 12.2319 12.586 12.2319 12.459L12.2319 12.2291L13.516 12.2291L13.4486 12.2964Z"
        fill="#CDCDCD"/>
  <path fill-rule="evenodd" clip-rule="evenodd"
        d="M12.2305 10.6201L12.2305 9.7006C12.2305 9.57365 12.1276 9.4707 12.0006 9.4707C11.8736 9.4707 11.7707 9.57362 11.7707 9.7006L11.7707 10.6201C11.7707 10.7471 11.8736 10.85 12.0006 10.85C12.1276 10.85 12.2305 10.7471 12.2305 10.6201Z"
        fill="#848B96"/>
  <path fill-rule="evenodd" clip-rule="evenodd"
        d="M12.2305 8.78028L12.2305 7.86075C12.2305 7.7338 12.1276 7.63086 12.0006 7.63086C11.8736 7.63086 11.7707 7.73378 11.7707 7.86075L11.7707 8.78028C11.7707 8.90724 11.8736 9.01018 12.0006 9.01018C12.1276 9.01018 12.2305 8.90724 12.2305 8.78028Z"
        fill="#848B96"/>
  <path fill-rule="evenodd" clip-rule="evenodd"
        d="M12.2305 6.9424L12.2305 6.02286C12.2305 5.89591 12.1276 5.79297 12.0006 5.79297C11.8736 5.79297 11.7707 5.89589 11.7707 6.02286L11.7707 6.9424C11.7707 7.06935 11.8736 7.17229 12.0006 7.17229C12.1276 7.17229 12.2305 7.06935 12.2305 6.9424Z"
        fill="#848B96"/>
  <path fill-rule="evenodd" clip-rule="evenodd"
        d="M12.2305 17.9756L12.2305 17.0561C12.2305 16.9291 12.1276 16.8262 12.0006 16.8262C11.8736 16.8262 11.7707 16.9291 11.7707 17.0561L11.7707 17.9756C11.7707 18.1026 11.8736 18.2055 12.0006 18.2055C12.1276 18.2055 12.2305 18.1026 12.2305 17.9756Z"
        fill="#848B96"/>
  <path fill-rule="evenodd" clip-rule="evenodd"
        d="M12.2305 16.1377L12.2305 15.2182C12.2305 15.0912 12.1276 14.9883 12.0006 14.9883C11.8736 14.9883 11.7707 15.0912 11.7707 15.2182L11.7707 16.1377C11.7707 16.2647 11.8736 16.3676 12.0006 16.3676C12.1276 16.3676 12.2305 16.2647 12.2305 16.1377Z"
        fill="#848B96"/>
  <path fill-rule="evenodd" clip-rule="evenodd"
        d="M12.2305 14.2988L12.2305 13.3793C12.2305 13.2524 12.1276 13.1494 12.0006 13.1494C11.8736 13.1494 11.7707 13.2523 11.7707 13.3793L11.7707 14.2988C11.7707 14.4258 11.8736 14.5287 12.0006 14.5287C12.1276 14.5287 12.2305 14.4258 12.2305 14.2988Z"
        fill="#848B96"/>
</svg>
