<svg width="24" height="24" viewBox="0 0 24 24" fill="none" xmlns="http://www.w3.org/2000/svg">
  <path
    d="M16.7994 0.882812H7.20002C6.24112 0.882812 5.46289 1.66104 5.46289 2.61995V21.381C5.46289 22.3399 6.24112 23.1181 7.20002 23.1181H16.7994C17.7583 23.1181 18.5366 22.3399 18.5366 21.381C18.5366 15.1222 18.5366 8.85778 18.5366 2.61995C18.5365 1.66104 17.7583 0.882812 16.7994 0.882812ZM12.1092 2.4115H13.2904C13.4815 2.4115 13.6378 2.56437 13.6378 2.75892C13.6378 2.95 13.4815 3.10635 13.2904 3.10635H12.1092C11.9146 3.10635 11.7617 2.95001 11.7617 2.75892C11.7617 2.56437 11.9146 2.4115 12.1092 2.4115ZM10.709 2.4115H10.8306C11.0252 2.4115 11.1781 2.56437 11.1781 2.75892C11.1781 2.95 11.0252 3.10635 10.8306 3.10635H10.709C10.518 3.10635 10.3616 2.95001 10.3616 2.75892C10.3616 2.56437 10.518 2.4115 10.709 2.4115ZM12.5921 21.5964H11.4074C11.2163 21.5964 11.0599 21.44 11.0599 21.2489C11.0599 21.0544 11.2163 20.9015 11.4074 20.9015H12.5921C12.7832 20.9015 12.9395 21.0544 12.9395 21.2489C12.9395 21.44 12.7832 21.5964 12.5921 21.5964ZM17.4716 19.3728H6.52783V4.62808H17.4716V19.3728H17.4716Z"
    fill="#848B96"/>
  <path
    d="M11.3384 18.6157H12.6629C12.9037 18.6157 13.0989 18.4073 13.0989 18.1502V16.7292C13.0989 16.4721 12.9037 16.2637 12.6629 16.2637H11.3384C11.0976 16.2637 10.9023 16.4721 10.9023 16.7292V18.1502C10.9023 18.4073 11.0976 18.6157 11.3384 18.6157Z"
    fill="#848B96"/>
  <path
    d="M7.94908 15.1685H9.27353C9.51434 15.1685 9.7096 14.9566 9.7096 14.6995V13.282C9.7096 13.0249 9.51434 12.8164 9.27353 12.8164H7.94908C7.70827 12.8164 7.50977 13.0249 7.50977 13.282V14.6995C7.50977 14.9566 7.70827 15.1685 7.94908 15.1685Z"
    fill="#848B96"/>
  <path
    d="M14.7251 15.1685H16.0496C16.2904 15.1685 16.4889 14.9566 16.4889 14.6995V13.282C16.4889 13.0249 16.2904 12.8164 16.0496 12.8164H14.7251C14.4843 12.8164 14.2891 13.0249 14.2891 13.282V14.6995C14.2891 14.9566 14.4843 15.1685 14.7251 15.1685Z"
    fill="#848B96"/>
  <path
    d="M14.7251 18.6157H16.0496C16.2904 18.6157 16.4889 18.4073 16.4889 18.1502V16.7292C16.4889 16.4721 16.2904 16.2637 16.0496 16.2637H14.7251C14.4843 16.2637 14.2891 16.4721 14.2891 16.7292V18.1502C14.2891 18.4073 14.4843 18.6157 14.7251 18.6157Z"
    fill="#848B96"/>
  <path
    d="M7.94908 18.6157H9.27353C9.51434 18.6157 9.7096 18.4073 9.7096 18.1502V16.7292C9.7096 16.4721 9.51434 16.2637 9.27353 16.2637H7.94908C7.70827 16.2637 7.50977 16.4721 7.50977 16.7292V18.1502C7.50977 18.4073 7.70827 18.6157 7.94908 18.6157Z"
    fill="#848B96"/>
  <path
    d="M11.3384 15.1685H12.6629C12.9037 15.1685 13.0989 14.9566 13.0989 14.6995V13.282C13.0989 13.0249 12.9037 12.8164 12.6629 12.8164H11.3384C11.0976 12.8164 10.9023 13.0249 10.9023 13.282V14.6995C10.9023 14.9566 11.0976 15.1685 11.3384 15.1685Z"
    fill="#848B96"/>
</svg>
