<svg width="25" height="24" viewBox="0 0 25 24" fill="none" xmlns="http://www.w3.org/2000/svg">
  <path
    d="M19.2879 6.34124L20.0359 3.63965C19.3759 3.63965 19.3759 4.07965 18.7159 4.07965C18.0559 4.07965 18.0559 3.63965 17.3959 3.63965C16.7359 3.63965 16.7359 4.07965 16.0759 4.07965C15.4159 4.07965 15.4159 3.63965 14.7559 3.63965L15.5039 6.33684C16.0813 6.0109 16.7333 5.84 17.3964 5.84077C18.0595 5.84154 18.7111 6.01396 19.2879 6.34124Z"
    fill="#848B96"/>
  <path
    d="M13.4355 9.67229V18.1995C14.6621 18.8132 16.0254 19.1025 17.3955 19.0399C20.5547 19.0399 23.1155 17.9971 23.1155 15.0799C23.1155 10.6139 17.9895 2.28029 13.4355 9.67229ZM16.9555 13.3199H17.8355C18.1856 13.3199 18.5214 13.459 18.7689 13.7065C19.0165 13.9541 19.1555 14.2898 19.1555 14.6399C19.1555 14.99 19.0165 15.3257 18.7689 15.5733C18.5214 15.8208 18.1856 15.9599 17.8355 15.9599V16.3999C17.8355 16.5166 17.7892 16.6285 17.7067 16.711C17.6242 16.7935 17.5122 16.8399 17.3955 16.8399C17.2789 16.8399 17.1669 16.7935 17.0844 16.711C17.0019 16.6285 16.9555 16.5166 16.9555 16.3999V15.9599H16.0755C15.9589 15.9599 15.8469 15.9135 15.7644 15.831C15.6819 15.7485 15.6355 15.6366 15.6355 15.5199C15.6355 15.4032 15.6819 15.2913 15.7644 15.2088C15.8469 15.1262 15.9589 15.0799 16.0755 15.0799H17.8355C17.9522 15.0799 18.0642 15.0335 18.1467 14.951C18.2292 14.8685 18.2755 14.7566 18.2755 14.6399C18.2755 14.5232 18.2292 14.4113 18.1467 14.3288C18.0642 14.2462 17.9522 14.1999 17.8355 14.1999H16.9555C16.6055 14.1999 16.2697 14.0608 16.0222 13.8133C15.7746 13.5657 15.6355 13.23 15.6355 12.8799C15.6355 12.5298 15.7746 12.1941 16.0222 11.9465C16.2697 11.699 16.6055 11.5599 16.9555 11.5599V11.1199C16.9555 11.0032 17.0019 10.8913 17.0844 10.8088C17.1669 10.7262 17.2789 10.6799 17.3955 10.6799C17.5122 10.6799 17.6242 10.7262 17.7067 10.8088C17.7892 10.8913 17.8355 11.0032 17.8355 11.1199V11.5599H18.7155C18.8322 11.5599 18.9442 11.6062 19.0267 11.6888C19.1092 11.7713 19.1555 11.8832 19.1555 11.9999C19.1555 12.1166 19.1092 12.2285 19.0267 12.311C18.9442 12.3935 18.8322 12.4399 18.7155 12.4399H16.9555C16.8389 12.4399 16.7269 12.4862 16.6444 12.5688C16.5619 12.6513 16.5155 12.7632 16.5155 12.8799C16.5155 12.9966 16.5619 13.1085 16.6444 13.191C16.7269 13.2735 16.8389 13.3199 16.9555 13.3199Z"
    fill="#848B96"/>
  <path
    d="M11.675 8.04004H3.755C3.52161 8.04004 3.29778 8.13275 3.13275 8.29779C2.96771 8.46282 2.875 8.68665 2.875 8.92004V19.48C2.875 19.7134 2.96771 19.9373 3.13275 20.1023C3.29778 20.2673 3.52161 20.36 3.755 20.36H11.675C11.9084 20.36 12.1322 20.2673 12.2973 20.1023C12.4623 19.9373 12.555 19.7134 12.555 19.48V8.92004C12.555 8.68665 12.4623 8.46282 12.2973 8.29779C12.1322 8.13275 11.9084 8.04004 11.675 8.04004ZM5.515 19.04H4.635C4.5183 19.04 4.40639 18.9937 4.32387 18.9112C4.24136 18.8287 4.195 18.7167 4.195 18.6C4.195 18.4833 4.24136 18.3714 4.32387 18.2889C4.40639 18.2064 4.5183 18.16 4.635 18.16H5.515C5.6317 18.16 5.74361 18.2064 5.82613 18.2889C5.90864 18.3714 5.955 18.4833 5.955 18.6C5.955 18.7167 5.90864 18.8287 5.82613 18.9112C5.74361 18.9937 5.6317 19.04 5.515 19.04ZM5.515 17.28H4.635C4.5183 17.28 4.40639 17.2337 4.32387 17.1512C4.24136 17.0687 4.195 16.9567 4.195 16.84C4.195 16.7233 4.24136 16.6114 4.32387 16.5289C4.40639 16.4464 4.5183 16.4 4.635 16.4H5.515C5.6317 16.4 5.74361 16.4464 5.82613 16.5289C5.90864 16.6114 5.955 16.7233 5.955 16.84C5.955 16.9567 5.90864 17.0687 5.82613 17.1512C5.74361 17.2337 5.6317 17.28 5.515 17.28ZM5.515 15.52H4.635C4.5183 15.52 4.40639 15.4737 4.32387 15.3912C4.24136 15.3087 4.195 15.1967 4.195 15.08C4.195 14.9633 4.24136 14.8514 4.32387 14.7689C4.40639 14.6864 4.5183 14.64 4.635 14.64H5.515C5.6317 14.64 5.74361 14.6864 5.82613 14.7689C5.90864 14.8514 5.955 14.9633 5.955 15.08C5.955 15.1967 5.90864 15.3087 5.82613 15.3912C5.74361 15.4737 5.6317 15.52 5.515 15.52ZM8.155 19.04H7.275C7.15831 19.04 7.04639 18.9937 6.96387 18.9112C6.88136 18.8287 6.835 18.7167 6.835 18.6C6.835 18.4833 6.88136 18.3714 6.96387 18.2889C7.04639 18.2064 7.15831 18.16 7.275 18.16H8.155C8.2717 18.16 8.38361 18.2064 8.46613 18.2889C8.54864 18.3714 8.595 18.4833 8.595 18.6C8.595 18.7167 8.54864 18.8287 8.46613 18.9112C8.38361 18.9937 8.2717 19.04 8.155 19.04ZM8.155 17.28H7.275C7.15831 17.28 7.04639 17.2337 6.96387 17.1512C6.88136 17.0687 6.835 16.9567 6.835 16.84C6.835 16.7233 6.88136 16.6114 6.96387 16.5289C7.04639 16.4464 7.15831 16.4 7.275 16.4H8.155C8.2717 16.4 8.38361 16.4464 8.46613 16.5289C8.54864 16.6114 8.595 16.7233 8.595 16.84C8.595 16.9567 8.54864 17.0687 8.46613 17.1512C8.38361 17.2337 8.2717 17.28 8.155 17.28ZM8.155 15.52H7.275C7.15831 15.52 7.04639 15.4737 6.96387 15.3912C6.88136 15.3087 6.835 15.1967 6.835 15.08C6.835 14.9633 6.88136 14.8514 6.96387 14.7689C7.04639 14.6864 7.15831 14.64 7.275 14.64H8.155C8.2717 14.64 8.38361 14.6864 8.46613 14.7689C8.54864 14.8514 8.595 14.9633 8.595 15.08C8.595 15.1967 8.54864 15.3087 8.46613 15.3912C8.38361 15.4737 8.2717 15.52 8.155 15.52ZM10.795 19.04H9.915C9.79831 19.04 9.68639 18.9937 9.60387 18.9112C9.52136 18.8287 9.475 18.7167 9.475 18.6C9.475 18.4833 9.52136 18.3714 9.60387 18.2889C9.68639 18.2064 9.79831 18.16 9.915 18.16H10.795C10.9117 18.16 11.0236 18.2064 11.1061 18.2889C11.1886 18.3714 11.235 18.4833 11.235 18.6C11.235 18.7167 11.1886 18.8287 11.1061 18.9112C11.0236 18.9937 10.9117 19.04 10.795 19.04ZM10.795 17.28H9.915C9.79831 17.28 9.68639 17.2337 9.60387 17.1512C9.52136 17.0687 9.475 16.9567 9.475 16.84C9.475 16.7233 9.52136 16.6114 9.60387 16.5289C9.68639 16.4464 9.79831 16.4 9.915 16.4H10.795C10.9117 16.4 11.0236 16.4464 11.1061 16.5289C11.1886 16.6114 11.235 16.7233 11.235 16.84C11.235 16.9567 11.1886 17.0687 11.1061 17.1512C11.0236 17.2337 10.9117 17.28 10.795 17.28ZM10.795 15.52H9.915C9.79831 15.52 9.68639 15.4737 9.60387 15.3912C9.52136 15.3087 9.475 15.1967 9.475 15.08C9.475 14.9633 9.52136 14.8514 9.60387 14.7689C9.68639 14.6864 9.79831 14.64 9.915 14.64H10.795C10.9117 14.64 11.0236 14.6864 11.1061 14.7689C11.1886 14.8514 11.235 14.9633 11.235 15.08C11.235 15.1967 11.1886 15.3087 11.1061 15.3912C11.0236 15.4737 10.9117 15.52 10.795 15.52ZM11.235 13.32C11.235 13.4367 11.1886 13.5487 11.1061 13.6312C11.0236 13.7137 10.9117 13.76 10.795 13.76H4.635C4.5183 13.76 4.40639 13.7137 4.32387 13.6312C4.24136 13.5487 4.195 13.4367 4.195 13.32V9.80004C4.195 9.68334 4.24136 9.57143 4.32387 9.48891C4.40639 9.4064 4.5183 9.36004 4.635 9.36004H10.795C10.9117 9.36004 11.0236 9.4064 11.1061 9.48891C11.1886 9.57143 11.235 9.68334 11.235 9.80004V13.32Z"
    fill="#848B96"/>
  <path d="M5.07422 10.2402H10.3542V12.8802H5.07422V10.2402Z" fill="#848B96"/>
</svg>
