<svg width="24" height="24" viewBox="0 0 24 24" fill="none" xmlns="http://www.w3.org/2000/svg">
  <path
    d="M19.9348 5.84295C19.1468 4.80747 17.907 4.21263 16.1425 4.02333C15.9995 4.00877 15.8487 4 15.6937 4C14.1291 4 12.5704 4.734 11.6004 5.90008C10.6296 4.734 9.07158 4 7.50778 4C7.35287 4 7.20291 4.00881 7.05711 4.02333C5.2953 4.21263 4.0557 4.80778 3.26723 5.84264C2.48541 6.86849 2.23056 8.2593 2.51033 9.97611C2.61483 10.6132 2.90398 11.2859 3.31935 11.9749H5.92506L6.19958 7.6084C6.22125 7.26388 6.4844 6.98323 6.82679 6.9395C7.16926 6.89577 7.49446 7.10117 7.60208 7.42915L9.67384 13.7436L10.8237 9.18077C10.904 8.86218 11.1898 8.63835 11.5184 8.6368C11.5195 8.6368 11.5207 8.6368 11.5218 8.6368C11.8489 8.6368 12.1351 8.85743 12.2182 9.17409L12.9516 11.9712L13.6167 10.8878C13.729 10.7047 13.9173 10.5813 14.1302 10.5514C14.343 10.5216 14.558 10.5884 14.7165 10.7336L15.4769 11.4301H16.8291C17.2267 11.4301 17.549 11.7524 17.549 12.15C17.549 12.5476 17.2267 12.8699 16.8291 12.8699H15.1969C15.017 12.8699 14.8435 12.8024 14.7107 12.6808L14.3874 12.3846L13.2967 14.1615C13.1459 14.4073 12.8629 14.5394 12.5777 14.4971C12.2925 14.4548 12.0601 14.2465 11.9869 13.9676L11.5358 12.2476L10.4627 16.5053C10.3844 16.8161 10.1101 17.0376 9.78985 17.0488C9.78135 17.0492 9.77285 17.0493 9.76439 17.0493C9.45437 17.0493 9.17781 16.8503 9.08054 16.5538L7.40151 11.4364L7.31953 12.74C7.29566 13.1193 6.98109 13.4148 6.60103 13.4148H4.33782C5.58658 14.9755 7.26336 16.5527 8.7356 17.9378L8.79486 17.9935C9.51649 18.6735 10.14 19.26 10.5459 19.6971C10.6009 19.7583 11.0956 20.2999 11.6372 20.2999C12.1823 20.2999 12.6663 19.7503 12.71 19.6976C13.1418 19.2297 13.842 18.5664 14.5336 17.9124C17.096 15.4815 20.2852 12.4564 20.6895 9.97522C20.9704 8.25961 20.7172 6.86942 19.9348 5.84295Z"
    fill="#848B96"/>
</svg>
