<svg width="24" height="24" viewBox="0 0 24 24" fill="none" xmlns="http://www.w3.org/2000/svg">
  <g clip-path="url(#clip0_1759_35391)">
    <path
      d="M4.48582 14.0566H3.79175C3.68497 14.0566 3.60489 14.1367 3.60489 14.2435V17.1266C3.09768 17.3401 2.77734 17.8206 2.77734 18.3545C2.77734 18.7016 2.91082 19.0486 3.17777 19.3156C3.41802 19.5825 3.76506 19.716 4.13879 19.716C4.48582 19.716 4.83286 19.5825 5.09981 19.3156C5.36676 19.0753 5.50024 18.7283 5.50024 18.3545C5.50024 17.8206 5.17989 17.3134 4.67269 17.1266V16.8329C4.67269 16.7795 4.69938 16.7528 4.75277 16.7528H19.3016C19.3549 16.7528 19.3816 16.7795 19.3816 16.8329V17.1266C18.8477 17.3401 18.5007 17.9007 18.5541 18.488C18.6075 19.1287 19.1147 19.6359 19.7554 19.716C19.8088 19.716 19.8622 19.716 19.9155 19.716C20.2359 19.716 20.5562 19.6092 20.8232 19.3689C21.1168 19.102 21.277 18.755 21.277 18.3812C21.277 17.8473 20.9566 17.3401 20.4494 17.1533V14.2435C20.4494 14.1367 20.3694 14.0566 20.2626 14.0566H19.5685C19.4617 14.0566 19.3816 14.1367 19.3816 14.2435V15.6316C19.3816 15.685 19.3549 15.7117 19.3016 15.7117H4.72608C4.69938 15.7117 4.67269 15.7117 4.67269 15.685C4.64599 15.6583 4.64599 15.6583 4.64599 15.6316V14.2435C4.67269 14.1367 4.5926 14.0566 4.48582 14.0566ZM4.13879 18.835C3.87184 18.835 3.65828 18.6215 3.65828 18.3545C3.65828 18.2478 3.68497 18.141 3.76506 18.0609C3.84514 17.9541 3.97862 17.874 4.13879 17.874C4.29896 17.874 4.43243 17.9541 4.51252 18.0609C4.56591 18.141 4.6193 18.2478 4.6193 18.3545C4.5926 18.6215 4.40574 18.835 4.13879 18.835ZM19.5151 18.0609C19.5952 17.9541 19.7287 17.874 19.8888 17.874C20.049 17.874 20.1825 17.9541 20.2626 18.0609C20.316 18.141 20.3694 18.2478 20.3694 18.3545C20.3694 18.6215 20.1558 18.835 19.8888 18.835C19.6219 18.835 19.4083 18.6215 19.4083 18.3545C19.435 18.2478 19.4617 18.141 19.5151 18.0609Z"
      fill="#848B96"/>
    <path
      d="M3.79117 8.18391C4.80846 8.18391 5.63313 7.35924 5.63313 6.34196C5.63313 5.32467 4.80846 4.5 3.79117 4.5C2.77389 4.5 1.94922 5.32467 1.94922 6.34196C1.94922 7.35924 2.77389 8.18391 3.79117 8.18391Z"
      fill="#848B96"/>
    <path
      d="M7.63427 9.67837H10.0368C10.0902 9.67837 10.1436 9.62498 10.1436 9.57159V6.47496C10.1436 6.42157 10.0902 6.36819 10.0368 6.36819L7.76774 6.12793C7.71435 6.12793 7.63427 6.12793 7.58088 6.12793C6.59316 6.12793 5.79231 6.92878 5.81901 7.94319C5.81901 8.93091 6.64655 9.67837 7.63427 9.67837Z"
      fill="#848B96"/>
    <path
      d="M22.931 6.50201C22.6107 6.26175 22.2636 6.04819 21.8632 5.94141C21.623 5.88802 21.3827 5.86133 21.1158 5.86133H11.7458C11.4522 5.86133 11.1852 6.10158 11.1852 6.42192V10.4796H6.9674C6.91401 10.4796 6.83392 10.4529 6.78053 10.4262L1.89535 8.1571C1.54831 7.97023 1.12119 7.86345 0.720765 7.86345H0.347035C0.16017 7.86345 0 8.02362 0 8.21049V13.069C0 13.3893 0.26695 13.6563 0.58729 13.6563H23.6251C23.8386 13.6563 23.9988 13.4961 23.9988 13.2825V8.77109C24.0255 7.86345 23.5984 7.03591 22.931 6.50201Z"
      fill="#848B96"/>
  </g>
  <defs>
    <clipPath id="clip0_1759_35391">
      <rect width="24" height="24" fill="white"/>
    </clipPath>
  </defs>
</svg>
