<svg width="29" height="28" viewBox="0 0 29 28" fill="none" xmlns="http://www.w3.org/2000/svg">
<path d="M14.9374 3H9.31245C8.58873 3 8 3.58873 8 4.31245V7.68744C8 8.4113 8.58873 9.00003 9.31245 9.00003H14.9374C15.6613 9.00003 16.25 8.4113 16.25 7.68744V4.31245C16.25 3.58873 15.6613 3 14.9374 3Z" fill="#CDCDCD"/>
<path d="M14.9374 10.5H9.31245C8.58873 10.5 8 11.0887 8 11.8126V19.6876C8 20.4113 8.58873 21 9.31245 21H14.9374C15.6613 21 16.25 20.4113 16.25 19.6876V11.8126C16.25 11.0887 15.6613 10.5 14.9374 10.5Z" fill="#848B96"/>
<path d="M24.6876 15H19.0626C18.3387 15 17.75 15.5887 17.75 16.3126V19.6876C17.75 20.4113 18.3387 21 19.0626 21H24.6876C25.4113 21 26 20.4113 26 19.6876V16.3126C26 15.5887 25.4113 15 24.6876 15Z" fill="#CDCDCD"/>
<path d="M24.6876 3H19.0626C18.3387 3 17.75 3.58873 17.75 4.31245V12.1874C17.75 12.9113 18.3387 13.5 19.0626 13.5H24.6876C25.4113 13.5 26 12.9113 26 12.1874V4.31245C26 3.58873 25.4113 3 24.6876 3V3Z" fill="#848B96"/>
</svg>
