<svg width="24" height="24" viewBox="0 0 24 24" fill="none" xmlns="http://www.w3.org/2000/svg">
  <path
    d="M9.18781 13.5052H7.95031V11.8228C7.95031 11.5283 7.71068 11.286 7.4162 11.2827C7.26984 11.2808 7.13393 11.3364 7.03059 11.4385C6.92718 11.5407 6.87017 11.677 6.87001 11.8223L6.86914 12.9545C6.86823 14.1336 7.28734 15.2785 8.04931 16.1784L9.63512 18.0511H14.7514L15.6599 16.5365L9.18781 10.0645V13.5052Z"
    fill="#848B96"/>
  <path
    d="M16.4565 9.27434C16.1765 9.27434 15.9486 9.5022 15.9486 9.78233V11.5944H14.7111V7.33608C14.7111 7.05599 14.4832 6.82812 14.2031 6.82812C13.9231 6.82812 13.6952 7.05599 13.6952 7.33608V11.5944H12.4688L16.315 15.4406C16.74 14.6916 16.9645 13.8443 16.9645 12.9819V9.78233C16.9645 9.5022 16.7366 9.27434 16.4565 9.27434Z"
    fill="#848B96"/>
  <path
    d="M9.69748 5.48503C9.88058 5.48503 10.0571 5.51354 10.223 5.56605C10.3427 4.71931 11.0718 4.06579 11.951 4.06579C12.8652 4.06579 13.617 4.77248 13.6901 5.66822C13.8528 5.61794 14.0255 5.5908 14.2044 5.5908C15.1669 5.5908 15.9499 6.37381 15.9499 7.33625V8.11262C16.1107 8.06361 16.2812 8.03701 16.4578 8.03701C17.4203 8.03701 18.2033 8.82001 18.2033 9.78246V12.9821C18.2033 14.1088 17.8969 15.2152 17.3173 16.1815L17.2197 16.3442L19.8923 19.0169C21.6173 17.0819 22.5609 14.6138 22.5609 12.0004C22.5609 9.17975 21.4624 6.52792 19.468 4.53335C17.4734 2.53888 14.8216 1.44043 12.0009 1.44043C9.38748 1.44043 6.91941 2.38398 4.98438 4.10889L7.95866 7.08318C8.03378 6.1895 8.7847 5.48503 9.69748 5.48503Z"
    fill="#848B96"/>
  <path
    d="M12.4573 5.81166C12.4573 5.53158 12.2295 5.30371 11.9494 5.30371C11.6693 5.30371 11.4414 5.53158 11.4414 5.81166V10.5679L12.4574 11.5839V5.81166H12.4573Z"
    fill="#848B96"/>
  <path
    d="M10.2054 7.23061C10.2054 6.95052 9.97753 6.72266 9.6974 6.72266C9.41732 6.72266 9.18945 6.95052 9.18945 7.23061V8.31413L10.2054 9.33012V7.23061H10.2054Z"
    fill="#848B96"/>
  <path
    d="M15.4524 19.2877H9.06179L7.10518 16.9772C6.15396 15.8539 5.63074 14.4247 5.6319 12.9527L5.63276 11.8203C5.63326 11.3419 5.8209 10.8935 6.16113 10.5573C6.50132 10.2212 6.95186 10.0383 7.43027 10.0444C7.61132 10.0464 7.7861 10.0759 7.95056 10.1288V8.82604L4.10792 4.9834C2.38301 6.91844 1.43945 9.38651 1.43945 11.9999C1.43945 14.8206 2.5379 17.4724 4.53238 19.467C6.52694 21.4615 9.17878 22.5599 11.9995 22.5599C14.6128 22.5599 17.0809 21.6163 19.016 19.8914L16.5622 17.4376L15.4524 19.2877Z"
    fill="#848B96"/>
</svg>
