<svg width="24" height="24" viewBox="0 0 24 24" fill="none" xmlns="http://www.w3.org/2000/svg">
<g clip-path="url(#clip0_1763_35328)">
<path d="M12 0C9.62663 0 7.30655 0.703788 5.33316 2.02236C3.35977 3.34094 1.8217 5.21508 0.913451 7.4078C0.00519943 9.60051 -0.232441 12.0133 0.230582 14.3411C0.693605 16.6689 1.83649 18.807 3.51472 20.4853C5.19295 22.1635 7.33115 23.3064 9.65892 23.7694C11.9867 24.2324 14.3995 23.9948 16.5922 23.0865C18.7849 22.1783 20.6591 20.6402 21.9776 18.6668C23.2962 16.6935 24 14.3734 24 12C24 8.8174 22.7357 5.76515 20.4853 3.51472C18.2348 1.26428 15.1826 0 12 0ZM2.00001 12C2.00402 9.45709 2.97664 7.01123 4.72 5.16L18.36 19.71C16.8973 20.9155 15.1221 21.6805 13.2413 21.9158C11.3605 22.1511 9.45157 21.847 7.73697 21.0389C6.02238 20.2309 4.57274 18.9522 3.55702 17.3518C2.54129 15.7515 2.00131 13.8955 2.00001 12ZM19.77 18.29L6.23 3.85C8.20112 2.47243 10.6026 1.85132 12.9945 2.10046C15.3863 2.34961 17.6083 3.45234 19.2532 5.20656C20.8981 6.96079 21.8557 9.24902 21.9506 11.6519C22.0456 14.0548 21.2714 16.4115 19.77 18.29Z" fill="#848B96"/>
</g>
<defs>
<clipPath id="clip0_1763_35328">
<rect width="24" height="24" fill="white"/>
</clipPath>
</defs>
</svg>
