<svg width="24" height="24" viewBox="0 0 24 24" fill="none" xmlns="http://www.w3.org/2000/svg">
  <path fill-rule="evenodd" clip-rule="evenodd"
        d="M12.0001 3.75C11.6685 3.75 11.3506 3.8817 11.1162 4.11612C10.8818 4.35054 10.7501 4.66848 10.7501 5C10.7501 5.29002 10.5829 5.55405 10.3207 5.67802C9.29531 6.16287 8.42121 6.9176 7.79206 7.86132C7.16607 8.80031 6.80605 9.89117 6.75007 11.0181V14C6.75007 14.0301 6.74825 14.0602 6.74463 14.0901C6.65527 14.8284 6.39381 15.5354 5.98129 16.1542C5.9598 16.1864 5.93793 16.2183 5.91569 16.25H18.0845C18.0622 16.2183 18.0403 16.1864 18.0188 16.1542C17.6063 15.5354 17.3449 14.8284 17.2555 14.0901C17.2519 14.0602 17.2501 14.0301 17.2501 14V11.0181C17.1941 9.89117 16.8341 8.80031 16.2081 7.86132C15.5789 6.9176 14.7048 6.16287 13.6795 5.67802C13.4173 5.55405 13.2501 5.29002 13.2501 5C13.2501 4.66848 13.1184 4.35054 12.884 4.11612C12.6495 3.8817 12.3316 3.75 12.0001 3.75ZM14.2501 17.75H9.75007V18C9.75007 18.5967 9.98712 19.169 10.4091 19.591C10.831 20.0129 11.4033 20.25 12.0001 20.25C12.5968 20.25 13.1691 20.0129 13.5911 19.591C14.013 19.169 14.2501 18.5967 14.2501 18V17.75ZM8.25007 17.75V18C8.25007 18.9946 8.64516 19.9484 9.34842 20.6517C10.0517 21.3549 11.0055 21.75 12.0001 21.75C12.9946 21.75 13.9485 21.3549 14.6517 20.6517C15.355 19.9484 15.7501 18.9946 15.7501 18V17.75H20.0001C20.3407 17.75 20.6385 17.5205 20.7253 17.1911C20.8121 16.8617 20.666 16.5152 20.3696 16.3474C19.9269 16.0966 19.5492 15.7455 19.2669 15.3221C18.9926 14.9106 18.8159 14.4422 18.7501 13.9524V11C18.7501 10.9883 18.7498 10.9765 18.7492 10.9648C18.6833 9.55995 18.2363 8.19949 17.4562 7.02927C16.7564 5.97962 15.8123 5.11853 14.7076 4.51836C14.6097 3.96791 14.3454 3.45621 13.9446 3.05546C13.4289 2.53973 12.7294 2.25 12.0001 2.25C11.2707 2.25 10.5713 2.53973 10.0555 3.05546C9.65478 3.45621 9.39049 3.96791 9.29256 4.51836C8.18789 5.11852 7.24375 5.97962 6.54398 7.02927C5.76383 8.19949 5.31684 9.55995 5.25089 10.9648C5.25034 10.9765 5.25007 10.9883 5.25007 11V13.9524C5.18422 14.4422 5.00753 14.9106 4.73322 15.3221C4.45097 15.7455 4.07327 16.0966 3.6305 16.3474C3.33411 16.5152 3.18804 16.8617 3.27482 17.1911C3.36161 17.5205 3.65945 17.75 4.00007 17.75H8.25007Z"
        fill="#8A8A98"/>
</svg>
