<svg width="25" height="24" viewBox="0 0 25 24" fill="none" xmlns="http://www.w3.org/2000/svg">
  <path fill-rule="evenodd" clip-rule="evenodd"
        d="M17.7077 23.0008H13.0202V14.9761C13.8616 14.8959 14.6442 14.6234 15.3196 14.2051C16.7564 15.0952 17.7077 16.6457 17.7077 18.4094V23.0008ZM9.67918 14.2051C10.3545 14.6234 11.1371 14.8959 11.9785 14.9761V23.0008H7.29102V18.4094C7.29102 16.6457 8.2423 15.0952 9.67918 14.2051ZM14.5827 19.0008C14.2951 19.0008 14.0618 19.2247 14.0618 19.5008C14.0618 19.7769 14.2951 20.0008 14.5827 20.0008H16.1452C16.4328 20.0008 16.666 19.7769 16.666 19.5008C16.666 19.2247 16.4328 19.0008 16.1452 19.0008H14.5827Z"
        fill="#848B96"/>
  <path fill-rule="evenodd" clip-rule="evenodd"
        d="M13.0202 14.9761V23.0008H17.7077V18.4094C17.7077 16.6457 16.7564 15.0952 15.3196 14.2051C14.6442 14.6234 13.8616 14.8959 13.0202 14.9761ZM15.2385 15.3951C14.8657 15.5699 14.4718 15.7102 14.0618 15.8115V18.0862C14.2248 18.0309 14.4001 18.0008 14.5827 18.0008H16.1452C16.3227 18.0008 16.4932 18.0292 16.6523 18.0815C16.562 17.0126 16.0341 16.0619 15.2385 15.3951ZM16.666 19.5008C16.666 19.2247 16.4328 19.0008 16.1452 19.0008H14.5827C14.2951 19.0008 14.0618 19.2247 14.0618 19.5008C14.0618 19.7769 14.2951 20.0008 14.5827 20.0008H16.1452C16.4328 20.0008 16.666 19.7769 16.666 19.5008ZM14.0618 20.9154V22.0008H16.666V20.9154C16.5031 20.9707 16.3278 21.0008 16.1452 21.0008H14.5827C14.4001 21.0008 14.2248 20.9707 14.0618 20.9154ZM9.76014 15.3951C8.88403 16.1294 8.33268 17.2078 8.33268 18.4094V22.0008H10.9368V15.8115C10.5268 15.7102 10.133 15.5699 9.76014 15.3951ZM11.9785 14.9761C11.1371 14.8959 10.3545 14.6234 9.67918 14.2051C8.2423 15.0952 7.29102 16.6457 7.29102 18.4094V23.0008H11.9785V14.9761Z"
        fill="#848B96"/>
  <path fill-rule="evenodd" clip-rule="evenodd"
        d="M14.1175 5.39746C14.6641 5.22292 15.122 4.83463 15.364 4.31177L15.9143 3.12305C16.9556 3.45027 17.7077 4.39056 17.7077 5.49949V11.4063C17.7077 11.8469 17.1768 12.0918 16.8184 11.8166L15.6243 10.8995V7.99949H9.37435V10.8995L8.18023 11.8166C7.82188 12.0918 7.29102 11.8469 7.29102 11.4063V5.49949C7.29102 4.39056 8.04311 3.45027 9.08433 3.12305L9.63466 4.31177C9.96904 5.03402 10.7151 5.49949 11.5384 5.49949H12.9312C12.7167 6.08209 12.138 6.49949 11.4577 6.49949H8.85352C8.56587 6.49949 8.33268 6.72335 8.33268 6.99949C8.33268 7.27563 8.56587 7.49949 8.85352 7.49949H11.4577C12.3096 7.49949 13.0659 7.10682 13.541 6.49973C14.0161 7.10682 14.7725 7.49949 15.6243 7.49949H16.1452C16.4328 7.49949 16.666 7.27563 16.666 6.99949C16.666 6.72335 16.4328 6.49949 16.1452 6.49949H15.6243C14.905 6.49949 14.299 6.03273 14.1175 5.39746Z"
        fill="#848B96"/>
  <path fill-rule="evenodd" clip-rule="evenodd"
        d="M12.8986 5C13.7132 5 14.4531 4.54421 14.7925 3.83331L15.1538 3.07675C15.4073 2.54569 15.1347 1.91994 14.5628 1.7203L12.4994 1L10.436 1.7203C9.86415 1.91994 9.59154 2.54569 9.84509 3.07675L10.2063 3.83331C10.5457 4.54421 11.2855 5 12.1002 5H12.8986ZM13.0202 2C13.0202 1.72386 12.7871 1.5 12.4994 1.5C12.2118 1.5 11.9785 1.72386 11.9785 2V2.5H11.4577C11.1701 2.5 10.9369 2.72386 10.9369 3C10.9369 3.27614 11.1701 3.5 11.4577 3.5H11.9785V4C11.9785 4.27614 12.2118 4.5 12.4994 4.5C12.7871 4.5 13.0202 4.27614 13.0202 4V3.5H13.541C13.8288 3.5 14.0619 3.27614 14.0619 3C14.0619 2.72386 13.8288 2.5 13.541 2.5H13.0202V2Z"
        fill="#848B96"/>
  <path d="M15.625 11V8H9.375V11C9.375 12.6569 10.7741 14 12.5 14C14.2259 14 15.625 12.6569 15.625 11Z" fill="#848B96"/>
</svg>
