<svg width="24" height="24" viewBox="0 0 24 24" fill="none" xmlns="http://www.w3.org/2000/svg">
  <path d="M4.45703 11.2461H5.58882V12.3776H4.45703V11.2461Z" fill="#848B96"/>
  <path d="M4.45703 14.6406H5.58882V15.772H4.45703V14.6406Z" fill="#848B96"/>
  <path d="M4.45703 7.85254H5.58882V8.98402H4.45703V7.85254Z" fill="#848B96"/>
  <path
    d="M12.7542 5.21215C12.9625 5.21215 13.1314 5.04329 13.1314 4.83511V3.32645C13.1314 3.11827 12.9625 2.94941 12.7542 2.94941H10.4537C10.3614 2.94345 10.2736 2.90832 10.2025 2.84903C10.1898 2.83662 10.1779 2.82324 10.1671 2.80906C10.1493 2.78812 10.1339 2.76524 10.1212 2.74091C10.1128 2.72334 10.1057 2.7053 10.0999 2.68693C10.0939 2.67388 10.0886 2.6605 10.0841 2.64697C9.94069 1.94477 9.32291 1.44043 8.60605 1.44043C7.88934 1.44043 7.27157 1.94477 7.12817 2.64697C7.12382 2.65889 7.11882 2.67065 7.11302 2.68193C7.10593 2.70594 7.09626 2.72914 7.08402 2.75106C7.04986 2.81342 6.99846 2.86465 6.9361 2.89881C6.91419 2.91074 6.89115 2.92041 6.86714 2.9275C6.84458 2.93426 6.82122 2.93894 6.79769 2.94151C6.78464 2.9449 6.77127 2.94748 6.75773 2.94941H4.45728C4.24894 2.94941 4.08008 3.11827 4.08008 3.32645V4.83511C4.08008 5.04329 4.24894 5.21215 4.45728 5.21215H12.7542ZM7.09723 3.70366H11.9999C12.2083 3.70366 12.3771 3.87252 12.3771 4.08086C12.3771 4.28904 12.2083 4.4579 11.9999 4.4579H7.09723C6.88889 4.4579 6.72003 4.28904 6.72003 4.08086C6.72003 3.87252 6.88889 3.70366 7.09723 3.70366ZM5.21153 3.70366H5.58873C5.79691 3.70366 5.96578 3.87252 5.96578 4.08086C5.96578 4.28904 5.79691 4.4579 5.58873 4.4579H5.21153C5.00319 4.4579 4.83433 4.28904 4.83433 4.08086C4.83433 3.87252 5.00319 3.70366 5.21153 3.70366Z"
    fill="#848B96"/>
  <path
    d="M15.0925 12.7622C15.1023 12.7622 15.109 12.7701 15.1184 12.7727C15.2196 12.7634 15.3214 12.7561 15.4247 12.7561H16.2416H16.2498C16.4472 12.7566 16.6428 12.7911 16.8285 12.8583C16.8662 12.8723 16.9011 12.8923 16.9377 12.9085C16.8957 12.5997 16.8251 12.2954 16.727 11.9996C16.4211 11.106 15.5844 10.5029 14.6398 10.4952H14.6334C14.3912 10.4943 14.1492 10.5077 13.9086 10.5356C13.86 11.0575 13.8426 12.5122 15.0925 12.7622Z"
    fill="#848B96"/>
  <path
    d="M15.7705 9.983V4.08131C15.7705 3.87297 15.6016 3.7041 15.3933 3.7041H13.8848V4.45835H14.262C14.6785 4.45835 15.0162 4.79608 15.0162 5.2126V9.77595C15.2755 9.81188 15.5291 9.88149 15.7705 9.983Z"
    fill="#848B96"/>
  <path
    d="M2.94811 21.8065C2.53143 21.8065 2.1937 21.469 2.1937 21.0523V5.2126C2.1937 4.79608 2.53143 4.45835 2.94811 4.45835H3.32515V3.7041H1.81666C1.60832 3.7041 1.43945 3.87297 1.43945 4.08131V22.1837C1.43945 22.3921 1.60832 22.5609 1.81666 22.5609H14.413C14.077 22.3468 13.7676 22.0935 13.4913 21.8065H2.94811Z"
    fill="#848B96"/>
  <path
    d="M14.0206 13.0791C13.1228 12.3545 13.0552 10.9799 13.1878 10.204C13.2227 10.049 13.2871 9.77801 14.2613 9.7432V5.21191H13.8146C13.6554 5.66243 13.2304 5.96423 12.7526 5.96616H4.45576C3.97801 5.96423 3.55295 5.66243 3.39376 5.21191H2.94727V21.0516H12.8922C12.3061 20.1548 11.9955 19.106 11.9984 18.0346V16.4016C11.9807 14.9983 12.766 13.708 14.0206 13.0791ZM7.47275 8.22907H12.7526C12.961 8.22907 13.1298 8.39793 13.1298 8.60611C13.1298 8.81445 12.961 8.98331 12.7526 8.98331H7.47275C7.26457 8.98331 7.0957 8.81445 7.0957 8.60611C7.0957 8.39793 7.26457 8.22907 7.47275 8.22907ZM6.34146 19.1659C6.34146 19.5826 6.00373 19.9203 5.58721 19.9203H4.45576C4.03924 19.9203 3.70151 19.5826 3.70151 19.1659V18.0346C3.70151 17.6179 4.03924 17.2804 4.45576 17.2804H5.58721C6.00373 17.2804 6.34146 17.6179 6.34146 18.0346V19.1659ZM6.34146 15.7717C6.34146 16.1884 6.00373 16.526 5.58721 16.526H4.45576C4.03924 16.526 3.70151 16.1884 3.70151 15.7717V14.6404C3.70151 14.2237 4.03924 13.886 4.45576 13.886H5.58721C6.00373 13.886 6.34146 14.2237 6.34146 14.6404V15.7717ZM6.34146 12.3775C6.34146 12.794 6.00373 13.1318 5.58721 13.1318H4.45576C4.03924 13.1318 3.70151 12.794 3.70151 12.3775V11.2461C3.70151 10.8295 4.03924 10.4918 4.45576 10.4918H5.58721C6.00373 10.4918 6.34146 10.8295 6.34146 11.2461V12.3775ZM6.34146 8.98331C6.34146 9.39983 6.00373 9.73756 5.58721 9.73756H4.45576C4.03924 9.73756 3.70151 9.39983 3.70151 8.98331V7.85186C3.70151 7.43534 4.03924 7.09761 4.45576 7.09761H5.58721C6.00373 7.09761 6.34146 7.43534 6.34146 7.85186V8.98331ZM10.8671 19.1659H7.47275C7.26457 19.1659 7.0957 18.9972 7.0957 18.7889C7.0957 18.5805 7.26457 18.4117 7.47275 18.4117H10.8671C11.0753 18.4117 11.2441 18.5805 11.2441 18.7889C11.2441 18.9972 11.0753 19.1659 10.8671 19.1659ZM10.8671 15.7717H7.47275C7.26457 15.7717 7.0957 15.6028 7.0957 15.3947C7.0957 15.1863 7.26457 15.0175 7.47275 15.0175H10.8671C11.0753 15.0175 11.2441 15.1863 11.2441 15.3947C11.2441 15.6028 11.0753 15.7717 10.8671 15.7717ZM11.6213 12.3775H7.47275C7.26457 12.3775 7.0957 12.2086 7.0957 12.0005C7.0957 11.7921 7.26457 11.6233 7.47275 11.6233H11.6213C11.8295 11.6233 11.9984 11.7921 11.9984 12.0005C11.9984 12.2086 11.8295 12.3775 11.6213 12.3775Z"
    fill="#848B96"/>
  <path
    d="M19.8905 13.5091H19.0578C18.9553 13.5103 18.8536 13.5271 18.7561 13.5584L18.7379 13.5637C18.3005 13.7411 18.0196 14.1719 18.0338 14.6439L18.0124 14.6872C17.937 13.58 18.0565 11.2748 20.1104 10.0623C20.284 9.95405 20.3396 9.72702 20.2355 9.55074C20.1315 9.37447 19.906 9.3134 19.7273 9.41298C17.5398 10.7039 17.2249 13.0226 17.2494 14.3854C17.1793 14.0137 16.9228 13.7042 16.5706 13.5664C16.4691 13.53 16.3621 13.5108 16.2541 13.5099H15.423C13.9514 13.5091 12.7539 14.8074 12.7539 16.4017V18.0347C12.7539 20.5298 14.6374 22.5604 16.9518 22.5604H18.3615C20.676 22.5604 22.5595 20.5306 22.5595 18.0347V16.4017C22.5595 14.8074 21.3621 13.5091 19.8905 13.5091ZM15.1386 14.9956C15.0967 15.0122 14.2626 15.329 14.2626 16.526C14.2626 16.7344 14.0937 16.9033 13.8854 16.9033C13.677 16.9033 13.5083 16.7344 13.5083 16.526C13.5083 14.766 14.8407 14.301 14.8976 14.2825C15.0254 14.2393 15.1663 14.2675 15.2675 14.3566C15.3687 14.4455 15.4148 14.5817 15.3884 14.7138C15.362 14.8459 15.267 14.9541 15.1394 14.9972L15.1386 14.9956ZM17.2796 14.947C17.2845 14.999 17.2894 15.0474 17.2944 15.0926C17.2868 15.0681 17.2818 15.043 17.2796 15.0176V14.947Z"
    fill="#848B96"/>
  <path d="M4.45703 18.0352H5.58882V19.1665H4.45703V18.0352Z" fill="#848B96"/>
</svg>
