<svg width="24" height="24" viewBox="0 0 24 24" fill="none" xmlns="http://www.w3.org/2000/svg">
<path d="M16.7906 5.80055L14.0006 3.00055H21.0006V10.0005L18.2106 7.20055L14.1206 11.2905L12.7106 9.88055L16.7906 5.80055ZM19.0006 12.0005V16.1705L21.0006 18.1705V12.0005H19.0006ZM19.7806 22.6105L18.1706 21.0005H5.00063C3.89062 21.0005 3.00063 20.1005 3.00063 19.0005V5.83055L1.39062 4.22055L2.80062 2.81055L21.1806 21.1905L19.7806 22.6105ZM16.1706 19.0005L11.2906 14.1205L9.70062 15.7105L8.29063 14.3005L9.88062 12.7105L5.00063 7.83055V19.0005H16.1706ZM7.83063 5.00055H12.0006V3.00055H5.83063L7.83063 5.00055Z" fill="#848B96"/>
</svg>
