<svg width="24" height="24" viewBox="0 0 24 24" fill="none" xmlns="http://www.w3.org/2000/svg">
  <path
    d="M11.9995 15.6963C14.0401 15.6963 15.6944 14.0421 15.6944 12.0015C15.6944 9.96088 14.0401 8.30664 11.9995 8.30664C9.95893 8.30664 8.30469 9.96088 8.30469 12.0015C8.30469 14.0421 9.95893 15.6963 11.9995 15.6963Z"
    fill="#848B96"/>
  <path
    d="M23.6319 10.9789C20.7917 7.54682 16.4926 4.24316 12 4.24316C7.50665 4.24316 3.20646 7.54913 0.368214 10.9789C-0.122738 11.5719 -0.122738 12.4328 0.368214 13.0258C1.08178 13.8881 2.57773 15.5526 4.57572 17.007C9.60759 20.6701 14.3814 20.6782 19.4244 17.007C21.4224 15.5526 22.9183 13.8881 23.6319 13.0258C24.1214 12.4339 24.1239 11.5738 23.6319 10.9789ZM12 6.82956C14.8525 6.82956 17.1728 9.14992 17.1728 12.0023C17.1728 14.8548 14.8525 17.1751 12 17.1751C9.14763 17.1751 6.82726 14.8548 6.82726 12.0023C6.82726 9.14992 9.14763 6.82956 12 6.82956Z"
    fill="#848B96"/>
</svg>
