<svg width="24" height="24" viewBox="0 0 24 24" fill="none" xmlns="http://www.w3.org/2000/svg">
  <path
    d="M22.5595 13.426V10.5599H4.8533V4.57093C4.8533 3.52714 5.70248 2.67793 6.74626 2.67793C7.69349 2.67793 8.48033 3.37724 8.61786 4.28668H8.45595C7.40969 4.28668 6.55845 5.13791 6.55845 6.18417V8.16417H12.1192V6.18417C12.1192 5.13791 11.2679 4.28668 10.2217 4.28668H9.86328C9.71911 2.69327 8.37659 1.44043 6.74631 1.44043C5.02012 1.44043 3.6158 2.84474 3.6158 4.57093V10.5599H1.43945V13.426H22.5595Z"
    fill="#848B96"/>
  <path
    d="M13.0313 17.056V14.6631H2.6368V17.0561H3.61492V18.7844C2.8485 19.0432 2.29492 19.7686 2.29492 20.6213C2.29492 21.6903 3.16464 22.56 4.23367 22.56C5.3027 22.56 6.17242 21.6903 6.17242 20.6213C6.17242 19.7686 5.61884 19.0432 4.85242 18.7844V17.0561H13.0313V17.056Z"
    fill="#848B96"/>
  <path
    d="M20.3827 18.7843V14.6631H16.0762V15.0197C16.0762 16.1426 16.9897 17.056 18.1125 17.056H19.1452V18.7843C18.3788 19.0432 17.8252 19.7685 17.8252 20.6212C17.8252 21.6903 18.6949 22.56 19.7639 22.56C20.833 22.56 21.7027 21.6903 21.7027 20.6212C21.7027 19.7685 21.1492 19.0432 20.3827 18.7843Z"
    fill="#848B96"/>
</svg>
