<svg width="24" height="24" viewBox="0 0 24 24" fill="none" xmlns="http://www.w3.org/2000/svg">
  <path
    d="M12.9059 3.09638L3.23465 1.62678C2.78585 1.55638 2.32825 1.67958 1.98505 1.96998C1.64185 2.26918 1.43945 2.70038 1.43945 3.14918V21.6908C1.43945 22.1748 1.83545 22.5708 2.31945 22.5708H5.17945V17.9508C5.17945 17.0972 5.86585 16.4108 6.71945 16.4108H8.91945C9.77305 16.4108 10.4595 17.0972 10.4595 17.9508V22.5708H14.1995V4.61878C14.1995 3.86198 13.6539 3.21958 12.9059 3.09638ZM6.27945 14.4308H4.95945C4.59513 14.4308 4.29945 14.1351 4.29945 13.7708C4.29945 13.4065 4.59513 13.1108 4.95945 13.1108H6.27945C6.64377 13.1108 6.93945 13.4065 6.93945 13.7708C6.93945 14.1351 6.64377 14.4308 6.27945 14.4308ZM6.27945 11.7908H4.95945C4.59513 11.7908 4.29945 11.4951 4.29945 11.1308C4.29945 10.7665 4.59513 10.4708 4.95945 10.4708H6.27945C6.64377 10.4708 6.93945 10.7665 6.93945 11.1308C6.93945 11.4951 6.64377 11.7908 6.27945 11.7908ZM6.27945 9.15078H4.95945C4.59513 9.15078 4.29945 8.8551 4.29945 8.49078C4.29945 8.12646 4.59513 7.83078 4.95945 7.83078H6.27945C6.64377 7.83078 6.93945 8.12646 6.93945 8.49078C6.93945 8.8551 6.64377 9.15078 6.27945 9.15078ZM6.27945 6.51078H4.95945C4.59513 6.51078 4.29945 6.2151 4.29945 5.85078C4.29945 5.48646 4.59513 5.19078 4.95945 5.19078H6.27945C6.64377 5.19078 6.93945 5.48646 6.93945 5.85078C6.93945 6.2151 6.64377 6.51078 6.27945 6.51078ZM10.6795 14.4308H9.35945C8.99513 14.4308 8.69945 14.1351 8.69945 13.7708C8.69945 13.4065 8.99513 13.1108 9.35945 13.1108H10.6795C11.0438 13.1108 11.3395 13.4065 11.3395 13.7708C11.3395 14.1351 11.0438 14.4308 10.6795 14.4308ZM10.6795 11.7908H9.35945C8.99513 11.7908 8.69945 11.4951 8.69945 11.1308C8.69945 10.7665 8.99513 10.4708 9.35945 10.4708H10.6795C11.0438 10.4708 11.3395 10.7665 11.3395 11.1308C11.3395 11.4951 11.0438 11.7908 10.6795 11.7908ZM10.6795 9.15078H9.35945C8.99513 9.15078 8.69945 8.8551 8.69945 8.49078C8.69945 8.12646 8.99513 7.83078 9.35945 7.83078H10.6795C11.0438 7.83078 11.3395 8.12646 11.3395 8.49078C11.3395 8.8551 11.0438 9.15078 10.6795 9.15078ZM10.6795 6.51078H9.35945C8.99513 6.51078 8.69945 6.2151 8.69945 5.85078C8.69945 5.48646 8.99513 5.19078 9.35945 5.19078H10.6795C11.0438 5.19078 11.3395 5.48646 11.3395 5.85078C11.3395 6.2151 11.0438 6.51078 10.6795 6.51078Z"
    fill="#848B96"/>
  <path
    d="M21.3457 10.9918L15.0801 9.67969V22.5708H21.0201C21.8693 22.5708 22.5601 21.88 22.5601 21.0308V12.4966C22.5601 11.7697 22.0646 11.151 21.3457 10.9918ZM19.2601 19.9308H17.9401C17.5758 19.9308 17.2801 19.6351 17.2801 19.2708C17.2801 18.9065 17.5758 18.6108 17.9401 18.6108H19.2601C19.6244 18.6108 19.9201 18.9065 19.9201 19.2708C19.9201 19.6351 19.6244 19.9308 19.2601 19.9308ZM19.2601 17.2908H17.9401C17.5758 17.2908 17.2801 16.9951 17.2801 16.6308C17.2801 16.2665 17.5758 15.9708 17.9401 15.9708H19.2601C19.6244 15.9708 19.9201 16.2665 19.9201 16.6308C19.9201 16.9951 19.6244 17.2908 19.2601 17.2908ZM19.2601 14.6508H17.9401C17.5758 14.6508 17.2801 14.3551 17.2801 13.9908C17.2801 13.6265 17.5758 13.3308 17.9401 13.3308H19.2601C19.6244 13.3308 19.9201 13.6265 19.9201 13.9908C19.9201 14.3551 19.6244 14.6508 19.2601 14.6508Z"
    fill="#848B96"/>
</svg>
