<svg width="24" height="24" viewBox="0 0 24 24" fill="none" xmlns="http://www.w3.org/2000/svg">
  <path fill-rule="evenodd" clip-rule="evenodd"
        d="M14.2544 8.00811C13.2017 7.49831 12.5742 6.57413 12.5742 5.53679V2.02965C12.5213 2.02655 12.4685 2.02294 12.4158 2.01934C12.2743 2.00967 12.1328 2 11.9889 2C11.845 2 11.7035 2.00967 11.562 2.01934C11.5093 2.02294 11.4565 2.02655 11.4037 2.02965V5.28934C11.4037 6.49012 10.7681 7.55204 9.78391 7.99387C9.37697 8.17678 9.09577 8.56082 9.06608 8.97346C8.98102 10.144 10.4331 10.6346 11.1282 9.81645C11.5488 9.31809 12.4279 9.31751 12.8508 9.81704C13.5507 10.6462 14.9152 10.1516 14.9152 9.06203C14.9152 8.61622 14.6557 8.20245 14.2544 8.00811ZM13.767 2.16501V5.59367C13.767 6.18175 14.1495 6.72044 14.7886 7.03483C15.5926 7.43059 16.1126 8.27149 16.1126 9.178C16.1126 11.3929 13.3799 12.3983 11.9746 10.7133C10.8675 12.2706 7.7323 11.5174 7.90876 9.0019C7.96947 8.15232 8.52264 7.36898 9.31748 7.00635C9.87409 6.75241 10.2486 6.08353 10.2486 5.34204V2.16505C5.58968 3.01186 2 7.1853 2 12.1533C2 17.1213 5.58968 21.2948 10.2486 22.1416V18.9645C10.2486 18.2231 9.87413 17.5542 9.31752 17.3002C8.52268 16.9376 7.96951 16.1543 7.9088 15.3047C7.74105 12.913 10.6835 11.9667 12.0411 13.5933C13.2021 11.9586 16.1126 12.8177 16.1126 15.1286C16.1126 16.0352 15.5926 16.876 14.7886 17.2717C14.1495 17.5861 13.767 18.1248 13.767 18.7129V22.1416C18.426 21.2948 21.9766 17.1213 21.9766 12.1533C21.9766 7.1853 18.426 3.01186 13.767 2.16501ZM11.127 14.1589C11.5499 14.6584 12.429 14.6579 12.8496 14.1595C13.5521 13.3297 14.9151 13.8266 14.9151 14.9139C14.9151 15.3597 14.6556 15.7735 14.2544 15.9684C13.2016 16.4777 12.5741 17.4018 12.5741 18.4392V21.9463C12.5212 21.9494 12.4685 21.953 12.4157 21.9566C12.2742 21.9663 12.1328 21.9759 11.9889 21.9759C11.8447 21.9759 11.7031 21.9662 11.5614 21.9565C11.5089 21.953 11.4563 21.9494 11.4036 21.9463V18.6866C11.4036 17.4858 10.7681 16.4239 9.7839 15.9821C9.37699 15.7992 9.0958 15.4151 9.06607 15.0025C8.98101 13.832 10.4374 13.3417 11.127 14.1589Z"
        fill="#848B96"/>
</svg>
