<svg width="24" height="24" viewBox="0 0 24 24" fill="none" xmlns="http://www.w3.org/2000/svg">
  <path
    d="M11.4286 18.5H4.57143C4.41988 18.5 4.27453 18.579 4.16737 18.7197C4.0602 18.8603 4 19.0511 4 19.25C4 19.4489 4.0602 19.6397 4.16737 19.7803C4.27453 19.921 4.41988 20 4.57143 20H11.4286C11.5801 20 11.7255 19.921 11.8326 19.7803C11.9398 19.6397 12 19.4489 12 19.25C12 19.0511 11.9398 18.8603 11.8326 18.7197C11.7255 18.579 11.5801 18.5 11.4286 18.5Z"
    fill="#848B96"/>
  <path
    d="M19.4286 5H4.57143C4.41988 5 4.27453 5.07902 4.16737 5.21967C4.0602 5.36032 4 5.55109 4 5.75C4 5.94891 4.0602 6.13968 4.16737 6.28033C4.27453 6.42098 4.41988 6.5 4.57143 6.5H19.4286C19.5801 6.5 19.7255 6.42098 19.8326 6.28033C19.9398 6.13968 20 5.94891 20 5.75C20 5.55109 19.9398 5.36032 19.8326 5.21967C19.7255 5.07902 19.5801 5 19.4286 5Z"
    fill="#848B96"/>
  <path
    d="M19.4286 9.5H4.57143C4.41988 9.5 4.27453 9.57902 4.16737 9.71967C4.0602 9.86032 4 10.0511 4 10.25C4 10.4489 4.0602 10.6397 4.16737 10.7803C4.27453 10.921 4.41988 11 4.57143 11H19.4286C19.5801 11 19.7255 10.921 19.8326 10.7803C19.9398 10.6397 20 10.4489 20 10.25C20 10.0511 19.9398 9.86032 19.8326 9.71967C19.7255 9.57902 19.5801 9.5 19.4286 9.5Z"
    fill="#848B96"/>
  <path
    d="M19.4286 14H4.57143C4.41988 14 4.27453 14.079 4.16737 14.2197C4.0602 14.3603 4 14.5511 4 14.75C4 14.9489 4.0602 15.1397 4.16737 15.2803C4.27453 15.421 4.41988 15.5 4.57143 15.5H19.4286C19.5801 15.5 19.7255 15.421 19.8326 15.2803C19.9398 15.1397 20 14.9489 20 14.75C20 14.5511 19.9398 14.3603 19.8326 14.2197C19.7255 14.079 19.5801 14 19.4286 14Z"
    fill="#848B96"/>
</svg>
