<svg width="24" height="24" viewBox="0 0 24 24" fill="none" xmlns="http://www.w3.org/2000/svg">
<path d="M8.66159 22.5548C9.21506 22.5548 9.66368 22.1057 9.66368 21.5521V21.2217L7.66016 21.5665C7.66827 22.1136 8.11272 22.5548 8.66159 22.5548Z" fill="#848B96"/>
<path d="M9.66326 18.2119L7.6582 19.0541V19.3011L9.66326 19.0196V18.2119Z" fill="#848B96"/>
<path d="M7.65842 21.1708L9.66348 20.826V20.5702L7.6582 20.3203L7.65842 21.1708Z" fill="#848B96"/>
<path d="M7.6582 19.6981V19.9245L9.66348 20.1742L9.66326 19.416L7.6582 19.6981Z" fill="#848B96"/>
<path d="M18.0791 6.82655V6.18686H18.2177C18.4766 6.18686 18.6861 5.97714 18.6861 5.7185V3.46402C18.6861 3.20538 18.4766 2.99566 18.2177 2.99566H17.8481C17.8522 2.96012 17.854 2.92283 17.854 2.884C17.854 2.85548 17.8518 2.82828 17.8498 2.80152H17.9474C18.2851 2.80152 18.5597 2.52687 18.5597 2.18947H18.3513C18.3513 2.41213 18.1701 2.59312 17.9477 2.59312H17.8092C17.7621 2.45842 17.6785 2.37616 17.5756 2.37616C17.4729 2.37616 17.3896 2.45842 17.342 2.59312H15.779V1.76367H15.1535V2.59312H12.9995C12.7764 2.59312 12.5959 2.41213 12.5959 2.18947H12.3872C12.3872 2.52687 12.6619 2.80152 12.9995 2.80152H15.1535V9.65666L15.0362 9.60686C13.6574 9.10582 13.1259 8.41853 12.5678 7.6935C12.1815 7.19224 11.6056 6.54553 10.7621 6.11666L10.1317 10.1226C10.1317 10.1226 10.2352 10.4383 10.2352 10.6261C10.2352 11.1631 9.79844 11.6001 9.2612 11.6001H7.49219C7.49219 11.6001 7.49219 11.9688 7.49219 12.6574C7.49219 13.3463 7.65847 13.4838 7.65847 13.4838L7.65891 18.6584L9.66441 17.816L9.66419 14.5807C9.70367 14.5829 9.74338 14.5855 9.78352 14.5855C9.79142 14.5855 9.79888 14.5846 9.80678 14.5846V21.5521C9.80678 22.1056 10.2554 22.5546 10.8089 22.5546C11.3623 22.5546 11.8116 22.1056 11.8116 21.5521V13.4788C11.8116 13.4788 11.9652 13.3309 11.9652 12.6577C11.9652 11.9846 11.9652 9.61805 11.9652 9.61805C12.5744 10.2577 13.4341 10.8959 14.9065 11.3535C15.084 11.4086 15.1537 11.4042 15.1537 11.4042V20.3868H14.7453C14.0826 20.3868 13.5161 20.7996 13.286 21.381C13.0383 21.4564 12.8567 21.6839 12.8567 21.9564C12.8567 22.2901 13.127 22.5605 13.4609 22.5605C13.7947 22.5605 14.065 22.2903 14.065 21.9564C14.065 21.7962 14.0016 21.651 13.9 21.5429C14.0538 21.2296 14.373 21.0113 14.7455 21.0113H15.9299H16.1528C16.5248 21.0113 16.844 21.2296 16.9982 21.5429C16.8966 21.651 16.8333 21.7958 16.8333 21.9564C16.8333 22.2901 17.1035 22.5605 17.4374 22.5605C17.7713 22.5605 18.0415 22.2903 18.0415 21.9564C18.0415 21.6839 17.8599 21.4564 17.6122 21.381C17.3817 20.7996 16.8153 20.3868 16.1532 20.3868H15.9566H15.7792V11.2028C15.9042 11.1032 16.0029 10.9678 16.0529 10.8033C16.0894 10.6844 16.0946 10.5638 16.0786 10.4482C16.5191 10.5409 17.0059 10.6721 17.2119 10.7379C17.392 10.7974 17.5642 10.8268 17.7219 10.8268C17.9266 10.8266 18.1069 10.7774 18.251 10.6798C18.4818 10.5243 18.6161 10.2494 18.6396 9.88547C18.6755 9.37784 18.4904 8.97683 18.3118 8.5892C18.2146 8.37882 18.1144 8.16099 18.0505 7.92823C17.972 7.64261 17.9207 7.1578 17.9314 6.82655H18.0791ZM17.5118 2.80174H17.6399C17.6427 2.82806 17.6458 2.85329 17.6458 2.88422C17.6458 2.92546 17.6427 2.96254 17.6381 2.99588H17.5137C17.5091 2.96276 17.5061 2.92568 17.5061 2.88422C17.5058 2.85329 17.5091 2.82806 17.5118 2.80174ZM18.1942 8.64338C18.3741 9.03321 18.5443 9.40175 18.5108 9.87669C18.4891 10.2044 18.3776 10.4387 18.1789 10.5728C17.9551 10.7235 17.6261 10.7386 17.2507 10.6151C17.0978 10.5662 16.5446 10.4131 16.0477 10.3113C15.9983 10.1595 15.9053 10.0239 15.7785 9.92276V2.80174H17.301C17.2988 2.8285 17.2966 2.8557 17.2966 2.88422C17.2966 2.92305 17.2988 2.96034 17.3025 2.99588H16.9333C16.6744 2.99588 16.4649 3.2056 16.4649 3.46424V5.71872C16.4649 5.97736 16.6744 6.18708 16.9333 6.18708H17.0632V6.46919H17.4188V6.18708H17.7221V6.82677H17.8013C17.791 7.16986 17.8437 7.6685 17.9248 7.96289C17.9924 8.2053 18.0949 8.42818 18.1942 8.64338ZM17.5958 5.10251C17.3238 5.10251 17.1033 4.88204 17.1033 4.61002C17.1033 4.338 17.5958 3.56691 17.5958 3.56691C17.5958 3.56691 18.0881 4.338 18.0881 4.61002C18.0881 4.88204 17.8676 5.10251 17.5958 5.10251Z" fill="#848B96"/>
<path d="M8.07617 2.19638L9.68526 1.44043C9.0425 1.45293 8.46819 1.74294 8.07617 2.19638Z" fill="#848B96"/>
<path d="M10.791 1.71484L9.03516 2.54012L11.162 1.97699C11.0477 1.87762 10.9244 1.78921 10.791 1.71484Z" fill="#848B96"/>
<path d="M7.01267 3.4806C6.99095 3.52711 6.97253 3.57186 6.95563 3.61267C6.86635 3.83006 6.83586 3.90333 6.53532 3.9584L6.65202 4.59457C7.29917 4.47589 7.44637 4.1192 7.55342 3.8588C7.55583 3.85332 7.55759 3.84959 7.55891 3.84498C7.67144 4.94688 8.59741 5.8077 9.72915 5.8077C10.9361 5.8077 11.9141 4.8293 11.9141 3.62232C11.9141 3.24873 11.8195 2.89686 11.6546 2.5893L7.81338 3.6063L7.7695 3.13444L9.03593 2.53928L7.74581 2.88084H7.74537L7.66837 2.90124C7.66749 2.90366 7.66706 2.90585 7.66618 2.90783C7.57996 2.93327 7.44637 2.96289 7.37639 2.93766C7.17501 2.86373 6.94488 2.61211 6.87469 2.3877L6.25781 2.58162C6.37342 2.94643 6.67725 3.30291 7.01267 3.4806Z" fill="#848B96"/>
<path d="M10.2732 5.93463L9.72918 6.48262L9.20115 5.92871C9.19984 5.92937 9.19808 5.92937 9.19633 5.92981C8.91751 5.9965 8.30963 6.31327 8.26685 6.33981C8.26224 6.34245 8.25851 6.3453 8.25391 6.34793L9.40605 9.29585L10.5485 6.02238C10.4577 5.9886 10.3662 5.95745 10.2732 5.93463Z" fill="#848B96"/>
<path d="M10.0344 10.6266C10.0344 10.2458 9.75671 9.93031 9.39365 9.86735L9.39343 9.86538L8.06558 6.46973C8.04803 6.48113 8.03026 6.49232 8.01271 6.50373L7.48556 9.85858C7.33266 9.86143 7.2833 9.85704 7.2833 9.85704L7.38223 9.23118L7.77118 6.67045C7.486 6.87403 7.21134 7.09779 6.95929 7.3573C6.25708 7.9676 5.71633 8.89422 5.3774 9.98889C5.28548 10.2857 5.2721 10.7051 5.46449 10.9489C5.66982 11.2079 5.8666 11.3347 7.38903 11.4093C7.38903 11.4056 9.26137 11.3986 9.26137 11.3986C9.68783 11.3988 10.0344 11.0524 10.0344 10.6266Z" fill="#848B96"/>
<path d="M10.3707 7.19629L9.50195 9.6855C9.66933 9.72827 9.82026 9.81229 9.94048 9.92944L10.3707 7.19629Z" fill="#848B96"/>
</svg>
