<svg width="24" height="24" viewBox="0 0 24 24" fill="none" xmlns="http://www.w3.org/2000/svg">
<path fill-rule="evenodd" clip-rule="evenodd" d="M10.0223 5.29718C10.6173 4.22566 10.2311 2.87461 9.15959 2.27953C8.08808 1.68444 6.73703 2.07067 6.14195 3.14219C5.54686 4.21371 5.93309 5.56475 7.00461 6.15984C8.07612 6.75492 9.42717 6.36869 10.0223 5.29718ZM14.7769 16.6776C15.0416 16.6776 15.2656 16.7997 15.4285 16.983L17.6071 19.6503C17.8311 19.915 17.8718 20.2611 17.7292 20.5462C17.5867 20.8516 17.3017 21.0348 16.9759 21.0348H8.28175C7.54875 21.0348 6.91756 20.6072 6.63251 19.9353L2.13273 9.10329C1.94948 8.63498 1.94948 8.08524 2.17345 7.61693C2.39742 7.14863 2.825 6.78213 3.31367 6.63961C4.20955 6.37491 5.14616 6.82286 5.51265 7.67802L8.60753 15.1505C8.99438 16.0871 9.89027 16.6776 10.888 16.6776H14.7769ZM17.6882 13.1135L21.0274 17.2875C21.516 17.878 21.4549 18.7942 20.8441 19.2625C20.5998 19.4661 20.3147 19.5476 20.0297 19.5476C19.6428 19.5476 19.256 19.3643 18.9913 19.0385L16.1814 15.4957C16.0796 15.3532 15.8964 15.2718 15.7131 15.2718H11.0708C10.5211 15.2718 10.0324 14.946 9.82882 14.4573L7.79272 9.6114C7.56875 9.06165 7.58911 8.45082 7.83344 7.92144C8.07777 7.39205 8.54607 7.00519 9.11618 6.82195C9.86954 6.57761 10.5211 6.78122 11.2337 7.43278C11.7224 7.86036 12.7404 8.83768 12.7404 8.83768H15.7946C16.4258 8.83768 16.9348 9.40779 16.833 10.0797C16.7516 10.5887 16.2629 10.9552 15.7335 10.9552H12.883L13.5956 12.6045H16.6497C17.057 12.6045 17.4438 12.7877 17.6882 13.1135ZM13.4123 5.78396H12.1499C11.8853 5.78396 11.6816 5.55999 11.6816 5.31566C11.6816 5.07132 11.8853 4.84735 12.1499 4.84735H13.0865L13.7177 3.42208C13.7788 3.23883 13.9621 3.13703 14.1453 3.13703C14.3286 3.13703 14.4915 3.2592 14.5729 3.42208L15.652 5.84504L15.9778 5.13241C16.0389 4.94916 16.2221 4.84735 16.4054 4.84735H17.6678C17.9121 4.84735 18.1361 5.07132 18.1361 5.31566C18.1361 5.55999 17.9325 5.78396 17.6678 5.78396H16.7312L16.1 7.20923C16.0389 7.39248 15.8556 7.49428 15.6724 7.49428C15.4891 7.49428 15.3263 7.37212 15.2448 7.20923L14.1657 4.78627L13.8399 5.49891C13.7788 5.68215 13.5956 5.78396 13.4123 5.78396Z" fill="#848B96"/>
</svg>
