<svg width="24" height="24" viewBox="0 0 24 24" fill="none" xmlns="http://www.w3.org/2000/svg">
<path d="M13.0824 12.5779C16.1533 12.5779 18.6512 10.0799 18.6512 7.00918C18.6512 3.93847 16.1533 1.44043 13.0824 1.44043C10.0117 1.44043 7.51367 3.93847 7.51367 7.00918C7.51367 10.0799 10.0117 12.5779 13.0824 12.5779ZM13.0824 7.62793C12.0589 7.62793 11.2262 6.7952 11.2262 5.77168C11.2262 4.96602 11.745 4.28571 12.4637 4.02935V3.29668C12.4637 2.95476 12.7405 2.67793 13.0824 2.67793C13.4245 2.67793 13.7012 2.95476 13.7012 3.29668V4.02935C14.4198 4.28571 14.9387 4.96602 14.9387 5.77168C14.9387 6.1136 14.662 6.39043 14.3199 6.39043C13.978 6.39043 13.7012 6.1136 13.7012 5.77168C13.7012 5.43024 13.4239 5.15293 13.0824 5.15293C12.7411 5.15293 12.4637 5.43024 12.4637 5.77168C12.4637 6.11312 12.7411 6.39043 13.0824 6.39043C14.1061 6.39043 14.9387 7.22316 14.9387 8.24668C14.9387 9.05234 14.4198 9.73265 13.7012 9.98901V10.7217C13.7012 11.0636 13.4245 11.3404 13.0824 11.3404C12.7405 11.3404 12.4637 11.0636 12.4637 10.7217V9.98901C11.745 9.73265 11.2262 9.05234 11.2262 8.24668C11.2262 7.90476 11.503 7.62793 11.8449 7.62793C12.187 7.62793 12.4637 7.90476 12.4637 8.24668C12.4637 8.58812 12.7411 8.86543 13.0824 8.86543C13.4239 8.86543 13.7012 8.58812 13.7012 8.24668C13.7012 7.90524 13.4239 7.62793 13.0824 7.62793Z" fill="#848B96"/>
<path d="M19.7403 14.8506C19.2575 14.3682 18.4655 14.3805 17.9954 14.8755L16.1762 16.8308C14.9894 18.1062 14.5955 18.8479 13.5033 18.8479H9.30821C8.96161 18.8479 8.68946 18.5756 8.68946 18.2291C8.68946 17.8825 8.96161 17.6104 9.30821 17.6104H12.4637C13.1472 17.6104 13.7012 17.0562 13.7012 16.3729C13.7012 15.6893 13.1472 15.1354 12.4637 15.1354H10.793C10.7115 15.1009 10.6392 15.0704 10.5575 15.0359C8.92407 13.4277 6.33789 13.3782 4.65501 14.8631L2.93492 16.3729H1.94492C1.59833 16.3729 1.32617 16.645 1.32617 16.9916V21.9416C1.32617 22.2834 1.60316 22.5604 1.94492 22.5604H13.0824C14.4458 22.5604 15.7294 21.9186 16.5474 20.8279L19.8514 16.4223C20.2105 15.9521 20.161 15.2715 19.7403 14.8506Z" fill="#848B96"/>
</svg>
