<svg width="24" height="24" viewBox="0 0 24 24" fill="none" xmlns="http://www.w3.org/2000/svg">
  <path
    d="M12 5.15234C10.2942 5.15234 8.90625 6.54028 8.90625 8.24609C8.90625 9.25346 9.3975 10.1412 10.1452 10.7065C10.1533 9.6898 10.9814 8.86484 12 8.86484C13.0186 8.86484 13.8467 9.6898 13.8548 10.7065C14.6025 10.1412 15.0938 9.25346 15.0938 8.24609C15.0938 6.54028 13.7058 5.15234 12 5.15234ZM11.3813 7.62734H10.1438V6.38984H11.3813V7.62734ZM13.8563 7.62734H12.6188V6.38984H13.8563V7.62734Z"
    fill="#848B96"/>
  <path
    d="M11.9996 11.341C12.3413 11.341 12.6184 11.064 12.6184 10.7223C12.6184 10.3805 12.3413 10.1035 11.9996 10.1035C11.6579 10.1035 11.3809 10.3805 11.3809 10.7223C11.3809 11.064 11.6579 11.341 11.9996 11.341Z"
    fill="#848B96"/>
  <path
    d="M11.9996 1.44043C8.24664 1.44043 5.19336 4.49371 5.19336 8.24668V15.7542C5.19336 19.5071 8.24664 22.5604 11.9996 22.5604C15.7526 22.5604 18.8059 19.5071 18.8059 15.7542V8.24668C18.8059 4.49371 15.7526 1.44043 11.9996 1.44043ZM13.8559 17.6104H12.6184V18.8479H11.3809V17.6104H10.1434V16.3729H11.3809V15.1354H12.6184V16.3729H13.8559V17.6104ZM11.9996 12.5779C9.71197 12.5779 7.66836 10.6954 7.66836 8.24668C7.66836 5.85868 9.61161 3.91543 11.9996 3.91543C14.3876 3.91543 16.3309 5.85868 16.3309 8.24668C16.3309 10.6814 14.2986 12.5779 11.9996 12.5779Z"
    fill="#848B96"/>
</svg>
