<svg width="24" height="24" viewBox="0 0 24 24" fill="none" xmlns="http://www.w3.org/2000/svg">
<path d="M12.4453 5.51562C10.83 5.51562 9.51562 6.82996 9.51562 8.44531C9.51562 9.39926 9.98082 10.24 10.6889 10.7753C10.6965 9.81246 11.4807 9.03125 12.4453 9.03125C13.4099 9.03125 14.1941 9.81246 14.2018 10.7753C14.9098 10.24 15.375 9.39926 15.375 8.44531C15.375 6.82996 14.0607 5.51562 12.4453 5.51562ZM11.8594 7.85938H10.6875V6.6875H11.8594V7.85938ZM14.2031 7.85938H13.0312V6.6875H14.2031V7.85938Z" fill="#848B96"/>
<path d="M12.4453 11.375C12.7689 11.375 13.0312 11.1127 13.0312 10.7891C13.0312 10.4655 12.7689 10.2031 12.4453 10.2031C12.1217 10.2031 11.8594 10.4655 11.8594 10.7891C11.8594 11.1127 12.1217 11.375 12.4453 11.375Z" fill="#848B96"/>
<path d="M12.4453 2C8.89137 2 6 4.89137 6 8.44531V15.5547C6 19.1086 8.89137 22 12.4453 22C15.9993 22 18.8906 19.1086 18.8906 15.5547V8.44531C18.8906 4.89137 15.9993 2 12.4453 2ZM14.2031 17.3125H13.0312V18.4844H11.8594V17.3125H10.6875V16.1406H11.8594V14.9688H13.0312V16.1406H14.2031V17.3125ZM12.4453 12.5469C10.279 12.5469 8.34375 10.7642 8.34375 8.44531C8.34375 6.18395 10.1839 4.34375 12.4453 4.34375C14.7067 4.34375 16.5469 6.18395 16.5469 8.44531C16.5469 10.7509 14.6224 12.5469 12.4453 12.5469Z" fill="#848B96"/>
</svg>
