<svg width="10" height="10" viewBox="0 0 10 10" fill="none" xmlns="http://www.w3.org/2000/svg">
  <path
    d="M0.946092 4.5722L0.946196 4.57253L2.15056 8.40661C2.15061 8.40677 2.15066 8.40692 2.15071 8.40708C2.27544 8.81681 2.64251 9.09923 3.06177 9.1H3.06195L6.94089 9.1L6.94136 9.1C7.35822 9.09806 7.72308 8.81772 7.84866 8.4108C7.84868 8.41072 7.8487 8.41065 7.84873 8.41057L9.05322 4.57249L9.05324 4.57245C9.18085 4.1652 9.04151 3.71741 8.70477 3.46462C8.70471 3.46457 8.70466 3.46453 8.7046 3.46448L5.56639 1.09323C5.56631 1.09317 5.56623 1.09311 5.56615 1.09304C5.22946 0.835652 4.76992 0.835652 4.43322 1.09304C4.43314 1.09311 4.43306 1.09317 4.43298 1.09323L1.29454 3.46466C1.29453 3.46467 1.29452 3.46468 1.29451 3.46469C0.958865 3.71813 0.819741 4.16503 0.946092 4.5722ZM8.49562 4.53165H8.50804L7.33454 8.23918C7.27515 8.41547 7.11599 8.52952 6.94178 8.52795V8.52795H6.94088L3.0585 8.52794L3.0576 8.52795C2.88342 8.52952 2.72433 8.41555 2.66489 8.23935L1.4642 4.40238C1.46417 4.40229 1.46414 4.4022 1.46411 4.4021C1.40865 4.22051 1.47214 4.02386 1.61799 3.91414L1.61816 3.91401L4.7571 1.54219L4.75736 1.542C4.90192 1.43202 5.09745 1.43202 5.24204 1.542L5.24229 1.54219L8.38123 3.91401L8.38141 3.91414C8.52735 4.0239 8.59082 4.22069 8.5352 4.40238L8.49562 4.53165ZM6.94088 8.62794H3.0585C2.83865 8.62992 2.64206 8.48601 2.56977 8.27021L6.94088 8.62794Z"
    fill="#10AF7F" stroke="#10AF7F" stroke-width="0.2"/>
</svg>
