<svg width="24" height="24" viewBox="0 0 24 24" fill="none" xmlns="http://www.w3.org/2000/svg">
  <g clip-path="url(#clip0_1759_35402)">
    <path
      d="M6.36096 13.7475C6.43524 13.6354 6.51179 13.5254 6.59344 13.4181L6.75996 13.1994L6.5649 13.0856C5.89675 12.6961 5.12823 12.4902 4.34176 12.4902C1.94775 12.49 0 14.3873 0 16.7191V18.0186C0 18.2588 0.201485 18.4544 0.449278 18.4544H5.30723V17.2259C5.30723 17.0843 5.31365 16.9346 5.32707 16.7549L5.33369 16.6685C5.34787 16.5073 5.3679 16.3494 5.39228 16.2003L5.39606 16.1797C5.42309 16.0183 5.45749 15.8554 5.49983 15.686C5.5399 15.5289 5.58734 15.3689 5.6414 15.2105L5.45012 15.1473L5.65293 15.1766C5.7584 14.8723 5.88843 14.5735 6.03945 14.2885L6.07253 14.2259C6.14322 14.0955 6.21939 13.9664 6.29897 13.842L6.36096 13.7475Z"
      fill="#848B96"/>
    <path
      d="M4.34085 11.41C5.60686 11.41 6.63678 10.4073 6.63678 9.17471C6.63678 7.94216 5.60686 6.93945 4.34085 6.93945C3.07485 6.93945 2.04492 7.94216 2.04492 9.1749C2.04492 10.4073 3.07485 11.41 4.34085 11.41Z"
      fill="#848B96"/>
    <path
      d="M18.07 16.8358C18.0661 16.7752 18.0619 16.7143 18.0557 16.654C18.0517 16.6136 18.046 16.5735 18.0411 16.5332C18.0347 16.4794 18.0283 16.4255 18.0201 16.3724C18.0139 16.331 18.0062 16.2896 17.999 16.2482C17.9899 16.1962 17.9808 16.1443 17.9704 16.0927C17.9623 16.0526 17.953 16.0127 17.944 15.9726C17.9323 15.9201 17.92 15.8674 17.9067 15.8154C17.8973 15.7781 17.8869 15.7411 17.8767 15.7042C17.8614 15.649 17.8455 15.594 17.8285 15.5396C17.8183 15.5069 17.8075 15.4742 17.7969 15.4417C17.7774 15.3827 17.757 15.3241 17.7359 15.2659C17.7257 15.2387 17.7156 15.2117 17.7052 15.1845C17.6807 15.1208 17.6552 15.0576 17.6281 14.9949C17.6192 14.9739 17.6104 14.9531 17.6011 14.9321C17.5705 14.8629 17.5387 14.7947 17.5057 14.727C17.4987 14.7129 17.4919 14.6987 17.4849 14.6847C17.448 14.6106 17.4093 14.5373 17.3692 14.4649C17.365 14.4571 17.3607 14.4494 17.3565 14.4416C17.3123 14.3628 17.2664 14.2851 17.2185 14.2086C17.2176 14.2071 17.2168 14.2058 17.2159 14.2042C16.1646 12.522 14.2637 11.3965 12.0979 11.3965C10.2473 11.3965 8.59039 12.2187 7.4913 13.5072C7.48298 13.517 7.47485 13.5266 7.46672 13.5363C7.41626 13.5962 7.3673 13.6572 7.3193 13.7191C7.30852 13.7329 7.29756 13.747 7.28679 13.7612C7.2435 13.8181 7.20116 13.8761 7.15996 13.9345C7.14597 13.9544 7.13199 13.974 7.11838 13.9943C7.08265 14.0464 7.04788 14.0997 7.01367 14.153C6.99665 14.1799 6.97927 14.2063 6.96282 14.2334C6.93485 14.2787 6.9082 14.3248 6.88155 14.3708C6.86094 14.4065 6.83978 14.4418 6.82012 14.4779C6.80141 14.5118 6.78402 14.5464 6.76587 14.5809C6.74054 14.6293 6.71484 14.6773 6.69084 14.7265C6.68913 14.7297 6.68781 14.7331 6.68611 14.7365C6.54057 15.0361 6.42206 15.3474 6.33077 15.6664C6.32756 15.6778 6.32415 15.6889 6.32094 15.7001C6.30223 15.7676 6.28522 15.8352 6.26896 15.9031C6.26386 15.9241 6.25876 15.945 6.25403 15.9658C6.23986 16.028 6.227 16.0904 6.21491 16.1528C6.20924 16.1817 6.20413 16.2106 6.19903 16.2395C6.18901 16.2964 6.17975 16.3533 6.17143 16.4106C6.16595 16.4486 6.16104 16.4867 6.1565 16.5251C6.15026 16.5752 6.14403 16.6251 6.13911 16.6754C6.13401 16.7268 6.13061 16.7784 6.12683 16.83C6.12418 16.8689 6.12059 16.9079 6.1187 16.947C6.11416 17.0394 6.11133 17.1324 6.11133 17.2258V19.0535C6.11133 19.3264 6.34135 19.5483 6.62374 19.5483H17.5726C17.8549 19.5483 18.085 19.3264 18.085 19.0535V17.2262C18.085 17.1298 18.0823 17.0337 18.0774 16.9385C18.0757 16.9043 18.0723 16.8701 18.07 16.8358Z"
      fill="#848B96"/>
    <path
      d="M11.9585 10.1373C13.5694 10.1373 14.8799 8.86199 14.8799 7.2947C14.8799 5.72741 13.5694 4.45215 11.9585 4.45215C10.3475 4.45215 9.03711 5.72741 9.03711 7.2947C9.03711 8.86199 10.3477 10.1373 11.9585 10.1373Z"
      fill="#848B96"/>
    <path
      d="M19.6593 12.1895C18.8075 12.1895 17.9805 12.4312 17.2685 12.8888L17.0801 13.0098L17.2226 13.181C17.5409 13.563 17.8155 13.9847 18.0384 14.4338L18.0482 14.454C18.0892 14.5375 18.1285 14.6222 18.1669 14.7092L18.1811 14.7417C18.217 14.8254 18.2512 14.9097 18.2896 15.0099L18.2969 15.0286C18.3699 15.2238 18.4328 15.4212 18.4842 15.6156L18.4961 15.664C18.5166 15.7429 18.5355 15.822 18.5527 15.9024L18.5733 16.0054C18.5859 16.0687 18.5976 16.132 18.6082 16.1961C18.6147 16.235 18.6205 16.2738 18.6264 16.3127C18.6355 16.3745 18.6438 16.4363 18.6508 16.4991C18.6551 16.538 18.6598 16.5768 18.6636 16.6157C18.6702 16.6828 18.675 16.7503 18.6791 16.8179L18.6859 16.9196C18.6908 17.0211 18.694 17.123 18.694 17.2253V18.1533H23.552C23.7998 18.1533 24.0013 17.9577 24.0013 17.7173V16.4178C24.0011 14.0866 22.0533 12.1895 19.6593 12.1895Z"
      fill="#848B96"/>
    <path
      d="M19.6592 11.2137C20.9252 11.2137 21.9551 10.211 21.9551 8.97842C21.9551 7.74587 20.9252 6.74316 19.6592 6.74316C18.3932 6.74316 17.3633 7.74587 17.3633 8.97842C17.3633 10.211 18.3932 11.2137 19.6592 11.2137Z"
      fill="#848B96"/>
  </g>
  <defs>
    <clipPath id="clip0_1759_35402">
      <rect width="24" height="24" fill="white"/>
    </clipPath>
  </defs>
</svg>
