<svg width="24" height="24" viewBox="0 0 24 24" fill="none" xmlns="http://www.w3.org/2000/svg">
  <path
    d="M4.5 12C5.88071 12 7 10.8807 7 9.5C7 8.11929 5.88071 7 4.5 7C3.11929 7 2 8.11929 2 9.5C2 10.8807 3.11929 12 4.5 12Z"
    fill="#848B96"/>
  <path
    d="M9 8C10.3807 8 11.5 6.88071 11.5 5.5C11.5 4.11929 10.3807 3 9 3C7.61929 3 6.5 4.11929 6.5 5.5C6.5 6.88071 7.61929 8 9 8Z"
    fill="#848B96"/>
  <path
    d="M15 8C16.3807 8 17.5 6.88071 17.5 5.5C17.5 4.11929 16.3807 3 15 3C13.6193 3 12.5 4.11929 12.5 5.5C12.5 6.88071 13.6193 8 15 8Z"
    fill="#848B96"/>
  <path
    d="M19.5 12C20.8807 12 22 10.8807 22 9.5C22 8.11929 20.8807 7 19.5 7C18.1193 7 17 8.11929 17 9.5C17 10.8807 18.1193 12 19.5 12Z"
    fill="#848B96"/>
  <path
    d="M17.3406 14.86C16.4706 13.84 15.7406 12.97 14.8606 11.95C14.4006 11.41 13.8106 10.87 13.1106 10.63C13.0006 10.59 12.8906 10.56 12.7806 10.54C12.5306 10.5 12.2606 10.5 12.0006 10.5C11.7406 10.5 11.4706 10.5 11.2106 10.55C11.1006 10.57 10.9906 10.6 10.8806 10.64C10.1806 10.88 9.60063 11.42 9.13063 11.96C8.26063 12.98 7.53063 13.85 6.65063 14.87C5.34063 16.18 3.73063 17.63 4.03063 19.66C4.32063 20.68 5.05063 21.69 6.36063 21.98C7.09063 22.13 9.42063 21.54 11.9006 21.54H12.0806C14.5606 21.54 16.8906 22.12 17.6206 21.98C18.9306 21.69 19.6606 20.67 19.9506 19.66C20.2606 17.62 18.6506 16.17 17.3406 14.86Z"
    fill="#848B96"/>
</svg>
