<svg width="25" height="24" viewBox="0 0 25 24" fill="none" xmlns="http://www.w3.org/2000/svg">
<path d="M20.7446 17.3042L19.8921 16.4891C19.5379 16.149 19.0575 15.958 18.5566 15.958C18.0557 15.958 17.5753 16.149 17.2211 16.4891C16.867 16.8291 16.668 17.2902 16.668 17.7711C16.668 18.252 16.867 18.7131 17.2211 19.0532L18.0702 19.8716L20.7446 17.3042Z" fill="#848B96"/>
<path d="M22.0816 18.5879L21.2291 17.7695L18.5547 20.3369L19.4072 21.1553C19.7618 21.4958 20.2428 21.687 20.7444 21.687C21.2459 21.687 21.7269 21.4958 22.0816 21.1553C22.4362 20.8149 22.6354 20.3531 22.6354 19.8716C22.6354 19.3901 22.4362 18.9284 22.0816 18.5879Z" fill="#848B96"/>
<path d="M16.7338 19.5209C16.2502 19.0566 15.9785 18.4269 15.9785 17.7703C15.9785 17.4452 16.0452 17.1232 16.1748 16.8228C16.3044 16.5225 16.4944 16.2495 16.7338 16.0196C16.9733 15.7897 17.2576 15.6074 17.5705 15.4829C17.8834 15.3585 18.2188 15.2945 18.5574 15.2945C19.2414 15.2945 19.8974 15.5553 20.381 16.0196L20.9929 16.6268C20.8201 16.1269 20.512 15.68 20.1 15.3321C19.688 14.9841 19.1871 14.7476 18.6485 14.6468L14.5888 13.8779C13.9527 14.1669 13.2576 14.3168 12.5538 14.3168C11.85 14.3168 11.155 14.1669 10.5188 13.8779C9.97228 13.9868 6.42478 14.6468 6.20478 14.693C5.64026 14.8462 5.13273 15.1502 4.74138 15.5697C4.35003 15.9893 4.09099 16.507 3.99446 17.0624L3.27259 21.1907C3.264 21.2385 3.26648 21.2875 3.27986 21.3343C3.29324 21.3811 3.3172 21.4244 3.35002 21.4613C3.38284 21.4981 3.42372 21.5276 3.46975 21.5476C3.51578 21.5675 3.56583 21.5775 3.61634 21.5768H10.9795C11.0296 21.5775 11.0793 21.5675 11.1251 21.5477C11.1708 21.528 11.2115 21.4988 11.2443 21.4623C11.277 21.4258 11.3011 21.3829 11.3147 21.3366C11.3283 21.2902 11.3312 21.2416 11.3232 21.194L10.292 15.0659L12.296 16.4915C12.3549 16.5328 12.4259 16.5551 12.4988 16.5551C12.5718 16.5551 12.6428 16.5328 12.7017 16.4915L14.8467 15.0329L13.8154 21.1874C13.8074 21.235 13.8103 21.2836 13.8239 21.33C13.8376 21.3763 13.8616 21.4192 13.8944 21.4557C13.9271 21.4922 13.9678 21.5214 14.0135 21.5411C14.0593 21.5609 14.109 21.5709 14.1592 21.5702H18.8754L16.7338 19.5209Z" fill="#848B96"/>
<path d="M18.0544 8.3775C18.0544 8.12135 17.9923 7.86871 17.8729 7.6396C17.7536 7.41049 17.5803 7.21119 17.3669 7.0575C17.4838 6.6219 17.9719 4.533 16.9131 3.5166C16.1225 2.7675 14.9194 2.9292 14.4038 3.048C14.1563 2.7972 13.62 2.4375 12.5544 2.4375C11.0591 2.4375 8.56001 2.4375 7.7797 3.939C7.16439 5.1171 7.43595 6.6945 7.53908 7.239C7.32617 7.45272 7.17702 7.71745 7.10721 8.00548C7.03741 8.29351 7.04952 8.59425 7.14228 8.87625C7.23504 9.15824 7.40504 9.41112 7.6345 9.60843C7.86395 9.80574 8.14443 9.94022 8.44658 9.9978C8.5404 10.9814 9.01376 11.8959 9.77375 12.5617C10.5337 13.2275 11.5255 13.5967 12.5544 13.5967C13.5833 13.5967 14.575 13.2275 15.335 12.5617C16.095 11.8959 16.5684 10.9814 16.6622 9.9978C17.0542 9.92498 17.4075 9.72344 17.6615 9.42777C17.9156 9.13211 18.0545 8.76077 18.0544 8.3775ZM7.74189 8.3775C7.74121 8.23744 7.7715 8.09883 7.83076 7.97083C7.89002 7.84284 7.97689 7.72838 8.08564 7.635C8.17845 7.6053 8.28501 7.5591 8.42939 7.5228V9.3081C8.22879 9.24002 8.05504 9.11404 7.93196 8.94743C7.80888 8.78083 7.74249 8.58175 7.74189 8.3775ZM12.5544 12.9975C11.6427 12.9975 10.7684 12.6498 10.1237 12.031C9.47905 11.4121 9.11689 10.5727 9.11689 9.6975V8.0475C10.0701 8.02795 11.019 7.9174 11.9494 7.7175C12.661 7.54417 13.3106 7.18959 13.8297 6.6912C14.3659 7.5327 15.4831 7.9386 15.9919 8.0871V9.6975C15.9919 10.5727 15.6297 11.4121 14.9851 12.031C14.3404 12.6498 13.4661 12.9975 12.5544 12.9975ZM16.6794 9.3081V7.8231C16.6794 7.7208 16.6794 7.6119 16.6794 7.4931L16.7619 7.4667C16.9514 7.54728 17.1112 7.6808 17.2204 7.84985C17.3297 8.0189 17.3834 8.21563 17.3745 8.4144C17.3656 8.61316 17.2945 8.80475 17.1705 8.96416C17.0465 9.12358 16.8754 9.24343 16.6794 9.3081Z" fill="#848B96"/>
</svg>
