<svg width="24" height="24" viewBox="0 0 24 24" fill="none" xmlns="http://www.w3.org/2000/svg">
<path d="M7.97976 12.8803C4.82584 12.8803 2.25977 10.3142 2.25977 7.16031V4.08031C2.25977 3.10967 3.04912 2.32031 4.01976 2.32031H5.77976C6.26552 2.32031 6.65976 2.71455 6.65976 3.20031C6.65976 3.68607 6.26552 4.08031 5.77976 4.08031H4.01976V7.16031C4.01976 9.34358 5.79648 11.1203 7.97976 11.1203C10.163 11.1203 11.9398 9.34358 11.9398 7.16031V4.08031H10.1798C9.694 4.08031 9.29976 3.68607 9.29976 3.20031C9.29976 2.71455 9.694 2.32031 10.1798 2.32031H11.9398C12.9104 2.32031 13.6998 3.10967 13.6998 4.08031V7.16031C13.6998 10.3142 11.1337 12.8803 7.97976 12.8803Z" fill="#848B96"/>
<path d="M5.78039 4.96043C5.29463 4.96043 4.90039 4.56619 4.90039 4.08043V2.32043C4.90039 1.83467 5.29463 1.44043 5.78039 1.44043C6.26616 1.44043 6.6604 1.83467 6.6604 2.32043V4.08043C6.6604 4.56619 6.26616 4.96043 5.78039 4.96043Z" fill="#848B96"/>
<path d="M10.1788 4.96043C9.69307 4.96043 9.29883 4.56619 9.29883 4.08043V2.32043C9.29883 1.83467 9.69307 1.44043 10.1788 1.44043C10.6646 1.44043 11.0588 1.83467 11.0588 2.32043V4.08043C11.0588 4.56619 10.6646 4.96043 10.1788 4.96043Z" fill="#848B96"/>
<path d="M13.2596 22.56C9.86281 22.56 7.09961 19.7968 7.09961 16.4V12H8.85961V16.4C8.85961 18.8262 10.8334 20.8 13.2596 20.8C15.6858 20.8 17.6596 18.8262 17.6596 16.4V14.64H19.4196V16.4C19.4196 19.7968 16.6564 22.56 13.2596 22.56Z" fill="#848B96"/>
<path d="M18.5398 15.5201C17.3272 15.5201 16.3398 14.5328 16.3398 13.3201C16.3398 12.1075 17.3272 11.1201 18.5398 11.1201C19.7525 11.1201 20.7398 12.1075 20.7398 13.3201C20.7398 14.5328 19.7525 15.5201 18.5398 15.5201Z" fill="#848B96"/>
</svg>
