<svg width="24" height="24" viewBox="0 0 24 24" fill="none" xmlns="http://www.w3.org/2000/svg">
<path d="M6.97852 6.98145V8.30644C7.21054 8.17353 7.3491 7.93853 7.38672 7.71495C7.41378 7.55367 7.42488 7.16942 6.97852 6.98145Z" fill="#848B96"/>
<path d="M5.9369 5.22974C5.90395 5.4046 5.94565 5.56705 6.04321 5.64352C6.07757 5.67046 6.11543 5.69694 6.15602 5.72297V4.86035C6.03017 4.95688 5.96079 5.10302 5.9369 5.22974Z" fill="#848B96"/>
<path d="M6.5957 1.44043C3.75255 1.44043 1.43945 3.75352 1.43945 6.59668C1.43945 9.43984 3.75255 11.7529 6.5957 11.7529C9.43886 11.7529 11.752 9.43984 11.752 6.59668C11.752 3.75352 9.43886 1.44043 6.5957 1.44043ZM8.20152 7.85217C8.10446 8.42946 7.66515 9.01492 6.97974 9.18879V9.48418C6.97974 9.71196 6.79502 9.89668 6.56724 9.89668C6.33946 9.89668 6.15474 9.71196 6.15474 9.48418V9.22835C5.82169 9.19956 5.5456 9.10959 5.15422 8.85355C4.96356 8.72885 4.91015 8.47318 5.03484 8.28253C5.1595 8.09191 5.41521 8.03837 5.60587 8.16315C5.82862 8.30884 5.96833 8.37204 6.15474 8.39827V6.65624C5.89128 6.53551 5.69435 6.4193 5.53277 6.29254C5.19044 6.02405 5.03414 5.55825 5.12485 5.07682C5.22369 4.55221 5.58887 4.1348 6.07781 3.98753C6.10371 3.97974 6.12933 3.9726 6.15474 3.96584V3.70918C6.15474 3.4814 6.33946 3.29668 6.56724 3.29668C6.79502 3.29668 6.97974 3.4814 6.97974 3.70918V3.92067C7.38024 3.99001 7.66329 4.18718 7.80041 4.34459C7.95006 4.51636 7.93208 4.77694 7.76031 4.92655C7.58946 5.07534 7.33078 5.05851 7.18071 4.88922C7.17131 4.87969 7.10576 4.81658 6.97974 4.77009V6.10296C7.05296 6.13014 7.12614 6.1565 7.19795 6.18191C7.92305 6.4382 8.32635 7.10946 8.20152 7.85217Z" fill="#848B96"/>
<path d="M22.0443 10.6066L19.8928 10.2412C19.6225 9.82091 19.3034 9.43349 18.9399 9.08439C19.1489 8.03916 19.712 7.10942 20.5474 6.44117L20.6772 6.3373C20.8824 6.17317 20.9615 5.89729 20.8746 5.6493C20.7876 5.4013 20.5535 5.23535 20.2907 5.23535H18.6407C17.1807 5.23535 15.8446 6.06081 15.1744 7.33341C14.9523 7.30977 14.732 7.29785 14.5157 7.29785H12.9508C12.6005 10.4947 9.88428 12.9904 6.5957 12.9904C4.79922 12.9904 3.17377 12.2453 2.01118 11.0484C1.63729 11.872 1.43945 12.7723 1.43945 13.6916C1.43945 15.6672 2.35892 17.5305 3.91445 18.7395V21.9416C3.91445 22.2833 4.19149 22.5604 4.5332 22.5604H7.0082C7.27451 22.5604 7.51096 22.3899 7.59519 22.1373L8.2792 20.0854H14.0697L14.7537 22.1373C14.8379 22.3899 15.0744 22.5604 15.3407 22.5604H17.8157C18.1574 22.5604 18.4345 22.2833 18.4345 21.9416V18.7396C19.2853 18.0787 19.9508 17.22 20.379 16.2295L22.1731 15.5026C22.4066 15.4079 22.5595 15.1811 22.5595 14.9291V11.2166C22.5595 10.9149 22.3418 10.6571 22.0443 10.6066ZM17.197 12.0416C16.8552 12.0416 16.5782 11.7646 16.5782 11.4229C16.5782 11.0811 16.8552 10.8041 17.197 10.8041C17.5387 10.8041 17.8157 11.0811 17.8157 11.4229C17.8157 11.7646 17.5387 12.0416 17.197 12.0416Z" fill="#848B96"/>
</svg>
