<svg width="17" height="17" viewBox="0 0 17 17" fill="none" xmlns="http://www.w3.org/2000/svg">
<path d="M6.81677 4.90044H6.84771V7.34663H10.1555V4.90044H10.2992C10.6704 4.90044 10.9714 4.59626 10.9714 4.22104C10.9714 3.84584 10.6704 3.54169 10.2992 3.54169H6.81677C6.4455 3.54169 6.14453 3.84584 6.14453 4.22104C6.14453 4.59626 6.44548 4.90044 6.81677 4.90044V4.90044Z" fill="white"/>
<path d="M14.9107 8.20221C14.5395 8.20221 14.2386 8.50636 14.2386 8.88156V9.02901H12.0508V12.3697H14.2386V12.4011C14.2386 12.7763 14.5395 13.0804 14.9107 13.0804C15.282 13.0804 15.583 12.7763 15.583 12.4011V8.88156C15.583 8.50636 15.282 8.20221 14.9107 8.20221Z" fill="white"/>
<path d="M2.76238 8.88156C2.76238 8.50634 2.46143 8.20221 2.09021 8.20221C1.71892 8.20221 1.41797 8.50636 1.41797 8.88156V12.4011C1.41797 12.7763 1.71892 13.0805 2.09021 13.0805C2.46143 13.0805 2.76238 12.7763 2.76238 12.4011V12.3697H4.95011V9.02903H2.76238V8.88156Z" fill="white"/>
<path d="M10.5789 7.82416H6.42082C5.86913 7.82416 5.42188 8.27618 5.42188 8.83379V12.4488C5.42188 13.0063 5.86913 13.4584 6.42082 13.4584H10.5789C11.1307 13.4584 11.5779 13.0063 11.5779 12.4488V8.83377C11.5779 8.27616 11.1307 7.82416 10.5789 7.82416V7.82416Z" fill="white"/>
</svg>
