<svg width="24" height="24" viewBox="0 0 24 24" fill="none" xmlns="http://www.w3.org/2000/svg">
  <path
    d="M15.1333 9.90151C15.1333 7.09135 17.3597 6.00999 17.4836 5.88769C17.3063 5.73832 17.1453 5.57284 17.0053 5.3877H2.67578V14.6689C2.67578 15.6941 3.5069 16.5664 4.53203 16.5664H10.142V17.9179C9.42338 18.1742 8.90453 18.8545 8.90453 19.6602C8.90453 20.6837 9.73727 21.5164 10.7608 21.5164C11.7843 21.5164 12.617 20.6837 12.617 19.6602C12.617 18.8545 12.0982 18.1742 11.3795 17.9179V16.5664H15.2981C15.1939 16.2791 15.1333 15.9403 15.1333 15.5452V9.90151ZM5.76953 14.0502C5.42777 14.0502 5.15078 13.7732 5.15078 13.4314C5.15078 13.0897 5.42777 12.8127 5.76953 12.8127C6.11129 12.8127 6.38828 13.0897 6.38828 13.4314C6.38828 13.7732 6.11129 14.0502 5.76953 14.0502ZM5.76953 11.5752C5.42777 11.5752 5.15078 11.2982 5.15078 10.9564C5.15078 10.6147 5.42777 10.3377 5.76953 10.3377C6.11129 10.3377 6.38828 10.6147 6.38828 10.9564C6.38828 11.2982 6.11129 11.5752 5.76953 11.5752ZM5.76953 9.1002C5.42777 9.1002 5.15078 8.82321 5.15078 8.48145C5.15078 8.13968 5.42777 7.8627 5.76953 7.8627C6.11129 7.8627 6.38828 8.13968 6.38828 8.48145C6.38828 8.82321 6.11129 9.1002 5.76953 9.1002ZM10.7608 20.2789C10.4193 20.2789 10.142 20.0016 10.142 19.6602C10.142 19.3188 10.4193 19.0414 10.7608 19.0414C11.1022 19.0414 11.3795 19.3188 11.3795 19.6602C11.3795 20.0016 11.1022 20.2789 10.7608 20.2789ZM13.277 14.0502H8.24453C7.90261 14.0502 7.62578 13.7734 7.62578 13.4314C7.62578 13.0895 7.90261 12.8127 8.24453 12.8127H13.277C13.619 12.8127 13.8958 13.0895 13.8958 13.4314C13.8958 13.7734 13.619 14.0502 13.277 14.0502ZM13.277 11.5752H8.24453C7.90261 11.5752 7.62578 11.2984 7.62578 10.9564C7.62578 10.6145 7.90261 10.3377 8.24453 10.3377H13.277C13.619 10.3377 13.8958 10.6145 13.8958 10.9564C13.8958 11.2984 13.619 11.5752 13.277 11.5752ZM13.277 9.1002H8.24453C7.90261 9.1002 7.62578 8.82337 7.62578 8.48145C7.62578 8.13952 7.90261 7.8627 8.24453 7.8627H13.277C13.619 7.8627 13.8958 8.13952 13.8958 8.48145C13.8958 8.82337 13.619 9.1002 13.277 9.1002Z"
    fill="#848B96"/>
  <path
    d="M21.3219 3.53105C21.3219 4.55618 20.4907 5.3873 19.4656 5.3873C18.4405 5.3873 17.6094 4.55618 17.6094 3.53105C17.6094 2.50593 18.4405 1.6748 19.4656 1.6748C20.4907 1.6748 21.3219 2.50593 21.3219 3.53105Z"
    fill="#848B96"/>
  <path
    d="M19.1415 6.64156C17.5317 6.80592 16.3711 8.28286 16.3711 9.90096V15.545C16.3711 16.2945 16.6481 16.5662 16.9898 16.5662H18.2273V22.1762C18.2273 22.518 18.5043 22.795 18.8461 22.795H20.0836C20.4254 22.795 20.7023 22.518 20.7023 22.1762V16.5662H21.9398C22.2816 16.5662 22.5586 16.2892 22.5586 15.9475V9.71872C22.5586 7.90629 20.9916 6.45255 19.1415 6.64156Z"
    fill="#848B96"/>
  <path
    d="M16.4346 4.1498C16.3937 3.94984 16.372 3.74294 16.372 3.53105C16.372 2.8319 16.6138 2.19349 17.0065 1.6748H2.67695C1.99343 1.6748 1.43945 2.22878 1.43945 2.9123C1.43945 3.59567 1.99343 4.1498 2.67695 4.1498H16.4346Z"
    fill="#848B96"/>
</svg>
