<svg width="25" height="24" viewBox="0 0 25 24" fill="none" xmlns="http://www.w3.org/2000/svg">
<path d="M8.09961 19.0615H16.1777V22.234H8.09961V19.0615Z" fill="#848B96"/>
<path d="M14.709 8.6209L16.1777 7.9159V6.01945C16.1772 5.83265 16.0996 5.65365 15.962 5.52156C15.8244 5.38947 15.638 5.31501 15.4434 5.31445C15.249 5.31584 15.0631 5.39056 14.9257 5.52247C14.7883 5.65439 14.7104 5.8329 14.709 6.01945V8.6209Z" fill="#848B96"/>
<path d="M13.9727 11.7335C13.9752 12.4024 14.1568 13.0596 14.5002 13.6417C14.8436 14.2238 15.3371 14.7114 15.9334 15.0575L17.2774 15.8295L18.6213 15.0575C19.2176 14.7114 19.7111 14.2238 20.0545 13.6417C20.3979 13.0596 20.5795 12.4024 20.582 11.7335V9.763L17.2774 8.17676L13.9727 9.763V11.7335ZM16.0682 11.4102L16.9102 12.2185L18.4865 10.7052L19.0057 11.2037L17.1698 12.9662C17.1009 13.0322 17.0075 13.0694 16.9102 13.0694C16.8128 13.0694 16.7194 13.0322 16.6506 12.9662L15.549 11.9087L16.0682 11.4102Z" fill="#848B96"/>
<path d="M15.443 18.3566V16.9466C15.4423 16.9019 15.451 16.8575 15.4687 16.8162L15.8726 15.8433L15.5568 15.66C14.8517 15.2517 14.2681 14.6759 13.8623 13.988C13.4565 13.3002 13.2421 12.5236 13.2399 11.7331V9.5441C13.2391 9.47881 13.2576 9.41465 13.2934 9.3591C13.3292 9.30355 13.3806 9.25891 13.4418 9.23038L13.9742 8.97305V4.6091C13.9737 4.4223 13.8961 4.2433 13.7585 4.11121C13.6209 3.97912 13.4344 3.90466 13.2399 3.9041C13.0455 3.90549 12.8596 3.98021 12.7222 4.11212C12.5848 4.24403 12.5069 4.42255 12.5055 4.6091V9.5441C12.5055 9.63759 12.4668 9.72725 12.3979 9.79336C12.3291 9.85946 12.2357 9.8966 12.1383 9.8966C12.0409 9.8966 11.9475 9.85946 11.8787 9.79336C11.8098 9.72725 11.7711 9.63759 11.7711 9.5441V2.8466C11.7705 2.6598 11.693 2.4808 11.5554 2.34871C11.4178 2.21662 11.2313 2.14216 11.0367 2.1416C10.8424 2.14299 10.6565 2.21771 10.519 2.34962C10.3816 2.48153 10.3038 2.66005 10.3024 2.8466V9.5441C10.3024 9.63759 10.2637 9.72725 10.1948 9.79336C10.1259 9.85946 10.0326 9.8966 9.93517 9.8966C9.83778 9.8966 9.74439 9.85946 9.67553 9.79336C9.60667 9.72725 9.56798 9.63759 9.56798 9.5441V4.6091C9.5674 4.4223 9.48984 4.2433 9.35224 4.11121C9.21465 3.97912 9.02819 3.90466 8.8336 3.9041C8.63928 3.90549 8.45333 3.98021 8.31591 4.11212C8.1785 4.24403 8.10067 4.42255 8.09923 4.6091V11.3066H8.8336C9.70964 11.3079 10.5494 11.6426 11.1689 12.2372C11.7883 12.8319 12.1369 13.6381 12.1383 14.4791V15.1841H11.4039V14.4791C11.4031 13.8249 11.1321 13.1977 10.6502 12.7351C10.1684 12.2726 9.51506 12.0123 8.8336 12.0116H7.73204C7.66734 12.0118 7.60372 11.9957 7.54762 11.9647C7.49152 11.9338 7.44494 11.8891 7.41259 11.8354L5.94383 9.39253C5.86268 9.25822 5.73761 9.15339 5.58804 9.09431C5.43847 9.03522 5.27277 9.02519 5.11665 9.06577C4.96054 9.10636 4.82275 9.19528 4.72466 9.31874C4.62658 9.4422 4.5737 9.59329 4.57422 9.74855C4.57404 9.87131 4.60829 9.99185 4.67336 10.0975L8.78587 16.9325C8.81664 16.9866 8.83303 17.0471 8.8336 17.1088V18.3566H15.443Z" fill="#848B96"/>
</svg>
