<svg width="24" height="24" viewBox="0 0 24 24" fill="none" xmlns="http://www.w3.org/2000/svg">
<path d="M19.5 8H15.1629C15.0653 8.00023 14.9721 8.04058 14.9046 8.11181L7.25232 15.839C7.24741 15.844 7.24049 15.8458 7.23531 15.8505C7.1721 15.9118 7.08759 15.9456 7 15.9444H4.5C3.11929 15.9444 2 17.0762 2 18.4722C2 19.8683 3.11929 21 4.5 21H9.19429C9.29183 20.9998 9.38504 20.9594 9.45254 20.8882L17.1048 13.161C17.1718 13.0935 17.2625 13.0556 17.3571 13.0556H19.5C20.8807 13.0556 22 11.9238 22 10.5278C22 9.13172 20.8807 8 19.5 8ZM14.1429 14.8611H13.4286V13.9273L10.8239 16.5609L10.3189 16.0503L12.9235 13.4167H12V12.6944H13.7857C13.9829 12.6944 14.1429 12.8561 14.1429 13.0556V14.8611Z" fill="#848B96"/>
<path d="M20.7809 6L21 4.25732L19.885 5.24281C19.7391 5.37176 19.5025 5.37176 19.3566 5.24277C19.335 5.2237 19.3162 5.2024 19.3005 5.17929L18.5 4L17.6995 5.17929C17.5933 5.33564 17.3637 5.38629 17.1868 5.29239C17.1607 5.27852 17.1366 5.26184 17.115 5.24281L16 4.25732L16.2191 6H20.7809Z" fill="#848B96"/>
<path d="M18.5 3C18.7761 3 19 2.77614 19 2.5C19 2.22386 18.7761 2 18.5 2C18.2239 2 18 2.22386 18 2.5C18 2.77614 18.2239 3 18.5 3Z" fill="#848B96"/>
<path d="M20.5 4C20.7761 4 21 3.77614 21 3.5C21 3.22386 20.7761 3 20.5 3C20.2239 3 20 3.22386 20 3.5C20 3.77614 20.2239 4 20.5 4Z" fill="#848B96"/>
<path d="M16.5 4C16.7761 4 17 3.77614 17 3.5C17 3.22386 16.7761 3 16.5 3C16.2239 3 16 3.22386 16 3.5C16 3.77614 16.2239 4 16.5 4Z" fill="#848B96"/>
</svg>
