<svg width="24" height="24" viewBox="0 0 24 24" fill="none" xmlns="http://www.w3.org/2000/svg">
<path d="M19.7801 4.22014C17.7168 2.15676 14.9182 0.997559 12.0001 0.997559C9.08207 0.997559 6.28352 2.15676 4.22014 4.22014C2.15676 6.28352 0.997559 9.08207 0.997559 12.0001C0.997559 14.9182 2.15676 17.7168 4.22014 19.7801C6.28352 21.8435 9.08207 23.0027 12.0001 23.0027C14.9182 23.0027 17.7168 21.8435 19.7801 19.7801C21.8435 17.7168 23.0027 14.9182 23.0027 12.0001C23.0027 9.08207 21.8435 6.28352 19.7801 4.22014ZM5.78014 19.4501C5.9651 17.9279 6.69889 16.5254 7.84396 15.5055C8.98903 14.4857 10.4668 13.9184 12.0001 13.9101C12.8228 13.9076 13.6378 14.068 14.3982 14.3821C15.1585 14.6962 15.8491 15.1577 16.4301 15.7401C17.4281 16.7408 18.0618 18.047 18.2301 19.4501C16.4822 20.9097 14.2773 21.7092 12.0001 21.7092C9.72296 21.7092 7.51807 20.9097 5.77014 19.4501H5.78014ZM12.0001 12.5801C11.3396 12.5801 10.6938 12.3843 10.1445 12.0172C9.59528 11.6502 9.16718 11.1286 8.91438 10.5183C8.66159 9.908 8.59544 9.23643 8.72432 8.58854C8.85319 7.94064 9.1713 7.34551 9.6384 6.8784C10.1055 6.4113 10.7006 6.09319 11.3485 5.96432C11.9964 5.83544 12.668 5.90159 13.2783 6.15438C13.8886 6.40718 14.4102 6.83528 14.7772 7.38454C15.1443 7.9338 15.3401 8.57955 15.3401 9.24014C15.3375 10.1252 14.9848 10.9732 14.359 11.599C13.7332 12.2248 12.8852 12.5775 12.0001 12.5801ZM19.3401 18.3601C19.0071 17.0234 18.3156 15.8029 17.3401 14.8301C16.5606 14.0527 15.6226 13.4524 14.5901 13.0701C15.4089 12.5158 16.0283 11.7135 16.3571 10.781C16.686 9.84855 16.707 8.83518 16.4171 7.88987C16.1272 6.94457 15.5417 6.1172 14.7466 5.52941C13.9516 4.94161 12.9889 4.6244 12.0001 4.6244C11.0114 4.6244 10.0487 4.94161 9.25364 5.52941C8.45857 6.1172 7.87306 6.94457 7.58317 7.88987C7.29328 8.83518 7.31431 9.84855 7.64317 10.781C7.97203 11.7135 8.59137 12.5158 9.41014 13.0701C8.2474 13.4954 7.20652 14.199 6.37849 15.1194C5.55046 16.0398 4.96048 17.1491 4.66014 18.3501C3.44166 16.9432 2.65322 15.2157 2.3887 13.3734C2.12418 11.531 2.39474 9.65147 3.16814 7.95853C3.94155 6.2656 5.18522 4.83061 6.75105 3.82446C8.31689 2.8183 10.1389 2.28337 12.0001 2.28337C13.8614 2.28337 15.6834 2.8183 17.2492 3.82446C18.8151 4.83061 20.0587 6.2656 20.8321 7.95853C21.6055 9.65147 21.8761 11.531 21.6116 13.3734C21.3471 15.2157 20.5586 16.9432 19.3401 18.3501V18.3601Z" fill="#8A8A98"/>
</svg>
