<svg width="24" height="24" viewBox="0 0 24 24" fill="none" xmlns="http://www.w3.org/2000/svg">
<path fill-rule="evenodd" clip-rule="evenodd" d="M12 3.75C7.44365 3.75 3.75 7.44365 3.75 12C3.75 16.5563 7.44365 20.25 12 20.25C16.5563 20.25 20.25 16.5563 20.25 12C20.25 7.44365 16.5563 3.75 12 3.75ZM2.25 12C2.25 6.61522 6.61522 2.25 12 2.25C17.3848 2.25 21.75 6.61522 21.75 12C21.75 17.3848 17.3848 21.75 12 21.75C6.61522 21.75 2.25 17.3848 2.25 12Z" fill="#8A8A98"/>
<path fill-rule="evenodd" clip-rule="evenodd" d="M12 7.75C10.7574 7.75 9.75 8.75736 9.75 10C9.75 11.2426 10.7574 12.25 12 12.25C13.2426 12.25 14.25 11.2426 14.25 10C14.25 8.75736 13.2426 7.75 12 7.75ZM8.25 10C8.25 7.92893 9.92893 6.25 12 6.25C14.0711 6.25 15.75 7.92893 15.75 10C15.75 12.0711 14.0711 13.75 12 13.75C9.92893 13.75 8.25 12.0711 8.25 10Z" fill="#8A8A98"/>
<path fill-rule="evenodd" clip-rule="evenodd" d="M15.9424 17.3933C15.3812 16.9754 14.7 16.7498 14.0003 16.75H10C9.30113 16.7498 8.62058 16.9749 8.05973 17.3919C7.49888 17.8088 7.08738 18.3955 6.88628 19.0648C6.76709 19.4615 6.34888 19.6865 5.95219 19.5673C5.55549 19.4481 5.33053 19.0299 5.44972 18.6332C5.74364 17.655 6.34506 16.7975 7.16476 16.1881C7.98441 15.5787 8.97865 15.2497 10 15.25H13.9997C15.0224 15.2497 16.0181 15.5795 16.8383 16.1902C17.6586 16.8011 18.2599 17.6604 18.5526 18.6403C18.6712 19.0372 18.4456 19.455 18.0487 19.5736C17.6518 19.6922 17.234 19.4666 17.1154 19.0697C16.9151 18.3992 16.5037 17.8113 15.9424 17.3933Z" fill="#8A8A98"/>
</svg>
