<svg width="24" height="24" viewBox="0 0 24 24" fill="none" xmlns="http://www.w3.org/2000/svg">
  <path
    d="M8.24026 10.394C8.43267 11.6447 9.39908 13.2364 10.9864 13.7961C11.638 14.0235 12.3508 14.0279 13.0024 13.7918C14.5635 13.2277 15.5605 11.6403 15.7573 10.394C15.9672 10.3765 16.2427 10.0835 16.54 9.02967C16.9467 7.59098 16.5138 7.37671 16.1465 7.4117C16.2164 7.21491 16.2689 7.01376 16.3039 6.82135C16.9248 3.09126 15.0882 2.96445 15.0882 2.96445C15.0882 2.96445 14.7821 2.37848 13.9819 1.93682C13.444 1.61759 12.6962 1.37271 11.7123 1.4558C11.3931 1.46892 11.0914 1.53451 10.8072 1.62634C10.4442 1.74878 10.1119 1.92807 9.81014 2.13797C9.44281 2.36973 9.09298 2.65835 8.78688 2.98631C8.30149 3.48483 7.86857 4.12764 7.68053 4.92788C7.52311 5.52697 7.55809 6.1523 7.68928 6.82573C7.72426 7.02251 7.77674 7.21929 7.8467 7.41607C7.47938 7.38108 7.04646 7.59536 7.45314 9.03404C7.75487 10.0835 8.03037 10.3765 8.24026 10.394Z"
    fill="#848B96"/>
  <path
    d="M19.2123 15.2868C16.9778 14.7183 15.163 13.4414 15.163 13.4414L13.7462 17.9236L13.4795 18.7676L13.4751 18.7545L13.2433 19.4716L12.4956 17.3508C14.3322 14.7883 12.1239 14.8145 12.0014 14.8189C11.879 14.8145 9.67065 14.7883 11.5073 17.3508L10.7595 19.4716L10.5277 18.7545L10.5234 18.7676L10.2566 17.9236L8.83543 13.4414C8.83543 13.4414 7.02067 14.7183 4.78612 15.2868C3.12004 15.7109 3.04133 17.635 3.10692 18.5839C3.10692 18.5839 3.20313 19.874 3.29933 20.4424C3.29933 20.4424 6.55277 22.5545 12.0014 22.5589C17.4501 22.5589 20.7035 20.4424 20.7035 20.4424C20.7997 19.874 20.8959 18.5839 20.8959 18.5839C20.9571 17.635 20.8784 15.7109 19.2123 15.2868Z"
    fill="#848B96"/>
</svg>
