<svg width="24" height="24" viewBox="0 0 24 24" fill="none" xmlns="http://www.w3.org/2000/svg">
  <path opacity="0.4"
        d="M20.302 6.60642L16.6698 5.55469V19.58C16.6698 19.65 16.6657 19.7191 16.6582 19.7872C17.1035 19.8311 17.5308 19.5539 17.6597 19.1085L20.9483 7.77939C21.0938 7.27707 20.8045 6.75178 20.302 6.60642Z"
        fill="#848B96"/>
  <path
    d="M6.32345 15.8555H5.78125V16.8876H6.32345C6.75248 16.8876 6.96998 16.7111 6.96998 16.3628C6.96998 16.0261 6.75251 15.8555 6.32345 15.8555Z"
    fill="#848B96"/>
  <path d="M8.07227 16.9834H8.82127L8.44309 16.166L8.07227 16.9834Z" fill="#848B96"/>
  <path
    d="M14.7629 3H4.42065C3.63732 3 3 3.63729 3 4.42065V19.5794C3 20.3627 3.63732 21 4.42065 21H14.7629C15.5462 21 16.1835 20.3627 16.1835 19.5794V4.42065C16.1835 3.63729 15.5462 3 14.7629 3ZM9.59169 6.22065C11.6721 6.22065 13.3647 7.91321 13.3647 9.99365C13.3647 12.0741 11.6721 13.7667 9.59169 13.7667C7.5113 13.7667 5.8188 12.0741 5.8188 9.99365C5.8188 7.91329 7.5113 6.22065 9.59169 6.22065ZM5.76912 17.3847V17.9833C5.76912 18.1141 5.66312 18.2201 5.53236 18.2201H5.51009C5.37936 18.2201 5.27333 18.1141 5.27333 17.9833V15.5977C5.27333 15.4669 5.37933 15.3609 5.51009 15.3609H6.31136C7.01598 15.3609 7.45371 15.7454 7.45371 16.3642C7.45371 16.9937 7.01598 17.3846 6.31136 17.3846H5.76912V17.3847ZM9.75584 18.1107C9.71234 18.1789 9.63707 18.2201 9.55628 18.2201H9.52854C9.4361 18.2201 9.35213 18.1663 9.31348 18.0823L9.03572 17.4786H7.83354L7.55913 18.0814C7.52066 18.1658 7.43645 18.22 7.34366 18.22H7.31221C7.2316 18.22 7.15654 18.179 7.11295 18.1112C7.06942 18.0434 7.06336 17.958 7.09692 17.8847L8.18904 15.4991C8.22763 15.4149 8.31172 15.3609 8.40433 15.3609H8.42701C8.42713 15.3609 8.4273 15.3609 8.42742 15.3609H8.4506C8.54283 15.3609 8.62663 15.4144 8.66542 15.4981L9.77116 17.8837C9.80507 17.957 9.79931 18.0426 9.75584 18.1107ZM10.8082 18.2201C10.4597 18.2201 10.0908 18.073 9.84551 17.8361C9.79984 17.792 9.77372 17.7313 9.77325 17.6678C9.77272 17.6042 9.79775 17.5431 9.84269 17.4983L9.85769 17.4833C9.95007 17.3911 10.0996 17.3911 10.192 17.4831C10.337 17.6274 10.5846 17.7244 10.8082 17.7244C11.0584 17.7244 11.3505 17.6435 11.3505 17.4156C11.3524 17.196 11.2196 17.1209 10.7923 16.9912C10.4136 16.8768 9.8956 16.7202 9.8956 16.1136C9.8956 15.6634 10.2932 15.361 10.8848 15.361C11.1395 15.361 11.4219 15.4359 11.6219 15.5566C11.6761 15.5893 11.715 15.6424 11.7298 15.704C11.7446 15.7656 11.734 15.8305 11.7006 15.8844L11.6909 15.8999C11.6227 16.0096 11.4791 16.0444 11.3683 15.978C11.2473 15.9056 11.053 15.8569 10.8849 15.8569C10.6573 15.8569 10.3915 15.9242 10.3915 16.1136C10.3915 16.3188 10.5217 16.391 10.9401 16.5175C11.3248 16.6339 11.8511 16.7929 11.8463 17.4172C11.8464 17.8967 11.4291 18.2201 10.8082 18.2201ZM12.8722 18.2201C12.5236 18.2201 12.1547 18.073 11.9095 17.8361C11.8638 17.792 11.8377 17.7314 11.8372 17.668C11.8366 17.6045 11.8615 17.5434 11.9063 17.4985L11.9213 17.4836C12.0136 17.3911 12.1633 17.3909 12.2559 17.4831C12.4009 17.6274 12.6486 17.7243 12.8723 17.7243C13.1223 17.7243 13.4143 17.6435 13.4143 17.4156C13.4161 17.196 13.2834 17.1208 12.8562 16.9912C12.4775 16.8767 11.9595 16.72 11.9595 16.1136C11.9595 15.6634 12.3571 15.361 12.9488 15.361C13.2034 15.361 13.4858 15.4359 13.6859 15.5566C13.7403 15.5894 13.7793 15.6427 13.794 15.7046C13.8087 15.7664 13.7978 15.8316 13.764 15.8854L13.7542 15.9009C13.6856 16.0099 13.5425 16.044 13.4322 15.978C13.3112 15.9056 13.117 15.8569 12.9488 15.8569C12.7211 15.8569 12.4553 15.9241 12.4553 16.1136C12.4553 16.3188 12.5855 16.391 13.0039 16.5175C13.3887 16.6338 13.9149 16.7929 13.9101 17.4172C13.9101 17.8967 13.493 18.2201 12.8722 18.2201Z"
    fill="#848B96"/>
  <path fill-rule="evenodd" clip-rule="evenodd"
        d="M10.5 8.81782C10.5 9.42049 10.0977 9.90906 9.60157 9.90906C9.1054 9.90906 8.70314 9.42049 8.70312 8.81782C8.70312 8.21514 8.83519 7.72656 9.60157 7.72656C10.3679 7.72656 10.5 8.21514 10.5 8.81782ZM10.0932 9.99316C11.1425 10.1825 11.2796 10.4817 11.2962 11.5316C11.2973 11.5987 11.2978 11.6103 11.2981 11.6044L11.2981 11.6859C11.2981 11.6859 11.0482 12.1895 9.60124 12.1895C8.15424 12.1895 7.90443 11.6859 7.90443 11.6859L7.9043 11.5756C7.90458 11.5853 7.9053 11.5809 7.90685 11.4975C7.92597 10.4752 8.07146 10.1805 9.10927 9.99316C9.10927 9.99316 9.25697 10.1814 9.60122 10.1814C9.94548 10.1814 10.0932 9.99316 10.0932 9.99316ZM10.8505 9.71399C11.2535 9.71399 11.5802 9.31719 11.5802 8.82771C11.5802 8.33821 11.4729 7.94141 10.8505 7.94141C10.7458 7.94141 10.6557 7.95267 10.5782 7.9737C10.722 8.23872 10.7417 8.56063 10.7417 8.81758C10.7417 9.10851 10.6628 9.38628 10.5176 9.61626C10.6174 9.6786 10.7305 9.71399 10.8505 9.71399ZM11.2498 9.78125C12.102 9.93506 12.2133 10.178 12.2268 11.0307C12.2277 11.0856 12.2282 11.0948 12.2284 11.0897L12.2283 11.1561C12.2283 11.1561 12.1108 11.3927 11.5375 11.506C11.5277 10.9492 11.4804 10.5702 11.2747 10.2881C11.1557 10.1249 10.9941 10.0134 10.8164 9.93326C10.8274 9.93376 10.8387 9.93411 10.8502 9.93411C11.1298 9.93411 11.2498 9.78125 11.2498 9.78125ZM8.35271 9.71398C8.4727 9.71398 8.58579 9.67859 8.68566 9.61626C8.54042 9.38628 8.46156 9.10851 8.46156 8.81758C8.46156 8.56061 8.48126 8.23871 8.625 7.9737C8.54751 7.95267 8.45743 7.94141 8.35271 7.94141C7.73028 7.94141 7.62305 8.33821 7.62305 8.82771C7.62305 9.31717 7.94974 9.71398 8.35271 9.71398ZM8.35472 9.93514C8.36631 9.93514 8.37752 9.93479 8.38853 9.93429C8.21088 10.0144 8.04929 10.1259 7.93029 10.2891C7.72451 10.5712 7.67723 10.9502 7.66743 11.507C7.09413 11.3937 6.97662 11.1571 6.97662 11.1571L6.97656 11.0907C6.97679 11.0958 6.97724 11.0867 6.97812 11.0318C6.99161 10.179 7.10299 9.93609 7.95516 9.78228C7.95516 9.78228 8.07512 9.93514 8.35472 9.93514Z"
        fill="#848B96"/>
</svg>
