<svg width="24" height="24" viewBox="0 0 24 24" fill="none" xmlns="http://www.w3.org/2000/svg">
<path d="M14.9153 10.5692C15.8187 11.3355 15.9335 11.442 16.3311 11.7844C16.6224 11.5345 16.8723 11.3072 17.9317 10.4188C19.8762 8.78606 21.2811 7.60717 21.2811 5.86576C21.2811 4.21494 20.0684 2.92188 18.5203 2.92188C17.4803 2.92188 16.7903 3.50862 16.3571 4.1062C15.9468 3.5068 15.2797 2.92188 14.2368 2.92188C12.6887 2.92188 11.4766 4.21498 11.4766 5.86576C11.4765 7.65131 12.8446 8.81204 14.9153 10.5692Z" fill="#848B96"/>
<path d="M4.97874 20.7416C6.59987 19.6403 8.37366 19.2194 10.3042 19.5412L13.3979 20.0734C14.586 20.2714 15.6749 20.2095 16.6154 19.9001C18.5611 19.2517 20.5088 17.2094 21.025 16.4351C21.7428 15.3585 22.1371 14.1829 22.3847 13.6136C22.6198 13.0691 22.6198 12.6855 22.3723 12.4628C22.0876 12.2029 21.6051 12.339 21.2461 12.537C20.6769 12.8588 20.0722 13.7869 19.4534 14.6779C18.6491 15.8411 17.2713 16.5341 15.8605 16.5341H11.3807V15.2966H13.237C16.5287 15.2966 18.0013 14.6779 18.0013 14.0591C18.0013 13.5394 16.9742 13.3042 16.6277 13.23C15.2789 12.9206 12.2346 12.7721 10.1556 11.844C9.7807 11.68 9.35566 11.5879 8.90583 11.5841C8.20053 11.5781 7.43403 11.7979 6.70295 12.3637C6.69066 12.3637 6.69066 12.3637 6.67824 12.3761C6.19562 12.7474 5.53562 13.2919 4.64462 14.0715C3.8897 14.7397 3.15962 15.5936 1.88495 16.6826L1.43945 17.0662L4.48374 21.0758L4.97874 20.7416Z" fill="#848B96"/>
</svg>
