<svg width="24" height="24" viewBox="0 0 24 24" fill="none" xmlns="http://www.w3.org/2000/svg">
<path d="M9.56045 12.5577C10.1464 11.9727 10.1465 11.024 9.56074 10.4388C8.97494 9.85373 8.02513 9.85373 7.43933 10.4388C6.85353 11.024 6.85353 11.9727 7.43948 12.5577C7.7197 12.8407 8.10159 13 8.50004 13C8.89848 13 9.28037 12.8407 9.56045 12.5577Z" fill="#848B96"/>
<path d="M19 6.5C19 7.32837 18.3285 8 17.5 8C16.6716 8 16 7.32837 16 6.5C16 5.67163 16.6716 5 17.5 5C18.3285 5 19 5.67163 19 6.5Z" fill="#848B96"/>
<path d="M11.1141 17.0619L10.6506 16.5985L12.3727 14.8768C12.3727 14.8735 12.3706 14.8706 12.3706 14.8669V13.9483L9.72096 16.5975L9.25646 16.1353L12.3706 13.0217V10.4394L9.0271 7.09826C8.96675 7.03633 8.88416 7.0008 8.79757 7C8.71097 7.00048 8.62822 7.03601 8.5682 7.09826L3 12.6568L11.3446 21L16.9085 15.4405C16.9725 15.3748 17.0055 15.2851 16.9993 15.1937H12.9817L11.1141 17.0619ZM6.94086 10.1086C7.71508 9.33488 8.92818 9.21566 9.83828 9.82378C10.7484 10.4319 11.1021 11.5982 10.6831 12.6095C10.264 13.6206 9.18892 14.1949 8.11539 13.9813C7.0417 13.7676 6.26844 12.8255 6.2686 11.7311C6.26892 11.1226 6.51062 10.5391 6.94086 10.1086ZM11.1128 19.8428L3.92739 12.6583L4.39093 12.1948L11.5764 19.379L11.1128 19.8428Z" fill="#848B96"/>
<path d="M20.68 3H13V15H20.68C20.8567 15 21 14.8507 21 14.6667V3.33333C21 3.14925 20.8567 3 20.68 3ZM17.48 4C18.7172 4 19.72 5.0446 19.72 6.33333C19.72 7.62207 18.7172 8.66667 17.48 8.66667C16.243 8.66667 15.24 7.62207 15.24 6.33333C15.2416 5.04541 16.2436 4.00163 17.48 4ZM14.28 14H13.64V3.66667H14.28V14ZM19.4 12H15.56V11.3333H19.4V12ZM20.04 10.6667H14.92V10H20.04V10.6667Z" fill="#848B96"/>
</svg>
