<svg width="24" height="24" viewBox="0 0 24 24" fill="none" xmlns="http://www.w3.org/2000/svg">
  <path
    d="M11.9992 6.28648C13.3374 6.28648 14.4222 5.20165 14.4222 3.86345C14.4222 2.52525 13.3374 1.44043 11.9992 1.44043C10.661 1.44043 9.57617 2.52525 9.57617 3.86345C9.57617 5.20165 10.661 6.28648 11.9992 6.28648Z"
    fill="#848B96"/>
  <path
    d="M14.9577 7.28418H11.9997H9.04163C8.08773 7.28418 7.31445 8.05745 7.31445 9.01136V12.6467V15.4642C7.31445 16.0215 7.76618 16.4732 8.32343 16.4732C8.88067 16.4732 9.3324 16.0215 9.3324 15.4642V22.5605H11.3809V16.0631H12.6184V22.5605H14.6669V15.4642C14.6669 16.0215 15.1187 16.4732 15.6759 16.4732C16.2332 16.4732 16.6849 16.0215 16.6849 15.4642V12.6467V9.01136C16.6849 8.05745 15.9116 7.28418 14.9577 7.28418Z"
    fill="#848B96"/>
  <path
    d="M5.80698 7.39423C7.05412 7.39423 8.06513 6.38322 8.06513 5.13608C8.06513 3.88894 7.05412 2.87793 5.80698 2.87793C4.55984 2.87793 3.54883 3.88894 3.54883 5.13608C3.54883 6.38322 4.55984 7.39423 5.80698 7.39423Z"
    fill="#848B96"/>
  <path
    d="M6.07669 15.4639V12.6464V9.01102C6.07669 8.91206 6.08181 8.81426 6.0913 8.71777H5.80589H3.04911C2.16013 8.71773 1.43945 9.43841 1.43945 10.3274V13.7154V16.3412C1.43945 16.8606 1.86045 17.2816 2.37979 17.2816C2.89912 17.2816 3.32012 16.8606 3.32012 16.3412V22.5602H5.18714V16.6674H6.42464V22.5602H8.09468V17.6988C6.96287 17.584 6.07669 16.6255 6.07669 15.4639Z"
    fill="#848B96"/>
  <path
    d="M18.1937 7.39423C19.4408 7.39423 20.4518 6.38322 20.4518 5.13608C20.4518 3.88894 19.4408 2.87793 18.1937 2.87793C16.9466 2.87793 15.9355 3.88894 15.9355 5.13608C15.9355 6.38322 16.9466 7.39423 18.1937 7.39423Z"
    fill="#848B96"/>
  <path
    d="M20.9499 8.71777H18.1931H17.9077C17.9172 8.81426 17.9223 8.91206 17.9223 9.01102V12.6464V15.4639C17.9223 16.6255 17.0361 17.584 15.9043 17.6988V22.5602H17.5743V16.6674H18.8118V22.5602H20.6789V16.3413C20.6789 16.8606 21.0999 17.2816 21.6192 17.2816C22.1385 17.2816 22.5595 16.8606 22.5595 16.3413V13.7155V10.3274C22.5595 9.43845 21.8388 8.71777 20.9499 8.71777Z"
    fill="#848B96"/>
</svg>
