<svg width="24" height="24" viewBox="0 0 24 24" fill="none" xmlns="http://www.w3.org/2000/svg">
  <path
    d="M8.28672 8.88574H10.143V10.742C10.143 11.0837 10.42 11.3607 10.7617 11.3607H13.2367C13.5784 11.3607 13.8555 11.0837 13.8555 10.742V8.88574H15.7117C16.0535 8.88574 16.3305 8.60871 16.3305 8.26699V5.79199C16.3305 5.45028 16.0535 5.17324 15.7117 5.17324H13.8555V3.31699C13.8555 2.97528 13.5784 2.69824 13.2367 2.69824H10.7617C10.42 2.69824 10.143 2.97528 10.143 3.31699V5.17324H8.28672C7.945 5.17324 7.66797 5.45028 7.66797 5.79199V8.26699C7.66797 8.60871 7.945 8.88574 8.28672 8.88574Z"
    fill="#848B96"/>
  <path
    d="M21.3382 5.2085C20.6272 5.18879 20.0445 5.75899 20.0448 6.46597C20.0459 8.55937 20.0479 12.5179 20.0479 12.518C20.0475 13.0208 19.8495 13.5031 19.4898 13.8623L17.6275 15.7247C17.392 15.9601 17.0085 15.9822 16.7619 15.7584C16.4985 15.5195 16.4911 15.1112 16.7396 14.8623L18.4508 13.1514C18.9528 12.6493 18.9541 11.8358 18.4536 11.3322C17.9525 10.828 17.137 10.8247 16.632 11.3265L12.8023 15.1284C12.6851 15.2447 12.6191 15.4031 12.6191 15.5681V21.3021H19.4254V18.3431L22.3764 15.4307C22.494 15.3144 22.5604 15.156 22.5604 14.9906V6.49212C22.5604 5.80679 22.0232 5.22748 21.3382 5.2085Z"
    fill="#848B96"/>
  <path
    d="M7.36786 11.3265C6.86321 10.8251 6.0477 10.8276 5.54622 11.3322C5.04611 11.8354 5.04664 12.649 5.54907 13.1514L7.26024 14.8623C7.50877 15.1112 7.50135 15.5195 7.23797 15.7584C6.99133 15.9822 6.60783 15.9601 6.37238 15.7246L4.5101 13.8623C4.1504 13.503 3.9524 13.0208 3.95199 12.518C3.95199 12.5179 3.95397 8.59471 3.95504 6.49422C3.95541 5.78823 3.37796 5.19423 2.67213 5.20825C1.98866 5.22186 1.43945 5.77973 1.43945 6.46584V14.9906C1.43945 15.156 1.50587 15.3144 1.62343 15.4307L4.57445 18.3431V21.3021H11.3807V15.5681C11.3807 15.4031 11.3147 15.2447 11.1976 15.1284L7.36786 11.3265Z"
    fill="#848B96"/>
</svg>
