<svg width="24" height="24" viewBox="0 0 24 24" fill="none" xmlns="http://www.w3.org/2000/svg">
<path d="M10.8008 17.9386C9.9775 18.6994 8.83871 18.8698 7.82866 18.3835C7.46351 18.2076 7.15538 17.9648 6.91415 17.674L5.53883 20.716C5.47625 20.8544 5.54613 20.9587 5.57905 20.9971C5.61196 21.0354 5.7044 21.1204 5.85068 21.0797L6.8519 20.801C6.966 20.7693 7.08133 20.754 7.19506 20.754C7.67484 20.754 8.1264 21.0255 8.34383 21.4755L8.79601 22.4113C8.86206 22.548 8.98593 22.5617 9.03749 22.5607C9.08806 22.56 9.21247 22.5436 9.27501 22.4052L11.4626 17.5664C11.2223 17.6356 10.9946 17.7595 10.8008 17.9386Z" fill="#848B96"/>
<path d="M18.461 20.716L17.0857 17.674C16.8444 17.9649 16.5363 18.2077 16.1711 18.3835C15.1611 18.8698 14.0223 18.6994 13.199 17.9386C13.0052 17.7595 12.7776 17.6356 12.5371 17.5664L14.7247 22.4052C14.7873 22.5436 14.9117 22.56 14.9622 22.5607C15.0138 22.5617 15.1377 22.548 15.2037 22.4113L15.6559 21.4755C15.8733 21.0255 16.3249 20.754 16.8047 20.754C16.9184 20.754 17.0338 20.7693 17.1478 20.801L18.149 21.0797C18.2953 21.1204 18.3878 21.0355 18.4207 20.9971C18.4537 20.9586 18.5235 20.8543 18.461 20.716Z" fill="#848B96"/>
<path d="M19.5415 10.0118C18.3992 9.22971 18.0448 7.67685 18.7346 6.4766C19.1492 5.7551 18.9334 5.04213 18.5932 4.61548C18.253 4.18896 17.6059 3.81998 16.8103 4.06356C15.4868 4.46892 14.0516 3.7779 13.5433 2.49024C13.2377 1.71623 12.5457 1.44043 12.0001 1.44043C11.4545 1.44043 10.7625 1.71623 10.4569 2.49028C9.94856 3.77798 8.51348 4.46892 7.18989 4.0636C6.39422 3.82006 5.74721 4.18896 5.40694 4.61552C5.06675 5.04217 4.85097 5.75506 5.26557 6.47664C5.95536 7.67685 5.60094 9.22975 4.45872 10.0119C3.77208 10.4821 3.6572 11.218 3.77855 11.75C3.89991 12.2819 4.32281 12.8951 5.14545 13.0208C6.51388 13.2298 7.50693 14.4751 7.40633 15.8558C7.34577 16.6858 7.84956 17.2345 8.34113 17.4713C8.83275 17.708 9.57583 17.7598 10.187 17.195C10.6953 16.7252 11.3478 16.4903 12 16.4903C12.6525 16.4903 13.3047 16.7251 13.8131 17.195C14.4243 17.7598 15.1674 17.708 15.659 17.4713C16.1506 17.2345 16.6543 16.6858 16.5938 15.8558C16.4932 14.4751 17.4863 13.2299 18.8547 13.0208C19.6773 12.8951 20.1001 12.2819 20.2216 11.75C20.343 11.2179 20.228 10.482 19.5415 10.0118ZM12.0001 15.2973C9.00637 15.2973 6.57081 12.8617 6.57081 9.86797C6.57081 6.87425 9.00633 4.43864 12.0001 4.43864C14.9938 4.43864 17.4294 6.87421 17.4294 9.86793C17.4293 12.8616 14.9938 15.2973 12.0001 15.2973Z" fill="#848B96"/>
<path d="M12.001 5.45117C9.56543 5.45117 7.58398 7.43265 7.58398 9.86817C7.58398 12.3037 9.56539 14.2852 12.001 14.2852C14.4366 14.2852 16.418 12.3037 16.418 9.86817C16.418 7.43265 14.4366 5.45117 12.001 5.45117ZM14.2646 9.43992L11.5156 11.4478C11.4284 11.5115 11.3237 11.5452 11.2171 11.5452C11.1896 11.5452 11.162 11.543 11.1345 11.5384C11.0005 11.5163 10.881 11.4412 10.8028 11.3299L9.98057 10.1592C9.8199 9.93038 9.87513 9.61469 10.1039 9.45402C10.3326 9.29335 10.6483 9.34855 10.809 9.57732L11.3349 10.3262L13.6675 8.62247C13.8933 8.45767 14.21 8.50684 14.3748 8.73264C14.5397 8.95836 14.4903 9.275 14.2646 9.43992Z" fill="#848B96"/>
</svg>
