<svg width="24" height="24" viewBox="0 0 24 24" fill="none" xmlns="http://www.w3.org/2000/svg">
<path d="M7.12338 10.8591C5.40005 10.8591 3.99805 9.45705 3.99805 7.73373C3.99805 6.0104 5.40005 4.6084 7.12338 4.6084C8.8467 4.6084 10.2487 6.0104 10.2487 7.73373C10.2487 9.45705 8.8467 10.8591 7.12338 10.8591ZM7.12338 5.85853C6.08933 5.85853 5.24818 6.69968 5.24818 7.73373C5.24818 8.76777 6.08933 9.60892 7.12338 9.60892C8.15742 9.60892 8.99857 8.76777 8.99857 7.73373C8.99857 6.69968 8.15742 5.85853 7.12338 5.85853ZM19.9997 7.10866H11.4988V8.35879H19.9997V7.10866ZM7.12338 7.10866C6.77873 7.10866 6.49831 7.38909 6.49831 7.73373C6.49831 8.07837 6.77873 8.35879 7.12338 8.35879C7.46802 8.35879 7.74844 8.07837 7.74844 7.73373C7.74844 7.38909 7.46802 7.10866 7.12338 7.10866ZM7.12338 18.3598C5.40005 18.3598 3.99805 16.9578 3.99805 15.2345C3.99805 13.5112 5.40005 12.1092 7.12338 12.1092C8.8467 12.1092 10.2487 13.5112 10.2487 15.2345C10.2487 16.9578 8.8467 18.3598 7.12338 18.3598ZM7.12338 13.3593C6.08933 13.3593 5.24818 14.2005 5.24818 15.2345C5.24818 16.2686 6.08933 17.1097 7.12338 17.1097C8.15742 17.1097 8.99857 16.2686 8.99857 15.2345C8.99857 14.2005 8.15742 13.3593 7.12338 13.3593ZM19.9997 14.6094H11.4988V15.8596H19.9997V14.6094Z" fill="#848B96"/>
</svg>
