<svg width="24" height="24" viewBox="0 0 24 24" fill="none" xmlns="http://www.w3.org/2000/svg">
<path d="M14.2455 6.13971C14.2455 3.73069 12.2853 1.77051 9.88287 1.77051C7.4739 1.77051 5.51367 3.73069 5.51367 6.13971C5.51367 8.54211 7.47389 10.5023 9.88287 10.5023C12.2853 10.5023 14.2455 8.54211 14.2455 6.13971Z" fill="#848B96"/>
<path d="M9.88297 11.0107C5.69198 11.0107 2.29297 14.4163 2.29297 18.6008V19.9208C2.29297 21.1945 3.32918 22.2308 4.60297 22.2308H15.163C16.4302 22.2308 17.473 21.1945 17.473 19.9208V18.6008C17.473 14.4163 14.0674 11.0107 9.88297 11.0107Z" fill="#848B96"/>
<path d="M20.0233 6.81933L17.5708 9.27177L16.6704 8.37201C16.2837 7.98529 15.6572 7.98529 15.2705 8.37201C14.8838 8.75873 14.8838 9.38585 15.2705 9.77193L16.8709 11.3717C17.0642 11.565 17.3175 11.6617 17.5708 11.6617C17.8241 11.6617 18.0774 11.565 18.2708 11.3717L21.4232 8.21925C21.8099 7.83253 21.8099 7.20605 21.4232 6.81933C21.0365 6.43262 20.41 6.43261 20.0233 6.81933Z" fill="#848B96"/>
</svg>
