<svg width="24" height="24" viewBox="0 0 24 24" fill="none" xmlns="http://www.w3.org/2000/svg">
  <path
    d="M11.2472 13.2515L11.9064 12.593C11.7786 12.3165 11.4948 11.7375 11.2758 11.5236C10.9715 11.2353 10.5049 11.0037 10.1488 10.8389L9.49219 11.4964L11.2472 13.2515Z"
    fill="#848B96"/>
  <path d="M8.61831 12.3721L1.43945 19.5487L3.18453 21.2938L10.3722 14.126L8.61831 12.3721Z" fill="#848B96"/>
  <path d="M13.4367 3.18436L11.6809 1.44043L6.44141 6.68108L8.18431 8.4368L13.4367 3.18436Z" fill="#848B96"/>
  <path
    d="M9.22656 9.14378C10.1298 9.44619 11.44 9.97035 12.1337 10.6313C12.7421 11.2154 13.3325 12.7169 13.602 13.5189L18.517 8.60357C17.7112 8.33603 16.2648 7.76632 15.622 7.12361C14.9793 6.48089 14.4096 5.03479 14.1418 4.22852L9.22656 9.14378Z"
    fill="#848B96"/>
  <path d="M19.5632 9.30957L14.3105 14.5625L16.0657 16.3061L21.3069 11.0661L19.5632 9.30957Z" fill="#848B96"/>
  <path d="M21.3226 21.3226V18.8477H13.8977V21.3226H12.6602V22.5601H22.5601V21.3226H21.3226Z" fill="#848B96"/>
</svg>
