<svg width="24" height="24" viewBox="0 0 24 24" fill="none" xmlns="http://www.w3.org/2000/svg">
  <path
    d="M5.52837 5.95215C5.15626 5.95215 4.85352 6.25489 4.85352 6.62704C4.85352 6.99916 5.15626 7.3019 5.52837 7.3019C5.90053 7.3019 6.20327 6.99916 6.20327 6.62704C6.20327 6.25489 5.90053 5.95215 5.52837 5.95215Z"
    fill="#848B96"/>
  <path opacity="0.4"
        d="M15.8516 20.643C16.1621 19.8938 15.8065 19.0347 15.0573 18.7241C14.3081 18.4136 13.449 18.7692 13.1385 19.5184C12.8279 20.2676 13.1835 21.1267 13.9327 21.4373C14.6819 21.7478 15.541 21.3922 15.8516 20.643Z"
        fill="#848B96"/>
  <path
    d="M11.86 20.076C11.86 19.9246 11.8736 19.7764 11.8983 19.632H4.28838C3.67025 19.632 3.16735 19.1291 3.16735 18.5109C3.16735 17.8927 3.67025 17.3898 4.28838 17.3898H9.5344C10.7272 17.3898 11.6976 16.4194 11.6976 15.2266C11.6976 14.0339 10.7272 13.0635 9.5344 13.0635H7.22427L6.53072 14.223H9.5344C10.0878 14.223 10.5381 14.6732 10.5381 15.2266C10.5381 15.7801 10.0878 16.2303 9.5344 16.2303H4.28838C3.03089 16.2303 2.00781 17.2534 2.00781 18.5109C2.00781 19.7684 3.03089 20.7915 4.28838 20.7915H11.9598C11.8953 20.5638 11.86 20.324 11.86 20.076Z"
    fill="#848B96"/>
  <path opacity="0.4"
        d="M21.2299 12.0508C21.2207 11.8224 21.0781 11.6207 20.8659 11.5358L14.7033 9.07074C14.5247 8.99934 14.3223 9.02111 14.163 9.12897C14.0037 9.23684 13.9082 9.41667 13.9082 9.60903V17.5134C14.0947 17.4713 14.2885 17.4483 14.4876 17.4483C14.687 17.4483 14.8809 17.4713 15.0677 17.5136V15.4924L20.9083 12.5934C21.1131 12.4917 21.239 12.2792 21.2299 12.0508Z"
        fill="#848B96"/>
  <path
    d="M9.1102 6.5551C9.1102 4.59168 7.51852 3 5.5551 3C3.59168 3 2 4.59168 2 6.5551V6.56985C2 7.27952 2.18989 7.97626 2.54996 8.58782L5.25532 13.1825C5.37778 13.3905 5.67824 13.3916 5.80213 13.1844L8.54621 8.59664C8.91529 7.97963 9.1102 7.27408 9.1102 6.5551ZM5.52715 8.46104C4.51567 8.46104 3.69276 7.63813 3.69276 6.62665C3.69276 5.61517 4.51567 4.79226 5.52715 4.79226C6.53863 4.79226 7.36154 5.61517 7.36154 6.62665C7.36154 7.63817 6.53863 8.46104 5.52715 8.46104Z"
    fill="#848B96"/>
</svg>
