<svg width="24" height="24" viewBox="0 0 24 24" fill="none" xmlns="http://www.w3.org/2000/svg">
<path d="M17.7773 6.80293C17.4356 6.80293 17.1586 6.52589 17.1586 6.18418V1.44043H8.28984C7.26631 1.44043 6.43359 2.27314 6.43359 3.29668V10.2139C6.63745 10.1954 6.84374 10.1854 7.05234 10.1854C9.16137 10.1854 11.0493 11.1497 12.2988 12.6604H19.0148C19.3566 12.6604 19.6336 12.9375 19.6336 13.2792C19.6336 13.6209 19.3566 13.8979 19.0148 13.8979H13.1139C13.5007 14.6526 13.7501 15.4887 13.8302 16.3729H19.0148C19.3566 16.3729 19.6336 16.65 19.6336 16.9917C19.6336 17.3334 19.3566 17.6104 19.0148 17.6104H13.8302C13.6451 19.6539 12.5533 21.4395 10.9611 22.5604H20.6648C21.6884 22.5604 22.5211 21.7277 22.5211 20.7042V6.80293H17.7773ZM19.0148 10.1854H9.93984C9.59813 10.1854 9.32109 9.90839 9.32109 9.56668C9.32109 9.22496 9.59813 8.94793 9.93984 8.94793H19.0148C19.3566 8.94793 19.6336 9.22496 19.6336 9.56668C19.6336 9.90839 19.3566 10.1854 19.0148 10.1854Z" fill="#848B96"/>
<path d="M18.3945 1.80273V5.56544H22.157L18.3945 1.80273Z" fill="#848B96"/>
<path d="M7.05117 11.4229C3.98056 11.4229 1.48242 13.921 1.48242 16.9916C1.48242 20.0622 3.98056 22.5604 7.05117 22.5604C10.1218 22.5604 12.6199 20.0622 12.6199 16.9916C12.6199 13.921 10.1218 11.4229 7.05117 11.4229ZM9.34492 18.4104C9.58656 18.652 9.58656 19.0437 9.34492 19.2854C9.22414 19.4062 9.06578 19.4666 8.90742 19.4666C8.74906 19.4666 8.5907 19.4062 8.46992 19.2853L7.05117 17.8666L5.63242 19.2854C5.51164 19.4062 5.35328 19.4666 5.19492 19.4666C5.03656 19.4666 4.8782 19.4062 4.75742 19.2853C4.51578 19.0437 4.51578 18.652 4.75742 18.4103L6.17614 16.9916L4.75738 15.5728C4.51574 15.3312 4.51574 14.9395 4.75738 14.6978C4.99898 14.4562 5.39078 14.4562 5.63242 14.6978L7.05117 16.1166L8.46992 14.6978C8.71153 14.4562 9.10332 14.4562 9.34496 14.6978C9.5866 14.9394 9.5866 15.3312 9.34496 15.5728L7.92621 16.9916L9.34492 18.4104Z" fill="#848B96"/>
</svg>
