<svg width="24" height="24" viewBox="0 0 24 24" fill="none" xmlns="http://www.w3.org/2000/svg">
<path fill-rule="evenodd" clip-rule="evenodd" d="M9.38337 7.07128C10.5076 7.07128 11.419 6.15989 11.419 5.03564C11.419 3.91139 10.5076 3 9.38337 3C8.25912 3 7.34773 3.91139 7.34773 5.03564C7.34773 6.15989 8.25912 7.07128 9.38337 7.07128ZM11.5592 9.42689H16.2691C16.768 9.42689 17.1871 9.00779 17.1871 8.50885C17.1871 8.00992 16.768 7.59082 16.2691 7.59082H9.38381C5.9849 7.59082 4.35978 9.77111 4.17067 10.0248L4.17066 10.0248C4.16323 10.0348 4.15802 10.0418 4.15501 10.0456C3.93548 10.3649 3.95544 10.784 4.17497 11.0833L5.77155 13.3186C5.95116 13.578 6.23056 13.6977 6.50997 13.6977C6.68958 13.6977 6.88915 13.6379 7.04881 13.5181C7.06877 13.4982 7.09371 13.4782 7.11866 13.4583C7.14361 13.4383 7.16855 13.4183 7.18851 13.3984V14.037L6.62971 20.8225C6.58979 21.3813 6.98894 21.8802 7.5677 21.9201C8.1265 21.9601 8.62544 21.5609 8.66535 20.9821L9.2042 14.4561H9.60334L10.1422 20.9821C10.1821 21.521 10.6212 21.9201 11.16 21.9201H11.2398C11.7986 21.8802 12.2177 21.3813 12.1778 20.8225L11.619 14.037L11.5592 9.42689ZM7.20847 12.181L6.11082 10.6243C6.37026 10.3848 6.7295 10.1054 7.22843 9.88591L7.20847 12.181ZM17.247 11.123C18.0054 11.8814 19.0431 12.3604 20.1208 12.4402C20.3404 12.4602 20.5 12.6398 20.5 12.8593V14.0567C20.5 16.5714 19.1429 18.9064 16.9476 20.1437C16.8878 20.1836 16.8279 20.2036 16.7481 20.2036C16.6882 20.2036 16.6084 20.1836 16.5485 20.1437C14.3532 18.9064 12.9961 16.5714 12.9961 14.0567V12.8593C12.9961 12.6398 13.1558 12.4602 13.3753 12.4402C14.453 12.3604 15.4708 11.9014 16.2491 11.123L16.4487 10.9235C16.5285 10.8436 16.6283 10.8037 16.7481 10.8037C16.8678 10.8037 16.9676 10.8436 17.0474 10.9235L17.247 11.123ZM17.3268 13.5778C17.3468 13.2185 17.0674 12.9391 16.7281 12.9391C16.3888 12.9391 16.1294 13.2185 16.1294 13.5778L16.2491 15.9128C16.2691 16.1722 16.4687 16.3718 16.7281 16.3718C16.9875 16.3718 17.1871 16.1722 17.2071 15.9128L17.3268 13.5778ZM16.0895 17.4495C16.0895 17.8087 16.3689 18.0881 16.7281 18.0881C17.0873 18.0881 17.3667 17.8087 17.3667 17.4495C17.3667 17.0903 17.0873 16.8108 16.7281 16.8108C16.3689 16.8108 16.0895 17.0903 16.0895 17.4495Z" fill="#848B96"/>
</svg>
