<svg width="24" height="24" viewBox="0 0 24 24" fill="none" xmlns="http://www.w3.org/2000/svg">
<path d="M9.45943 9.38744C9.34205 9.35765 9.2177 9.39233 9.13267 9.47855C8.7606 9.84749 8.16068 9.84749 7.78862 9.47855C7.70349 9.39369 7.58033 9.35925 7.46355 9.38761C7.34677 9.41601 7.25317 9.50313 7.2165 9.61762L6.5293 11.8065H10.392L9.70571 9.61702C9.67024 9.50217 9.57648 9.41478 9.45943 9.38744Z" fill="#848B96"/>
<path d="M13.7528 19.0133L12.6435 18.4883H4.27734L3.18167 19.0076C3.07744 19.0569 3.01015 19.161 3.00796 19.2763L3.00006 19.6972C2.99849 19.7787 3.02982 19.8574 3.08694 19.9157C3.14407 19.9739 3.22219 20.0066 3.30377 20.0066H13.6229C13.7906 20.0066 13.9265 19.8707 13.9265 19.703V19.2878C13.9266 19.1705 13.8589 19.0636 13.7528 19.0133Z" fill="#848B96"/>
<path d="M4.62305 17.8796H12.2987L11.6315 15.7539H5.29022L4.62305 17.8796Z" fill="#848B96"/>
<path d="M6.33833 12.4141L5.48047 15.1471H11.4403L10.5825 12.4141H6.33833Z" fill="#848B96"/>
<path d="M19.697 4.51758H9.80148C9.72094 4.51761 9.64372 4.5496 9.58679 4.60656L8.37211 5.82124C8.25357 5.93981 8.25357 6.13206 8.37211 6.25063L9.58679 7.46531C9.64372 7.52227 9.72094 7.55426 9.80148 7.55429H19.697C19.8647 7.55429 20.0006 7.41834 20.0006 7.25061V4.82126C20.0006 4.65356 19.8647 4.51758 19.697 4.51758ZM11.4978 6.33961H10.2831C10.1154 6.33961 9.97945 6.20367 9.97945 6.03593C9.97945 5.8682 10.1154 5.73226 10.2831 5.73226H11.4978C11.6655 5.73226 11.8015 5.8682 11.8015 6.03593C11.8015 6.20367 11.6655 6.33961 11.4978 6.33961ZM18.786 6.33961H12.7125C12.5448 6.33961 12.4088 6.20367 12.4088 6.03593C12.4088 5.8682 12.5447 5.73226 12.7125 5.73226H18.7859C18.9536 5.73226 19.0896 5.8682 19.0896 6.03593C19.0896 6.20367 18.9537 6.33961 18.786 6.33961Z" fill="#848B96"/>
<path d="M16.0527 8.16211H17.2674V9.07314H16.0527V8.16211Z" fill="#848B96"/>
<path d="M16.3564 3C16.1887 3 16.0527 3.13595 16.0527 3.30368V3.91103H17.2674V3.30368C17.2674 3.13598 17.1315 3 16.9637 3H16.3564Z" fill="#848B96"/>
<path d="M18.5697 9.77062C18.5128 9.71366 18.4356 9.68167 18.355 9.68164H13.0146C12.8469 9.68164 12.7109 9.81759 12.7109 9.98532V12.4147C12.7109 12.5824 12.8469 12.7184 13.0146 12.7184H18.355C18.4356 12.7184 18.5128 12.6864 18.5697 12.6294L19.7844 11.4147C19.9029 11.2962 19.9029 11.1039 19.7844 10.9853L18.5697 9.77062ZM15.1403 11.5037H13.9257C13.758 11.5037 13.622 11.3677 13.622 11.2C13.622 11.0323 13.7579 10.8963 13.9257 10.8963H15.1403C15.308 10.8963 15.444 11.0323 15.444 11.2C15.444 11.3677 15.3081 11.5037 15.1403 11.5037ZM18.4808 11.5037H16.355C16.1873 11.5037 16.0514 11.3677 16.0514 11.2C16.0514 11.0323 16.1873 10.8963 16.355 10.8963H18.4808C18.6485 10.8963 18.7844 11.0323 18.7844 11.2C18.7844 11.3677 18.6485 11.5037 18.4808 11.5037Z" fill="#848B96"/>
<path d="M16.0527 19.7014C16.0527 19.8691 16.1887 20.005 16.3564 20.005H16.9638C17.1315 20.005 17.2674 19.8691 17.2674 19.7014V13.3242H16.0528V19.7014H16.0527Z" fill="#848B96"/>
</svg>
