<svg width="24" height="24" viewBox="0 0 24 24" fill="none" xmlns="http://www.w3.org/2000/svg">
  <path
    d="M19.779 14.8396C19.779 12.9437 18.6914 11.2517 17.0625 10.4287C17.0119 14.0638 14.0647 17.0109 10.4297 17.0615C11.2527 18.6904 12.9447 19.778 14.8406 19.778C15.7295 19.778 16.5939 19.5413 17.3534 19.0915L19.7575 19.7565L19.0925 17.3524C19.5423 16.5929 19.779 15.7285 19.779 14.8396Z"
    fill="#CDCDCD"/>
  <path
    d="M16.1673 10.3336C16.1673 7.1169 13.5504 4.5 10.3336 4.5C7.1169 4.5 4.5 7.1169 4.5 10.3336C4.5 11.382 4.77905 12.4027 5.30893 13.2988L4.52145 16.1457L7.36844 15.3583C8.26456 15.8882 9.28528 16.1673 10.3336 16.1673C13.5504 16.1673 16.1673 13.5504 16.1673 10.3336ZM9.43844 8.97593H8.54326C8.54326 7.98866 9.34636 7.18556 10.3336 7.18556C11.3209 7.18556 12.124 7.98866 12.124 8.97593C12.124 9.47702 11.9119 9.95865 11.5418 10.2971L10.7812 10.9932V11.6913H9.88604V10.599L10.9374 9.63671C11.1253 9.46479 11.2288 9.23015 11.2288 8.97593C11.2288 8.4823 10.8273 8.08074 10.3336 8.08074C9.83999 8.08074 9.43844 8.4823 9.43844 8.97593ZM9.88604 12.5865H10.7812V13.4817H9.88604V12.5865Z"
    fill="#848B96"/>
</svg>
