<svg width="24" height="24" viewBox="0 0 24 24" fill="none" xmlns="http://www.w3.org/2000/svg">
  <path
    d="M16.8375 5.12012C16.1706 5.12012 15.6281 5.66262 15.6281 6.32949C15.6281 6.59999 15.7205 6.84743 15.8712 7.0491L13.8988 9.18931C13.8065 9.16671 13.7116 9.15137 13.6125 9.15137C13.3649 9.15137 13.1349 9.22667 12.943 9.35481L11.5365 8.30024C11.5722 8.18631 11.5969 8.06753 11.5969 7.94199C11.5969 7.27512 11.0544 6.73262 10.3875 6.73262C9.72062 6.73262 9.17813 7.27512 9.17813 7.94199C9.17813 8.06753 9.20277 8.18631 9.23846 8.30024L7.83196 9.35481C7.64007 9.22667 7.41007 9.15137 7.1625 9.15137C6.49562 9.15137 5.95312 9.69387 5.95312 10.3607C5.95312 11.0276 6.49562 11.5701 7.1625 11.5701C7.82938 11.5701 8.37188 11.0276 8.37188 10.3607C8.37188 10.2352 8.34723 10.1164 8.31154 10.0025L9.71804 8.94792C9.9099 9.07606 10.1399 9.15137 10.3875 9.15137C10.6351 9.15137 10.8651 9.07606 11.057 8.94792L12.4635 10.0025C12.4278 10.1164 12.4031 10.2352 12.4031 10.3607C12.4031 11.0276 12.9456 11.5701 13.6125 11.5701C14.2794 11.5701 14.8219 11.0276 14.8219 10.3607C14.8219 10.0902 14.7295 9.84281 14.5788 9.64114L16.5512 7.50092C16.6435 7.52352 16.7384 7.53887 16.8375 7.53887C17.5044 7.53887 18.0469 6.99637 18.0469 6.32949C18.0469 5.66262 17.5044 5.12012 16.8375 5.12012Z"
    fill="#848B96"/>
  <path
    d="M11.1953 11.5703H9.58281C9.35999 11.5703 9.17969 11.7506 9.17969 11.9734V17.2678H11.5984V11.9734C11.5984 11.7506 11.4181 11.5703 11.1953 11.5703Z"
    fill="#CDCDCD"/>
  <path
    d="M14.4199 13.1826H12.8074C12.5846 13.1826 12.4043 13.3629 12.4043 13.5857V17.2676H14.8231V13.5857C14.8231 13.3629 14.6427 13.1826 14.4199 13.1826Z"
    fill="#848B96"/>
  <path
    d="M17.6445 9.95801H16.032C15.8092 9.95801 15.6289 10.1383 15.6289 10.3611V17.268H18.0477V10.3611C18.0477 10.1383 17.8674 9.95801 17.6445 9.95801Z"
    fill="#CDCDCD"/>
  <path
    d="M7.96875 13.9893H6.35625C6.13343 13.9893 5.95312 14.1696 5.95312 14.3924V17.268H8.37188V14.3924C8.37188 14.1696 8.19157 13.9893 7.96875 13.9893Z"
    fill="#848B96"/>
  <path
    d="M18.478 18.0742C16.6777 18.0742 15.8515 18.0742 15.5252 18.0742C15.376 18.0742 15.3227 18.0742 15.3231 18.0742C14.7291 18.0742 12.5181 18.0742 5.52422 18.0742C5.3014 18.0742 5.12109 18.2545 5.12109 18.4773C5.12109 18.7002 5.3014 18.8805 5.52422 18.8805C10.4026 18.8805 13.9208 18.8805 18.478 18.8805C18.7008 18.8805 18.8811 18.7002 18.8811 18.4773C18.8811 18.2545 18.7008 18.0742 18.478 18.0742Z"
    fill="#848B96"/>
</svg>
