<svg width="24" height="24" viewBox="0 0 24 24" fill="none" xmlns="http://www.w3.org/2000/svg">
  <path
    d="M17.603 6.83241C17.4688 6.83241 17.3331 6.78564 17.2242 6.68981C15.7729 5.41714 13.9168 4.71641 11.9986 4.71641C10.1908 4.71641 8.42291 5.35044 7.01991 6.50274C6.77381 6.70437 6.41117 6.66834 6.21031 6.42301C6.00944 6.17767 6.04471 5.81504 6.29004 5.61341C7.89774 4.29321 9.92558 3.56641 11.9986 3.56641C14.1959 3.56641 16.3211 4.36834 17.9825 5.82501C18.2209 6.03431 18.2447 6.39771 18.0354 6.63691C17.9219 6.76571 17.7624 6.83241 17.603 6.83241Z"
    fill="#CDCDCD"/>
  <path
    d="M8.3569 6.63313H6.44023C6.12283 6.63313 5.86523 6.37553 5.86523 6.05813V4.14147C5.86523 3.90917 6.00553 3.6991 6.2202 3.61017C6.43487 3.52123 6.6825 3.5703 6.84657 3.73513L8.76323 5.6518C8.9273 5.81587 8.97713 6.0635 8.8882 6.27817C8.79926 6.49283 8.5892 6.63313 8.3569 6.63313Z"
    fill="#CDCDCD"/>
  <path
    d="M12.0918 20.434C9.89375 20.434 7.76855 19.6321 6.10795 18.1754C5.86875 17.9661 5.84575 17.6027 6.05505 17.3635C6.26435 17.1251 6.62775 17.1013 6.86695 17.3106C8.31748 18.5833 10.1728 19.284 12.0918 19.284C13.8996 19.284 15.6675 18.65 17.0705 17.4977C17.3159 17.2953 17.6777 17.3313 17.8801 17.5774C18.0818 17.8228 18.0457 18.1854 17.8004 18.387C16.1927 19.7072 14.1649 20.434 12.0918 20.434Z"
    fill="#CDCDCD"/>
  <path
    d="M17.556 20.4339C17.4065 20.4339 17.2593 20.3756 17.1497 20.2652L15.233 18.3485C15.0689 18.1845 15.0191 17.9368 15.108 17.7222C15.197 17.5075 15.407 17.3672 15.6393 17.3672H17.556C17.8734 17.3672 18.131 17.6248 18.131 17.9422V19.8589C18.131 20.0912 17.9907 20.3012 17.776 20.3902C17.7047 20.4193 17.6304 20.4339 17.556 20.4339Z"
    fill="#CDCDCD"/>
  <path
    d="M6.63151 11.9993C7.69006 11.9993 8.54818 11.1412 8.54818 10.0827C8.54818 9.02414 7.69006 8.16602 6.63151 8.16602C5.57296 8.16602 4.71484 9.02414 4.71484 10.0827C4.71484 11.1412 5.57296 11.9993 6.63151 11.9993Z"
    fill="#848B96"/>
  <path
    d="M8.35716 12.7656H4.90716C3.74413 12.7656 2.79883 13.7109 2.79883 14.874V15.2573C2.79883 15.5747 3.05643 15.8323 3.37383 15.8323H9.89049C10.2079 15.8323 10.4655 15.5747 10.4655 15.2573V14.874C10.4655 13.7109 9.52019 12.7656 8.35716 12.7656Z"
    fill="#848B96"/>
  <path
    d="M17.3659 11.9993C18.4244 11.9993 19.2826 11.1412 19.2826 10.0827C19.2826 9.02414 18.4244 8.16602 17.3659 8.16602C16.3073 8.16602 15.4492 9.02414 15.4492 10.0827C15.4492 11.1412 16.3073 11.9993 17.3659 11.9993Z"
    fill="#848B96"/>
  <path
    d="M19.0896 12.7656H15.6396C14.4766 12.7656 13.5312 13.7109 13.5312 14.874V15.2573C13.5312 15.5747 13.7889 15.8323 14.1063 15.8323H20.6229C20.9403 15.8323 21.1979 15.5747 21.1979 15.2573V14.874C21.1979 13.7109 20.2526 12.7656 19.0896 12.7656Z"
    fill="#848B96"/>
</svg>
