<svg width="24" height="24" viewBox="0 0 24 24" fill="none" xmlns="http://www.w3.org/2000/svg">
<path d="M17.397 9.58445L15.0267 8.98787L13.9563 7.75482L13.9779 7.43115C14.0215 6.78015 13.529 6.21712 12.878 6.17358L10.3032 5.99805C10.3032 5.99805 10.3304 6.22047 10.3354 6.2845C10.7642 6.31039 11.1707 6.50205 11.4629 6.81982C12.0477 7.45563 12.0525 8.44151 11.4583 9.08228L10.0655 10.5841L10.0166 11.3147C9.97685 11.91 9.63425 12.4199 9.14622 12.6976L9.11393 13.1808L9.12529 13.1816C9.12549 13.1888 9.12545 13.1961 9.12584 13.2034L9.29446 16.5868L7.42892 20.6102C7.20645 21.09 7.41506 21.6592 7.89485 21.8817C8.3745 22.1041 8.94386 21.8956 9.16632 21.4158L11.1313 17.178C11.1966 17.0371 11.2267 16.8826 11.219 16.7275L11.0486 13.3102L11.4803 13.339L12.5398 16.4899L12.942 21.0963C12.9882 21.6263 13.4556 22.0128 13.9791 21.9669C14.506 21.9209 14.8958 21.4566 14.8498 20.9298L14.4377 16.2096C14.4311 16.134 14.4156 16.0596 14.3914 15.9877L13.5472 13.4773L13.5736 13.479L13.8052 10.0151L13.9861 10.2235C14.0931 10.3468 14.2355 10.4343 14.3939 10.4742L17.0075 11.132C17.4349 11.2396 17.8685 10.9802 17.976 10.5529C18.0836 10.1257 17.8244 9.69201 17.397 9.58445Z" fill="#848B96"/>
<path d="M7.92696 11.9651L9.06873 9.23423L10.758 8.33171L10.184 8.81682L10.1154 9.84154L11.115 8.76364C11.5246 8.32207 11.5404 7.62988 11.1184 7.13692C11.1067 7.1233 11.0949 7.11014 11.0829 7.09749C10.8013 6.80029 10.3492 6.74075 9.98807 6.93367L8.06611 7.96049C7.904 8.04709 7.7768 8.18698 7.7059 8.3565L6.45454 11.3495C6.28454 11.7561 6.47636 12.2235 6.88296 12.3935C7.28775 12.5628 7.75623 12.3735 7.92696 11.9651Z" fill="#848B96"/>
<path d="M8.18164 12.4487C8.94883 12.4988 9.50383 11.9432 9.54791 11.2843L9.68471 9.23828L9.5171 9.37993L8.35987 12.1477C8.31349 12.2585 8.25293 12.3591 8.18164 12.4487Z" fill="#848B96"/>
<path d="M7.27076 8.17478C7.32179 8.09431 7.3891 7.67831 7.84352 7.54506L9.84381 6.87079L9.86911 6.49258C9.91264 5.84158 9.42016 5.27854 8.76915 5.23501C7.34424 5.09457 7.39441 5.0918 7.28982 5.0918C6.67329 5.0918 6.15398 5.57019 6.11224 6.19441L5.89669 9.4181C5.41896 9.54472 5.05523 9.96396 5.02064 10.4812L5.0026 10.7512C4.9627 11.348 5.38647 11.8651 5.95794 11.9603C5.89501 11.7053 5.91027 11.4287 6.01936 11.1678L7.27076 8.17478Z" fill="#848B96"/>
<path d="M12.1029 5.49389C13.0667 5.55831 13.9001 4.82934 13.9646 3.86561C14.029 2.90187 13.3 2.06843 12.3363 2.00397C11.3726 1.93951 10.5391 2.66851 10.4747 3.63225C10.4102 4.59598 11.1393 5.42943 12.1029 5.49389Z" fill="#848B96"/>
</svg>
