<svg width="24" height="24" viewBox="0 0 24 24" fill="none" xmlns="http://www.w3.org/2000/svg">
  <path
    d="M11.9992 7.62793C9.61097 7.62793 7.66797 9.57093 7.66797 11.9592C7.66797 14.3474 9.61097 16.2904 11.9992 16.2904C14.3875 16.2904 16.3305 14.3474 16.3305 11.9592C16.3305 9.57093 14.3875 7.62793 11.9992 7.62793ZM14.9118 11.1592L11.6118 14.4592C11.4909 14.58 11.3326 14.6404 11.1742 14.6404C11.0159 14.6404 10.8575 14.58 10.7367 14.4592L9.08672 12.8092C8.84508 12.5676 8.84508 12.1758 9.08672 11.9341C9.32833 11.6925 9.72012 11.6925 9.96176 11.9341L11.1742 13.1467L14.0367 10.2841C14.2783 10.0425 14.6701 10.0425 14.9118 10.2841C15.1534 10.5258 15.1534 10.9176 14.9118 11.1592Z"
    fill="#848B96"/>
  <path
    d="M19.4238 4.74041C16.9291 4.74041 14.5836 3.76889 12.8195 2.00483L12.4364 1.62166C12.1948 1.37998 11.803 1.38006 11.5613 1.62166L11.1781 2.00483C9.41406 3.76889 7.06863 4.74041 4.57383 4.74041C4.23211 4.74041 3.95508 5.01744 3.95508 5.35916V11.5311C3.95508 16.4922 7.10662 20.911 11.7973 22.5267C11.8626 22.5492 11.9307 22.5604 11.9988 22.5604C12.067 22.5604 12.1351 22.5492 12.2003 22.5267C16.891 20.911 20.0426 16.4922 20.0426 11.5311V5.35916C20.0426 5.01744 19.7655 4.74041 19.4238 4.74041ZM11.9988 17.5279C8.92822 17.5279 6.43008 15.0298 6.43008 11.9592C6.43008 8.88855 8.92822 6.39041 11.9988 6.39041C15.0694 6.39041 17.5676 8.88855 17.5676 11.9592C17.5676 15.0298 15.0695 17.5279 11.9988 17.5279Z"
    fill="#848B96"/>
</svg>
