<svg width="24" height="24" viewBox="0 0 24 24" fill="none" xmlns="http://www.w3.org/2000/svg">
  <path
    d="M22.1953 18.9183H1.80361C1.60251 18.9183 1.43945 18.7553 1.43945 18.5542V5.44521C1.43945 5.24412 1.60251 5.08105 1.80361 5.08105H22.1953C22.3964 5.08105 22.5595 5.24412 22.5595 5.44521V18.5542C22.5595 18.7553 22.3964 18.9183 22.1953 18.9183Z"
    fill="#73AF00"/>
  <path
    d="M5.80947 9.78367C5.84536 10.0137 5.98441 10.0859 6.10532 10.0765C6.24788 10.0654 6.3729 9.93506 6.3729 9.79737V9.00793C6.3729 8.96841 6.40508 8.93615 6.44468 8.93615C6.48428 8.93615 6.51645 8.96837 6.51645 9.00793V9.80075C6.51645 9.89608 6.56356 9.98497 6.64256 10.0384C6.69078 10.071 6.74692 10.0878 6.80347 10.0878C6.83948 10.0878 6.87566 10.0809 6.91015 10.0672L6.98188 10.0385C6.98848 10.7012 6.94818 11.2836 6.94743 11.2943C6.94182 11.3734 7.00131 11.442 7.08038 11.4477C7.08389 11.4479 7.08731 11.4481 7.09078 11.4481C7.16544 11.4481 7.22843 11.3903 7.23383 11.3147C7.23718 11.2681 7.2814 10.6302 7.26815 9.92401L7.31155 9.90668C7.34958 9.89154 7.39232 9.89336 7.42891 9.91159C7.58702 9.99038 7.77726 9.95964 7.90221 9.83474L7.92807 9.80892C8.04407 9.69272 8.08396 9.52392 8.03202 9.3682L7.9098 9.00153C7.97588 9.02141 8.04848 8.99217 8.08041 8.92852C8.11588 8.85761 8.08713 8.7714 8.01622 8.73592L7.72917 8.59237C7.67723 8.5663 7.6149 8.5743 7.57089 8.61225C7.527 8.65041 7.51042 8.71109 7.52877 8.76616L7.75973 9.45908C7.77702 9.51093 7.76373 9.56727 7.72508 9.60597L7.69926 9.63179C7.66185 9.6692 7.60484 9.67832 7.55719 9.65477C7.46417 9.60828 7.35824 9.59957 7.25887 9.6249C7.2387 9.16418 7.18908 8.7054 7.0834 8.38823C7.05836 8.31307 6.97722 8.27231 6.90177 8.29752C6.82657 8.32247 6.78594 8.40374 6.81102 8.47906C6.91444 8.78922 6.95948 9.2619 6.97549 9.7319L6.80364 9.80063V9.0078C6.80364 8.80988 6.64264 8.64893 6.44476 8.64893C6.24689 8.64893 6.08589 8.80984 6.08589 9.0078V9.70266L5.93945 8.97934C5.92386 8.90154 5.8482 8.8508 5.77032 8.86706C5.69257 8.8829 5.64233 8.95859 5.65812 9.03626L5.80947 9.78367Z"
    fill="#F5F5F5"/>
  <path
    d="M6.08585 8.57731C6.16513 8.57731 6.2294 8.51313 6.2294 8.43376V8.29021C6.2294 8.21089 6.16513 8.14667 6.08585 8.14667C6.00656 8.14667 5.94229 8.21085 5.94229 8.29021V8.43376C5.94229 8.51308 6.00656 8.57731 6.08585 8.57731Z"
    fill="#F5F5F5"/>
  <path
    d="M7.52121 8.43377H7.66477C7.74405 8.43377 7.80832 8.36958 7.80832 8.29022C7.80832 8.21089 7.74405 8.14667 7.66477 8.14667H7.52121C7.44193 8.14667 7.37766 8.21085 7.37766 8.29022C7.37766 8.36958 7.44193 8.43377 7.52121 8.43377Z"
    fill="#F5F5F5"/>
  <path
    d="M6.58613 10.3202L5.86842 10.7509C5.8004 10.7917 5.77841 10.8799 5.8192 10.9479C5.8461 10.9927 5.89362 11.0175 5.94242 11.0175C5.96758 11.0175 5.99303 11.0109 6.01617 10.997L6.73388 10.5664C6.80191 10.5256 6.82389 10.4374 6.78309 10.3694C6.7423 10.3014 6.65419 10.2795 6.58613 10.3202Z"
    fill="#F5F5F5"/>
  <path
    d="M8.52133 10.5741L8.52471 10.5719C8.53676 10.6204 8.55742 10.6673 8.59096 10.7068C8.64929 10.7754 8.73674 10.81 8.83557 10.8018C8.97578 10.7916 9.07107 10.7275 9.13418 10.6448C9.1438 10.6514 9.1539 10.6574 9.16446 10.6627C9.24205 10.7018 9.33177 10.6989 9.4172 10.6546C9.63414 10.5429 9.68087 10.2844 9.67427 10.1493C9.67039 10.0705 9.6034 10.0149 9.52482 10.0133C9.44599 10.0167 9.38461 10.0836 9.38746 10.1623C9.38754 10.1642 9.39072 10.3345 9.2866 10.3977C9.26961 10.374 9.24948 10.3207 9.24189 10.2767C9.22976 10.2028 9.1619 10.1514 9.08889 10.1573C9.01448 10.1632 8.95697 10.2257 8.95673 10.3004C8.95664 10.3213 8.95202 10.5055 8.80983 10.5209C8.79329 10.4983 8.793 10.4033 8.8093 10.333C8.82303 10.2754 8.79993 10.2153 8.75118 10.1816C8.70234 10.1479 8.63795 10.1479 8.5889 10.1811L8.50879 10.2356C8.47076 9.40318 8.3831 8.43319 8.38203 8.42077C8.37489 8.34199 8.30551 8.28325 8.2261 8.29084C8.14715 8.29797 8.08895 8.36781 8.09612 8.44688C8.09736 8.46017 8.19871 9.58245 8.22998 10.4395C8.22264 10.4465 8.21509 10.4541 8.20791 10.4608C8.15115 10.3177 8.03862 10.2276 7.89371 10.2138C7.68919 10.1958 7.4676 10.3349 7.38815 10.5337C7.31967 10.7047 7.36278 10.8728 7.49788 10.9618C7.59502 11.0259 7.74162 11.046 7.92597 10.9814C7.88096 11.1396 7.799 11.2999 7.69249 11.424C7.59708 11.5351 7.43777 11.6634 7.23392 11.6576C7.11524 11.653 7.02408 11.6142 6.95515 11.5388C6.78895 11.3572 6.80326 11.0287 6.80339 11.0252C6.80751 10.9461 6.74696 10.8787 6.66796 10.8743C6.58839 10.8659 6.52107 10.9305 6.5167 11.0097C6.51571 11.0279 6.49488 11.4597 6.74209 11.7312C6.86378 11.8651 7.02544 11.9367 7.22261 11.9445C7.23222 11.9449 7.24184 11.945 7.25149 11.945C7.4916 11.945 7.72459 11.8272 7.91017 11.611C8.08474 11.4077 8.20329 11.1315 8.23885 10.8752C8.2384 11.3663 7.94247 11.9201 7.55014 12.1641C7.38353 12.2675 7.12378 12.3609 6.83119 12.2166C6.4705 12.0386 6.51348 11.6263 6.51538 11.6095C6.52524 11.5308 6.46943 11.4591 6.39076 11.4493C6.31247 11.4398 6.24028 11.4951 6.23055 11.5739C6.22733 11.5996 6.15836 12.2047 6.70418 12.474C6.84439 12.5432 6.99099 12.5776 7.13875 12.5776C7.32854 12.5776 7.52011 12.5208 7.70169 12.4078C8.17937 12.1109 8.52607 11.4658 8.52607 10.874C8.52603 10.7815 8.52426 10.6804 8.52133 10.5741ZM7.65578 10.7221C7.63012 10.7051 7.65017 10.6509 7.6545 10.6401C7.68474 10.5644 7.77928 10.4989 7.85481 10.4989C7.85869 10.4989 7.86261 10.4991 7.86636 10.4995C7.88472 10.5012 7.93343 10.5058 7.95439 10.6142C7.95662 10.6257 7.95852 10.6374 7.96 10.6495C7.80003 10.7434 7.69278 10.7464 7.65578 10.7221Z"
    fill="#F5F5F5"/>
  <path
    d="M6.15833 12.0423C6.0903 12.0023 6.00244 12.0252 5.9621 12.0932C5.9555 12.1043 5.94675 12.1164 5.93784 12.1272C5.93627 12.1236 5.93475 12.1197 5.93318 12.1155C5.87333 11.9558 5.91594 11.7098 5.93747 11.6285C5.95772 11.5519 5.91214 11.4734 5.83566 11.4529C5.75927 11.4333 5.68069 11.4779 5.66014 11.5544C5.64971 11.5933 5.56147 11.9417 5.66435 12.2162C5.73023 12.3917 5.83138 12.436 5.90468 12.442C5.91119 12.4426 5.91763 12.4429 5.92402 12.4429C6.07855 12.4429 6.18138 12.2871 6.20997 12.2378C6.24961 12.1694 6.22639 12.0824 6.15833 12.0423Z"
    fill="#F5F5F5"/>
  <path
    d="M8.80718 9.43854C8.83824 9.43854 8.86951 9.42855 8.89574 9.40785L9.61943 8.83971C9.62941 8.83187 9.63581 8.8216 9.64311 8.81195C9.74735 8.74908 9.81784 8.63589 9.81784 8.50558C9.81784 8.30767 9.65685 8.14671 9.45897 8.14671C9.26109 8.14671 9.10009 8.30762 9.10009 8.50558C9.10009 8.61634 9.15157 8.71423 9.23061 8.7801L8.71841 9.18221C8.65608 9.23113 8.64523 9.32138 8.69415 9.38363C8.72249 9.41972 8.76465 9.43854 8.80718 9.43854ZM9.45901 8.43377C9.49861 8.43377 9.53079 8.46598 9.53079 8.50554C9.53079 8.5451 9.49861 8.57732 9.45901 8.57732C9.41941 8.57732 9.38723 8.5451 9.38723 8.50554C9.38723 8.46598 9.41941 8.43377 9.45901 8.43377Z"
    fill="#F5F5F5"/>
  <path
    d="M9.2891 9.30245C9.21349 9.27725 9.13252 9.318 9.10748 9.39316C9.09213 9.43911 9.02271 9.67592 9.16341 9.81646C9.21803 9.87111 9.28976 9.89846 9.37788 9.8983C9.43674 9.8983 9.50291 9.88625 9.57617 9.86171C9.65137 9.83675 9.692 9.75549 9.66692 9.68017C9.64184 9.60501 9.5607 9.56409 9.48529 9.58946C9.4051 9.61611 9.37119 9.61178 9.3681 9.61454C9.35964 9.59326 9.36521 9.52916 9.37994 9.48333C9.40477 9.40842 9.36414 9.3274 9.2891 9.30245Z"
    fill="#F5F5F5"/>
  <path
    d="M10.9319 8.70903C10.9454 8.71295 10.9589 8.71477 10.9722 8.71477C11.0344 8.71477 11.0916 8.67413 11.11 8.61143L11.1937 8.32437C11.2159 8.24827 11.1722 8.16849 11.0961 8.14634C11.0198 8.12431 10.9403 8.16779 10.9181 8.24389L10.8344 8.53095C10.8121 8.60718 10.8559 8.68692 10.9319 8.70903Z"
    fill="#F5F5F5"/>
  <path
    d="M10.0953 8.69224C10.118 8.70556 10.143 8.71188 10.1676 8.71188C10.2169 8.71188 10.2649 8.68651 10.2916 8.64084C10.3316 8.57245 10.3086 8.48438 10.2402 8.44445C10.2113 8.42762 10.2152 8.3801 10.2163 8.3707C10.2206 8.33299 10.2431 8.287 10.2822 8.27483C10.3579 8.25132 10.4001 8.17084 10.3766 8.09514C10.3529 8.01933 10.2726 7.97738 10.1968 8.00064C10.0537 8.04519 9.94935 8.17769 9.93099 8.33807C9.91399 8.48731 9.97694 8.62302 10.0953 8.69224Z"
    fill="#F5F5F5"/>
  <path
    d="M8.95659 11.0175C8.87731 11.0175 8.81305 11.0817 8.81305 11.161C8.81305 11.2311 8.86325 11.2895 8.92966 11.302C8.93721 11.3131 8.95655 11.3511 8.95655 11.4481C8.95655 11.5274 9.02082 11.5916 9.1001 11.5916C9.17938 11.5916 9.24365 11.5275 9.24365 11.4481C9.24369 11.0224 8.96831 11.0175 8.95659 11.0175Z"
    fill="#F5F5F5"/>
  <path
    d="M11.3918 10.4231C11.4098 10.4261 11.4278 10.4275 11.4458 10.4275C11.5586 10.4275 11.6725 10.3706 11.7854 10.2577C11.8415 10.2017 11.8415 10.1108 11.7854 10.0548C11.7293 9.9987 11.6385 9.9987 11.5824 10.0548C11.4966 10.1407 11.4504 10.1425 11.4386 10.1398C11.4112 10.1359 11.3863 10.1001 11.3808 10.0904C11.3448 10.0205 11.2594 9.99268 11.1891 10.0278C11.1182 10.0633 11.0894 10.1495 11.1249 10.2204C11.1338 10.2382 11.2167 10.3947 11.3918 10.4231Z"
    fill="#F5F5F5"/>
  <path
    d="M13.8317 9.4144C13.8308 9.41217 13.8299 9.41007 13.8292 9.40809C13.8038 9.33355 13.7225 9.293 13.6481 9.31837C13.5728 9.34333 13.5322 9.42459 13.5572 9.49991C13.5684 9.53353 13.6324 9.70233 13.7908 9.72361C13.8014 9.72501 13.8119 9.72571 13.8223 9.72571C13.9218 9.72571 14.0151 9.66136 14.1 9.53407C14.1439 9.46819 14.1261 9.37905 14.0601 9.33504C13.9941 9.29115 13.9049 9.3088 13.8611 9.37488C13.8497 9.39184 13.8399 9.40475 13.8317 9.4144Z"
    fill="#F5F5F5"/>
  <path
    d="M13.5499 12.0223C13.5499 11.4102 13.523 10.8359 13.4857 10.3328C13.6895 10.6862 13.8728 11.0434 13.9897 11.355C14.0113 11.4126 14.066 11.4481 14.1241 11.4481C14.1408 11.4481 14.1578 11.4451 14.1744 11.439C14.2487 11.4111 14.2863 11.3284 14.2584 11.2541C14.0767 10.7698 13.7502 10.1929 13.4283 9.68084C13.3499 8.9076 13.262 8.41681 13.2605 8.40807C13.2463 8.33002 13.1718 8.27731 13.0936 8.29253C13.0156 8.30668 12.9639 8.38138 12.978 8.45934C12.9792 8.46557 13.0244 8.71839 13.0785 9.14389C12.9682 8.98025 12.8657 8.83261 12.7798 8.71109L12.7868 8.71332C12.8624 8.73852 12.9433 8.69777 12.9684 8.62261C12.9935 8.54733 12.9528 8.46602 12.8776 8.44107L12.447 8.29752C12.3873 8.27735 12.3217 8.29867 12.2852 8.3497C12.2754 8.36331 12.2687 8.37824 12.2642 8.39367C12.1783 8.33015 12.068 8.2785 11.9646 8.32181C11.902 8.34776 11.8274 8.41306 11.8274 8.57719C11.8274 8.70321 11.8755 8.83946 11.9265 8.98384C12.011 9.22325 12.0639 9.3993 11.9744 9.48329C11.9249 9.52965 11.8755 9.54719 11.8273 9.53502C11.7388 9.51258 11.6512 9.39468 11.5928 9.21962C11.5902 9.21203 11.585 9.2065 11.5813 9.1997C11.6115 8.97736 11.5984 8.70948 11.5375 8.40551C11.5221 8.32771 11.4466 8.2771 11.3686 8.29294C11.2908 8.30849 11.2405 8.38406 11.256 8.46186C11.3498 8.93058 11.3216 9.31297 11.1808 9.48473C11.1264 9.55119 11.0582 9.582 10.9662 9.582C10.9371 9.582 10.9172 9.57276 10.8975 9.55003C10.7843 9.41952 10.7847 8.99844 10.8213 8.74091C10.8271 8.69987 10.8147 8.65808 10.7875 8.62665C10.7602 8.59526 10.7207 8.57719 10.6791 8.57719C10.4321 8.57719 10.3385 8.85811 10.2558 9.10594C10.2196 9.21488 10.1521 9.41741 10.105 9.43845C10.0181 9.43845 9.9619 9.18332 9.9614 9.00768C9.96116 8.92848 9.89701 8.86442 9.81786 8.86442C9.73866 8.86442 9.67426 8.9286 9.67426 9.0078C9.67426 9.33887 9.78704 9.72551 10.1049 9.72551C10.3416 9.72551 10.4375 9.46757 10.5177 9.22787C10.5317 9.41849 10.5747 9.61599 10.6806 9.73797C10.7549 9.82377 10.8536 9.86902 10.9662 9.86902C11.1434 9.86902 11.2943 9.79906 11.4028 9.66673C11.4225 9.6428 11.4394 9.61529 11.4561 9.58753C11.5394 9.706 11.6417 9.78417 11.7569 9.81325C11.7907 9.82179 11.8247 9.82612 11.8583 9.82612C11.9691 9.82612 12.0774 9.78041 12.1709 9.69251C12.1903 9.6742 12.204 9.65427 12.2188 9.63459C12.2539 9.64462 12.2895 9.65056 12.3249 9.65056C12.4411 9.65056 12.5531 9.60374 12.6226 9.55915C12.689 9.51654 12.7082 9.42851 12.666 9.36177C12.6238 9.29519 12.5353 9.27527 12.4684 9.31705C12.4672 9.31763 12.3713 9.37274 12.3059 9.35979C12.3061 9.20242 12.2492 9.03531 12.1972 8.88809C12.1676 8.80423 12.1373 8.71835 12.1229 8.64814C12.1348 8.65813 12.1463 8.66848 12.1567 8.67854C12.2126 8.7346 12.3035 8.7346 12.3596 8.67854C12.3689 8.66926 12.3742 8.658 12.3804 8.64715C12.5292 8.85212 12.8352 9.28286 13.15 9.77938C13.2101 10.3897 13.2628 11.1682 13.2628 12.0221C13.2628 12.1014 13.3271 12.1656 13.4064 12.1656C13.4857 12.1658 13.5499 12.1016 13.5499 12.0223Z"
    fill="#F5F5F5"/>
  <path
    d="M13.6934 8.86437C13.6934 8.9437 13.7577 9.00793 13.837 9.00793C13.9163 9.00793 13.9805 8.94374 13.9805 8.86437C13.9805 8.69546 13.8484 8.42255 13.8219 8.36954C13.7864 8.29876 13.7002 8.27017 13.6293 8.30536C13.5583 8.34083 13.5295 8.42704 13.5651 8.49795C13.6168 8.60153 13.6934 8.78951 13.6934 8.86437Z"
    fill="#F5F5F5"/>
  <path
    d="M13.0403 12.0379C12.97 12.0021 12.8835 12.0305 12.8477 12.1012C12.8322 12.1313 12.8084 12.1648 12.7882 12.1864C12.7818 12.1294 12.797 12.0154 12.826 11.9209C12.8452 11.8578 12.8191 11.7897 12.7626 11.7558C12.7063 11.7218 12.6338 11.7306 12.5872 11.7772L12.3002 12.0643C12.2441 12.1204 12.2441 12.2112 12.3002 12.2673C12.3562 12.3233 12.447 12.3233 12.5031 12.2673L12.5104 12.26C12.5228 12.3176 12.5466 12.3701 12.5873 12.4108C12.6411 12.4646 12.7061 12.4931 12.7737 12.4931C12.7869 12.4931 12.8 12.4919 12.8132 12.4899C12.9758 12.4635 13.0771 12.2843 13.1042 12.23C13.1395 12.1592 13.1109 12.0736 13.0403 12.0379Z"
    fill="#F5F5F5"/>
  <path
    d="M12.9847 10.8829H11.9731C11.982 10.8472 11.9912 10.8131 12.0007 10.7807C12.4041 10.6969 12.6439 10.5666 12.7144 10.3929C12.7388 10.3326 12.7642 10.2108 12.6604 10.0708C12.5668 9.94459 12.4347 9.88799 12.2975 9.916C12.0935 9.95733 11.9118 10.1771 11.7814 10.529C11.3762 10.5984 11.1168 10.7438 10.9526 10.8873C10.8944 10.2991 10.666 9.94966 10.6549 9.93304C10.6109 9.86699 10.5217 9.84917 10.4559 9.89319C10.3899 9.9372 10.3721 10.0262 10.416 10.0922C10.4186 10.0961 10.679 10.4944 10.679 11.1609C10.679 11.8161 10.1566 12.3092 9.81778 12.3092C9.65661 12.3092 9.58603 12.1177 9.55506 11.9557C9.88679 11.7232 10.1795 11.4541 10.2441 11.1957C10.3316 10.8459 10.2215 10.5881 10.1487 10.4176C10.1453 10.4097 10.1417 10.4013 10.138 10.3926C10.1411 10.3954 10.1441 10.3983 10.147 10.4011C10.2029 10.4572 10.2938 10.4572 10.3499 10.4011C10.406 10.3451 10.406 10.2543 10.3499 10.1982C10.266 10.1142 10.1031 9.98229 9.95493 10.0443C9.89236 10.0702 9.81778 10.1355 9.81778 10.2997C9.81778 10.3738 9.84876 10.4463 9.88464 10.5304C9.94928 10.6816 10.0297 10.8699 9.96558 11.1261C9.92767 11.2777 9.74146 11.4617 9.49574 11.6443C9.46938 11.6128 9.43135 11.5917 9.38713 11.5917C9.30793 11.5918 9.24354 11.6558 9.24354 11.735C9.24354 11.7609 9.24469 11.7885 9.24634 11.8168C8.93915 12.0158 8.59154 12.1999 8.32283 12.3221C8.25073 12.3549 8.21884 12.44 8.25164 12.5122C8.27568 12.565 8.32783 12.5963 8.38236 12.5963C8.40224 12.5963 8.42245 12.5922 8.44168 12.5834C8.52236 12.5467 8.90545 12.3682 9.29898 12.1244C9.37145 12.3704 9.52503 12.5963 9.81774 12.5963C10.1621 12.5963 10.5527 12.3148 10.7782 11.8944C10.8054 11.9425 10.8367 11.9885 10.874 12.0314C11.2353 12.4481 11.941 12.4528 11.9709 12.4528C12.0482 12.4528 12.1115 12.3917 12.1143 12.3144C12.1171 12.2372 12.0582 12.1716 11.9811 12.1662C11.98 12.166 11.8656 12.1534 11.802 12.0791C11.7636 12.0343 11.7482 11.9726 11.755 11.8906C11.7697 11.7137 12.3403 11.5815 12.8432 11.5737C12.9031 11.5727 12.9562 11.5347 12.9763 11.4782L13.1198 11.0746C13.1354 11.0307 13.1287 10.9817 13.1018 10.9438C13.0752 10.9056 13.0313 10.8829 12.9847 10.8829ZM12.3547 10.1974C12.3574 10.1969 12.361 10.196 12.3656 10.196C12.3793 10.196 12.401 10.2028 12.4299 10.2418C12.4353 10.2491 12.4528 10.274 12.4484 10.2849C12.4319 10.3256 12.3328 10.3927 12.1263 10.4536C12.2171 10.2764 12.3059 10.2073 12.3547 10.1974ZM11.4878 12.0844C11.342 12.037 11.1933 11.9618 11.0905 11.8428C10.9774 11.7121 10.9357 11.5467 10.963 11.3374C10.9672 11.3263 10.9766 11.3047 10.993 11.2765C11.1951 11.258 11.7351 11.3376 11.7725 11.4923C11.606 11.5773 11.4833 11.6968 11.4691 11.8668C11.462 11.9521 11.4707 12.0243 11.4878 12.0844Z"
    fill="#F5F5F5"/>
  <path
    d="M14.5474 8.81896L14.4038 8.38831C14.3807 8.31909 14.3088 8.27772 14.2376 8.29339C14.166 8.3087 14.1175 8.37523 14.1248 8.448C14.2238 9.43849 14.4112 11.3701 14.4112 11.5916C14.4112 11.7905 14.0574 12.1822 13.4857 12.468C13.4148 12.5035 13.386 12.5897 13.4216 12.6606C13.4467 12.7109 13.4974 12.7399 13.5501 12.7399C13.5716 12.7399 13.5936 12.735 13.6142 12.7248C14.1363 12.4637 14.6983 11.9977 14.6983 11.5916C14.6983 11.3796 14.5516 9.85359 14.4676 8.99642C14.5356 8.96738 14.5712 8.89049 14.5474 8.81896Z"
    fill="#F5F5F5"/>
  <path
    d="M15.745 10.1142C15.7727 10.1418 15.8094 10.1563 15.8466 10.1563C15.8709 10.1563 15.8953 10.1501 15.9175 10.1375C15.9737 10.1055 16.0015 10.0399 15.9857 9.97726C15.96 9.87636 15.9514 9.75017 15.965 9.69861C16.0369 9.70084 16.1036 9.64969 16.1142 9.57552C16.1254 9.49702 16.0709 9.42426 15.9924 9.41308C15.8975 9.40021 15.8142 9.42809 15.756 9.49282C15.7183 9.53489 15.6958 9.58885 15.6837 9.64688L15.5174 9.48065C15.4614 9.42459 15.3705 9.42459 15.3145 9.48065C15.2584 9.53671 15.2584 9.62754 15.3145 9.6836L15.745 10.1142Z"
    fill="#F5F5F5"/>
  <path
    d="M16.068 10.2639L15.5297 10.6497C15.4653 10.6958 15.4504 10.7855 15.4966 10.85C15.5246 10.8891 15.5687 10.9098 15.6135 10.9098C15.6424 10.9098 15.6716 10.9011 15.697 10.8829L16.2352 10.4972C16.2996 10.4511 16.3145 10.3613 16.2683 10.2969C16.222 10.2323 16.1322 10.2173 16.068 10.2639Z"
    fill="#F5F5F5"/>
  <path
    d="M16.0203 10.8037C15.9751 10.8619 15.9816 10.9437 16.0328 10.9941C16.039 11.0045 16.067 11.0594 16.0619 11.2007C16.0591 11.28 16.1211 11.3465 16.2003 11.3493C16.202 11.3494 16.2038 11.3494 16.2055 11.3494C16.2825 11.3494 16.3461 11.2884 16.3489 11.211C16.3593 10.9181 16.2634 10.811 16.2217 10.7786C16.1593 10.7297 16.0689 10.7412 16.0203 10.8037Z"
    fill="#F5F5F5"/>
  <path
    d="M17.273 11.8608C17.3522 11.8608 17.4165 11.7966 17.4165 11.7172C17.4165 11.5054 17.4056 11.269 17.3878 11.023C17.5302 11.2563 17.6484 11.4713 17.7242 11.6481C17.7475 11.7027 17.8005 11.7352 17.8562 11.7352C17.875 11.7352 17.8942 11.7315 17.9127 11.7235C17.9855 11.6923 18.0193 11.6079 17.988 11.5351C17.8566 11.2284 17.611 10.8222 17.3312 10.4028C17.2749 9.87599 17.2014 9.35974 17.1442 8.98944C17.1746 8.99254 17.2062 8.98511 17.2339 8.96713C17.2792 8.93809 17.3004 8.88764 17.2974 8.83744C17.3011 8.85155 17.305 8.86569 17.3133 8.87869C17.3143 8.88009 17.4065 9.03243 17.3656 9.23014C17.3495 9.30765 17.3994 9.38363 17.4771 9.39972C17.4869 9.40165 17.4967 9.40269 17.5063 9.40269C17.5729 9.40269 17.6326 9.35599 17.6467 9.28818C17.7115 8.97459 17.5618 8.73464 17.5555 8.72454C17.5129 8.65779 17.4241 8.6382 17.3572 8.68052C17.3117 8.70952 17.2902 8.76001 17.2931 8.81034C17.2894 8.79615 17.2853 8.78187 17.277 8.76888L17.0347 8.3921C16.9977 8.3346 16.9253 8.31134 16.8617 8.33604C16.798 8.361 16.7607 8.42729 16.7726 8.49457C16.7746 8.50587 16.8843 9.13576 16.9815 9.89496C16.8714 9.73957 16.7614 9.58765 16.6547 9.44262C16.6374 9.22543 16.62 9.02467 16.6049 8.85864C16.6128 8.85629 16.6206 8.8532 16.6283 8.8494C16.6992 8.81393 16.728 8.72771 16.6924 8.6568L16.5489 8.36975C16.5179 8.30779 16.4472 8.27693 16.3806 8.29599C16.3141 8.31534 16.2708 8.37923 16.2777 8.4482C16.2948 8.61951 16.3126 8.80914 16.3301 9.00834C16.2393 8.88867 16.1553 8.77911 16.0834 8.68634C16.0975 8.67429 16.1094 8.65932 16.1182 8.64162C16.1537 8.57072 16.125 8.4845 16.0541 8.44903L15.767 8.30548C15.7068 8.27549 15.6337 8.29121 15.5911 8.34363C15.5488 8.39606 15.5486 8.47089 15.5907 8.52361C15.5985 8.53326 15.9519 8.97628 16.3747 9.54809C16.448 10.4965 16.4969 11.483 16.4279 11.6899C16.4153 11.7277 16.3933 11.7723 16.3726 11.7739C16.2858 11.7859 16.0788 11.5919 15.9748 11.384C15.9148 11.2643 15.8286 11.2519 15.7825 11.2539C15.6282 11.2635 15.568 11.4332 15.4586 11.7414C15.3802 11.9621 15.2828 12.2366 15.1734 12.3489C15.1141 12.2764 15.0375 12.0334 14.9949 11.7838C15.0149 11.8389 15.0666 11.8789 15.1287 11.8789C15.208 11.8789 15.2722 11.8147 15.2722 11.7353C15.2722 11.5212 15.1225 9.891 15.0389 8.99757C15.1088 8.96952 15.1455 8.89147 15.1213 8.81912L14.9778 8.38847C14.9547 8.31926 14.8839 8.27842 14.8119 8.29343C14.7405 8.30857 14.6918 8.37486 14.6987 8.4475C14.7963 9.47149 14.9792 11.4493 14.9848 11.7223C14.9845 11.7199 14.984 11.7175 14.9837 11.715C14.9725 11.6365 14.8993 11.5827 14.8212 11.5932C14.7428 11.6045 14.6883 11.6772 14.6995 11.7556C14.7414 12.049 14.8485 12.5535 15.0952 12.6356C15.1147 12.6422 15.1409 12.6481 15.1717 12.6481C15.2283 12.6481 15.3001 12.6281 15.3737 12.5545C15.53 12.3982 15.6358 12.1001 15.7292 11.8373C15.7502 11.7779 15.7752 11.7075 15.7988 11.6473C15.9304 11.8396 16.1602 12.079 16.393 12.0603C16.4748 12.0544 16.6237 12.0104 16.7002 11.7807C16.7766 11.5518 16.7464 10.7532 16.695 9.98868C16.8159 10.1582 16.9369 10.3318 17.0524 10.5032C17.0972 10.933 17.1292 11.3637 17.1292 11.7174C17.1294 11.7965 17.1937 11.8608 17.273 11.8608Z"
    fill="#F5F5F5"/>
  <path
    d="M18.3623 11.1058C18.2606 10.3483 18.1189 9.47075 18.0292 8.93219C18.0697 8.94217 18.1139 8.93401 18.1495 8.90666C18.2125 8.8586 18.2246 8.76843 18.1765 8.70552L17.9163 8.36459C17.8762 8.31216 17.8054 8.29368 17.7448 8.32016C17.6841 8.34665 17.6495 8.41116 17.6608 8.47634C17.6634 8.49102 17.9193 9.96456 18.0776 11.1439C18.1381 11.5946 18.0498 11.9973 17.8413 12.221C17.7073 12.3647 17.5297 12.4297 17.3148 12.4172C17.2359 12.413 17.1675 12.4724 17.1625 12.5515C17.1576 12.6306 17.2176 12.6987 17.2967 12.7037C17.321 12.7053 17.3449 12.706 17.3686 12.706C17.6392 12.706 17.8742 12.6067 18.0513 12.4166C18.3218 12.1266 18.4352 11.6487 18.3623 11.1058Z"
    fill="#F5F5F5"/>
  <path
    d="M16.7832 12.0519C16.7304 12.1093 16.7345 12.1995 16.7903 12.2537C16.7981 12.2613 16.8074 12.2761 16.8074 12.2834C16.8075 12.2875 16.8017 12.2996 16.7857 12.3155C16.7297 12.3716 16.7297 12.4624 16.7857 12.5185C16.8138 12.5465 16.8505 12.5606 16.8872 12.5606C16.924 12.5606 16.9607 12.5465 16.9888 12.5185C17.0798 12.4275 17.0965 12.3351 17.0944 12.2736C17.09 12.1411 16.9998 12.0556 16.9818 12.0398C16.9231 11.9888 16.8359 11.9949 16.7832 12.0519Z"
    fill="#F5F5F5"/>
  <path
    d="M16.2772 15.1999H15.2724V15.0563C15.2724 14.977 15.2082 14.9128 15.1289 14.9128C15.0496 14.9128 14.9853 14.977 14.9853 15.0563V15.1999H7.37766C7.66472 15.4869 8.23888 15.6305 8.66953 15.6305C8.97837 15.6305 12.8308 15.6305 14.9853 15.6305V15.9176C14.9853 15.9969 15.0496 16.0611 15.1289 16.0611H16.2772C16.5147 16.0611 16.7078 15.8679 16.7078 15.6305C16.7078 15.393 16.5147 15.1999 16.2772 15.1999ZM16.2772 15.774H15.2724V15.6305C15.9642 15.6305 16.4207 15.6305 16.4207 15.6305L16.3949 15.5532C16.4099 15.5758 16.4207 15.6013 16.4207 15.6305C16.4207 15.7097 16.3563 15.774 16.2772 15.774Z"
    fill="#F5F5F5"/>
</svg>
