<svg width="24" height="24" viewBox="0 0 24 24" fill="none" xmlns="http://www.w3.org/2000/svg">
  <path
    d="M7.61065 6.36798L7.77727 6.86796L8.08731 6.94548V6.47239C8.08731 6.42537 8.09735 6.37889 8.11678 6.33607C8.1362 6.29325 8.16456 6.25507 8.19993 6.2241L9.90746 4.72999L10.1092 3.73587C10.1241 3.66227 10.1637 3.59596 10.2214 3.54789C10.2791 3.49981 10.3515 3.47285 10.4266 3.47144L10.9007 3.46279C10.9225 3.46242 10.9436 3.45488 10.9607 3.44133C10.9778 3.42777 10.99 3.40896 10.9953 3.38781C11.0007 3.36665 10.9989 3.34431 10.9903 3.32426C10.9817 3.3042 10.9667 3.28754 10.9477 3.27684L8.99708 2.16992C7.45088 2.96379 6.27845 4.33333 5.73242 5.98343L7.33052 6.14401C7.39383 6.15035 7.45397 6.17487 7.50367 6.21461C7.55337 6.25435 7.59052 6.30761 7.61065 6.36798Z"
    fill="#848B96"/>
  <path
    d="M9.04725 11.9631C9.03152 11.9807 9.02006 12.0017 9.01377 12.0244C9.00747 12.0471 9.00651 12.071 9.01095 12.0941L9.37623 13.9751L9.90093 12.6228C9.92736 12.5544 9.97583 12.4969 10.0387 12.4592L10.9982 11.8835V11.522C10.9981 11.3514 11.0517 11.1852 11.1514 11.0469C11.2511 10.9085 11.3919 10.8052 11.5538 10.7515L11.7797 10.676L12.3015 9.80658C12.3248 9.76774 12.3384 9.72389 12.3412 9.67871C12.3439 9.63352 12.3358 9.58833 12.3175 9.54693C12.2992 9.50553 12.2712 9.46913 12.2359 9.44081C12.2006 9.41249 12.159 9.39307 12.1146 9.38418L11.4876 9.25878C11.4337 9.24805 11.3834 9.22405 11.3412 9.18896C11.299 9.15388 11.2662 9.1088 11.2458 9.05784L10.9191 8.24139C10.9079 8.21309 10.8884 8.18883 10.8632 8.17176C10.838 8.15469 10.8083 8.14561 10.7778 8.14569H9.3128C9.2392 8.14567 9.16772 8.12105 9.10972 8.07574C9.05172 8.03042 9.01053 7.96702 8.9927 7.89561L8.94066 7.68708C8.93492 7.66293 8.92321 7.6406 8.9066 7.62215C8.88999 7.6037 8.86901 7.58972 8.84559 7.58148C8.82237 7.57233 8.7972 7.56927 8.77246 7.57259C8.74773 7.57592 8.72425 7.58553 8.70428 7.60049L7.85156 8.20957V8.57198L8.43566 9.99946L8.83592 10.0995C8.99591 10.1395 9.14282 10.2202 9.26238 10.3338C9.38195 10.4474 9.4701 10.59 9.51826 10.7477C9.56642 10.9054 9.57296 11.0729 9.53724 11.2339C9.50152 11.3949 9.42476 11.544 9.31442 11.6665L9.04725 11.9631Z"
    fill="#848B96"/>
  <path
    d="M16.3625 6.1093L14.5713 5.43752C14.5272 5.42094 14.4871 5.39512 14.4538 5.36178L14.0321 4.94011C13.935 4.85046 13.8094 4.79789 13.6774 4.79164C13.5454 4.7854 13.4154 4.82587 13.3103 4.90595L12.6509 5.4332C12.6298 5.45018 12.6135 5.47249 12.6038 5.49783C12.5941 5.52318 12.5914 5.55064 12.5958 5.57741L12.7497 6.50068L13.7969 7.1987C13.8145 7.21046 13.8344 7.21841 13.8552 7.22202C13.8761 7.22563 13.8975 7.22482 13.9181 7.21965L14.2695 7.13184C14.435 7.09019 14.6094 7.10185 14.7679 7.16515C14.9264 7.22846 15.0609 7.34019 15.1522 7.48441L16.0853 8.95291C16.1188 9.00582 16.1367 9.06718 16.1367 9.12982V11.1461C16.1367 11.232 16.1669 11.3151 16.2218 11.3811L17.0088 12.3255C17.8079 11.3964 18.3316 10.2625 18.521 9.05175C18.7103 7.84097 18.5577 6.60137 18.0803 5.47266L16.6085 6.10346C16.5304 6.13726 16.4422 6.13935 16.3625 6.1093Z"
    fill="#848B96"/>
  <path
    d="M15.7156 11.8034C15.5619 11.6188 15.4777 11.3863 15.4776 11.1461V9.22589L14.5959 7.83817C14.5786 7.81129 14.5534 7.79048 14.5237 7.77864C14.494 7.76681 14.4614 7.76455 14.4304 7.77217L14.0793 7.86002C13.9695 7.88753 13.8551 7.89177 13.7436 7.87244C13.6321 7.85312 13.5258 7.81067 13.4317 7.74782L12.2655 6.9705C12.228 6.94548 12.196 6.91302 12.1715 6.87514C12.147 6.83726 12.1305 6.79476 12.1231 6.75026L11.9457 5.68581C11.922 5.54325 11.9368 5.39696 11.9884 5.26198C12.04 5.12701 12.1266 5.00822 12.2394 4.91784L12.8988 4.39063C13.1326 4.2137 13.4214 4.12499 13.7143 4.14014C14.0072 4.15528 14.2853 4.27331 14.4996 4.47343L14.8707 4.84454L16.4712 5.44475L17.7923 4.8785C17.0408 3.49158 15.8153 2.42145 14.3397 1.86371C12.8642 1.30597 11.2372 1.2979 9.75616 1.84095L11.2744 2.70258C11.4192 2.78478 11.5329 2.91226 11.5981 3.0654C11.6633 3.21855 11.6765 3.38888 11.6354 3.5502C11.5944 3.71153 11.5015 3.8549 11.371 3.95828C11.2406 4.06166 11.0798 4.11931 10.9133 4.12237L10.704 4.12607L10.5327 4.96991C10.5184 5.04079 10.4811 5.10499 10.4267 5.15263L8.74805 6.62153V6.91793C8.92932 6.90428 9.1098 6.95317 9.2594 7.05645C9.409 7.15974 9.51867 7.31118 9.57014 7.48553H10.7786C10.9411 7.48502 11.0999 7.53346 11.2344 7.62455C11.3689 7.71563 11.4729 7.84514 11.5327 7.99618L11.7929 8.64667L12.2448 8.73709C12.3929 8.76672 12.5317 8.83152 12.6496 8.92603C12.7674 9.02053 12.8609 9.14198 12.922 9.28014C12.9831 9.4183 13.0101 9.56912 13.0007 9.71989C12.9914 9.87067 12.9459 10.017 12.8682 10.1465L12.2837 11.1204C12.2432 11.1879 12.1799 11.2387 12.1052 11.2636L11.7633 11.3777C11.7329 11.3877 11.7065 11.4071 11.6878 11.433C11.669 11.4589 11.659 11.4901 11.659 11.5221V12.0703C11.659 12.1273 11.6443 12.1833 11.6162 12.2329C11.5881 12.2824 11.5477 12.3239 11.4989 12.3532L10.4759 12.9668L9.95446 14.3108C11.087 14.6835 12.2997 14.7405 13.4621 14.4756C14.6246 14.2107 15.6928 13.6339 16.552 12.8073L15.7156 11.8034Z"
    fill="#848B96"/>
  <path
    d="M8.65252 13.7179L8.36153 12.2191C8.33787 12.0957 8.34303 11.9685 8.37659 11.8474C8.41016 11.7263 8.47122 11.6146 8.55504 11.5209L8.82204 11.2239C8.85624 11.186 8.88003 11.1399 8.89111 11.09C8.90219 11.0402 8.90018 10.9883 8.88527 10.9395C8.87037 10.8906 8.84307 10.8465 8.80604 10.8113C8.76901 10.7762 8.72351 10.7512 8.67397 10.7388L8.11162 10.5982C8.06135 10.5856 8.01476 10.5614 7.9756 10.5274C7.93643 10.4935 7.90581 10.4508 7.88619 10.4029L7.21441 8.76088C7.19827 8.72123 7.18995 8.67882 7.18992 8.63601V8.03884C7.18991 7.98631 7.20245 7.93454 7.2265 7.88784C7.25055 7.84115 7.28542 7.80088 7.32819 7.77039L7.67545 7.5222L7.43973 7.46329C7.3859 7.4498 7.33634 7.42296 7.29562 7.38525C7.2549 7.34754 7.22434 7.30018 7.20675 7.24754L7.0504 6.77824L5.55401 6.62793C5.25309 7.98553 5.391 9.40362 5.94786 10.6778C6.50472 11.952 7.45178 13.0165 8.65252 13.7178V13.7179Z"
    fill="#848B96"/>
  <path
    d="M5.73008 13.5856V11.6689C5.72993 11.4674 5.68374 11.2687 5.59504 11.0878C5.50634 10.9069 5.37748 10.7487 5.21829 10.6252C5.0591 10.5017 4.8738 10.4162 4.67654 10.3753C4.47927 10.3343 4.27526 10.339 4.08008 10.3889V13.507C4.33655 13.3698 4.6254 13.3047 4.91594 13.3185C5.20647 13.3323 5.48782 13.4247 5.73008 13.5856V13.5856Z"
    fill="#848B96"/>
  <path
    d="M7.95646 16.4224L7.56148 16.3227L5.52868 14.2689C5.43821 14.1765 5.33038 14.1029 5.21137 14.0524C5.09237 14.0018 4.96455 13.9753 4.83525 13.9743C4.70596 13.9733 4.57774 13.9979 4.45798 14.0466C4.33822 14.0954 4.22927 14.1673 4.1374 14.2583C4.04553 14.3493 3.97256 14.4575 3.92267 14.5768C3.87278 14.6961 3.84696 14.8241 3.8467 14.9533C3.84644 15.0826 3.87174 15.2107 3.92115 15.3302C3.97056 15.4497 4.0431 15.5582 4.1346 15.6496L6.54396 18.0807C6.60558 18.1429 6.63997 18.227 6.63958 18.3145C6.63918 18.4021 6.60403 18.4859 6.54185 18.5475C6.47967 18.6091 6.39556 18.6435 6.30802 18.6431C6.22048 18.6427 6.13668 18.6076 6.07506 18.5454L3.66606 16.1141C3.41054 15.8588 3.24753 15.5254 3.20286 15.167C3.15819 14.8085 3.23441 14.4454 3.41945 14.1352V10.6804C3.41945 10.3303 3.28038 9.99452 3.03283 9.74697C2.78529 9.49942 2.44954 9.36035 2.09945 9.36035C1.92441 9.36035 1.75654 9.42989 1.63276 9.55366C1.50899 9.67744 1.43945 9.84531 1.43945 10.0204L1.43945 15.5846C1.43946 16.2859 1.68764 16.9646 2.14004 17.5005L5.39945 21.361V22.2304C5.39945 22.3179 5.43422 22.4018 5.49611 22.4637C5.55799 22.5256 5.64193 22.5604 5.72945 22.5604H9.68945C9.77697 22.5604 9.86091 22.5256 9.9228 22.4637C9.98468 22.4018 10.0195 22.3179 10.0195 22.2304V19.0707C10.0195 18.4626 9.81659 17.8719 9.44289 17.3921C9.0692 16.9124 8.54608 16.5711 7.95646 16.4224Z"
    fill="#848B96"/>
  <path
    d="M18.2695 13.5856C18.5118 13.4247 18.7931 13.3323 19.0837 13.3185C19.3742 13.3046 19.6631 13.3698 19.9195 13.507V10.3889C19.7243 10.339 19.5203 10.3343 19.3231 10.3753C19.1258 10.4162 18.9405 10.5017 18.7813 10.6252C18.6221 10.7487 18.4933 10.9069 18.4046 11.0878C18.3159 11.2687 18.2697 11.4675 18.2695 11.6689V13.5856Z"
    fill="#848B96"/>
  <path
    d="M21.9005 9.36035C21.5504 9.36035 21.2146 9.49942 20.9671 9.74697C20.7196 9.99452 20.5805 10.3303 20.5805 10.6804V14.1352C20.7656 14.4454 20.8419 14.8085 20.7972 15.167C20.7526 15.5255 20.5896 15.8589 20.3341 16.1142L17.9251 18.5455C17.8635 18.6077 17.7797 18.6428 17.6921 18.6432C17.6046 18.6436 17.5205 18.6092 17.4583 18.5476C17.3961 18.486 17.361 18.4022 17.3606 18.3147C17.3602 18.2271 17.3946 18.143 17.4562 18.0808L19.8656 15.6497C19.9571 15.5584 20.0296 15.4498 20.079 15.3303C20.1284 15.2109 20.1537 15.0828 20.1535 14.9535C20.1532 14.8242 20.1274 14.6962 20.0775 14.5769C20.0276 14.4576 19.9546 14.3494 19.8628 14.2584C19.7709 14.1674 19.6619 14.0955 19.5422 14.0468C19.4224 13.998 19.2942 13.9734 19.1649 13.9744C19.0356 13.9754 18.9078 14.002 18.7888 14.0525C18.6698 14.1031 18.5619 14.1767 18.4715 14.269L16.4387 16.3228L16.0437 16.4225C15.4541 16.5712 14.9309 16.9125 14.5572 17.3922C14.1834 17.8719 13.9805 18.4626 13.9805 19.0707V22.2304C13.9805 22.3179 14.0152 22.4018 14.0771 22.4637C14.139 22.5256 14.2229 22.5604 14.3105 22.5604H18.2705C18.358 22.5604 18.4419 22.5256 18.5038 22.4637C18.5657 22.4018 18.6005 22.3179 18.6005 22.2304V21.361L21.8599 17.5005C22.3123 16.9646 22.5605 16.2859 22.5605 15.5846V10.0204C22.5605 9.84531 22.4909 9.67744 22.3672 9.55366C22.2434 9.42989 22.0755 9.36035 21.9005 9.36035Z"
    fill="#848B96"/>
</svg>
