<svg width="16" height="16" viewBox="0 0 16 16" fill="none" xmlns="http://www.w3.org/2000/svg">
  <path
    d="M6.66667 10.3333V9.80667L6.84667 9.62C7.60667 10.2733 8.59333 10.6667 9.66667 10.6667C12.06 10.6667 14 8.72667 14 6.33333C14 3.94 12.06 2 9.66667 2C7.27333 2 5.33333 3.94 5.33333 6.33333C5.33333 7.40667 5.72667 8.39333 6.38 9.15333L6.19333 9.33333H5.66667L2.34 12.6667L3.33333 13.66L6.66667 10.3333ZM6.66667 6.33333C6.66667 4.67333 8.00667 3.33333 9.66667 3.33333C11.3267 3.33333 12.6667 4.67333 12.6667 6.33333C12.6667 7.99333 11.3267 9.33333 9.66667 9.33333C8.00667 9.33333 6.66667 7.99333 6.66667 6.33333Z"
    fill="white" fill-opacity="0.6"/>
</svg>
