<svg width="24" height="24" viewBox="0 0 24 24" fill="none" xmlns="http://www.w3.org/2000/svg">
<path d="M8.14063 10.9605C8.05063 11.2905 8.00063 11.6405 8.00063 12.0005C8.00063 13.1005 8.45063 14.1005 9.17063 14.8305L7.75063 16.2505C6.67063 15.1605 6.00063 13.6605 6.00063 12.0005C6.00063 11.0705 6.21063 10.2005 6.58063 9.41055L5.11063 7.94055C4.40063 9.13055 4.00063 10.5205 4.00063 12.0005C4.00063 14.2105 4.90062 16.2105 6.35063 17.6505L4.93062 19.0705C3.12063 17.2605 2.00063 14.7605 2.00063 12.0005C2.00063 9.96055 2.61063 8.07055 3.66062 6.49055L1.39062 4.22055L2.80062 2.81055L21.1806 21.1905L19.7706 22.6005L8.14063 10.9605ZM17.4206 14.5905C17.7906 13.8005 18.0006 12.9305 18.0006 12.0005C18.0006 10.3405 17.3306 8.84055 16.2406 7.76055L14.8206 9.18055C15.5506 9.90055 16.0006 10.9005 16.0006 12.0005C16.0006 12.3605 15.9506 12.7105 15.8606 13.0405L17.4206 14.5905ZM20.0006 12.0005C20.0006 13.4805 19.6006 14.8705 18.8906 16.0605L20.3406 17.5105C21.3906 15.9305 22.0006 14.0405 22.0006 12.0005C22.0006 9.24055 20.8806 6.74055 19.0706 4.93055L17.6506 6.35055C19.1006 7.79055 20.0006 9.79055 20.0006 12.0005Z" fill="#848B96"/>
</svg>
