<svg width="24" height="24" viewBox="0 0 24 24" fill="none" xmlns="http://www.w3.org/2000/svg">
  <path
    d="M12 15.2632C13.8971 15.2632 15.4171 13.7821 15.4171 11.9474L15.4286 5.31579C15.4286 3.48105 13.8971 2 12 2C10.1029 2 8.57143 3.48105 8.57143 5.31579V11.9474C8.57143 13.7821 10.1029 15.2632 12 15.2632ZM20 11.9474H18.0571C18.0571 15.2632 15.1543 17.5842 12 17.5842C8.84571 17.5842 5.94286 15.2632 5.94286 11.9474H4C4 15.7163 7.10857 18.8332 10.8571 19.3747V23H13.1429V19.3747C16.8914 18.8332 20 15.7163 20 11.9474Z"
    fill="#848B96"/>
</svg>
