<svg width="24" height="24" viewBox="0 0 24 24" fill="none" xmlns="http://www.w3.org/2000/svg">
<path d="M15.0007 9H9.0007C8.4507 9 8.0007 9.45 8.0007 10V22C8.0007 22.55 8.4507 23 9.0007 23H15.0007C15.5507 23 16.0007 22.55 16.0007 22V10C16.0007 9.45 15.5507 9 15.0007 9ZM12.0007 15C10.9007 15 10.0007 14.1 10.0007 13C10.0007 11.9 10.9007 11 12.0007 11C13.1007 11 14.0007 11.9 14.0007 13C14.0007 14.1 13.1007 15 12.0007 15ZM7.0507 6.05L8.4607 7.46C9.3707 6.56 10.6207 6 12.0007 6C13.3807 6 14.6307 6.56 15.5407 7.46L16.9507 6.05C15.6807 4.78 13.9307 4 12.0007 4C10.0707 4 8.3207 4.78 7.0507 6.05ZM12.0007 0C8.9607 0 6.2107 1.23 4.2207 3.22L5.6307 4.63C7.2607 3.01 9.5107 2 12.0007 2C14.4907 2 16.7407 3.01 18.3607 4.64L19.7707 3.23C17.7907 1.23 15.0407 0 12.0007 0Z" fill="#848B96"/>
</svg>
