<svg width="24" height="24" viewBox="0 0 24 24" fill="none" xmlns="http://www.w3.org/2000/svg">
<path opacity="0.72" d="M11.6642 8.57227C9.77296 8.57227 8.23438 10.1108 8.23438 12.002C8.23438 13.8932 9.77296 15.4318 11.6642 15.4318C13.5553 15.4318 15.0939 13.8932 15.0939 12.002C15.0939 10.1108 13.5553 8.57227 11.6642 8.57227ZM13.7005 11.3561L11.2434 13.8132C11.1403 13.9163 11.005 13.9679 10.8699 13.9679C10.7347 13.9679 10.5996 13.9164 10.4964 13.8132L9.55748 12.8742C9.3512 12.6681 9.3512 12.3336 9.55748 12.1274C9.76362 11.9211 10.098 11.9211 10.3043 12.1274L10.8699 12.6929L12.9537 10.6092C13.1598 10.403 13.4942 10.403 13.7005 10.6092C13.9068 10.8154 13.9068 11.1498 13.7005 11.3561Z" fill="#848B96"/>
<path d="M19.3109 7.88412L19.3104 7.87012C19.3026 7.69721 19.2973 7.51428 19.2942 7.31075C19.2795 6.31822 18.4905 5.49722 17.4978 5.44174C15.4282 5.32624 13.8271 4.65137 12.4591 3.31797L12.4474 3.30684C12.0012 2.89772 11.3281 2.89772 10.8818 3.30684L10.8701 3.31797C9.5021 4.65137 7.90103 5.32624 5.83137 5.44187C4.83884 5.49722 4.04971 6.31822 4.03501 7.31088C4.03199 7.51304 4.02664 7.69597 4.01881 7.87012L4.01798 7.90267C3.97775 10.0131 3.92775 12.6397 4.80643 15.0237C5.28958 16.3347 6.02131 17.4743 6.98115 18.4111C8.07435 19.4779 9.50622 20.3249 11.2369 20.9283C11.2932 20.948 11.3517 20.9639 11.4113 20.9758C11.4954 20.9926 11.58 21.001 11.6646 21.001C11.7492 21.001 11.8339 20.9926 11.9178 20.9758C11.9774 20.9639 12.0364 20.9478 12.0929 20.9281C13.8216 20.3235 15.252 19.4761 16.3442 18.4094C17.3036 17.4724 18.0354 16.3325 18.5189 15.0212C19.4009 12.6301 19.351 9.99855 19.3109 7.88412ZM11.6643 16.4869C9.19062 16.4869 7.17823 14.4745 7.17823 12.0008C7.17823 9.52708 9.19062 7.51469 11.6643 7.51469C14.1379 7.51469 16.1504 9.52708 16.1504 12.0008C16.1504 14.4745 14.1379 16.4869 11.6643 16.4869Z" fill="#848B96"/>
</svg>
