<svg width="24" height="24" viewBox="0 0 24 24" fill="none" xmlns="http://www.w3.org/2000/svg">
  <path opacity="0.4"
        d="M12.4979 16.2061H10.1325C9.94936 16.2061 9.80078 16.3547 9.80078 16.5377C9.80078 16.721 9.94936 16.8695 10.1325 16.8695H12.4979C12.681 16.8695 12.8297 16.721 12.8297 16.5377C12.8297 16.3547 12.681 16.2061 12.4979 16.2061Z"
        fill="#848B96"/>
  <path
    d="M10.707 18.1398C10.752 18.4375 11.0063 18.6668 11.3169 18.6668C11.6271 18.6668 11.8821 18.4377 11.9269 18.1398C12.3329 18.1158 12.6556 17.7822 12.6556 17.3701H9.97656C9.97656 17.7824 10.3002 18.1163 10.707 18.1398Z"
    fill="#848B96"/>
  <path opacity="0.4"
        d="M11.3153 7.24674C11.56 7.24674 11.7578 7.04867 11.7578 6.8044V5.77535C11.7578 5.531 11.56 5.33301 11.3153 5.33301C11.0708 5.33301 10.873 5.531 10.873 5.77535V6.8044C10.8731 7.04867 11.0708 7.24674 11.3153 7.24674Z"
        fill="#848B96"/>
  <path opacity="0.4"
        d="M8.41351 7.89138C8.50038 8.01065 8.63518 8.07395 8.7722 8.07395C8.86201 8.07395 8.95309 8.04649 9.03167 7.98946C9.22915 7.84601 9.27322 7.56942 9.12978 7.37181L8.52501 6.53902C8.38119 6.34157 8.10513 6.29707 7.90698 6.44095C7.70955 6.58431 7.66548 6.86098 7.80893 7.0586L8.41351 7.89138Z"
        fill="#848B96"/>
  <path opacity="0.4"
        d="M7.33572 9.37533L6.35678 9.05696C6.12223 8.98138 5.87488 9.10857 5.79921 9.34099C5.72352 9.57313 5.85063 9.82281 6.08297 9.89839L7.0619 10.2168C7.10762 10.2314 7.15336 10.2386 7.1987 10.2386C7.38529 10.2386 7.55849 10.1198 7.61947 9.93274C7.69513 9.70059 7.56805 9.45089 7.33572 9.37533Z"
        fill="#848B96"/>
  <path opacity="0.4"
        d="M16.548 12.3688L15.5694 12.0509C15.3368 11.9759 15.0876 12.1027 15.0121 12.3348C14.9364 12.5672 15.0638 12.8168 15.2962 12.8924L16.2751 13.2102C16.3205 13.225 16.3662 13.232 16.4116 13.232C16.5981 13.232 16.7713 13.113 16.8323 12.9262C16.9078 12.6937 16.7805 12.4444 16.548 12.3688Z"
        fill="#848B96"/>
  <path opacity="0.4"
        d="M7.06257 12.0509L6.08328 12.3683C5.85094 12.4437 5.72349 12.6931 5.79918 12.9256C5.85961 13.1126 6.03314 13.2316 6.21973 13.2316C6.26477 13.2316 6.31103 13.2244 6.3564 13.2097L7.33549 12.8923C7.56802 12.8169 7.69545 12.5674 7.61981 12.3351C7.54469 12.1028 7.29707 11.9758 7.06257 12.0509Z"
        fill="#848B96"/>
  <path opacity="0.4"
        d="M15.4328 10.238C15.4782 10.238 15.5239 10.2308 15.5694 10.2161L16.5481 9.8982C16.7805 9.82262 16.9078 9.57311 16.8323 9.3408C16.7566 9.10857 16.5062 8.98165 16.2751 9.05677L15.2962 9.37466C15.0638 9.45021 14.9364 9.69973 15.012 9.93206C15.0729 10.119 15.2463 10.238 15.4328 10.238Z"
        fill="#848B96"/>
  <path opacity="0.4"
        d="M14.1071 6.53932L13.5023 7.3721C13.3588 7.56971 13.4029 7.84633 13.6004 7.98975C13.679 8.04678 13.7701 8.07424 13.8598 8.07424C13.9969 8.07424 14.1316 8.01097 14.2183 7.89167L14.8231 7.05886C14.9665 6.86125 14.9225 6.58457 14.725 6.44121C14.5264 6.29699 14.2509 6.34144 14.1071 6.53932Z"
        fill="#848B96"/>
  <path
    d="M14.5117 11.1495C14.5117 9.38472 13.0812 7.9541 11.3166 7.9541C9.55166 7.9541 8.12109 9.38472 8.12109 11.1495C8.12109 11.894 8.37714 12.5775 8.80488 13.1202C9.17972 13.5958 9.53471 14.115 9.84236 14.6375V15.6989H12.7727V14.6656C13.0775 14.1575 13.4716 13.5724 13.8276 13.1207C14.2557 12.5779 14.5117 11.8944 14.5117 11.1495Z"
    fill="#848B96"/>
</svg>
