<svg width="24" height="24" viewBox="0 0 24 24" fill="none" xmlns="http://www.w3.org/2000/svg">
<path d="M11.9993 6.33873C13.2396 6.33873 14.2455 5.33322 14.2455 4.09271C14.2455 3.5738 14.0654 3.09991 13.7695 2.72036H13.0429V2.37938H13.4419C13.3025 2.26198 13.1504 2.15859 12.9852 2.0776C12.8144 1.70301 12.4381 1.44043 11.9999 1.44043C11.5622 1.44043 11.1866 1.70258 11.0155 2.07673C10.8495 2.15794 10.6972 2.26155 10.5572 2.37938H11.0132V2.72036H10.2297C9.93377 3.09991 9.75391 3.5738 9.75391 4.09271C9.75369 5.33322 10.759 6.33873 11.9993 6.33873ZM11.9997 1.91432C12.3362 1.91432 12.61 2.1881 12.61 2.52456C12.61 2.86102 12.3362 3.13459 11.9997 3.13459C11.6633 3.13459 11.3895 2.86081 11.3895 2.52456C11.3897 2.18788 11.6633 1.91432 11.9997 1.91432Z" fill="#848B96"/>
<path d="M11.4554 6.46289C11.4534 6.46354 11.4513 6.46418 11.4495 6.4644C11.2223 6.51868 11.0015 6.61087 10.7949 6.72848C10.9181 7.67153 11.4622 8.52561 11.9982 8.52561C12.535 8.52561 13.0799 7.6683 13.2019 6.72331C12.9981 6.61001 12.7794 6.52428 12.5576 6.46957L11.998 7.03285L11.4554 6.46289Z" fill="#848B96"/>
<path d="M15.7884 14.4209V13.8264C16.0792 13.7068 16.2845 13.4218 16.2845 13.0879C16.2845 8.78416 14.0703 7.22162 13.5288 6.92285C13.3664 7.87063 12.8322 8.75831 12.1399 8.87119C12.0347 9.38471 12.217 9.59193 12.4302 9.82414C12.8195 10.2481 13.0411 10.6504 12.3658 11.7621C12.4136 11.8334 12.4416 11.9192 12.4416 12.0111C12.4416 12.2597 12.2402 12.4611 11.9919 12.4611C11.7433 12.4611 11.5419 12.2597 11.5419 12.0111C11.5419 11.763 11.7433 11.5616 11.9919 11.5616C12.0164 11.5616 12.0401 11.565 12.0636 11.5687C12.6521 10.6039 12.4358 10.3622 12.1651 10.0673C11.9367 9.81854 11.6589 9.51288 11.7747 8.85568C11.1212 8.69843 10.6185 7.85146 10.4575 6.94375C10.4375 6.95322 10.4175 6.96184 10.3985 6.97412C10.2887 7.04477 7.70898 8.75681 7.70898 12.9764C7.70898 13.4177 8.06656 13.7749 8.50749 13.7749C8.94864 13.7749 9.30599 13.4177 9.30599 12.9764C9.30599 12.0176 9.46626 10.9089 9.69286 10.2692V12.2317L8.87583 16.8478H9.80789L9.80853 21.5299C9.80853 22.0992 10.2699 22.5604 10.8388 22.5602C11.4081 22.5602 11.8691 22.0985 11.8691 21.5299L11.8689 16.8478H12.0156L12.0149 21.5299C12.0149 22.0992 12.4763 22.5604 13.0452 22.5604C13.6147 22.5604 14.0759 22.099 14.0759 21.5299V16.8483H14.7452V18.9207H16.289V14.4209H15.7884ZM14.7456 14.4209V15.2373L14.2907 12.2707V10.2468C14.5942 10.9457 14.6875 11.9293 14.6875 13.0886C14.6875 13.4457 14.9235 13.7445 15.2469 13.8466V14.4213L14.7456 14.4209Z" fill="#848B96"/>
</svg>
