<svg width="25" height="24" viewBox="0 0 25 24" fill="none" xmlns="http://www.w3.org/2000/svg">
<path d="M12.6306 15.6665C13.103 15.6665 13.7674 14.4402 13.851 12.5H11.4102C11.4938 14.4402 12.1582 15.6665 12.6306 15.6665Z" fill="#848B96"/>
<path d="M8.96094 11.7079H10.577C10.6226 10.6297 10.8546 9.55742 11.2572 8.80078C10.0138 9.27888 9.11602 10.3845 8.96094 11.7079Z" fill="#848B96"/>
<path d="M14.0039 8.80078C14.4066 9.55745 14.6385 10.6297 14.6842 11.7079H16.3002C16.1451 10.3845 15.2474 9.27888 14.0039 8.80078Z" fill="#848B96"/>
<path d="M12.6306 8.54102C12.1582 8.54102 11.4938 9.76733 11.4102 11.7076H13.851C13.7674 9.76733 13.103 8.54102 12.6306 8.54102Z" fill="#848B96"/>
<path d="M8.96094 12.5C9.11602 13.8234 10.0138 14.929 11.2572 15.4071C10.8546 14.6505 10.6226 13.5782 10.577 12.5H8.96094Z" fill="#848B96"/>
<path d="M18.403 5.37494H17.5784V4.556C17.5784 3.56755 16.6072 2.79481 15.5607 3.04878L6.76416 5.38407C5.89908 5.43198 5.20898 6.11592 5.20898 6.9582V20.4161C5.20898 21.2893 5.94867 21.9994 6.85825 21.9994H18.403C19.3126 21.9994 20.0522 21.2893 20.0522 20.4161V6.9582C20.0522 6.08501 19.3126 5.37494 18.403 5.37494ZM15.7725 3.81376C16.2536 3.69587 16.7537 4.07003 16.7537 4.55596V5.3749H9.8925L15.7725 3.81376ZM14.6922 19.6245H10.1567C9.92883 19.6245 9.74441 19.4475 9.74441 19.2287C9.74441 19.0099 9.92883 18.8328 10.1567 18.8328H14.6922C14.9201 18.8328 15.1045 19.0099 15.1045 19.2287C15.1045 19.4475 14.9201 19.6245 14.6922 19.6245ZM16.3414 18.0416H8.50751C8.27961 18.0416 8.09519 17.8645 8.09519 17.6457C8.09519 17.427 8.27961 17.2499 8.50751 17.2499H16.3414C16.5693 17.2499 16.7538 17.427 16.7538 17.6457C16.7538 17.8645 16.5693 18.0416 16.3414 18.0416ZM12.6306 16.4579C10.1298 16.4579 8.09519 14.5047 8.09519 12.1039C8.09519 9.70306 10.1298 7.74987 12.6306 7.74987C15.1315 7.74987 17.166 9.70306 17.166 12.1039C17.166 14.5047 15.1315 16.4579 12.6306 16.4579Z" fill="#848B96"/>
<path d="M14.0039 15.4071C15.2474 14.929 16.1452 13.8234 16.3002 12.5H14.6842C14.6385 13.5782 14.4066 14.6505 14.0039 15.4071Z" fill="#848B96"/>
</svg>
