<svg width="24" height="24" viewBox="0 0 24 24" fill="none" xmlns="http://www.w3.org/2000/svg">
  <path
    d="M20.6934 11.4534V4.99729C20.6934 4.90051 20.6668 4.81195 20.6274 4.73044C20.6512 4.66448 20.6934 4.60628 20.6934 4.53322C20.6934 4.2571 20.5103 4.01417 20.2444 3.93803L11.5819 1.46303C11.4707 1.43159 11.3535 1.43159 11.2423 1.46303L2.57982 3.93803C2.31393 4.01417 2.13086 4.2571 2.13086 4.53322C2.13086 4.80935 2.31393 5.05227 2.57982 5.12842L5.84336 6.06084V6.79311C5.84336 7.49704 6.23433 8.14421 6.83918 8.4415C9.61266 9.80469 13.2104 9.80407 15.9851 8.44212C16.5899 8.14483 16.9809 7.49766 16.9809 6.79311V6.06084L19.4559 5.35373V11.4534C18.7372 11.7097 18.2184 12.3901 18.2184 13.1957V14.4332C18.2184 14.7752 18.4951 15.052 18.8372 15.052H21.3121C21.6542 15.052 21.9309 14.7752 21.9309 14.4332V13.1957C21.9309 12.3901 21.412 11.7098 20.6934 11.4534Z"
    fill="#848B96"/>
  <path
    d="M16.4684 9.63529C14.9131 10.3997 13.1432 10.8033 11.3504 10.8033C9.55763 10.8033 7.78718 10.399 6.23123 9.63467C6.07927 9.55997 5.95341 9.44926 5.81836 9.35059C5.95052 11.5777 7.14875 13.4675 8.84215 14.4356C8.84215 14.4356 9.71075 14.846 9.98213 14.9231L9.98321 14.9211C10.4227 15.0464 10.8752 15.1346 11.3504 15.1346C11.7855 15.1346 12.4052 15.0477 13.0244 14.8191C13.3096 14.7175 13.8567 14.4369 13.8567 14.4369C15.5511 13.4691 16.7501 11.5787 16.8825 9.35083C16.7471 9.44967 16.6208 9.56042 16.4684 9.63529Z"
    fill="#848B96"/>
  <path
    d="M11.3489 16.3715C10.8501 16.3715 10.3701 16.2945 9.90234 16.1816L11.3489 18.3515L12.7873 16.1837C12.322 16.2953 11.8448 16.3715 11.3489 16.3715Z"
    fill="#848B96"/>
  <path
    d="M14.9117 15.2627C14.9008 15.2701 14.8885 15.2752 14.8775 15.2825L14.3571 16.0631C14.3571 16.0919 11.9847 19.6402 11.9688 19.6642V22.56H20.0125C20.3545 22.56 20.6313 22.2832 20.6313 21.9412C20.6313 18.5623 18.1443 15.7886 14.9117 15.2627ZM16.3 20.085H15.0625C14.7205 20.085 14.4438 19.8082 14.4438 19.4662C14.4438 19.1242 14.7205 18.8475 15.0625 18.8475H16.3C16.642 18.8475 16.9188 19.1242 16.9188 19.4662C16.9188 19.8082 16.642 20.085 16.3 20.085Z"
    fill="#848B96"/>
  <path
    d="M7.81081 15.2741C7.80075 15.2673 7.78953 15.2627 7.77946 15.2559C4.55029 15.7854 2.06836 18.5631 2.06836 21.94C2.06836 22.282 2.34511 22.5587 2.68711 22.5587H10.7309V19.6629C7.92673 15.4495 8.49895 16.3097 7.81081 15.2741Z"
    fill="#848B96"/>
</svg>
