<svg width="24" height="24" viewBox="0 0 24 24" fill="none" xmlns="http://www.w3.org/2000/svg">
<path d="M19.9981 4H6.82812L14.8281 12H19.9981V14H16.8281L21.7581 18.93C21.9081 18.65 21.9981 18.34 21.9981 18V6C21.9981 4.9 21.0981 4 19.9981 4Z" fill="#848B96"/>
<path d="M1.03906 3.86922L2.23906 5.06922C2.08906 5.34922 1.99906 5.65922 1.99906 5.99922V17.9992C1.99906 19.0992 2.89906 19.9992 3.99906 19.9992H17.1691L20.1291 22.9592L21.5391 21.5492L2.44906 2.44922L1.03906 3.86922ZM7.99906 11.9992V13.9992H3.99906V11.9992H7.99906ZM13.9991 16.8292V17.9992H3.99906V15.9992H13.1691L13.9991 16.8292Z" fill="#848B96"/>
</svg>
