<svg width="24" height="24" viewBox="0 0 24 24" fill="none" xmlns="http://www.w3.org/2000/svg">
<path fill-rule="evenodd" clip-rule="evenodd" d="M7.66627 8.41211H3.2957C2.27251 8.41211 1.43945 9.24517 1.43945 10.2684V14.3109C1.43945 15.0218 1.84889 15.6608 2.46877 15.971V21.9421C2.46877 22.2839 2.74576 22.5609 3.08752 22.5609H7.87445C8.21622 22.5609 8.4932 22.2839 8.4932 21.9421V15.971C9.11308 15.6608 9.52252 15.0218 9.52252 14.3109V10.2684C9.52252 9.24517 8.68946 8.41211 7.66627 8.41211Z" fill="#848B96"/>
<path fill-rule="evenodd" clip-rule="evenodd" d="M13.773 15.1344H19.218C19.5598 15.1344 19.8368 14.8574 19.8368 14.5157V9.11191C19.8368 8.77031 19.5598 8.49316 19.218 8.49316H17.1143V9.36103C17.1143 9.70279 16.8373 9.97978 16.4955 9.97978C16.1538 9.97978 15.8768 9.70279 15.8768 9.36103V8.49316H13.773C13.4313 8.49316 13.1543 8.77031 13.1543 9.11191V14.5157C13.1543 14.8574 13.4313 15.1344 13.773 15.1344Z" fill="#848B96"/>
<path fill-rule="evenodd" clip-rule="evenodd" d="M9.02935 3.74302H8.43267V3.01873C8.43267 2.14861 7.72449 1.44043 6.85437 1.44043H4.26368C3.39373 1.44043 2.68555 2.14861 2.68555 3.01873V4.60169C2.68555 6.18869 3.97219 7.47534 5.55903 7.47534C7.00906 7.47534 8.22126 6.39704 8.40786 4.98052H9.02935C9.37111 4.98052 9.6481 4.70353 9.6481 4.36177C9.6481 4.02017 9.37111 3.74302 9.02935 3.74302Z" fill="#848B96"/>
<path fill-rule="evenodd" clip-rule="evenodd" d="M15.2587 15.9189H13.7732V16.7868C13.7732 17.1284 13.4962 17.4056 13.1545 17.4056C12.8129 17.4056 12.5357 17.1284 12.5357 16.7868V15.9189H11.0504C10.7086 15.9189 10.4316 16.1959 10.4316 16.5377V21.9414C10.4316 22.2832 10.7086 22.5602 11.0504 22.5602H15.2587C15.5995 22.5602 15.8774 22.2822 15.8774 21.9414V16.5377C15.8774 16.1969 15.5995 15.9189 15.2587 15.9189Z" fill="#848B96"/>
<path fill-rule="evenodd" clip-rule="evenodd" d="M21.9407 15.9189H20.4562V16.7868C20.4562 17.1284 20.179 17.4056 19.8374 17.4056C19.4956 17.4056 19.2187 17.1284 19.2187 16.7868V15.9189H17.734C17.3932 15.9189 17.1152 16.1969 17.1152 16.5377V21.9414C17.1152 22.2822 17.3932 22.5602 17.734 22.5602H21.9407C22.2824 22.5602 22.5594 22.2832 22.5594 21.9414V16.5377C22.5594 16.1959 22.2824 15.9189 21.9407 15.9189Z" fill="#848B96"/>
</svg>
