<svg width="24" height="24" viewBox="0 0 24 24" fill="none" xmlns="http://www.w3.org/2000/svg">
  <path d="M17.5684 14.7536L21.2808 16.6097V15.5184L17.5684 13.6621V14.7536Z" fill="#848B96"/>
  <path d="M17.5684 22.5606H21.2808V17.9928L17.5684 16.1367V22.5606Z" fill="#848B96"/>
  <path
    d="M21.2808 6.44603C21.2808 4.50337 20.2017 2.75709 18.4639 1.8882L17.5684 1.44043V12.2776L21.2808 14.1339V11.6592L19.5708 10.8042L21.2808 9.94915V6.44603Z"
    fill="#848B96"/>
  <path
    d="M13.2375 1.44043C11.5317 1.44043 10.1437 2.82837 10.1437 4.53418V8.94793H8.90625V4.53418C8.90625 2.82837 7.51831 1.44043 5.8125 1.44043C4.10669 1.44043 2.71875 2.82837 2.71875 4.53418C2.71875 6.23999 4.10669 7.62793 5.8125 7.62793C6.50843 7.62793 7.15131 7.39676 7.66875 7.00745V15.9349C7.66875 17.8406 8.11953 19.7489 8.97151 21.4534L9.525 22.5604L10.0785 21.4534C10.9305 19.7489 11.3812 17.8406 11.3812 15.9349V7.00745C11.8987 7.39676 12.5416 7.62793 13.2375 7.62793C14.9433 7.62793 16.3312 6.23999 16.3312 4.53418C16.3312 2.82837 14.9433 1.44043 13.2375 1.44043ZM5.8125 6.39043C4.78892 6.39043 3.95625 5.55776 3.95625 4.53418C3.95625 3.5106 4.78892 2.67793 5.8125 2.67793C6.83608 2.67793 7.66875 3.5106 7.66875 4.53418C7.66875 5.55776 6.83608 6.39043 5.8125 6.39043ZM13.2375 6.39043C12.2139 6.39043 11.3812 5.55776 11.3812 4.53418C11.3812 3.5106 12.2139 2.67793 13.2375 2.67793C14.2611 2.67793 15.0937 3.5106 15.0937 4.53418C15.0937 5.55776 14.2611 6.39043 13.2375 6.39043Z"
    fill="#848B96"/>
</svg>
