<svg width="24" height="24" viewBox="0 0 24 24" fill="none" xmlns="http://www.w3.org/2000/svg">
<path d="M18.2827 6.66699H5.71859C5.5062 6.66699 5.33398 6.83921 5.33398 7.0516V9.23108H18.6673V7.0516C18.6673 6.83921 18.4951 6.66699 18.2827 6.66699Z" fill="#CDCDCD"/>
<path d="M12.0007 11.5391C11.0816 11.5391 10.334 12.2867 10.334 13.2057C10.334 14.1247 11.0816 14.8724 12.0007 14.8724C12.9197 14.8724 13.6673 14.1247 13.6673 13.2057C13.6673 12.2867 12.9197 11.5391 12.0007 11.5391ZM12.0007 14.0006C11.5623 14.0006 11.2058 13.644 11.2058 13.2057C11.2058 12.7674 11.5623 12.4109 12.0007 12.4109C12.439 12.4109 12.7955 12.7674 12.7955 13.2057C12.7955 13.644 12.439 14.0006 12.0007 14.0006Z" fill="#CDCDCD"/>
<path d="M6.48828 10V11.6667C6.48828 13.1392 7.06172 14.5236 8.10294 15.5648C9.14417 16.606 10.5286 17.1795 12.0011 17.1795C13.4736 17.1795 14.858 16.606 15.8992 15.5648C16.9405 14.5236 17.5139 13.1392 17.5139 11.6667V10H6.48828ZM12.0011 15.641C10.6579 15.641 9.56521 14.5483 9.56521 13.2051C9.56521 11.862 10.6579 10.7692 12.0011 10.7692C13.3442 10.7692 14.437 11.862 14.437 13.2051C14.437 14.5483 13.3442 15.641 12.0011 15.641Z" fill="#848B96"/>
</svg>
