<svg width="24" height="24" viewBox="0 0 24 24" fill="none" xmlns="http://www.w3.org/2000/svg">
  <path
    d="M18.3713 10.8396L16.8419 10.4635C16.75 10.1736 16.6317 9.89244 16.489 9.6235C16.7187 9.24126 17.2013 8.43676 17.2013 8.43676C17.2936 8.28303 17.2691 8.08618 17.1425 7.95954L16.0378 6.8548C15.9111 6.72777 15.7147 6.70337 15.5605 6.79605L14.3719 7.50827C14.1045 7.36673 13.8248 7.24962 13.5368 7.15845L13.1607 5.62905C13.1172 5.45509 12.9612 5.33301 12.7819 5.33301H11.2194C11.0401 5.33301 10.8837 5.45509 10.8406 5.62902C10.8406 5.62902 10.5801 6.69647 10.4648 7.15806C10.1578 7.25533 9.86099 7.3816 9.57831 7.53572L8.34578 6.79605C8.19167 6.70449 7.9956 6.72816 7.86857 6.8548L6.76383 7.95954C6.63719 8.08618 6.61276 8.28303 6.70508 8.43676L7.46727 9.70973C7.34443 9.95197 7.24143 10.2041 7.15943 10.4624L5.63003 10.8396C5.45607 10.8831 5.33398 11.0391 5.33398 11.2184V12.7809C5.33398 12.9602 5.45607 13.1166 5.63 13.1597L7.15979 13.5358C7.2525 13.83 7.37302 14.1157 7.51914 14.39L6.83708 15.5267C6.74477 15.6805 6.76919 15.8773 6.89583 16.0039L8.00057 17.1087C8.12685 17.235 8.32367 17.259 8.47779 17.1674C8.47779 17.1674 9.24263 16.7089 9.61724 16.4846C9.88846 16.6292 10.1723 16.7486 10.4649 16.8413L10.8406 18.3703C10.8837 18.5443 11.0401 18.6663 11.2194 18.6663H12.7819C12.9612 18.6663 13.1172 18.5443 13.1607 18.3703L13.5365 16.8413C13.8374 16.7459 14.1273 16.6227 14.4032 16.4732C14.788 16.7039 15.5605 17.1674 15.5605 17.1674C15.7142 17.2594 15.9111 17.2357 16.0377 17.1087L17.1425 16.0039C17.2691 15.8773 17.2935 15.6805 17.2012 15.5267L16.4989 14.3568C16.6374 14.0939 16.7522 13.8189 16.8419 13.5358L18.3713 13.1597C18.5453 13.1162 18.6673 12.9602 18.6673 12.7809V11.2184C18.6673 11.0391 18.5453 10.8831 18.3713 10.8396ZM12.0007 14.734C10.4931 14.734 9.26628 13.5073 9.26628 11.9997C9.26628 10.4921 10.4931 9.2653 12.0007 9.2653C13.5082 9.2653 14.735 10.4921 14.735 11.9997C14.735 13.5073 13.5082 14.734 12.0007 14.734Z"
    fill="#848B96"/>
  <path
    d="M10.4955 12.0792C10.4355 12.9902 11.1883 13.7402 12.0993 13.683C12.8494 13.6366 13.4603 13.0284 13.5094 12.2729C13.5694 11.3619 12.8166 10.6118 11.9057 10.6691C11.1529 10.7182 10.5419 11.3264 10.4955 12.0792Z"
    fill="#CDCDCD"/>
</svg>
