<svg width="24" height="24" viewBox="0 0 24 24" fill="none" xmlns="http://www.w3.org/2000/svg">
  <path
    d="M11.9996 2.09931C6.5359 2.09931 2.09961 6.53559 2.09961 11.9993C2.09961 17.463 6.5359 21.8993 11.9996 21.8993C17.4633 21.8993 21.8996 17.463 21.8996 11.9993C21.8996 10.4807 21.556 9.04169 20.9438 7.75503L19.9609 8.73797C19.7753 8.92462 19.5222 9.02986 19.259 9.02991H18.9857C19.3747 9.94238 19.5903 10.9458 19.5903 11.9993C19.5903 16.1872 16.1875 19.5899 11.9996 19.5899C7.81168 19.5899 4.40897 16.1872 4.40897 11.9993C4.40897 7.81137 7.81168 4.40862 11.9996 4.40862C13.0533 4.40862 14.057 4.62406 14.9696 5.01321V4.73992C14.9697 4.4767 15.0749 4.22364 15.2616 4.03804L16.2438 3.05514C14.9572 2.44292 13.5182 2.09931 11.9996 2.09931ZM18.2606 2.09931C18.1761 2.10183 18.0958 2.13661 18.0363 2.19656L15.7269 4.50591C15.6961 4.53657 15.6716 4.57306 15.6549 4.61321C15.6382 4.65336 15.6296 4.69639 15.6296 4.73988V6.91392L11.2719 11.2716C10.8725 11.6711 10.8725 12.3294 11.2719 12.7289C11.6714 13.1283 12.3278 13.1264 12.7273 12.7263L17.0843 8.36933H19.259C19.3025 8.36933 19.3455 8.36075 19.3857 8.34406C19.4258 8.32736 19.4623 8.30291 19.4929 8.27208L21.8023 5.96269C21.8482 5.91646 21.8795 5.85768 21.892 5.79373C21.9046 5.72978 21.898 5.66352 21.8729 5.60334C21.8479 5.54316 21.8056 5.49172 21.7514 5.45554C21.6972 5.41936 21.6335 5.40003 21.5683 5.40001H20.0537L20.3166 5.13707C20.7161 4.7376 20.718 4.08116 20.3186 3.6817C20.1189 3.48196 19.8541 3.38199 19.5897 3.38199C19.3252 3.38199 19.0611 3.48201 18.8614 3.6817L18.599 3.94403V2.42745C18.5989 2.38351 18.5899 2.34004 18.5727 2.2996C18.5556 2.25915 18.5305 2.22257 18.4989 2.19195C18.4674 2.16134 18.4301 2.13731 18.3892 2.12131C18.3483 2.10531 18.3046 2.09763 18.2606 2.09874L18.2606 2.09931ZM11.9996 6.71801C9.08745 6.71801 6.71832 9.08716 6.71832 11.9993C6.71832 14.9115 9.08745 17.278 11.9996 17.278C14.9118 17.278 17.2783 14.9115 17.2783 11.9993C17.2783 11.1591 17.0768 10.3668 16.7266 9.66092L14.9187 11.4688C14.95 11.6412 14.969 11.818 14.969 11.9993C14.969 13.6357 13.636 14.9686 11.9996 14.9686C10.3632 14.9686 9.03026 13.6357 9.03026 11.9993C9.03026 10.3629 10.3632 9.02991 11.9996 9.02991C12.1809 9.02991 12.3576 9.04889 12.5301 9.08019L14.3386 7.27163C13.6327 6.92068 12.8403 6.71797 11.9996 6.71797L11.9996 6.71801Z"
    fill="#848B96"/>
</svg>
