<svg width="24" height="24" viewBox="0 0 24 24" fill="none" xmlns="http://www.w3.org/2000/svg">
<path d="M14.7811 13.6579C14.7904 13.7239 14.7956 13.7912 14.7956 13.8597V15.0856C16.5634 14.1279 17.7667 12.2558 17.7667 10.1079C17.7667 6.98878 15.2291 4.45117 12.1099 4.45117C8.99079 4.45117 6.45312 6.98878 6.45312 10.1079C6.45312 12.2558 7.65647 14.1278 9.42426 15.0856V13.8597C9.42426 13.7911 9.4294 13.7238 9.43869 13.6579C8.36245 12.8459 7.66525 11.5569 7.66525 10.1079C7.66525 7.65712 9.65913 5.66329 12.1099 5.66329C14.5607 5.66329 16.5546 7.65712 16.5546 10.1079C16.5546 11.5569 15.8575 12.8459 14.7811 13.6579Z" fill="#848B96"/>
<path opacity="0.4" d="M12.1097 2C7.63798 2 4 5.63798 4 10.1097C4 13.6404 6.26834 16.6509 9.42401 17.7617V16.4628C6.95105 15.4135 5.21212 12.9608 5.21212 10.1097C5.21212 6.30632 8.30632 3.21212 12.1097 3.21212C15.913 3.21212 19.0072 6.30632 19.0072 10.1097C19.0072 12.9608 17.2683 15.4135 14.7953 16.4628V17.7617C17.951 16.6509 20.2193 13.6404 20.2193 10.1097C20.2193 5.63798 16.5814 2 12.1097 2Z" fill="#848B96"/>
<path d="M13.3516 13.2842H10.8663C10.5475 13.2842 10.2891 13.5426 10.2891 13.8614V17.8825C10.2891 18.2013 10.5475 18.4597 10.8663 18.4597H10.9738V21.4227C10.9738 21.7414 11.2322 21.9999 11.551 21.9999H12.6668C12.9856 21.9999 13.244 21.7414 13.244 21.4227V18.4597H13.3516C13.6704 18.4597 13.9288 18.2013 13.9288 17.8825V13.8614C13.9288 13.5426 13.6705 13.2842 13.3516 13.2842Z" fill="#848B96"/>
<path opacity="0.4" d="M12.1093 12.409C13.395 12.409 14.4373 11.3667 14.4373 10.081C14.4373 8.79522 13.395 7.75293 12.1093 7.75293C10.8235 7.75293 9.78125 8.79522 9.78125 10.081C9.78125 11.3667 10.8235 12.409 12.1093 12.409Z" fill="#848B96"/>
</svg>
