<svg width="24" height="24" viewBox="0 0 24 24" fill="none" xmlns="http://www.w3.org/2000/svg">
  <path
    d="M12.6679 6.09594C12.6437 5.64271 12.1805 5.71981 11.7285 5.71981C12.0624 5.80873 12.3782 5.93244 12.6679 6.09594Z"
    fill="#848B96"/>
  <path opacity="0.4"
        d="M7.83515 4.96094C6.08062 4.96094 5.27304 7.18172 6.67562 8.29865C7.15375 7.02194 8.10558 6.10522 9.35339 5.74338C9.01205 5.27149 8.46057 4.96094 7.83515 4.96094Z"
        fill="#848B96"/>
  <path opacity="0.4"
        d="M4.20989 7.94986C4.2814 8.1793 4.37404 8.39941 4.48409 8.60795L3.90775 9.18462C3.75298 9.33939 3.75298 9.59061 3.90775 9.7457L4.92364 10.7619C4.99762 10.8359 5.09899 10.8775 5.20464 10.8775C5.30913 10.8775 5.40982 10.8359 5.48508 10.7619L6.06079 10.1852C6.14718 10.231 6.24294 10.259 6.33242 10.2984C6.33242 10.2919 6.33178 10.2851 6.33178 10.2785C6.33178 9.80724 6.38591 9.36269 6.48227 8.94525C5.78719 8.4979 5.32338 7.72138 5.32338 6.83481C5.32338 5.44992 6.44992 4.32306 7.83449 4.32306C8.77203 4.32306 9.58149 4.845 10.0136 5.60754C10.4749 5.55033 10.9082 5.55033 11.4299 5.6489C11.3628 5.44592 11.2838 5.24727 11.1849 5.06107L11.7613 4.48412C11.8365 4.40982 11.8781 4.30877 11.8781 4.20372C11.8781 4.09863 11.8365 3.99762 11.7613 3.92331L10.7459 2.90775C10.6683 2.83004 10.5669 2.79149 10.4656 2.79149C10.3642 2.79149 10.2629 2.83004 10.1858 2.90775L9.60759 3.48469C9.39873 3.37404 9.17926 3.2814 8.94926 3.21145V2.39635C8.94926 2.17751 8.77267 2 8.5532 2H7.11642C6.89819 2 6.71972 2.17751 6.71972 2.39635V3.21141C6.49032 3.28136 6.27081 3.374 6.06131 3.48465L5.48508 2.90835C5.40734 2.83064 5.30601 2.79209 5.20464 2.79209C5.10331 2.79209 5.00138 2.83064 4.92428 2.90803L3.90775 3.92359C3.83377 3.99822 3.79213 4.09891 3.79213 4.20432C3.79213 4.30969 3.83377 4.41042 3.90775 4.48472L4.48409 5.06135C4.374 5.27025 4.2814 5.49004 4.21117 5.71944H3.39671C3.17723 5.71944 3 5.89723 3 6.11638V7.5532C3 7.77171 3.17723 7.94986 3.39671 7.94986H4.20989Z"
        fill="#848B96"/>
  <path opacity="0.4"
        d="M16.6547 15.639C17.2902 15.2904 17.7266 14.6234 17.7266 13.8493C17.7266 12.7196 16.8071 11.8008 15.6774 11.8008C15.2802 11.8008 14.912 11.9195 14.5975 12.116C14.4091 12.8657 14.1125 13.5829 13.7246 14.2059C14.8244 14.4126 15.8334 14.9134 16.6547 15.639Z"
        fill="#848B96"/>
  <path opacity="0.4"
        d="M20.8967 13.0731C20.8967 12.8366 20.7045 12.6451 20.4689 12.6451H19.5898C19.5139 12.3973 19.4132 12.1598 19.2939 11.9344L19.9162 11.3121C19.997 11.2319 20.0418 11.1231 20.0418 11.0097C20.0418 10.8962 19.997 10.7874 19.9162 10.7069L18.8207 9.61109C18.7374 9.52742 18.6274 9.48546 18.518 9.48546C18.4085 9.48546 18.2991 9.52742 18.2158 9.61109L17.5923 10.2337C17.3671 10.1143 17.1303 10.0143 16.8816 9.9387V9.05961C16.8816 8.82336 16.6907 8.63184 16.4545 8.63184H14.9046C14.8007 8.63184 14.7093 8.67347 14.6348 8.73505C14.7653 9.21126 14.8368 9.72763 14.8368 10.2785C14.8368 10.6282 14.8095 10.9832 14.7585 11.3363C15.0469 11.23 15.354 11.1632 15.6792 11.1632C17.1601 11.1632 18.365 12.3678 18.365 13.8483C18.365 14.7947 17.8708 15.624 17.1291 16.1024C17.6687 16.6943 18.0977 17.3965 18.3769 18.1833C18.4228 18.1991 18.4707 18.2107 18.5186 18.2107C18.628 18.2107 18.7375 18.169 18.8214 18.0854L19.9175 16.9896C19.9977 16.9093 20.0418 16.8006 20.0418 16.6871C20.0418 16.5736 19.9977 16.4649 19.9175 16.3843L19.2939 15.7617C19.4133 15.5367 19.514 15.2991 19.5899 15.0511H20.4689C20.5821 15.0511 20.6921 15.0063 20.7717 14.9254C20.8519 14.8455 20.8973 14.7365 20.8973 14.623L20.8967 13.0731Z"
        fill="#848B96"/>
  <path
    d="M17.5036 18.5716C16.8389 16.616 15.0826 15.271 13.0552 15.0879C12.3763 15.8068 11.5357 16.263 10.5838 16.263C9.63261 16.263 8.79139 15.8069 8.11312 15.0879C6.08448 15.271 4.32811 16.616 3.66345 18.572L3.29605 19.6534C3.19096 19.9646 3.24128 20.3075 3.43281 20.5745C3.62429 20.8416 3.93268 21.0001 4.26093 21.0001H16.9061C17.2349 21.0001 17.5433 20.8416 17.7349 20.5745C17.9257 20.3075 17.9767 19.9646 17.871 19.6534L17.5036 18.5716Z"
    fill="#848B96"/>
  <path
    d="M7.28711 10.2787C7.28711 12.7044 8.76371 15.3072 10.5841 15.3072C12.4051 15.3072 13.8816 12.7044 13.8816 10.2787C13.8817 5.25061 7.28711 5.24064 7.28711 10.2787Z"
    fill="#848B96"/>
</svg>
