<svg width="24" height="24" viewBox="0 0 24 24" fill="none" xmlns="http://www.w3.org/2000/svg">
  <path
    d="M15.3258 9.80703C16.7261 8.53038 18.6197 6.80378 18.7923 2.67891H20.0426V1.44141H3.95508V2.67891H5.20532C5.37791 6.80378 7.27154 8.53038 8.67181 9.80703C9.61111 10.6634 10.1426 11.1876 10.1426 12.0014C10.1426 12.8152 9.61111 13.3394 8.67181 14.1958C7.27154 15.4724 5.37791 17.199 5.20532 21.3239H3.95508V22.5614H20.0426V21.3239H18.7923C18.6197 17.199 16.7261 15.4724 15.3258 14.1958C14.3865 13.3394 13.8551 12.8152 13.8551 12.0014C13.8551 11.1876 14.3865 10.6634 15.3258 9.80703ZM11.3801 16.6395C11.189 16.6789 11.0002 16.7363 10.8159 16.8125L7.02598 18.3808C7.64489 16.8071 8.64174 15.8978 9.50556 15.1103C10.4696 14.2314 11.3801 13.4012 11.3801 12.0014V16.6395ZM14.4921 15.1103C15.3559 15.8978 16.3527 16.8071 16.9717 18.3808L13.1818 16.8125C12.9975 16.7362 12.8087 16.6789 12.6176 16.6394V12.0014C12.6176 13.4012 13.5281 14.2314 14.4921 15.1103ZM7.00424 5.56641C6.70505 4.78682 6.49843 3.84554 6.44435 2.67891H17.5533C17.4992 3.84554 17.2926 4.78682 16.9934 5.56641H7.00424Z"
    fill="#848B96"/>
</svg>
