<svg width="24" height="24" viewBox="0 0 24 24" fill="none" xmlns="http://www.w3.org/2000/svg">
  <path
    d="M23.5861 19.8618H0.413811C0.185296 19.8618 0 19.6765 0 19.448V4.55151C0 4.32299 0.185296 4.1377 0.413811 4.1377H23.5861C23.8147 4.1377 24 4.32299 24 4.55151V19.448C23.9999 19.6765 23.8146 19.8618 23.5861 19.8618Z"
    fill="#41479B"/>
  <path
    d="M24 4.55151C24 4.32299 23.8147 4.1377 23.5861 4.1377H21.7348L14.0689 9.16019V4.1377H9.93095V9.16019L2.26508 4.1377H0.413811C0.185296 4.1377 0 4.32299 0 4.55151V5.6217L6.57696 9.93077H0V14.0687H6.57696L0 18.3778V19.448C0 19.6765 0.185296 19.8618 0.413811 19.8618H2.26513L9.93104 14.8393V19.8618H14.069V14.8393L21.7349 19.8618H23.5861C23.8146 19.8618 23.9999 19.6765 24 19.448L24 18.3778L17.423 14.0687H23.9999V9.93081H17.4229L23.9999 5.6217L24 4.55151Z"
    fill="#F5F5F5"/>
  <path d="M23.9999 10.7584H13.2413V4.1377H10.7586V10.7584H0V13.2411H10.7586V19.8618H13.2413V13.2411H23.9999V10.7584Z"
        fill="#FF4B55"/>
  <path
    d="M8.38815 14.0687L0.0117187 19.506C0.0410155 19.7059 0.205827 19.8618 0.413811 19.8618H0.983715L9.90821 14.0687L8.38815 14.0687Z"
    fill="#FF4B55"/>
  <path d="M16.2369 14.0687H14.7168L23.6283 19.8532C23.836 19.8311 24 19.6616 24 19.448V19.1077L16.2369 14.0687Z"
        fill="#FF4B55"/>
  <path d="M0 5.0083L7.58336 9.93081H9.10342L0.241077 4.17805C0.0995152 4.24382 0 4.38515 0 4.55151V5.0083Z"
        fill="#FF4B55"/>
  <path
    d="M15.589 9.93081L23.9855 4.48035C23.9506 4.28713 23.7894 4.1377 23.5861 4.1377L22.9933 4.13774L14.0689 9.93081H15.589Z"
    fill="#FF4B55"/>
</svg>
