<svg width="24" height="24" viewBox="0 0 24 24" fill="none" xmlns="http://www.w3.org/2000/svg">
  <path
    d="M23.5861 19.8618H0.413812C0.185297 19.8618 0 19.6765 0 19.448V4.55151C0 4.32299 0.185297 4.1377 0.413812 4.1377H23.5862C23.8147 4.1377 24 4.32299 24 4.55151V19.448C24 19.6766 23.8147 19.8618 23.5861 19.8618Z"
    fill="#F5F5F5"/>
  <path
    d="M24 5.3473H0V4.55151C0 4.32299 0.185297 4.1377 0.413812 4.1377H23.5862C23.8147 4.1377 24 4.32299 24 4.55151L24 5.3473Z"
    fill="#FF4B55"/>
  <path d="M24 8.97589H0V10.1854H24V8.97589Z" fill="#FF4B55"/>
  <path d="M24 6.55667H0V7.76623H24V6.55667Z" fill="#FF4B55"/>
  <path d="M24 12.6046H0.413812C0.185297 12.6046 0 12.4193 0 12.1908V11.395H24V12.6046Z" fill="#FF4B55"/>
  <path d="M24 16.2335H0V17.4431H24V16.2335Z" fill="#FF4B55"/>
  <path
    d="M23.5861 19.8618H0.413812C0.185297 19.8618 0 19.6765 0 19.448V18.6523H24L24 19.448C24 19.6766 23.8147 19.8618 23.5861 19.8618Z"
    fill="#FF4B55"/>
  <path d="M24 13.8143H0V15.0239H24V13.8143Z" fill="#FF4B55"/>
  <path
    d="M10.7586 4.13774L0.413812 4.1377C0.185297 4.1377 0 4.32299 0 4.55151V12.1908C0 12.4193 0.185297 12.6046 0.413812 12.6046L10.7586 12.6045C10.9872 12.6045 11.1724 12.4192 11.1724 12.1907V4.55151C11.1724 4.32299 10.9871 4.13774 10.7586 4.13774Z"
    fill="#41479B"/>
  <path
    d="M1.16198 5.08747L1.25358 5.36216L1.54312 5.36436C1.58062 5.36469 1.59614 5.4125 1.566 5.43477L1.33308 5.6068L1.42045 5.88285C1.43179 5.91856 1.39106 5.94819 1.36054 5.92635L1.125 5.75802L0.889451 5.92639C0.858936 5.94819 0.818295 5.91861 0.829545 5.88289L0.91692 5.60685L0.683999 5.43482C0.653858 5.4125 0.669374 5.36474 0.706874 5.36441L0.99642 5.36221L1.08801 5.08752C1.09983 5.0519 1.15008 5.0519 1.16198 5.08747Z"
    fill="#F5F5F5"/>
  <path
    d="M1.16198 6.52438L1.25358 6.79906L1.54312 6.80127C1.58062 6.8016 1.59614 6.84941 1.566 6.87167L1.33308 7.0437L1.42045 7.31975C1.43179 7.35547 1.39106 7.38509 1.36054 7.36325L1.125 7.19492L0.889451 7.3633C0.858936 7.38509 0.818295 7.35551 0.829545 7.3198L0.91692 7.04375L0.683999 6.87172C0.653858 6.84941 0.669374 6.80164 0.706874 6.80131L0.99642 6.79911L1.08801 6.52443C1.09983 6.48885 1.15008 6.48885 1.16198 6.52438Z"
    fill="#F5F5F5"/>
  <path
    d="M1.16198 7.96128L1.25358 8.23597L1.54312 8.23817C1.58062 8.2385 1.59614 8.28631 1.566 8.30858L1.33308 8.48061L1.42045 8.75666C1.43179 8.79238 1.39106 8.82201 1.36054 8.80016L1.125 8.63183L0.889451 8.80021C0.858936 8.82201 0.818295 8.79243 0.829545 8.75671L0.91692 8.48066L0.683999 8.30863C0.653858 8.28631 0.669374 8.23855 0.706874 8.23822L0.99642 8.23602L1.08801 7.96133C1.09983 7.92575 1.15008 7.92575 1.16198 7.96128Z"
    fill="#F5F5F5"/>
  <path
    d="M1.16198 9.39823L1.25358 9.67292L1.54312 9.67512C1.58062 9.67545 1.59614 9.72326 1.566 9.74553L1.33308 9.91756L1.42045 10.1936C1.43179 10.2293 1.39106 10.259 1.36054 10.2371L1.125 10.0688L0.889451 10.2372C0.858936 10.259 0.818295 10.2294 0.829545 10.1937L0.91692 9.91761L0.683999 9.74558C0.653858 9.72326 0.669374 9.6755 0.706874 9.67517L0.99642 9.67297L1.08801 9.39828C1.09983 9.36265 1.15008 9.36265 1.16198 9.39823Z"
    fill="#F5F5F5"/>
  <path
    d="M1.16198 10.8351L1.25358 11.1098L1.54312 11.112C1.58062 11.1124 1.59614 11.1602 1.566 11.1824L1.33308 11.3545L1.42045 11.6305C1.43179 11.6662 1.39106 11.6959 1.36054 11.674L1.125 11.5057L0.889451 11.6741C0.858936 11.6959 0.818295 11.6663 0.829545 11.6306L0.91692 11.3545L0.683999 11.1825C0.653858 11.1602 0.669374 11.1124 0.706874 11.1121L0.99642 11.1099L1.08801 10.8352C1.09983 10.7995 1.15008 10.7995 1.16198 10.8351Z"
    fill="#F5F5F5"/>
  <path
    d="M2.27728 5.79196L2.36887 6.06664L2.65841 6.06885C2.69591 6.06918 2.71143 6.11699 2.68129 6.13925L2.44837 6.31128L2.53574 6.58733C2.54709 6.62305 2.50635 6.65267 2.47584 6.63083L2.24029 6.46246L2.00475 6.63083C1.97423 6.65263 1.93359 6.62305 1.94484 6.58733L2.03221 6.31128L1.79929 6.13925C1.76915 6.11694 1.78467 6.06918 1.82217 6.06885L2.11171 6.06664L2.20331 5.79196C2.21507 5.75643 2.26542 5.75643 2.27728 5.79196Z"
    fill="#F5F5F5"/>
  <path
    d="M2.27728 7.22891L2.36887 7.50359L2.65841 7.50579C2.69591 7.50612 2.71143 7.55393 2.68129 7.5762L2.44837 7.74823L2.53574 8.02427C2.54709 8.05999 2.50635 8.08961 2.47584 8.06777L2.24029 7.8994L2.00475 8.06777C1.97423 8.08957 1.93359 8.06004 1.94484 8.02427L2.03221 7.74823L1.79929 7.5762C1.76915 7.55389 1.78467 7.50612 1.82217 7.50579L2.11171 7.50359L2.20331 7.22891C2.21507 7.19333 2.26542 7.19333 2.27728 7.22891Z"
    fill="#F5F5F5"/>
  <path
    d="M2.27728 8.66581L2.36887 8.9405L2.65841 8.9427C2.69591 8.94303 2.71143 8.99084 2.68129 9.01311L2.44837 9.18514L2.53574 9.46119C2.54709 9.4969 2.50635 9.52653 2.47584 9.50469L2.24029 9.33631L2.00475 9.50469C1.97423 9.52648 1.93359 9.4969 1.94484 9.46119L2.03221 9.18514L1.79929 9.01311C1.76915 8.9908 1.78467 8.94303 1.82217 8.9427L2.11171 8.9405L2.20331 8.66581C2.21507 8.63023 2.26542 8.63023 2.27728 8.66581Z"
    fill="#F5F5F5"/>
  <path
    d="M2.27728 10.1027L2.36887 10.3774L2.65841 10.3796C2.69591 10.3799 2.71143 10.4277 2.68129 10.45L2.44837 10.622L2.53574 10.8981C2.54709 10.9338 2.50635 10.9634 2.47584 10.9416L2.24029 10.7732L2.00475 10.9416C1.97423 10.9634 1.93359 10.9338 1.94484 10.8981L2.03221 10.622L1.79929 10.45C1.76915 10.4277 1.78467 10.3799 1.82217 10.3796L2.11171 10.3774L2.20331 10.1027C2.21507 10.0672 2.26542 10.0672 2.27728 10.1027Z"
    fill="#F5F5F5"/>
  <path
    d="M3.39257 5.08747L3.48416 5.36216L3.77371 5.36436C3.81121 5.36469 3.82673 5.4125 3.79659 5.43477L3.56366 5.6068L3.65104 5.88284C3.66238 5.91856 3.62165 5.94819 3.59113 5.92634L3.35559 5.75797L3.12004 5.92634C3.08952 5.94814 3.04888 5.91856 3.06013 5.88284L3.14751 5.6068L2.91459 5.43477C2.88445 5.41246 2.89996 5.36469 2.93746 5.36436L3.22701 5.36216L3.3186 5.08747C3.33041 5.0519 3.38071 5.0519 3.39257 5.08747Z"
    fill="#F5F5F5"/>
  <path
    d="M3.39257 6.52438L3.48416 6.79907L3.77371 6.80127C3.81121 6.8016 3.82673 6.84941 3.79659 6.87167L3.56366 7.0437L3.65104 7.31975C3.66238 7.35547 3.62165 7.38509 3.59113 7.36325L3.35559 7.19488L3.12004 7.36325C3.08952 7.38505 3.04888 7.35547 3.06013 7.31975L3.14751 7.0437L2.91459 6.87167C2.88445 6.84936 2.89996 6.8016 2.93746 6.80127L3.22701 6.79907L3.3186 6.52438C3.33041 6.48885 3.38071 6.48885 3.39257 6.52438Z"
    fill="#F5F5F5"/>
  <path
    d="M3.39257 7.96128L3.48416 8.23597L3.77371 8.23818C3.81121 8.2385 3.82673 8.28632 3.79659 8.30858L3.56366 8.48062L3.65104 8.75667C3.66238 8.79239 3.62165 8.82201 3.59113 8.80017L3.35559 8.63179L3.12004 8.80017C3.08952 8.82197 3.04888 8.79239 3.06013 8.75667L3.14751 8.48062L2.91459 8.30858C2.88445 8.28627 2.89996 8.2385 2.93746 8.23818L3.22701 8.23597L3.3186 7.96128C3.33041 7.92575 3.38071 7.92575 3.39257 7.96128Z"
    fill="#F5F5F5"/>
  <path
    d="M3.39257 9.39823L3.48416 9.67292L3.77371 9.67512C3.81121 9.67545 3.82673 9.72326 3.79659 9.74553L3.56366 9.91756L3.65104 10.1936C3.66238 10.2293 3.62165 10.2589 3.59113 10.2371L3.35559 10.0687L3.12004 10.2371C3.08952 10.2589 3.04888 10.2293 3.06013 10.1936L3.14751 9.91756L2.91459 9.74553C2.88445 9.72322 2.89996 9.67545 2.93746 9.67512L3.22701 9.67292L3.3186 9.39823C3.33041 9.36265 3.38071 9.36265 3.39257 9.39823Z"
    fill="#F5F5F5"/>
  <path
    d="M3.39257 10.8351L3.48416 11.1098L3.77371 11.112C3.81121 11.1124 3.82673 11.1602 3.79659 11.1824L3.56366 11.3545L3.65104 11.6305C3.66238 11.6662 3.62165 11.6959 3.59113 11.674L3.35559 11.5056L3.12004 11.674C3.08952 11.6958 3.04888 11.6662 3.06013 11.6305L3.14751 11.3545L2.91459 11.1824C2.88445 11.1601 2.89996 11.1124 2.93746 11.112L3.22701 11.1098L3.3186 10.8351C3.33041 10.7995 3.38071 10.7995 3.39257 10.8351Z"
    fill="#F5F5F5"/>
  <path
    d="M4.50792 5.79196L4.59951 6.06664L4.88906 6.06885C4.92656 6.06918 4.94207 6.11699 4.91193 6.13925L4.67901 6.31128L4.76638 6.58733C4.77773 6.62305 4.73699 6.65267 4.70648 6.63083L4.47093 6.46246L4.23538 6.63083C4.20487 6.65263 4.16423 6.62305 4.17548 6.58733L4.26285 6.31128L4.02993 6.13925C3.99979 6.11694 4.01531 6.06918 4.05281 6.06885L4.34235 6.06664L4.43395 5.79196C4.44571 5.75643 4.49606 5.75643 4.50792 5.79196Z"
    fill="#F5F5F5"/>
  <path
    d="M4.50792 7.22891L4.59951 7.50359L4.88906 7.50579C4.92656 7.50612 4.94207 7.55393 4.91193 7.5762L4.67901 7.74823L4.76638 8.02427C4.77773 8.05999 4.73699 8.08961 4.70648 8.06777L4.47093 7.8994L4.23538 8.06777C4.20487 8.08957 4.16423 8.06004 4.17548 8.02427L4.26285 7.74823L4.02993 7.5762C3.99979 7.55389 4.01531 7.50612 4.05281 7.50579L4.34235 7.50359L4.43395 7.22891C4.44571 7.19333 4.49606 7.19333 4.50792 7.22891Z"
    fill="#F5F5F5"/>
  <path
    d="M4.50792 8.66581L4.59951 8.9405L4.88906 8.9427C4.92656 8.94303 4.94207 8.99084 4.91193 9.01311L4.67901 9.18514L4.76638 9.46119C4.77773 9.4969 4.73699 9.52653 4.70648 9.50469L4.47093 9.33631L4.23538 9.50469C4.20487 9.52648 4.16423 9.4969 4.17548 9.46119L4.26285 9.18514L4.02993 9.01311C3.99979 8.9908 4.01531 8.94303 4.05281 8.9427L4.34235 8.9405L4.43395 8.66581C4.44571 8.63023 4.49606 8.63023 4.50792 8.66581Z"
    fill="#F5F5F5"/>
  <path
    d="M4.50792 10.1027L4.59951 10.3774L4.88906 10.3796C4.92656 10.3799 4.94207 10.4277 4.91193 10.45L4.67901 10.622L4.76638 10.8981C4.77773 10.9338 4.73699 10.9634 4.70648 10.9416L4.47093 10.7732L4.23538 10.9416C4.20487 10.9634 4.16423 10.9338 4.17548 10.8981L4.26285 10.622L4.02993 10.45C3.99979 10.4277 4.01531 10.3799 4.05281 10.3796L4.34235 10.3774L4.43395 10.1027C4.44571 10.0672 4.49606 10.0672 4.50792 10.1027Z"
    fill="#F5F5F5"/>
  <path
    d="M5.62321 5.08747L5.7148 5.36216L6.00435 5.36436C6.04185 5.36469 6.05736 5.4125 6.02722 5.43477L5.7943 5.6068L5.88167 5.88284C5.89302 5.91856 5.85228 5.94819 5.82177 5.92634L5.58618 5.75797L5.35063 5.92634C5.32012 5.94814 5.27948 5.91856 5.29073 5.88284L5.3781 5.6068L5.14518 5.43477C5.11504 5.41246 5.13055 5.36469 5.16805 5.36436L5.4576 5.36216L5.54919 5.08747C5.56105 5.0519 5.61135 5.0519 5.62321 5.08747Z"
    fill="#F5F5F5"/>
  <path
    d="M5.62321 6.52438L5.7148 6.79907L6.00435 6.80127C6.04185 6.8016 6.05736 6.84941 6.02722 6.87167L5.7943 7.0437L5.88167 7.31975C5.89302 7.35547 5.85228 7.38509 5.82177 7.36325L5.58618 7.19488L5.35063 7.36325C5.32012 7.38505 5.27948 7.35547 5.29073 7.31975L5.3781 7.0437L5.14518 6.87167C5.11504 6.84936 5.13055 6.8016 5.16805 6.80127L5.4576 6.79907L5.54919 6.52438C5.56105 6.48885 5.61135 6.48885 5.62321 6.52438Z"
    fill="#F5F5F5"/>
  <path
    d="M5.62321 7.96128L5.7148 8.23597L6.00435 8.23818C6.04185 8.2385 6.05736 8.28632 6.02722 8.30858L5.7943 8.48062L5.88167 8.75667C5.89302 8.79239 5.85228 8.82201 5.82177 8.80017L5.58618 8.63179L5.35063 8.80017C5.32012 8.82197 5.27948 8.79239 5.29073 8.75667L5.3781 8.48062L5.14518 8.30858C5.11504 8.28627 5.13055 8.2385 5.16805 8.23818L5.4576 8.23597L5.54919 7.96128C5.56105 7.92575 5.61135 7.92575 5.62321 7.96128Z"
    fill="#F5F5F5"/>
  <path
    d="M5.62321 9.39823L5.7148 9.67292L6.00435 9.67512C6.04185 9.67545 6.05736 9.72326 6.02722 9.74553L5.7943 9.91756L5.88167 10.1936C5.89302 10.2293 5.85228 10.2589 5.82177 10.2371L5.58618 10.0687L5.35063 10.2371C5.32012 10.2589 5.27948 10.2293 5.29073 10.1936L5.3781 9.91756L5.14518 9.74553C5.11504 9.72322 5.13055 9.67545 5.16805 9.67512L5.4576 9.67292L5.54919 9.39823C5.56105 9.36265 5.61135 9.36265 5.62321 9.39823Z"
    fill="#F5F5F5"/>
  <path
    d="M5.62321 10.8351L5.7148 11.1098L6.00435 11.112C6.04185 11.1124 6.05736 11.1602 6.02722 11.1824L5.7943 11.3545L5.88167 11.6305C5.89302 11.6662 5.85228 11.6959 5.82177 11.674L5.58618 11.5056L5.35063 11.674C5.32012 11.6958 5.27948 11.6662 5.29073 11.6305L5.3781 11.3545L5.14518 11.1824C5.11504 11.1601 5.13055 11.1124 5.16805 11.112L5.4576 11.1098L5.54919 10.8351C5.56105 10.7995 5.61135 10.7995 5.62321 10.8351Z"
    fill="#F5F5F5"/>
  <path
    d="M6.7385 5.79196L6.83009 6.06664L7.11964 6.06885C7.15714 6.06918 7.17265 6.11699 7.14251 6.13925L6.90959 6.31128L6.99697 6.58733C7.00831 6.62305 6.96758 6.65267 6.93706 6.63083L6.70152 6.46246L6.46597 6.63083C6.43546 6.65263 6.39482 6.62305 6.40607 6.58733L6.49344 6.31128L6.26052 6.13925C6.23038 6.11694 6.2459 6.06918 6.2834 6.06885L6.57294 6.06664L6.66453 5.79196C6.67639 5.75643 6.72664 5.75643 6.7385 5.79196Z"
    fill="#F5F5F5"/>
  <path
    d="M6.7385 7.22891L6.83009 7.50359L7.11964 7.50579C7.15714 7.50612 7.17265 7.55393 7.14251 7.5762L6.90959 7.74823L6.99697 8.02427C7.00831 8.05999 6.96758 8.08961 6.93706 8.06777L6.70152 7.8994L6.46597 8.06777C6.43546 8.08957 6.39482 8.06004 6.40607 8.02427L6.49344 7.74823L6.26052 7.5762C6.23038 7.55389 6.2459 7.50612 6.2834 7.50579L6.57294 7.50359L6.66453 7.22891C6.67639 7.19333 6.72664 7.19333 6.7385 7.22891Z"
    fill="#F5F5F5"/>
  <path
    d="M6.7385 8.66581L6.83009 8.9405L7.11964 8.9427C7.15714 8.94303 7.17265 8.99084 7.14251 9.01311L6.90959 9.18514L6.99697 9.46119C7.00831 9.4969 6.96758 9.52653 6.93706 9.50469L6.70152 9.33631L6.46597 9.50469C6.43546 9.52648 6.39482 9.4969 6.40607 9.46119L6.49344 9.18514L6.26052 9.01311C6.23038 8.9908 6.2459 8.94303 6.2834 8.9427L6.57294 8.9405L6.66453 8.66581C6.67639 8.63023 6.72664 8.63023 6.7385 8.66581Z"
    fill="#F5F5F5"/>
  <path
    d="M6.7385 10.1027L6.83009 10.3774L7.11964 10.3796C7.15714 10.3799 7.17265 10.4277 7.14251 10.45L6.90959 10.622L6.99697 10.8981C7.00831 10.9338 6.96758 10.9634 6.93706 10.9416L6.70152 10.7732L6.46597 10.9416C6.43546 10.9634 6.39482 10.9338 6.40607 10.8981L6.49344 10.622L6.26052 10.45C6.23038 10.4277 6.2459 10.3799 6.2834 10.3796L6.57294 10.3774L6.66453 10.1027C6.67639 10.0672 6.72664 10.0672 6.7385 10.1027Z"
    fill="#F5F5F5"/>
  <path
    d="M7.85384 5.08747L7.94544 5.36216L8.23498 5.36436C8.27248 5.36469 8.28799 5.4125 8.25785 5.43477L8.02493 5.6068L8.11231 5.88284C8.12365 5.91856 8.08292 5.94819 8.0524 5.92634L7.81686 5.75797L7.58131 5.92634C7.5508 5.94814 7.51016 5.91856 7.52141 5.88284L7.60878 5.6068L7.37586 5.43477C7.34572 5.41246 7.36124 5.36469 7.39874 5.36436L7.68828 5.36216L7.77987 5.08747C7.79164 5.0519 7.84198 5.0519 7.85384 5.08747Z"
    fill="#F5F5F5"/>
  <path
    d="M7.85384 6.52438L7.94544 6.79907L8.23498 6.80127C8.27248 6.8016 8.28799 6.84941 8.25785 6.87167L8.02493 7.0437L8.11231 7.31975C8.12365 7.35547 8.08292 7.38509 8.0524 7.36325L7.81686 7.19488L7.58131 7.36325C7.5508 7.38505 7.51016 7.35547 7.52141 7.31975L7.60878 7.0437L7.37586 6.87167C7.34572 6.84936 7.36124 6.8016 7.39874 6.80127L7.68828 6.79907L7.77987 6.52438C7.79164 6.48885 7.84198 6.48885 7.85384 6.52438Z"
    fill="#F5F5F5"/>
  <path
    d="M7.85384 7.96128L7.94544 8.23597L8.23498 8.23818C8.27248 8.2385 8.28799 8.28632 8.25785 8.30858L8.02493 8.48062L8.11231 8.75667C8.12365 8.79239 8.08292 8.82201 8.0524 8.80017L7.81686 8.63179L7.58131 8.80017C7.5508 8.82197 7.51016 8.79239 7.52141 8.75667L7.60878 8.48062L7.37586 8.30858C7.34572 8.28627 7.36124 8.2385 7.39874 8.23818L7.68828 8.23597L7.77987 7.96128C7.79164 7.92575 7.84198 7.92575 7.85384 7.96128Z"
    fill="#F5F5F5"/>
  <path
    d="M7.85384 9.39823L7.94544 9.67292L8.23498 9.67512C8.27248 9.67545 8.28799 9.72326 8.25785 9.74553L8.02493 9.91756L8.11231 10.1936C8.12365 10.2293 8.08292 10.2589 8.0524 10.2371L7.81686 10.0687L7.58131 10.2371C7.5508 10.2589 7.51016 10.2293 7.52141 10.1936L7.60878 9.91756L7.37586 9.74553C7.34572 9.72322 7.36124 9.67545 7.39874 9.67512L7.68828 9.67292L7.77987 9.39823C7.79164 9.36265 7.84198 9.36265 7.85384 9.39823Z"
    fill="#F5F5F5"/>
  <path
    d="M7.85384 10.8351L7.94544 11.1098L8.23498 11.112C8.27248 11.1124 8.28799 11.1602 8.25785 11.1824L8.02493 11.3545L8.11231 11.6305C8.12365 11.6662 8.08292 11.6959 8.0524 11.674L7.81686 11.5056L7.58131 11.674C7.5508 11.6958 7.51016 11.6662 7.52141 11.6305L7.60878 11.3545L7.37586 11.1824C7.34572 11.1601 7.36124 11.1124 7.39874 11.112L7.68828 11.1098L7.77987 10.8351C7.79164 10.7995 7.84198 10.7995 7.85384 10.8351Z"
    fill="#F5F5F5"/>
  <path
    d="M8.96913 5.79196L9.06073 6.06664L9.35028 6.06885C9.38778 6.06918 9.40329 6.11699 9.37315 6.13925L9.14023 6.31128L9.2276 6.58733C9.23895 6.62305 9.19821 6.65267 9.1677 6.63083L8.93215 6.46246L8.6966 6.63083C8.66608 6.65263 8.62544 6.62305 8.63669 6.58733L8.72407 6.31128L8.49114 6.13925C8.461 6.11694 8.47652 6.06918 8.51402 6.06885L8.80357 6.06664L8.89516 5.79196C8.90698 5.75643 8.95732 5.75643 8.96913 5.79196Z"
    fill="#F5F5F5"/>
  <path
    d="M8.96913 7.22891L9.06073 7.50359L9.35028 7.50579C9.38778 7.50612 9.40329 7.55393 9.37315 7.5762L9.14023 7.74823L9.2276 8.02427C9.23895 8.05999 9.19821 8.08961 9.1677 8.06777L8.93215 7.8994L8.6966 8.06777C8.66608 8.08957 8.62544 8.06004 8.63669 8.02427L8.72407 7.74823L8.49114 7.5762C8.461 7.55389 8.47652 7.50612 8.51402 7.50579L8.80357 7.50359L8.89516 7.22891C8.90698 7.19333 8.95732 7.19333 8.96913 7.22891Z"
    fill="#F5F5F5"/>
  <path
    d="M8.96913 8.66581L9.06073 8.9405L9.35028 8.9427C9.38778 8.94303 9.40329 8.99084 9.37315 9.01311L9.14023 9.18514L9.2276 9.46119C9.23895 9.4969 9.19821 9.52653 9.1677 9.50469L8.93215 9.33631L8.6966 9.50469C8.66608 9.52648 8.62544 9.4969 8.63669 9.46119L8.72407 9.18514L8.49114 9.01311C8.461 8.9908 8.47652 8.94303 8.51402 8.9427L8.80357 8.9405L8.89516 8.66581C8.90698 8.63023 8.95732 8.63023 8.96913 8.66581Z"
    fill="#F5F5F5"/>
  <path
    d="M8.96913 10.1027L9.06073 10.3774L9.35028 10.3796C9.38778 10.3799 9.40329 10.4277 9.37315 10.45L9.14023 10.622L9.2276 10.8981C9.23895 10.9338 9.19821 10.9634 9.1677 10.9416L8.93215 10.7732L8.6966 10.9416C8.66608 10.9634 8.62544 10.9338 8.63669 10.8981L8.72407 10.622L8.49114 10.45C8.461 10.4277 8.47652 10.3799 8.51402 10.3796L8.80357 10.3774L8.89516 10.1027C8.90698 10.0672 8.95732 10.0672 8.96913 10.1027Z"
    fill="#F5F5F5"/>
  <path
    d="M10.0845 5.08747L10.1761 5.36216L10.4656 5.36436C10.5031 5.36469 10.5186 5.4125 10.4885 5.43477L10.2556 5.6068L10.3429 5.88284C10.3543 5.91856 10.3136 5.94819 10.283 5.92634L10.0475 5.75797L9.81194 5.92634C9.78143 5.94814 9.74078 5.91856 9.75203 5.88284L9.83941 5.6068L9.60648 5.43477C9.57634 5.41246 9.59186 5.36469 9.62936 5.36436L9.91891 5.36216L10.0105 5.08747C10.0223 5.0519 10.0726 5.0519 10.0845 5.08747Z"
    fill="#F5F5F5"/>
  <path
    d="M10.0845 6.52438L10.1761 6.79907L10.4656 6.80127C10.5031 6.8016 10.5186 6.84941 10.4885 6.87167L10.2556 7.0437L10.3429 7.31975C10.3543 7.35547 10.3136 7.38509 10.283 7.36325L10.0475 7.19488L9.81194 7.36325C9.78143 7.38505 9.74078 7.35547 9.75203 7.31975L9.83941 7.0437L9.60648 6.87167C9.57634 6.84936 9.59186 6.8016 9.62936 6.80127L9.91891 6.79907L10.0105 6.52438C10.0223 6.48885 10.0726 6.48885 10.0845 6.52438Z"
    fill="#F5F5F5"/>
  <path
    d="M10.0845 7.96128L10.1761 8.23597L10.4656 8.23818C10.5031 8.2385 10.5186 8.28632 10.4885 8.30858L10.2556 8.48062L10.3429 8.75667C10.3543 8.79239 10.3136 8.82201 10.283 8.80017L10.0475 8.63179L9.81194 8.80017C9.78143 8.82197 9.74078 8.79239 9.75203 8.75667L9.83941 8.48062L9.60648 8.30858C9.57634 8.28627 9.59186 8.2385 9.62936 8.23818L9.91891 8.23597L10.0105 7.96128C10.0223 7.92575 10.0726 7.92575 10.0845 7.96128Z"
    fill="#F5F5F5"/>
  <path
    d="M10.0845 9.39823L10.1761 9.67292L10.4656 9.67512C10.5031 9.67545 10.5186 9.72326 10.4885 9.74553L10.2556 9.91756L10.3429 10.1936C10.3543 10.2293 10.3136 10.2589 10.283 10.2371L10.0475 10.0687L9.81194 10.2371C9.78143 10.2589 9.74078 10.2293 9.75203 10.1936L9.83941 9.91756L9.60648 9.74553C9.57634 9.72322 9.59186 9.67545 9.62936 9.67512L9.91891 9.67292L10.0105 9.39823C10.0223 9.36265 10.0726 9.36265 10.0845 9.39823Z"
    fill="#F5F5F5"/>
  <path
    d="M10.0845 10.8351L10.1761 11.1098L10.4656 11.112C10.5031 11.1124 10.5186 11.1602 10.4885 11.1824L10.2556 11.3545L10.3429 11.6305C10.3543 11.6662 10.3136 11.6959 10.283 11.674L10.0475 11.5056L9.81194 11.674C9.78143 11.6958 9.74078 11.6662 9.75203 11.6305L9.83941 11.3545L9.60648 11.1824C9.57634 11.1601 9.59186 11.1124 9.62936 11.112L9.91891 11.1098L10.0105 10.8351C10.0223 10.7995 10.0726 10.7995 10.0845 10.8351Z"
    fill="#F5F5F5"/>
</svg>
