<svg width="24" height="24" viewBox="0 0 24 24" fill="none" xmlns="http://www.w3.org/2000/svg">
  <path
    d="M21.1906 21.19L2.81062 2.81L1.39062 4.22L3.66062 6.49C2.61063 8.07 2.00063 9.96 2.00063 12C2.00063 17.52 6.48062 22 12.0006 22C14.0406 22 15.9306 21.39 17.5106 20.34L19.7806 22.61L21.1906 21.19ZM10.5906 16.6L6.35063 12.36L7.76063 10.95L10.5906 13.78L10.7706 13.6L12.1806 15.01L10.5906 16.6ZM13.5906 10.76L6.49062 3.66C8.07062 2.61 9.96062 2 12.0006 2C17.5206 2 22.0006 6.48 22.0006 12C22.0006 14.04 21.3906 15.93 20.3406 17.51L15.0006 12.17L17.6506 9.52L16.2406 8.11L13.5906 10.76Z"
    fill="#848B96"/>
</svg>
