<svg width="24" height="24" viewBox="0 0 24 24" fill="none" xmlns="http://www.w3.org/2000/svg">
  <path
    d="M8.67063 5.84055L7.22062 4.39055C8.60063 3.51055 10.2406 3.00055 12.0006 3.00055C14.7406 3.00055 17.1906 4.23055 18.8406 6.16055L21.0006 4.00055V10.0005H15.0006L17.4106 7.59055C16.1206 6.02055 14.1806 5.00055 12.0006 5.00055C10.8006 5.00055 9.66063 5.31055 8.67063 5.84055ZM13.0006 7.00055H11.0006V8.17055L13.0006 10.1705V7.00055ZM19.7806 22.6105L16.7806 19.6105C15.3906 20.4805 13.7606 21.0005 12.0006 21.0005C7.03062 21.0005 3.00063 16.9705 3.00063 12.0005C3.00063 10.2405 3.51062 8.60055 4.39062 7.22055L1.39062 4.22055L2.80062 2.81055L21.1806 21.1905L19.7806 22.6105ZM15.3206 18.1505L5.84063 8.67055C5.31063 9.66055 5.00063 10.8005 5.00063 12.0005C5.00063 15.8605 8.14062 19.0005 12.0006 19.0005C13.2006 19.0005 14.3406 18.6905 15.3206 18.1505ZM20.9406 13.0005H18.9206C18.8006 13.8305 18.5306 14.6105 18.1506 15.3205L19.6206 16.7905C20.3206 15.6705 20.7906 14.3805 20.9406 13.0005Z"
    fill="#848B96"/>
</svg>
