<svg width="24" height="24" viewBox="0 0 24 24" fill="none" xmlns="http://www.w3.org/2000/svg">
  <path
    d="M21.0007 10.12H14.2207L16.9607 7.3C14.2307 4.6 9.81074 4.5 7.08074 7.2C4.35074 9.91 4.35074 14.28 7.08074 16.99C9.81074 19.7 14.2307 19.7 16.9607 16.99C18.3207 15.65 19.0007 14.08 19.0007 12.1H21.0007C21.0007 14.08 20.1207 16.65 18.3607 18.39C14.8507 21.87 9.15074 21.87 5.64074 18.39C2.14074 14.92 2.11074 9.28 5.62074 5.81C9.13074 2.34 14.7607 2.34 18.2707 5.81L21.0007 3V10.12ZM12.5007 8V12.25L16.0007 14.33L15.2807 15.54L11.0007 13V8H12.5007Z"
    fill="#848B96"/>
</svg>
