<svg width="25" height="24" viewBox="0 0 25 24" fill="none" xmlns="http://www.w3.org/2000/svg">
  <path d="M1.5 1.44043H23.5V2.68278H1.5V1.44043Z" fill="#848B96"/>
  <path
    d="M2.79297 20.0764H11.8518V3.92578H2.79297V7.92305L7.94425 9.77544L6.82195 12.5861L7.93756 14.6815L2.79297 18.1864V20.0764Z"
    fill="#848B96"/>
  <path d="M2.79297 9.24902V16.6623L6.27583 14.2894L5.40713 12.6577L6.2691 10.499L2.79297 9.24902Z" fill="#848B96"/>
  <path
    d="M22.2073 3.92578H13.1484V20.0764H22.2073V16.2966L17.0617 12.8198L18.1783 10.7226L17.0543 7.90777L22.2073 6.09398V3.92578Z"
    fill="#848B96"/>
  <path d="M22.2065 14.7761V7.41602L18.7319 8.63907L19.5923 10.7937L18.7246 12.4235L22.2065 14.7761Z" fill="#848B96"/>
  <path d="M1.5 21.3184H23.5V22.5607H1.5V21.3184Z" fill="#848B96"/>
</svg>
