<svg width="24" height="14" viewBox="0 0 24 14" fill="none" xmlns="http://www.w3.org/2000/svg">
  <path fill-rule="evenodd" clip-rule="evenodd"
        d="M22.5221 1.81554L17.3482 6.66608L14.4002 5.6834L10.4887 6.58605L6.20824 5.72996L4.43685 8.09182H1.23075V6.69182H3.73685L5.61763 4.18411L10.4676 5.15411L14.4692 4.23068L16.9994 5.07408L21.5646 0.794189L22.5221 1.81554Z"
        fill="#1890FF"/>
  <path
    d="M4.08665 7.39182H1.23055V20.3808H22.0432V1.30487L17.1736 5.87008L14.4345 4.95704L10.478 5.87008L5.91274 4.95704L4.08665 7.39182Z"
    fill="#65B7F3"/>
  <path fill-rule="evenodd" clip-rule="evenodd"
        d="M23.0611 8.26455L15.1171 13.9842L9.42341 11.2872L5.16618 15.8485L0.75 13.8103L1.33668 12.5392L4.83355 14.1531L9.09806 9.58399L14.9696 12.3653L22.243 7.1284L23.0611 8.26455Z"
        fill="#FB8C00"/>
  <path
    d="M4.99986 15.0008L1.04334 13.1747V20.3813H22.2305L22.652 7.69648L15.0433 13.1747L9.26073 10.4356L4.99986 15.0008Z"
    fill="#FB8C00"/>
</svg>
