<svg width="26" height="26" viewBox="0 0 26 26" fill="none" xmlns="http://www.w3.org/2000/svg">
<path d="M13.0004 0.399902C10.9052 0.399902 8.84309 0.922374 7.00069 1.92003C5.15828 2.91769 3.59373 4.35904 2.44865 6.11362L6.24728 8.59268C6.98013 7.46975 7.98144 6.54728 9.16058 5.90878C10.3397 5.27028 11.6595 4.9359 13.0004 4.9359V0.399902Z" fill="#FB8C00"/>
<path d="M25.4535 11.0814C25.0206 8.2714 23.65 5.69044 21.5646 3.75796C19.4793 1.82548 16.8016 0.655096 13.9668 0.437022L13.6189 4.95966C15.4332 5.09923 17.1469 5.84827 18.4815 7.08506C19.8162 8.32185 20.6933 9.97366 20.9704 11.772L25.4535 11.0814Z" fill="#3185DC"/>
<path d="M2.19774 6.51432C1.34604 7.93294 0.782103 9.50543 0.53812 11.142C0.294137 12.7786 0.374889 14.4472 0.775766 16.0525L5.17663 14.9536C4.92007 13.9262 4.86839 12.8582 5.02454 11.8108C5.18069 10.7634 5.54161 9.75705 6.0867 8.84913L2.19774 6.51432Z" fill="#26E170"/>
<path d="M0.935006 16.6312C1.44084 18.3119 2.29221 19.8683 3.43457 21.2008C4.57693 22.5333 5.98507 23.6124 7.56875 24.369L9.52414 20.2761C8.51058 19.7919 7.60937 19.1013 6.87826 18.2485C6.14716 17.3957 5.60228 16.3996 5.27854 15.3239L0.935006 16.6312Z" fill="#7F39FB"/>
<path d="M6.67134 23.895C8.45017 24.9283 10.455 25.5104 12.5106 25.5904C14.5662 25.6703 16.6102 25.2458 18.4639 24.3537L16.4971 20.2664C15.3107 20.8373 14.0025 21.109 12.6869 21.0578C11.3713 21.0066 10.0882 20.6341 8.94979 19.9728L6.67134 23.895Z" fill="#7F39FB"/>
<path d="M19.0398 24.0582C21.5241 22.7014 23.4792 20.5476 24.5899 17.944C25.7006 15.3404 25.9022 12.4386 25.1623 9.70635L20.784 10.892C21.2576 12.6407 21.1285 14.4978 20.4177 16.1641C19.7068 17.8304 18.4556 19.2089 16.8656 20.0772L19.0398 24.0582Z" fill="#3185DC"/>
</svg>
