<svg width="20" height="23" viewBox="0 0 20 23" fill="none" xmlns="http://www.w3.org/2000/svg">
  <path
    d="M17.8501 -0.000366211C18.6233 -0.000366211 19.2501 0.626435 19.2501 1.39963V2.09963C19.2501 2.87283 18.6233 3.49963 17.8501 3.49963H0.250098V-0.000366211H17.8501Z"
    fill="#1890FF"/>
  <path
    d="M13.8504 -0.000366211C14.6236 -0.000366211 15.2504 0.626435 15.2504 1.39963V2.09963C15.2504 2.87283 14.6236 3.49963 13.8504 3.49963H0.250098V-0.000366211H13.8504Z"
    fill="#FFE0B2"/>
  <path
    d="M9.85 -0.000366211C10.6232 -0.000366211 11.25 0.626435 11.25 1.39963V2.09963C11.25 2.87283 10.6232 3.49963 9.85 3.49963H0.250098V-0.000366211H9.85Z"
    fill="#FB8C00"/>
  <path
    d="M9.85 6.00022C10.6232 6.00022 11.25 6.62702 11.25 7.40022V8.60022C11.25 9.37342 10.6232 10.0002 9.85 10.0002H0.25V6.00022H9.85Z"
    fill="#1890FF"/>
  <path
    d="M6.85039 6.00022C7.62359 6.00022 8.25039 6.62702 8.25039 7.40022V8.60022C8.25039 9.37342 7.62359 10.0002 6.85039 10.0002H0.25V6.00022H6.85039Z"
    fill="#FFE0B2"/>
  <path
    d="M3.8501 6.00022C4.6233 6.00022 5.2501 6.62702 5.2501 7.40022V8.60022C5.2501 9.37342 4.6233 10.0002 3.8501 10.0002H0.25V6.00022H3.8501Z"
    fill="#FB8C00"/>
  <path
    d="M13.8504 12.4998C14.6236 12.4998 15.2504 13.1266 15.2504 13.8998V15.0998C15.2504 15.873 14.6236 16.4998 13.8504 16.4998H0.250391V12.4998H13.8504Z"
    fill="#1890FF"/>
  <path
    d="M10.3504 12.4998C11.1236 12.4998 11.7504 13.1266 11.7504 13.8998V15.0998C11.7504 15.873 11.1236 16.4998 10.3504 16.4998H0.250391V12.4998H10.3504Z"
    fill="#FFE0B2"/>
  <path
    d="M6.85039 12.4998C7.62359 12.4998 8.25039 13.1266 8.25039 13.8998V15.0998C8.25039 15.873 7.62359 16.4998 6.85039 16.4998H0.250391V12.4998H6.85039Z"
    fill="#FB8C00"/>
  <path
    d="M7.35016 18.9996C8.12336 18.9996 8.75016 19.6264 8.75016 20.3996V21.0996C8.75016 21.8728 8.12336 22.4996 7.35016 22.4996H0.250161V18.9996H7.35016Z"
    fill="#1890FF"/>
  <path
    d="M4.35055 18.9996C5.12375 18.9996 5.75055 19.6264 5.75055 20.3996V21.0996C5.75055 21.8728 5.12375 22.4996 4.35055 22.4996H0.250161V18.9996H4.35055Z"
    fill="#FFE0B2"/>
  <path
    d="M1.35026 18.9996C2.12346 18.9996 2.75027 19.6264 2.75027 20.3996V21.0996C2.75027 21.8728 2.12346 22.4996 1.35027 22.4996H0.250161V18.9996H1.35026Z"
    fill="#FB8C00"/>
</svg>
