<svg width="23" height="23" viewBox="0 0 23 23" fill="none" xmlns="http://www.w3.org/2000/svg">
<path d="M0 1.39951C0 0.626314 0.626801 -0.000488281 1.4 -0.000488281H2.1C2.8732 -0.000488281 3.5 0.626313 3.5 1.39951V22.4995H0V1.39951Z" fill="#1890FF"/>
<path d="M0 3.9001C0 3.1269 0.626801 2.5001 1.4 2.5001H2.1C2.8732 2.5001 3.5 3.1269 3.5 3.9001V22.4995H0V3.9001Z" fill="#FFE0B2"/>
<path d="M0 9.40029C0 8.62709 0.626801 8.00029 1.4 8.00029H2.1C2.8732 8.00029 3.5 8.62709 3.5 9.40029V22.4995H0V9.40029Z" fill="#FB8C00"/>
<path d="M5.9999 1.39951C5.9999 0.626314 6.6267 -0.000488281 7.3999 -0.000488281H8.5999C9.3731 -0.000488281 9.9999 0.626313 9.9999 1.39951V22.4995H5.9999V1.39951Z" fill="#1890FF"/>
<path d="M5.9999 13.3993C5.9999 12.6261 6.6267 11.9993 7.3999 11.9993H8.5999C9.3731 11.9993 9.9999 12.6261 9.9999 13.3993V22.4995H5.9999V13.3993Z" fill="#FFE0B2"/>
<path d="M5.9999 17.3997C5.9999 16.6265 6.6267 15.9997 7.3999 15.9997H8.5999C9.3731 15.9997 9.9999 16.6265 9.9999 17.3997V22.4995H5.9999V17.3997Z" fill="#FB8C00"/>
<path d="M12.4995 1.39951C12.4995 0.626314 13.1263 -0.000488281 13.8995 -0.000488281H15.0995C15.8727 -0.000488281 16.4995 0.626313 16.4995 1.39951V22.4995H12.4995V1.39951Z" fill="#1890FF"/>
<path d="M12.4995 8.39951C12.4995 7.62631 13.1263 6.99951 13.8995 6.99951H15.0995C15.8727 6.99951 16.4995 7.62631 16.4995 8.39951V22.4995H12.4995V8.39951Z" fill="#FFE0B2"/>
<path d="M12.4995 13.3993C12.4995 12.6261 13.1263 11.9993 13.8995 11.9993H15.0995C15.8727 11.9993 16.4995 12.6261 16.4995 13.3993V22.4995H12.4995V13.3993Z" fill="#FB8C00"/>
<path d="M18.9998 1.39951C18.9998 0.626314 19.6266 -0.000488281 20.3998 -0.000488281H21.0998C21.873 -0.000488281 22.4998 0.626313 22.4998 1.39951V22.4995H18.9998V1.39951Z" fill="#1890FF"/>
<path d="M18.9998 16.4003C18.9998 15.6271 19.6266 15.0003 20.3998 15.0003H21.0998C21.873 15.0003 22.4998 15.6271 22.4998 16.4003V22.4995H18.9998V16.4003Z" fill="#FFE0B2"/>
<path d="M18.9998 20.3993C18.9998 19.6261 19.6266 18.9993 20.3998 18.9993H21.0998C21.873 18.9993 22.4998 19.6261 22.4998 20.3993V22.4995H18.9998V20.3993Z" fill="#FB8C00"/>
</svg>
