<svg width="23" height="20" viewBox="0 0 23 20" fill="none" xmlns="http://www.w3.org/2000/svg">
<path d="M0 1.89951C0 1.12631 0.626801 0.499512 1.4 0.499512H2.1C2.8732 0.499512 3.5 1.12631 3.5 1.89951V19.4995H0V1.89951Z" fill="#1890FF"/>
<path d="M0 5.8999C0 5.1267 0.626801 4.4999 1.4 4.4999H2.1C2.8732 4.4999 3.5 5.1267 3.5 5.8999V19.4995H0V5.8999Z" fill="#FFE0B2"/>
<path d="M0 9.90029C0 9.12709 0.626801 8.50029 1.4 8.50029H2.1C2.8732 8.50029 3.5 9.12709 3.5 9.90029V19.4995H0V9.90029Z" fill="#FB8C00"/>
<path d="M5.9999 9.90029C5.9999 9.12709 6.6267 8.50029 7.3999 8.50029H8.5999C9.3731 8.50029 9.9999 9.12709 9.9999 9.90029V19.5003H5.9999V9.90029Z" fill="#1890FF"/>
<path d="M5.9999 12.8999C5.9999 12.1267 6.6267 11.4999 7.3999 11.4999H8.5999C9.3731 11.4999 9.9999 12.1267 9.9999 12.8999V19.5003H5.9999V12.8999Z" fill="#FFE0B2"/>
<path d="M5.9999 15.8995C5.9999 15.1263 6.6267 14.4995 7.3999 14.4995H8.5999C9.3731 14.4995 9.9999 15.1263 9.9999 15.8995V19.5003H5.9999V15.8995Z" fill="#FB8C00"/>
<path d="M12.4995 5.8999C12.4995 5.1267 13.1263 4.4999 13.8995 4.4999H15.0995C15.8727 4.4999 16.4995 5.1267 16.4995 5.8999V19.4999H12.4995V5.8999Z" fill="#1890FF"/>
<path d="M12.4995 9.3999C12.4995 8.6267 13.1263 7.9999 13.8995 7.9999H15.0995C15.8727 7.9999 16.4995 8.6267 16.4995 9.3999V19.4999H12.4995V9.3999Z" fill="#FFE0B2"/>
<path d="M12.4995 12.8999C12.4995 12.1267 13.1263 11.4999 13.8995 11.4999H15.0995C15.8727 11.4999 16.4995 12.1267 16.4995 12.8999V19.4999H12.4995V12.8999Z" fill="#FB8C00"/>
<path d="M18.9998 12.3995C18.9998 11.6263 19.6266 10.9995 20.3998 10.9995H21.0998C21.873 10.9995 22.4998 11.6263 22.4998 12.3995V19.4995H18.9998V12.3995Z" fill="#1890FF"/>
<path d="M18.9998 15.4005C18.9998 14.6273 19.6266 14.0005 20.3998 14.0005H21.0998C21.873 14.0005 22.4998 14.6273 22.4998 15.4005V19.4995H18.9998V15.4005Z" fill="#FFE0B2"/>
<path d="M18.9998 18.4001C18.9998 17.6269 19.6266 17.0001 20.3998 17.0001H21.0998C21.873 17.0001 22.4998 17.6269 22.4998 18.4001V19.4995H18.9998V18.4001Z" fill="#FB8C00"/>
</svg>
