<svg width="26" height="23" viewBox="0 0 26 23" fill="none" xmlns="http://www.w3.org/2000/svg">
  <path fill-rule="evenodd" clip-rule="evenodd"
        d="M25.0598 1.36495L16.1885 10.2363L9.84154 7.21392L5.31843 12.6417L1.21301 11.2732L1.65572 9.94503L4.85464 11.0113L9.46197 5.48255L15.8977 8.54716L24.0698 0.375L25.0598 1.36495Z"
        fill="#1890FF"/>
  <path
    d="M5.08722 11.8265L1.43505 10.6091V22.9196H24.5655L25.385 0.869975H24.5655L16.0437 9.39171L9.65244 6.34824L5.08722 11.8265Z"
    fill="#65B7F3"/>
  <path fill-rule="evenodd" clip-rule="evenodd"
        d="M0.207031 3.02352L1.4449 2.36955L9.4101 17.4465L12.9243 12.04H21.7701L24.6042 8.07228L25.7434 8.88601L22.4905 13.44H13.6841L9.28531 20.2074L0.207031 3.02352Z"
        fill="#1890FF"/>
  <path d="M9.3477 18.827L0.825967 2.69654V22.9199H24.8464L25.1738 8.47915L22.1303 12.74H13.3042L9.3477 18.827Z"
        fill="#65B7F3"/>
</svg>
