<svg width="23" height="23" viewBox="0 0 23 23" fill="none" xmlns="http://www.w3.org/2000/svg">
<path d="M21.1001 -0.000488281C21.8733 -0.000488281 22.5001 0.626313 22.5001 1.39951V2.09951C22.5001 2.87271 21.8733 3.49951 21.1001 3.49951H0.000124887V-0.000488281H21.1001Z" fill="#1890FF"/>
<path d="M18.6002 -0.000488281C19.3734 -0.000488281 20.0002 0.626313 20.0002 1.39951V2.09951C20.0002 2.87271 19.3734 3.49951 18.6002 3.49951H0.000124887V-0.000488281H18.6002Z" fill="#FFE0B2"/>
<path d="M13.1 -0.000413308C13.8732 -0.000413308 14.5 0.626388 14.5 1.39959V2.09959C14.5 2.87279 13.8732 3.49959 13.1 3.49959L0.000124887 3.49951V-0.000488281L13.1 -0.000413308Z" fill="#FB8C00"/>
<path d="M21.1001 6.0001C21.8733 6.0001 22.5001 6.6269 22.5001 7.4001V8.6001C22.5001 9.37329 21.8733 10.0001 21.1001 10.0001H0.000124887V6.0001H21.1001Z" fill="#1890FF"/>
<path d="M9.09964 6.0001C9.87284 6.0001 10.4996 6.6269 10.4996 7.4001V8.6001C10.4996 9.37329 9.87284 10.0001 9.09964 10.0001H0.000124887V6.0001H9.09964Z" fill="#FFE0B2"/>
<path d="M5.09993 6.0001C5.87313 6.0001 6.49993 6.6269 6.49993 7.4001V8.6001C6.49993 9.37329 5.87313 10.0001 5.09993 10.0001H0.000124887V6.0001H5.09993Z" fill="#FB8C00"/>
<path d="M21.1001 12.4997C21.8733 12.4997 22.5001 13.1265 22.5001 13.8997V15.0997C22.5001 15.8729 21.8733 16.4997 21.1001 16.4997H0.000124887V12.4997H21.1001Z" fill="#1890FF"/>
<path d="M14.1001 12.4997C14.8733 12.4997 15.5001 13.1265 15.5001 13.8997V15.0997C15.5001 15.8729 14.8733 16.4997 14.1001 16.4997H0.000124887V12.4997H14.1001Z" fill="#FFE0B2"/>
<path d="M9.09964 12.4997C9.87284 12.4997 10.4996 13.1265 10.4996 13.8997V15.0997C10.4996 15.8729 9.87284 16.4997 9.09964 16.4997H0.000124887V12.4997H9.09964Z" fill="#FB8C00"/>
<path d="M21.1 18.9994C21.8732 18.9994 22.5 19.6262 22.5 20.3994V21.0994C22.5 21.8726 21.8732 22.4994 21.1 22.4994H0V18.9994H21.1Z" fill="#1890FF"/>
<path d="M6.09985 18.9994C6.87305 18.9994 7.49985 19.6262 7.49985 20.3994V21.0994C7.49985 21.8726 6.87305 22.4994 6.09985 22.4994H0V18.9994L6.09985 18.9994Z" fill="#FFE0B2"/>
<path d="M2.09951 18.9994C2.87271 18.9994 3.49951 19.6262 3.49951 20.3994V21.0994C3.49951 21.8726 2.87271 22.4994 2.09951 22.4994H0V18.9994H2.09951Z" fill="#FB8C00"/>
</svg>
