<svg width="24" height="19" viewBox="0 0 24 19" fill="none" xmlns="http://www.w3.org/2000/svg">
<path d="M0.800781 1.94109C0.800781 1.20048 1.4248 0.600098 2.19457 0.600098H2.89147C3.66123 0.600098 4.28526 1.20048 4.28526 1.94109V18.7993H0.800781V1.94109Z" fill="#1890FF"/>
<path d="M6.77407 9.60469C6.77407 8.86407 7.39809 8.26369 8.16786 8.26369H9.36253C10.1323 8.26369 10.7563 8.86407 10.7563 9.60469V18.8001H6.77407V9.60469Z" fill="#1890FF"/>
<path d="M13.2448 5.77289C13.2448 5.03228 13.8689 4.43189 14.6386 4.43189H15.8333C16.6031 4.43189 17.2271 5.03228 17.2271 5.77289V18.7997H13.2448V5.77289Z" fill="#1890FF"/>
<path d="M19.7163 11.9986C19.7163 11.258 20.3403 10.6576 21.1101 10.6576H21.807C22.5768 10.6576 23.2008 11.258 23.2008 11.9986V18.7993H19.7163V11.9986Z" fill="#1890FF"/>
</svg>
