<svg width="26" height="18" viewBox="0 0 26 18" fill="none" xmlns="http://www.w3.org/2000/svg">
<path fill-rule="evenodd" clip-rule="evenodd" d="M19.7914 8.85051C18.7031 9.70072 17.4303 10.3238 16.0358 10.3084C14.4466 10.2908 13.3596 9.29514 12.5224 8.52821C12.4651 8.47575 12.409 8.42436 12.354 8.37443C11.4195 7.52624 10.7648 7.04055 9.80015 7.24914C9.34708 7.34712 9.03612 7.60558 8.76919 8.01914C8.48754 8.45551 8.29039 9.00695 8.05919 9.6536L8.0493 9.68126C7.82921 10.2968 7.5704 11.0186 7.15612 11.5912C6.71254 12.2043 6.0752 12.67 5.1401 12.7412C4.20608 12.8123 3.15604 12.4426 2.41733 12.1182C2.03164 11.9489 1.69719 11.7765 1.45911 11.6464C1.33972 11.5812 1.24369 11.5262 1.17657 11.4869C1.14298 11.4672 1.11658 11.4515 1.09804 11.4403L1.0762 11.4271L1.06985 11.4232L1.06785 11.4219C1.06785 11.4219 1.06664 11.4212 1.43481 10.8258C1.80298 10.2305 1.8028 10.2304 1.8028 10.2304L1.80586 10.2322L1.82067 10.2412C1.8344 10.2495 1.85572 10.2622 1.88394 10.2787C1.94042 10.3118 2.02431 10.3599 2.1302 10.4177C2.34266 10.5338 2.64018 10.6871 2.98015 10.8364C3.69276 11.1492 4.46881 11.3882 5.03386 11.3452C5.48718 11.3107 5.77446 11.1125 6.02188 10.7705C6.29861 10.3881 6.49718 9.86394 6.73104 9.20989C6.74219 9.17871 6.75342 9.14722 6.76476 9.11545C6.97557 8.52451 7.22128 7.83574 7.59292 7.25994C8.00327 6.62416 8.59634 6.0771 9.50424 5.88077C11.2417 5.50505 12.4004 6.5258 13.295 7.33778C13.3193 7.35985 13.3434 7.3818 13.3675 7.40361C14.3011 8.25165 15.0115 8.89697 16.0512 8.90848C17.0098 8.91908 17.9788 8.48999 18.9295 7.74726C19.8772 7.00686 20.751 5.99744 21.5016 4.95746C22.2492 3.92145 22.8571 2.87961 23.2788 2.09434C23.4893 1.70253 23.6523 1.3766 23.7621 1.14981C23.817 1.03647 23.8586 0.94802 23.8861 0.888646L23.9167 0.821954L23.924 0.805969L23.9255 0.80249C23.9255 0.80249 23.9257 0.802086 24.5652 1.0867C25.2048 1.3713 25.2046 1.37169 25.2046 1.37169L25.2036 1.37402L25.2009 1.37985L25.1916 1.40062L25.1564 1.4773C25.1257 1.54349 25.0807 1.63919 25.0221 1.76019C24.9049 2.00208 24.733 2.34557 24.5122 2.75674C24.0715 3.57743 23.4313 4.67579 22.6368 5.77673C21.8452 6.87369 20.8827 7.99796 19.7914 8.85051Z" fill="#1890FF"/>
<path fill-rule="evenodd" clip-rule="evenodd" d="M0.169922 3.15621C0.169922 3.15621 0.169813 3.15591 0.826409 2.91326L1.48301 2.67063L1.48636 2.67965L1.49712 2.70854L1.54021 2.82324C1.57832 2.92416 1.63487 3.07282 1.70816 3.26238C1.85477 3.64156 2.06825 4.18412 2.33495 4.83553C2.86883 6.13953 3.61377 7.87428 4.46065 9.60569C5.31048 11.3431 6.25007 13.0503 7.17011 14.3137C7.63106 14.9466 8.06853 15.4421 8.46748 15.7727C8.87816 16.1131 9.16859 16.2133 9.34815 16.2133C9.91722 16.2133 10.2511 16.0655 10.4882 15.883C10.7499 15.6816 10.9464 15.4003 11.1898 15.0166C11.2092 14.9859 11.2292 14.9541 11.2497 14.9215C11.462 14.5842 11.7318 14.1556 12.1062 13.8224C12.5557 13.4224 13.134 13.1698 13.9134 13.1698C14.6164 13.1698 15.0274 13.0567 15.3041 12.9095C15.5792 12.7633 15.7889 12.5487 16.0394 12.2108C16.1274 12.0921 16.2184 11.96 16.3169 11.817C16.7836 11.1393 17.418 10.2182 18.6886 9.33786C19.2091 8.97729 19.8929 8.73053 20.5715 8.55423C21.2617 8.37493 22.0033 8.25448 22.677 8.17293C23.3526 8.09113 23.9724 8.04702 24.4227 8.02329C24.6482 8.0114 24.8322 8.00459 24.9606 8.00073C25.0248 7.9988 25.0752 7.99761 25.11 7.99689L25.1502 7.99615L25.1612 7.99598L25.1643 7.99594C25.1643 7.99594 25.1658 7.99592 25.1742 8.69587L25.1828 9.39581L25.1809 9.39584L25.1729 9.39596L25.1387 9.3966C25.1081 9.39722 25.0622 9.39831 25.0027 9.40009C24.8835 9.40368 24.7101 9.41008 24.4964 9.42135C24.068 9.44392 23.4811 9.4858 22.8452 9.56278C22.2073 9.64001 21.5322 9.75112 20.9235 9.90926C20.3032 10.0704 19.8059 10.2669 19.4859 10.4887C18.442 11.2119 17.9607 11.9062 17.4999 12.5709C17.3893 12.7305 17.2799 12.8884 17.1641 13.0445C16.8632 13.4504 16.5047 13.8568 15.9614 14.1457C15.4197 14.4337 14.7622 14.5698 13.9134 14.5698C13.4754 14.5698 13.2287 14.6976 13.0369 14.8682C12.8173 15.0637 12.6502 15.3274 12.4091 15.708C12.3969 15.7272 12.3846 15.7466 12.372 15.7664C12.1328 16.1436 11.8217 16.6232 11.3421 16.9924C10.8379 17.3806 10.1966 17.6133 9.34815 17.6133C8.69075 17.6133 8.08716 17.2759 7.57409 16.8506C7.04931 16.4157 6.53331 15.8174 6.03841 15.1378C5.04677 13.7762 4.06516 11.9834 3.20303 10.2208C2.33796 8.45224 1.58018 6.68699 1.03933 5.36598C0.76867 4.70489 0.551784 4.1537 0.402367 3.76726C0.327649 3.57401 0.269772 3.42188 0.230449 3.31773L0.185583 3.1983L0.173981 3.16716L0.169922 3.15621Z" fill="#FB8C00"/>
</svg>
