<svg width="24" height="24" viewBox="0 0 24 24" fill="none" xmlns="http://www.w3.org/2000/svg">
<path d="M16.5782 9.71398V9.00981C16.5782 4.83605 13.1826 1.44043 9.00883 1.44043C4.83507 1.44043 1.43945 4.83605 1.43945 9.00981C1.43945 12.3513 2.55679 13.965 3.37259 15.1433C3.85472 15.8396 4.20308 16.3427 4.20308 16.9917V21.9416C4.20308 22.2834 4.48011 22.5604 4.82183 22.5604H12.4944C12.8361 22.5604 13.1132 22.2834 13.1132 21.9416V20.7044H15.9594C16.3011 20.7044 16.5782 20.4274 16.5782 20.0856V18.2293C16.5782 18.0232 16.4755 17.8306 16.3044 17.7157C16.1181 17.5906 15.7532 17.2387 15.7532 16.9918C15.7532 16.766 16.0747 16.4254 16.3044 16.2679C16.4755 16.153 16.5782 15.9604 16.5782 15.7543V14.5167H17.6096C17.8155 14.5167 18.0079 14.4143 18.1228 14.2434C18.2378 14.0727 18.2603 13.8559 18.1828 13.6651L16.5782 9.71398Z" fill="#848B96"/>
<path d="M22.0974 14.6245C21.9699 14.3074 21.6095 14.1537 21.2925 14.2811C20.9754 14.4086 20.8217 14.769 20.9491 15.086C21.1968 15.702 21.3223 16.3512 21.3223 17.0158C21.3223 17.6803 21.1968 18.3295 20.9491 18.9455C20.8217 19.2626 20.9754 19.6229 21.2925 19.7504C21.3681 19.7808 21.4462 19.7952 21.523 19.7952C21.7682 19.7952 22.0003 19.6485 22.0974 19.4071C22.4042 18.6437 22.5598 17.8391 22.5598 17.0158C22.5598 16.1924 22.4042 15.3879 22.0974 14.6245Z" fill="#848B96"/>
<path d="M18.9956 15.205C18.6785 15.3324 18.5248 15.6928 18.6522 16.0098C18.7814 16.3311 18.8469 16.6698 18.8469 17.0166C18.8469 17.3633 18.7814 17.7021 18.6522 18.0233C18.5248 18.3404 18.6785 18.7007 18.9956 18.8282C19.0713 18.8586 19.1493 18.873 19.2262 18.873C19.4713 18.873 19.7034 18.7263 19.8005 18.4848C19.9888 18.0162 20.0844 17.5222 20.0844 17.0166C20.0844 16.511 19.9889 16.017 19.8005 15.5483C19.6731 15.2312 19.3126 15.0775 18.9956 15.205Z" fill="#848B96"/>
</svg>
