<svg width="24" height="24" viewBox="0 0 24 24" fill="none" xmlns="http://www.w3.org/2000/svg">
  <path
    d="M20.0303 3.96959C19.8896 3.82899 19.6989 3.75 19.5 3.75C19.3012 3.75 19.1104 3.82899 18.9698 3.96959L16.5893 6.35009C15.1587 5.65116 13.592 5.27554 12 5.24984C5.90553 5.24984 1.11078 11.2806 0.909778 11.5371C0.806258 11.6691 0.75 11.8321 0.75 11.9998C0.75 12.1676 0.806258 12.3306 0.909778 12.4626C2.36054 14.2159 4.08927 15.7191 6.02703 16.9123L3.96978 18.9696C3.89814 19.0388 3.84101 19.1215 3.8017 19.213C3.76239 19.3045 3.74171 19.403 3.74084 19.5025C3.73997 19.6021 3.75895 19.7009 3.79666 19.7931C3.83437 19.8852 3.89006 19.969 3.96048 20.0394C4.0309 20.1098 4.11464 20.1655 4.20681 20.2032C4.29898 20.2409 4.39774 20.2599 4.49733 20.259C4.59691 20.2582 4.69533 20.2375 4.78683 20.1982C4.87833 20.1589 4.96109 20.1017 5.03028 20.0301L20.0303 5.03009C20.1709 4.88944 20.2499 4.69871 20.2499 4.49984C20.2499 4.30097 20.1709 4.11024 20.0303 3.96959ZM8.25003 11.9998C8.25122 11.0056 8.64669 10.0525 9.34969 9.3495C10.0527 8.6465 11.0058 8.25103 12 8.24984C12.7313 8.25502 13.4443 8.47858 14.0475 8.89184L8.89203 14.0473C8.47877 13.4441 8.25521 12.7311 8.25003 11.9998Z"
    fill="#848B96"/>
  <path
    d="M23.0898 11.5377C21.9678 10.1781 20.6786 8.96551 19.2528 7.92871L15.6971 11.4845C15.7268 11.655 15.7443 11.8274 15.7496 12.0005C15.7484 12.9947 15.3529 13.9478 14.6499 14.6508C13.9469 15.3538 12.9938 15.7493 11.9996 15.7505C11.8266 15.7452 11.6541 15.7276 11.4836 15.698L8.93359 18.2479C9.92374 18.5718 10.9579 18.7413 11.9996 18.7504C18.0941 18.7504 22.8888 12.7197 23.0898 12.4632C23.1934 12.3312 23.2496 12.1682 23.2496 12.0005C23.2496 11.8327 23.1934 11.6697 23.0898 11.5377Z"
    fill="#848B96"/>
</svg>
