<svg width="24" height="24" viewBox="0 0 24 24" fill="none" xmlns="http://www.w3.org/2000/svg">
<path d="M7.81261 16.2176L9.57605 15.6572C10.3258 16.1497 11.2035 16.4116 12.1005 16.4104C14.6308 16.4104 16.6896 14.3678 16.6896 11.8571C16.6896 9.34648 14.631 7.30371 12.1008 7.30371C9.57056 7.30371 7.51172 9.34648 7.51172 11.8571C7.51114 12.8174 7.81739 13.7528 8.3858 14.5268L7.81261 16.2176ZM9.90619 9.55043C9.95111 9.49977 10.006 9.4589 10.0673 9.43033C10.1287 9.40177 10.1953 9.38614 10.263 9.3844C10.3523 9.3844 10.4414 9.39551 10.5195 9.39551C10.5976 9.39551 10.7089 9.35126 10.8204 9.61695C10.932 9.88263 11.1996 10.536 11.2329 10.6023C11.2541 10.637 11.2663 10.6766 11.2682 10.7172C11.2702 10.7579 11.2618 10.7983 11.244 10.8349C11.2103 10.9148 11.1653 10.9894 11.1104 11.0565C11.0434 11.1338 10.9697 11.2292 10.9095 11.2889C10.8427 11.355 10.7729 11.4268 10.851 11.5596C11.0521 11.9012 11.303 12.2111 11.5952 12.4789C12.1062 12.9312 12.5374 13.0714 12.6712 13.1377C12.8049 13.204 12.8829 13.193 12.9609 13.1043C13.039 13.0156 13.2956 12.7172 13.3846 12.584C13.4736 12.4508 13.563 12.4735 13.6859 12.5178C13.8087 12.5621 14.4663 12.8831 14.6002 12.9495C14.734 13.0158 14.823 13.0491 14.8566 13.1042C14.8902 13.1592 14.8898 13.4255 14.7784 13.7354C14.667 14.0454 14.1204 14.3445 13.8754 14.3664C13.6305 14.3884 13.6301 14.5659 12.2695 14.0346C10.909 13.5033 10.0511 12.1188 9.98428 12.0304C9.91749 11.9421 9.438 11.3108 9.438 10.6575C9.438 10.0041 9.78366 9.68337 9.90619 9.55043Z" fill="#848B96"/>
<path d="M12 22.0781C17.566 22.0781 22.0781 17.566 22.0781 12C22.0781 6.43402 17.566 1.92188 12 1.92188C6.43402 1.92188 1.92188 6.43402 1.92188 12C1.92188 17.566 6.43402 22.0781 12 22.0781ZM6.64284 11.8569C6.64284 8.86566 9.08648 6.44091 12.101 6.44091C15.1155 6.44091 17.5591 8.86566 17.5591 11.8569C17.5591 14.8481 15.1155 17.2727 12.1011 17.2727C11.1789 17.2742 10.2713 17.0424 9.4627 16.5989L6.44091 17.5591L7.42589 14.6531C6.91259 13.8108 6.64164 12.8433 6.64284 11.8569Z" fill="#848B96"/>
</svg>
