<svg width="24" height="24" viewBox="0 0 24 24" fill="none" xmlns="http://www.w3.org/2000/svg">
<path d="M1.67383 2.77246H5.13883V16.6429H1.67383V2.77246Z" fill="#848B96"/>
<path d="M22.7945 10.895C22.7945 10.074 22.3172 9.36281 21.6256 9.0233C21.8094 8.71296 21.9155 8.35122 21.9155 7.96498C21.9155 7.07537 21.3549 6.3145 20.5684 6.01624C20.7253 5.72362 20.8146 5.38943 20.8146 5.03494C20.8146 3.8859 19.8799 2.95117 18.7308 2.95117H9.28427L6.37695 4.04784V15.4615H7.52954L11.4165 19.9583L11.7506 21.7986C11.8563 22.3804 12.3621 22.8027 12.9536 22.8027H13.6685C15.0451 22.8027 16.1651 21.6827 16.1651 20.3061C16.1651 19.4409 15.9987 18.5965 15.6703 17.796L14.9284 15.9088H20.0855C21.2345 15.9088 22.1694 14.9741 22.1694 13.8251C22.1694 13.3947 22.0381 12.9943 21.8136 12.6618C22.4021 12.2932 22.7945 11.6391 22.7945 10.895Z" fill="#848B96"/>
</svg>
